%TF.GenerationSoftware,KiCad,Pcbnew,7.0.9*%
%TF.CreationDate,2024-04-08T22:34:53+02:00*%
%TF.ProjectId,ElectronicBLETarget,456c6563-7472-46f6-9e69-63424c455461,rev?*%
%TF.SameCoordinates,PX29f6300PY5a995c0*%
%TF.FileFunction,Copper,L3,Inr*%
%TF.FilePolarity,Positive*%
%FSLAX46Y46*%
G04 Gerber Fmt 4.6, Leading zero omitted, Abs format (unit mm)*
G04 Created by KiCad (PCBNEW 7.0.9) date 2024-04-08 22:34:53*
%MOMM*%
%LPD*%
G01*
G04 APERTURE LIST*
G04 Aperture macros list*
%AMRoundRect*
0 Rectangle with rounded corners*
0 $1 Rounding radius*
0 $2 $3 $4 $5 $6 $7 $8 $9 X,Y pos of 4 corners*
0 Add a 4 corners polygon primitive as box body*
4,1,4,$2,$3,$4,$5,$6,$7,$8,$9,$2,$3,0*
0 Add four circle primitives for the rounded corners*
1,1,$1+$1,$2,$3*
1,1,$1+$1,$4,$5*
1,1,$1+$1,$6,$7*
1,1,$1+$1,$8,$9*
0 Add four rect primitives between the rounded corners*
20,1,$1+$1,$2,$3,$4,$5,0*
20,1,$1+$1,$4,$5,$6,$7,0*
20,1,$1+$1,$6,$7,$8,$9,0*
20,1,$1+$1,$8,$9,$2,$3,0*%
G04 Aperture macros list end*
%TA.AperFunction,ComponentPad*%
%ADD10C,6.400000*%
%TD*%
%TA.AperFunction,ComponentPad*%
%ADD11O,1.000000X2.100000*%
%TD*%
%TA.AperFunction,ComponentPad*%
%ADD12O,1.000000X1.800000*%
%TD*%
%TA.AperFunction,ComponentPad*%
%ADD13RoundRect,0.250000X0.725000X-0.600000X0.725000X0.600000X-0.725000X0.600000X-0.725000X-0.600000X0*%
%TD*%
%TA.AperFunction,ComponentPad*%
%ADD14O,1.950000X1.700000*%
%TD*%
%TA.AperFunction,ComponentPad*%
%ADD15RoundRect,0.250000X-0.750000X0.600000X-0.750000X-0.600000X0.750000X-0.600000X0.750000X0.600000X0*%
%TD*%
%TA.AperFunction,ComponentPad*%
%ADD16O,2.000000X1.700000*%
%TD*%
%TA.AperFunction,ComponentPad*%
%ADD17C,1.440000*%
%TD*%
%TA.AperFunction,ViaPad*%
%ADD18C,0.700000*%
%TD*%
G04 APERTURE END LIST*
D10*
%TO.N,GND*%
%TO.C,H2*%
X5000000Y5000000D03*
%TD*%
%TO.N,GND*%
%TO.C,H4*%
X140000000Y5000000D03*
%TD*%
D11*
%TO.N,GND*%
%TO.C,J6*%
X11200000Y6425000D03*
D12*
X11200000Y2245000D03*
D11*
X19840000Y6425000D03*
D12*
X19840000Y2245000D03*
%TD*%
D13*
%TO.N,GND*%
%TO.C,J2*%
X3250000Y31560000D03*
D14*
%TO.N,/I2C_SDAC*%
X3250000Y34060000D03*
%TO.N,/I2C_SCLC*%
X3250000Y36560000D03*
%TO.N,+3V3*%
X3250000Y39060000D03*
%TD*%
D10*
%TO.N,GND*%
%TO.C,H1*%
X5000000Y50000000D03*
%TD*%
D15*
%TO.N,GND*%
%TO.C,J7*%
X140150000Y25110000D03*
D16*
%TO.N,Net-(J7-Pin_2)*%
X140150000Y22610000D03*
%TD*%
D15*
%TO.N,GND*%
%TO.C,J5*%
X140150000Y35270000D03*
D16*
%TO.N,+BATT*%
X140150000Y32770000D03*
%TD*%
D17*
%TO.N,Net-(J7-Pin_2)*%
%TO.C,RV2*%
X128500000Y27500000D03*
%TO.N,Net-(U6-ADJ)*%
X128500000Y30040000D03*
%TO.N,Net-(R14-Pad2)*%
X128500000Y32580000D03*
%TD*%
%TO.N,Net-(R1-Pad2)*%
%TO.C,RV1*%
X108500000Y6000000D03*
%TO.N,/SensorArrayGroup1/TrimPotCenterTap*%
X108500000Y8540000D03*
%TO.N,GND*%
X108500000Y11080000D03*
%TD*%
D10*
%TO.N,GND*%
%TO.C,H3*%
X140000000Y50000000D03*
%TD*%
D13*
%TO.N,GND*%
%TO.C,J1*%
X2990000Y15110000D03*
D14*
%TO.N,/USART1_RXC*%
X2990000Y17610000D03*
%TO.N,/USART1_TXC*%
X2990000Y20110000D03*
%TO.N,+3V3*%
X2990000Y22610000D03*
%TD*%
D18*
%TO.N,+3V3*%
X7930000Y24640000D03*
X20250000Y29250000D03*
X8870316Y36999856D03*
X12500000Y22250000D03*
X56800000Y20500000D03*
X7500000Y31500000D03*
X7777882Y36808526D03*
X91800000Y20500000D03*
X16500000Y42750000D03*
X112000000Y5750000D03*
X118250000Y6250000D03*
X14354149Y31276531D03*
X21370000Y34000000D03*
X19000000Y29250000D03*
X30600000Y20500000D03*
X11000000Y36250000D03*
X9672670Y36197503D03*
X18876633Y31280788D03*
X21757469Y38775922D03*
X42750000Y7000000D03*
X12750000Y42750000D03*
X118250000Y7750000D03*
X1270000Y43000000D03*
%TD*%
%TA.AperFunction,Conductor*%
%TO.N,+3V3*%
G36*
X141352042Y54496575D02*
G01*
X141605804Y54416565D01*
X141608803Y54415473D01*
X141828544Y54324453D01*
X141984602Y54259811D01*
X141987529Y54258446D01*
X142348317Y54070632D01*
X142351107Y54069022D01*
X142383814Y54048185D01*
X142694161Y53850472D01*
X142696802Y53848623D01*
X143019506Y53601004D01*
X143021964Y53598941D01*
X143321864Y53324133D01*
X143324132Y53321865D01*
X143586371Y53035682D01*
X143598935Y53021971D01*
X143601004Y53019505D01*
X143834224Y52715567D01*
X143848619Y52696807D01*
X143850471Y52694162D01*
X144069017Y52351114D01*
X144070631Y52348318D01*
X144258445Y51987530D01*
X144259810Y51984603D01*
X144415467Y51608816D01*
X144416571Y51605781D01*
X144496575Y51352043D01*
X144500000Y51329791D01*
X144500000Y3670211D01*
X144496575Y3647959D01*
X144416572Y3394220D01*
X144415467Y3391185D01*
X144259810Y3015398D01*
X144258445Y3012471D01*
X144070631Y2651683D01*
X144069017Y2648887D01*
X143850471Y2305839D01*
X143848619Y2303194D01*
X143601011Y1980504D01*
X143598935Y1978030D01*
X143324140Y1678144D01*
X143321856Y1675860D01*
X143021970Y1401065D01*
X143019496Y1398989D01*
X142696806Y1151381D01*
X142694161Y1149529D01*
X142351113Y930983D01*
X142348317Y929369D01*
X141987529Y741555D01*
X141984602Y740190D01*
X141608815Y584533D01*
X141605780Y583429D01*
X141352042Y503425D01*
X141329790Y500000D01*
X3670210Y500000D01*
X3647958Y503425D01*
X3625414Y510533D01*
X3394208Y583432D01*
X3391184Y584533D01*
X3015397Y740190D01*
X3012470Y741555D01*
X2651682Y929369D01*
X2648886Y930983D01*
X2305838Y1149529D01*
X2303193Y1151381D01*
X2053811Y1342738D01*
X1980495Y1398996D01*
X1978029Y1401065D01*
X1875848Y1494697D01*
X1678135Y1675868D01*
X1675867Y1678136D01*
X1401059Y1978036D01*
X1398996Y1980494D01*
X1151377Y2303198D01*
X1149528Y2305839D01*
X930982Y2648887D01*
X929368Y2651683D01*
X741554Y3012471D01*
X740189Y3015398D01*
X632734Y3274816D01*
X584527Y3391197D01*
X583435Y3394196D01*
X503425Y3647959D01*
X500000Y3670211D01*
X500000Y5000000D01*
X1494696Y5000000D01*
X1513898Y4633593D01*
X1513898Y4633592D01*
X1571295Y4271204D01*
X1666255Y3916808D01*
X1797743Y3574268D01*
X1797747Y3574258D01*
X1964312Y3247357D01*
X1964318Y3247348D01*
X2164149Y2939634D01*
X2395051Y2654494D01*
X2654494Y2395051D01*
X2939634Y2164149D01*
X3247348Y1964318D01*
X3247356Y1964313D01*
X3574257Y1797748D01*
X3574262Y1797746D01*
X3574264Y1797745D01*
X3916801Y1666258D01*
X3916803Y1666258D01*
X3916807Y1666256D01*
X4153071Y1602950D01*
X4271206Y1571295D01*
X4633596Y1513898D01*
X5000000Y1494696D01*
X5366404Y1513898D01*
X5728794Y1571295D01*
X6081255Y1665737D01*
X6083192Y1666256D01*
X6083193Y1666257D01*
X6083199Y1666258D01*
X6425736Y1797745D01*
X6430252Y1800046D01*
X10399500Y1800046D01*
X10414632Y1665746D01*
X10414634Y1665737D01*
X10474209Y1495480D01*
X10474702Y1494696D01*
X10570184Y1342738D01*
X10697738Y1215184D01*
X10793712Y1154880D01*
X10850479Y1119210D01*
X11020736Y1059635D01*
X11020745Y1059632D01*
X11200000Y1039435D01*
X11379255Y1059632D01*
X11447481Y1083506D01*
X11549520Y1119210D01*
X11549522Y1119211D01*
X11702262Y1215184D01*
X11829816Y1342738D01*
X11925789Y1495478D01*
X11932235Y1513898D01*
X11985365Y1665737D01*
X11985368Y1665745D01*
X12000500Y1800046D01*
X19039500Y1800046D01*
X19054632Y1665746D01*
X19054634Y1665737D01*
X19114209Y1495480D01*
X19114702Y1494696D01*
X19210184Y1342738D01*
X19337738Y1215184D01*
X19433712Y1154880D01*
X19490479Y1119210D01*
X19660736Y1059635D01*
X19660745Y1059632D01*
X19840000Y1039435D01*
X20019255Y1059632D01*
X20087481Y1083506D01*
X20189520Y1119210D01*
X20189522Y1119211D01*
X20342262Y1215184D01*
X20469816Y1342738D01*
X20565789Y1495478D01*
X20572235Y1513898D01*
X20625365Y1665737D01*
X20625368Y1665745D01*
X20640500Y1800046D01*
X20640500Y2689954D01*
X20625368Y2824255D01*
X20625365Y2824264D01*
X20565790Y2994521D01*
X20517371Y3071579D01*
X20469816Y3147262D01*
X20342262Y3274816D01*
X20303054Y3299453D01*
X20189520Y3370791D01*
X20019263Y3430366D01*
X20019256Y3430368D01*
X20019255Y3430368D01*
X19840000Y3450565D01*
X19660745Y3430368D01*
X19660736Y3430366D01*
X19490479Y3370791D01*
X19337739Y3274817D01*
X19210183Y3147261D01*
X19114209Y2994521D01*
X19054634Y2824264D01*
X19054632Y2824255D01*
X19039500Y2689954D01*
X19039500Y1800046D01*
X12000500Y1800046D01*
X12000500Y2689954D01*
X11985368Y2824255D01*
X11985365Y2824264D01*
X11925790Y2994521D01*
X11877371Y3071579D01*
X11829816Y3147262D01*
X11702262Y3274816D01*
X11663054Y3299453D01*
X11549520Y3370791D01*
X11379263Y3430366D01*
X11379256Y3430368D01*
X11379255Y3430368D01*
X11200000Y3450565D01*
X11020745Y3430368D01*
X11020736Y3430366D01*
X10850479Y3370791D01*
X10697739Y3274817D01*
X10570183Y3147261D01*
X10474209Y2994521D01*
X10414634Y2824264D01*
X10414632Y2824255D01*
X10399500Y2689954D01*
X10399500Y1800046D01*
X6430252Y1800046D01*
X6430260Y1800050D01*
X6752643Y1964313D01*
X6752645Y1964315D01*
X6752652Y1964318D01*
X7060366Y2164149D01*
X7345506Y2395051D01*
X7604949Y2654494D01*
X7835851Y2939634D01*
X8035682Y3247348D01*
X8049679Y3274817D01*
X8202252Y3574258D01*
X8202252Y3574259D01*
X8202255Y3574264D01*
X8333742Y3916801D01*
X8423023Y4250000D01*
X103544867Y4250000D01*
X103563302Y4121777D01*
X103563302Y4121776D01*
X103563303Y4121774D01*
X103617118Y4003937D01*
X103701951Y3906033D01*
X103810931Y3835996D01*
X103935228Y3799500D01*
X104064772Y3799500D01*
X104189069Y3835996D01*
X104298049Y3906033D01*
X104382882Y4003937D01*
X104436697Y4121774D01*
X104455133Y4250000D01*
X104436697Y4378226D01*
X104382882Y4496063D01*
X104298049Y4593967D01*
X104231032Y4637036D01*
X104189068Y4664005D01*
X104064772Y4700500D01*
X103935228Y4700500D01*
X103810931Y4664005D01*
X103701954Y4593969D01*
X103701950Y4593966D01*
X103617119Y4496065D01*
X103563302Y4378224D01*
X103544867Y4250000D01*
X8423023Y4250000D01*
X8428705Y4271206D01*
X8486102Y4633596D01*
X8505304Y5000000D01*
X8486102Y5366404D01*
X8428705Y5728794D01*
X8401574Y5830046D01*
X10399500Y5830046D01*
X10406023Y5772155D01*
X10414632Y5695746D01*
X10414634Y5695737D01*
X10474209Y5525480D01*
X10485559Y5507417D01*
X10570184Y5372738D01*
X10697738Y5245184D01*
X10793712Y5184880D01*
X10850479Y5149210D01*
X11020736Y5089635D01*
X11020745Y5089632D01*
X11200000Y5069435D01*
X11379255Y5089632D01*
X11447481Y5113506D01*
X11549520Y5149210D01*
X11549522Y5149211D01*
X11702262Y5245184D01*
X11829816Y5372738D01*
X11925789Y5525478D01*
X11969813Y5651291D01*
X12001864Y5690470D01*
X12051600Y5699881D01*
X12095750Y5675120D01*
X12108027Y5655169D01*
X12118566Y5629725D01*
X12118567Y5629724D01*
X12212417Y5507417D01*
X12334724Y5413567D01*
X12477154Y5354571D01*
X12591627Y5339500D01*
X12591629Y5339500D01*
X12668371Y5339500D01*
X12668373Y5339500D01*
X12782846Y5354571D01*
X12925276Y5413567D01*
X13047583Y5507417D01*
X13141433Y5629724D01*
X13200429Y5772154D01*
X13220552Y5925000D01*
X17819448Y5925000D01*
X17839570Y5772155D01*
X17898566Y5629725D01*
X17898567Y5629724D01*
X17992417Y5507417D01*
X18114724Y5413567D01*
X18257154Y5354571D01*
X18371627Y5339500D01*
X18371629Y5339500D01*
X18448371Y5339500D01*
X18448373Y5339500D01*
X18562846Y5354571D01*
X18705276Y5413567D01*
X18827583Y5507417D01*
X18921433Y5629724D01*
X18931972Y5655169D01*
X18966167Y5692489D01*
X19016353Y5699097D01*
X19059046Y5671901D01*
X19070186Y5651292D01*
X19114209Y5525480D01*
X19125559Y5507417D01*
X19210184Y5372738D01*
X19337738Y5245184D01*
X19433712Y5184880D01*
X19490479Y5149210D01*
X19660736Y5089635D01*
X19660745Y5089632D01*
X19840000Y5069435D01*
X20019255Y5089632D01*
X20087481Y5113506D01*
X20189520Y5149210D01*
X20189522Y5149211D01*
X20342262Y5245184D01*
X20469816Y5372738D01*
X20565789Y5525478D01*
X20565791Y5525482D01*
X20611170Y5655169D01*
X20625368Y5695745D01*
X20640500Y5830046D01*
X20640500Y6000000D01*
X107474562Y6000000D01*
X107494266Y5799946D01*
X107502697Y5772154D01*
X107552619Y5607582D01*
X107552620Y5607579D01*
X107552621Y5607578D01*
X107647374Y5430305D01*
X107647384Y5430290D01*
X107774900Y5274913D01*
X107774906Y5274906D01*
X107774911Y5274902D01*
X107774912Y5274901D01*
X107930289Y5147385D01*
X107930292Y5147383D01*
X107930297Y5147379D01*
X108107582Y5052619D01*
X108299947Y4994266D01*
X108500000Y4974562D01*
X108700053Y4994266D01*
X108718956Y5000000D01*
X136494696Y5000000D01*
X136513898Y4633593D01*
X136513898Y4633592D01*
X136571295Y4271204D01*
X136666255Y3916808D01*
X136797743Y3574268D01*
X136797747Y3574258D01*
X136964312Y3247357D01*
X136964318Y3247348D01*
X137164149Y2939634D01*
X137395051Y2654494D01*
X137654494Y2395051D01*
X137939634Y2164149D01*
X138247348Y1964318D01*
X138247356Y1964313D01*
X138574257Y1797748D01*
X138574262Y1797746D01*
X138574264Y1797745D01*
X138916801Y1666258D01*
X138916803Y1666258D01*
X138916807Y1666256D01*
X139153071Y1602950D01*
X139271206Y1571295D01*
X139633596Y1513898D01*
X140000000Y1494696D01*
X140366404Y1513898D01*
X140728794Y1571295D01*
X141081255Y1665737D01*
X141083192Y1666256D01*
X141083193Y1666257D01*
X141083199Y1666258D01*
X141425736Y1797745D01*
X141430260Y1800050D01*
X141752643Y1964313D01*
X141752645Y1964315D01*
X141752652Y1964318D01*
X142060366Y2164149D01*
X142345506Y2395051D01*
X142604949Y2654494D01*
X142835851Y2939634D01*
X143035682Y3247348D01*
X143049679Y3274817D01*
X143202252Y3574258D01*
X143202252Y3574259D01*
X143202255Y3574264D01*
X143333742Y3916801D01*
X143428705Y4271206D01*
X143486102Y4633596D01*
X143505304Y5000000D01*
X143486102Y5366404D01*
X143428705Y5728794D01*
X143363096Y5973648D01*
X143333744Y6083193D01*
X143284480Y6211530D01*
X143202255Y6425736D01*
X143202254Y6425738D01*
X143202252Y6425743D01*
X143035687Y6752644D01*
X143035682Y6752652D01*
X142835851Y7060366D01*
X142604949Y7345506D01*
X142345506Y7604949D01*
X142060366Y7835851D01*
X141752652Y8035682D01*
X141752653Y8035682D01*
X141752643Y8035688D01*
X141425742Y8202253D01*
X141425732Y8202257D01*
X141083192Y8333745D01*
X140728796Y8428705D01*
X140366408Y8486102D01*
X140000000Y8505304D01*
X139633592Y8486102D01*
X139633591Y8486102D01*
X139271203Y8428705D01*
X138916807Y8333745D01*
X138574267Y8202257D01*
X138574257Y8202253D01*
X138247356Y8035688D01*
X137939632Y7835850D01*
X137654491Y7604947D01*
X137395053Y7345509D01*
X137164150Y7060368D01*
X136964312Y6752644D01*
X136797747Y6425743D01*
X136797743Y6425733D01*
X136666255Y6083193D01*
X136571295Y5728797D01*
X136513898Y5366409D01*
X136513898Y5366408D01*
X136494696Y5000000D01*
X108718956Y5000000D01*
X108892418Y5052619D01*
X109069703Y5147379D01*
X109225094Y5274906D01*
X109352621Y5430297D01*
X109447381Y5607582D01*
X109505734Y5799947D01*
X109525438Y6000000D01*
X109515404Y6101874D01*
X113896668Y6101874D01*
X113915103Y5973651D01*
X113915103Y5973650D01*
X113915104Y5973648D01*
X113968919Y5855811D01*
X114053752Y5757907D01*
X114162732Y5687870D01*
X114287029Y5651374D01*
X114416573Y5651374D01*
X114540870Y5687870D01*
X114649850Y5757907D01*
X114734683Y5855811D01*
X114788498Y5973648D01*
X114806934Y6101874D01*
X114788498Y6230100D01*
X114734683Y6347937D01*
X114649850Y6445841D01*
X114572688Y6495430D01*
X114540869Y6515879D01*
X114416573Y6552374D01*
X114287029Y6552374D01*
X114162732Y6515879D01*
X114053755Y6445843D01*
X114053751Y6445840D01*
X113968920Y6347939D01*
X113915103Y6230098D01*
X113896668Y6101874D01*
X109515404Y6101874D01*
X109505734Y6200053D01*
X109447381Y6392418D01*
X109381390Y6515879D01*
X109352625Y6569696D01*
X109352623Y6569698D01*
X109352621Y6569703D01*
X109352617Y6569708D01*
X109352615Y6569711D01*
X109225099Y6725088D01*
X109225098Y6725089D01*
X109225094Y6725094D01*
X109225087Y6725100D01*
X109069710Y6852616D01*
X109069705Y6852620D01*
X109069703Y6852621D01*
X109069700Y6852623D01*
X109069695Y6852626D01*
X108892422Y6947379D01*
X108892421Y6947380D01*
X108892418Y6947381D01*
X108753591Y6989494D01*
X108700054Y7005734D01*
X108500000Y7025438D01*
X108299945Y7005734D01*
X108192870Y6973253D01*
X108107582Y6947381D01*
X108107579Y6947380D01*
X108107577Y6947379D01*
X107930304Y6852626D01*
X107930289Y6852616D01*
X107774912Y6725100D01*
X107774900Y6725088D01*
X107647384Y6569711D01*
X107647374Y6569696D01*
X107552621Y6392423D01*
X107494266Y6200055D01*
X107474562Y6000000D01*
X20640500Y6000000D01*
X20640500Y7019954D01*
X20625368Y7154255D01*
X20624745Y7156035D01*
X20565790Y7324521D01*
X20514571Y7406035D01*
X20469816Y7477262D01*
X20447078Y7500000D01*
X31044867Y7500000D01*
X31063302Y7371777D01*
X31063302Y7371776D01*
X31063303Y7371774D01*
X31117118Y7253937D01*
X31201951Y7156033D01*
X31310931Y7085996D01*
X31435228Y7049500D01*
X31564772Y7049500D01*
X31689069Y7085996D01*
X31798049Y7156033D01*
X31879471Y7250000D01*
X113944867Y7250000D01*
X113963302Y7121777D01*
X113963302Y7121776D01*
X113963303Y7121774D01*
X114017118Y7003937D01*
X114101951Y6906033D01*
X114210931Y6835996D01*
X114335228Y6799500D01*
X114464772Y6799500D01*
X114589069Y6835996D01*
X114698049Y6906033D01*
X114782882Y7003937D01*
X114836697Y7121774D01*
X114855133Y7250000D01*
X114836697Y7378226D01*
X114782882Y7496063D01*
X114698049Y7593967D01*
X114601474Y7656032D01*
X114589068Y7664005D01*
X114464772Y7700500D01*
X114335228Y7700500D01*
X114210931Y7664005D01*
X114101954Y7593969D01*
X114101950Y7593966D01*
X114017119Y7496065D01*
X113963302Y7378224D01*
X113944867Y7250000D01*
X31879471Y7250000D01*
X31882882Y7253937D01*
X31936697Y7371774D01*
X31955133Y7500000D01*
X31936697Y7628226D01*
X31882882Y7746063D01*
X31798049Y7843967D01*
X31701474Y7906032D01*
X31689068Y7914005D01*
X31564772Y7950500D01*
X31435228Y7950500D01*
X31310931Y7914005D01*
X31201954Y7843969D01*
X31201950Y7843966D01*
X31117119Y7746065D01*
X31063302Y7628224D01*
X31044867Y7500000D01*
X20447078Y7500000D01*
X20342262Y7604816D01*
X20303054Y7629453D01*
X20189520Y7700791D01*
X20019263Y7760366D01*
X20019256Y7760368D01*
X20019255Y7760368D01*
X19840000Y7780565D01*
X19660745Y7760368D01*
X19660736Y7760366D01*
X19490479Y7700791D01*
X19337739Y7604817D01*
X19210183Y7477261D01*
X19114209Y7324521D01*
X19054634Y7154264D01*
X19054632Y7154255D01*
X19044054Y7060366D01*
X19039500Y7019951D01*
X19039500Y6284406D01*
X19022187Y6236840D01*
X18978350Y6211530D01*
X18928500Y6220320D01*
X18906792Y6239357D01*
X18872224Y6284406D01*
X18827583Y6342583D01*
X18733732Y6414598D01*
X18705275Y6436434D01*
X18562845Y6495430D01*
X18475006Y6506994D01*
X18448373Y6510500D01*
X18371627Y6510500D01*
X18347769Y6507359D01*
X18257154Y6495430D01*
X18114724Y6436434D01*
X17992417Y6342583D01*
X17898566Y6220276D01*
X17839570Y6077846D01*
X17819448Y5925000D01*
X13220552Y5925000D01*
X13200429Y6077846D01*
X13141433Y6220276D01*
X13047583Y6342583D01*
X12953732Y6414598D01*
X12925275Y6436434D01*
X12782845Y6495430D01*
X12695006Y6506994D01*
X12668373Y6510500D01*
X12591627Y6510500D01*
X12567769Y6507359D01*
X12477154Y6495430D01*
X12334724Y6436434D01*
X12212417Y6342583D01*
X12133208Y6239357D01*
X12090516Y6212160D01*
X12040330Y6218768D01*
X12006133Y6256088D01*
X12000500Y6284406D01*
X12000500Y7019951D01*
X11997171Y7049500D01*
X11985368Y7154255D01*
X11984745Y7156035D01*
X11925790Y7324521D01*
X11874571Y7406035D01*
X11829816Y7477262D01*
X11702262Y7604816D01*
X11663054Y7629453D01*
X11549520Y7700791D01*
X11379263Y7760366D01*
X11379256Y7760368D01*
X11379255Y7760368D01*
X11200000Y7780565D01*
X11020745Y7760368D01*
X11020736Y7760366D01*
X10850479Y7700791D01*
X10697739Y7604817D01*
X10570183Y7477261D01*
X10474209Y7324521D01*
X10414634Y7154264D01*
X10414632Y7154255D01*
X10399500Y7019954D01*
X10399500Y5830046D01*
X8401574Y5830046D01*
X8363096Y5973648D01*
X8333744Y6083193D01*
X8284480Y6211530D01*
X8202255Y6425736D01*
X8202254Y6425738D01*
X8202252Y6425743D01*
X8035687Y6752644D01*
X8035682Y6752652D01*
X7835851Y7060366D01*
X7604949Y7345506D01*
X7345506Y7604949D01*
X7060366Y7835851D01*
X6807598Y8000000D01*
X9044867Y8000000D01*
X9063302Y7871777D01*
X9063302Y7871776D01*
X9063303Y7871774D01*
X9117118Y7753937D01*
X9201951Y7656033D01*
X9310931Y7585996D01*
X9435228Y7549500D01*
X9564772Y7549500D01*
X9689069Y7585996D01*
X9798049Y7656033D01*
X9882882Y7753937D01*
X9936697Y7871774D01*
X9955133Y8000000D01*
X21044867Y8000000D01*
X21063302Y7871777D01*
X21063302Y7871776D01*
X21063303Y7871774D01*
X21117118Y7753937D01*
X21201951Y7656033D01*
X21310931Y7585996D01*
X21435228Y7549500D01*
X21564772Y7549500D01*
X21689069Y7585996D01*
X21798049Y7656033D01*
X21882882Y7753937D01*
X21936697Y7871774D01*
X21955133Y8000000D01*
X21936697Y8128226D01*
X21882882Y8246063D01*
X21879471Y8250000D01*
X67044867Y8250000D01*
X67063302Y8121777D01*
X67063302Y8121776D01*
X67063303Y8121774D01*
X67117118Y8003937D01*
X67201951Y7906033D01*
X67310931Y7835996D01*
X67435228Y7799500D01*
X67564772Y7799500D01*
X67689069Y7835996D01*
X67798049Y7906033D01*
X67882882Y8003937D01*
X67936697Y8121774D01*
X67955133Y8250000D01*
X100794867Y8250000D01*
X100813302Y8121777D01*
X100813302Y8121776D01*
X100813303Y8121774D01*
X100867118Y8003937D01*
X100951951Y7906033D01*
X101060931Y7835996D01*
X101185228Y7799500D01*
X101314772Y7799500D01*
X101439069Y7835996D01*
X101548049Y7906033D01*
X101632882Y8003937D01*
X101686697Y8121774D01*
X101705133Y8250000D01*
X101686697Y8378226D01*
X101632882Y8496063D01*
X101594811Y8540000D01*
X107474562Y8540000D01*
X107494266Y8339947D01*
X107552619Y8147582D01*
X107552620Y8147579D01*
X107552621Y8147578D01*
X107647374Y7970305D01*
X107647384Y7970290D01*
X107774900Y7814913D01*
X107774906Y7814906D01*
X107774911Y7814902D01*
X107774912Y7814901D01*
X107930289Y7687385D01*
X107930292Y7687383D01*
X107930297Y7687379D01*
X107930302Y7687377D01*
X107930304Y7687375D01*
X108008500Y7645579D01*
X108107582Y7592619D01*
X108299947Y7534266D01*
X108500000Y7514562D01*
X108700053Y7534266D01*
X108892418Y7592619D01*
X109069703Y7687379D01*
X109225094Y7814906D01*
X109352621Y7970297D01*
X109368497Y8000000D01*
X121044867Y8000000D01*
X121063302Y7871777D01*
X121063302Y7871776D01*
X121063303Y7871774D01*
X121117118Y7753937D01*
X121201951Y7656033D01*
X121310931Y7585996D01*
X121435228Y7549500D01*
X121564772Y7549500D01*
X121689069Y7585996D01*
X121798049Y7656033D01*
X121879471Y7750000D01*
X124794867Y7750000D01*
X124813302Y7621777D01*
X124813302Y7621776D01*
X124813303Y7621774D01*
X124867118Y7503937D01*
X124951951Y7406033D01*
X125060931Y7335996D01*
X125185228Y7299500D01*
X125314772Y7299500D01*
X125439069Y7335996D01*
X125548049Y7406033D01*
X125632882Y7503937D01*
X125686697Y7621774D01*
X125705133Y7750000D01*
X125686697Y7878226D01*
X125632882Y7996063D01*
X125548049Y8093967D01*
X125481032Y8137036D01*
X125439068Y8164005D01*
X125314772Y8200500D01*
X125185228Y8200500D01*
X125060931Y8164005D01*
X124951954Y8093969D01*
X124951950Y8093966D01*
X124867119Y7996065D01*
X124813302Y7878224D01*
X124794867Y7750000D01*
X121879471Y7750000D01*
X121882882Y7753937D01*
X121936697Y7871774D01*
X121955133Y8000000D01*
X121936697Y8128226D01*
X121882882Y8246063D01*
X121798049Y8343967D01*
X121731032Y8387036D01*
X121689068Y8414005D01*
X121564772Y8450500D01*
X121435228Y8450500D01*
X121310931Y8414005D01*
X121201954Y8343969D01*
X121201950Y8343966D01*
X121117119Y8246065D01*
X121063302Y8128224D01*
X121044867Y8000000D01*
X109368497Y8000000D01*
X109447381Y8147582D01*
X109505734Y8339947D01*
X109525438Y8540000D01*
X109505734Y8740053D01*
X109447381Y8932418D01*
X109352621Y9109703D01*
X109352617Y9109708D01*
X109352615Y9109711D01*
X109225099Y9265088D01*
X109225098Y9265089D01*
X109225094Y9265094D01*
X109225087Y9265100D01*
X109069710Y9392616D01*
X109069705Y9392620D01*
X109069703Y9392621D01*
X109069700Y9392623D01*
X109069695Y9392626D01*
X108892422Y9487379D01*
X108892421Y9487380D01*
X108892418Y9487381D01*
X108753591Y9529494D01*
X108700054Y9545734D01*
X108500000Y9565438D01*
X108299945Y9545734D01*
X108192870Y9513253D01*
X108107582Y9487381D01*
X108107579Y9487380D01*
X108107577Y9487379D01*
X107930304Y9392626D01*
X107930289Y9392616D01*
X107774912Y9265100D01*
X107774900Y9265088D01*
X107647384Y9109711D01*
X107647374Y9109696D01*
X107552621Y8932423D01*
X107494266Y8740055D01*
X107485990Y8656032D01*
X107474562Y8540000D01*
X101594811Y8540000D01*
X101548049Y8593967D01*
X101451474Y8656032D01*
X101439068Y8664005D01*
X101314772Y8700500D01*
X101185228Y8700500D01*
X101060931Y8664005D01*
X100951954Y8593969D01*
X100951950Y8593966D01*
X100867119Y8496065D01*
X100813302Y8378224D01*
X100794867Y8250000D01*
X67955133Y8250000D01*
X67936697Y8378226D01*
X67882882Y8496063D01*
X67798049Y8593967D01*
X67701474Y8656032D01*
X67689068Y8664005D01*
X67564772Y8700500D01*
X67435228Y8700500D01*
X67310931Y8664005D01*
X67201954Y8593969D01*
X67201950Y8593966D01*
X67117119Y8496065D01*
X67063302Y8378224D01*
X67044867Y8250000D01*
X21879471Y8250000D01*
X21798049Y8343967D01*
X21731032Y8387036D01*
X21689068Y8414005D01*
X21564772Y8450500D01*
X21435228Y8450500D01*
X21310931Y8414005D01*
X21201954Y8343969D01*
X21201950Y8343966D01*
X21117119Y8246065D01*
X21063302Y8128224D01*
X21044867Y8000000D01*
X9955133Y8000000D01*
X9936697Y8128226D01*
X9882882Y8246063D01*
X9798049Y8343967D01*
X9731032Y8387036D01*
X9689068Y8414005D01*
X9564772Y8450500D01*
X9435228Y8450500D01*
X9310931Y8414005D01*
X9201954Y8343969D01*
X9201950Y8343966D01*
X9117119Y8246065D01*
X9063302Y8128224D01*
X9044867Y8000000D01*
X6807598Y8000000D01*
X6752652Y8035682D01*
X6752653Y8035682D01*
X6752643Y8035688D01*
X6425742Y8202253D01*
X6425732Y8202257D01*
X6083192Y8333745D01*
X5728796Y8428705D01*
X5366408Y8486102D01*
X5000000Y8505304D01*
X4633592Y8486102D01*
X4633591Y8486102D01*
X4271203Y8428705D01*
X3916807Y8333745D01*
X3574267Y8202257D01*
X3574257Y8202253D01*
X3247356Y8035688D01*
X2939632Y7835850D01*
X2654491Y7604947D01*
X2395053Y7345509D01*
X2164150Y7060368D01*
X1964312Y6752644D01*
X1797747Y6425743D01*
X1797743Y6425733D01*
X1666255Y6083193D01*
X1571295Y5728797D01*
X1513898Y5366409D01*
X1513898Y5366408D01*
X1494696Y5000000D01*
X500000Y5000000D01*
X500000Y9000000D01*
X31294867Y9000000D01*
X31313302Y8871777D01*
X31313302Y8871776D01*
X31313303Y8871774D01*
X31367118Y8753937D01*
X31451951Y8656033D01*
X31560931Y8585996D01*
X31685228Y8549500D01*
X31814772Y8549500D01*
X31939069Y8585996D01*
X32048049Y8656033D01*
X32132882Y8753937D01*
X32186697Y8871774D01*
X32205133Y9000000D01*
X32186697Y9128226D01*
X32132882Y9246063D01*
X32048049Y9343967D01*
X31981032Y9387036D01*
X31939068Y9414005D01*
X31814772Y9450500D01*
X31685228Y9450500D01*
X31560931Y9414005D01*
X31451954Y9343969D01*
X31451950Y9343966D01*
X31367119Y9246065D01*
X31313302Y9128224D01*
X31294867Y9000000D01*
X500000Y9000000D01*
X500000Y9750000D01*
X29044867Y9750000D01*
X29063302Y9621777D01*
X29063302Y9621776D01*
X29063303Y9621774D01*
X29117118Y9503937D01*
X29201951Y9406033D01*
X29310931Y9335996D01*
X29435228Y9299500D01*
X29564772Y9299500D01*
X29689069Y9335996D01*
X29798049Y9406033D01*
X29882882Y9503937D01*
X29936697Y9621774D01*
X29955133Y9750000D01*
X29936697Y9878226D01*
X29882882Y9996063D01*
X29798049Y10093967D01*
X29701474Y10156032D01*
X29689068Y10164005D01*
X29564772Y10200500D01*
X29435228Y10200500D01*
X29310931Y10164005D01*
X29201954Y10093969D01*
X29201950Y10093966D01*
X29117119Y9996065D01*
X29063302Y9878224D01*
X29044867Y9750000D01*
X500000Y9750000D01*
X500000Y10500000D01*
X15544867Y10500000D01*
X15563302Y10371777D01*
X15563302Y10371776D01*
X15563303Y10371774D01*
X15617118Y10253937D01*
X15701951Y10156033D01*
X15810931Y10085996D01*
X15935228Y10049500D01*
X16064772Y10049500D01*
X16189069Y10085996D01*
X16298049Y10156033D01*
X16379471Y10250000D01*
X32544867Y10250000D01*
X32563302Y10121777D01*
X32563302Y10121776D01*
X32563303Y10121774D01*
X32617118Y10003937D01*
X32701951Y9906033D01*
X32810931Y9835996D01*
X32935228Y9799500D01*
X33064772Y9799500D01*
X33189069Y9835996D01*
X33298049Y9906033D01*
X33382882Y10003937D01*
X33436697Y10121774D01*
X33455133Y10250000D01*
X33436697Y10378226D01*
X33382882Y10496063D01*
X33298049Y10593967D01*
X33231032Y10637036D01*
X33189068Y10664005D01*
X33064772Y10700500D01*
X32935228Y10700500D01*
X32810931Y10664005D01*
X32701954Y10593969D01*
X32701950Y10593966D01*
X32617119Y10496065D01*
X32563302Y10378224D01*
X32544867Y10250000D01*
X16379471Y10250000D01*
X16382882Y10253937D01*
X16436697Y10371774D01*
X16455133Y10500000D01*
X16436697Y10628226D01*
X16382882Y10746063D01*
X16298049Y10843967D01*
X16231032Y10887036D01*
X16189068Y10914005D01*
X16064772Y10950500D01*
X15935228Y10950500D01*
X15810931Y10914005D01*
X15701954Y10843969D01*
X15701950Y10843966D01*
X15617119Y10746065D01*
X15563302Y10628224D01*
X15544867Y10500000D01*
X500000Y10500000D01*
X500000Y11080000D01*
X107474562Y11080000D01*
X107494266Y10879947D01*
X107552619Y10687582D01*
X107552620Y10687579D01*
X107552621Y10687578D01*
X107647374Y10510305D01*
X107647384Y10510290D01*
X107774900Y10354913D01*
X107774906Y10354906D01*
X107774911Y10354902D01*
X107774912Y10354901D01*
X107930289Y10227385D01*
X107930292Y10227383D01*
X107930297Y10227379D01*
X107930302Y10227377D01*
X107930304Y10227375D01*
X108008500Y10185579D01*
X108107582Y10132619D01*
X108299947Y10074266D01*
X108500000Y10054562D01*
X108700053Y10074266D01*
X108892418Y10132619D01*
X109069703Y10227379D01*
X109225094Y10354906D01*
X109352621Y10510297D01*
X109447381Y10687582D01*
X109505734Y10879947D01*
X109525438Y11080000D01*
X109505734Y11280053D01*
X109447381Y11472418D01*
X109352621Y11649703D01*
X109352617Y11649708D01*
X109352615Y11649711D01*
X109270309Y11750000D01*
X121044867Y11750000D01*
X121063302Y11621777D01*
X121063302Y11621776D01*
X121063303Y11621774D01*
X121117118Y11503937D01*
X121201951Y11406033D01*
X121310931Y11335996D01*
X121435228Y11299500D01*
X121564772Y11299500D01*
X121689069Y11335996D01*
X121798049Y11406033D01*
X121882882Y11503937D01*
X121936697Y11621774D01*
X121955133Y11750000D01*
X124794867Y11750000D01*
X124813302Y11621777D01*
X124813302Y11621776D01*
X124813303Y11621774D01*
X124867118Y11503937D01*
X124951951Y11406033D01*
X125060931Y11335996D01*
X125185228Y11299500D01*
X125314772Y11299500D01*
X125439069Y11335996D01*
X125548049Y11406033D01*
X125632882Y11503937D01*
X125686697Y11621774D01*
X125705133Y11750000D01*
X125686697Y11878226D01*
X125632882Y11996063D01*
X125548049Y12093967D01*
X125481032Y12137036D01*
X125439068Y12164005D01*
X125314772Y12200500D01*
X125185228Y12200500D01*
X125060931Y12164005D01*
X124951954Y12093969D01*
X124951950Y12093966D01*
X124867119Y11996065D01*
X124813302Y11878224D01*
X124794867Y11750000D01*
X121955133Y11750000D01*
X121936697Y11878226D01*
X121882882Y11996063D01*
X121798049Y12093967D01*
X121731032Y12137036D01*
X121689068Y12164005D01*
X121564772Y12200500D01*
X121435228Y12200500D01*
X121310931Y12164005D01*
X121201954Y12093969D01*
X121201950Y12093966D01*
X121117119Y11996065D01*
X121063302Y11878224D01*
X121044867Y11750000D01*
X109270309Y11750000D01*
X109225099Y11805088D01*
X109225098Y11805089D01*
X109225094Y11805094D01*
X109225087Y11805100D01*
X109069710Y11932616D01*
X109069705Y11932620D01*
X109069703Y11932621D01*
X109069700Y11932623D01*
X109069695Y11932626D01*
X108892422Y12027379D01*
X108892421Y12027380D01*
X108892418Y12027381D01*
X108753591Y12069494D01*
X108700054Y12085734D01*
X108500000Y12105438D01*
X108299945Y12085734D01*
X108202042Y12056035D01*
X108107582Y12027381D01*
X108107579Y12027380D01*
X108107577Y12027379D01*
X107930304Y11932626D01*
X107930289Y11932616D01*
X107774912Y11805100D01*
X107774900Y11805088D01*
X107647384Y11649711D01*
X107647374Y11649696D01*
X107552621Y11472423D01*
X107552620Y11472421D01*
X107552619Y11472418D01*
X107532481Y11406032D01*
X107494266Y11280055D01*
X107494266Y11280053D01*
X107474562Y11080000D01*
X500000Y11080000D01*
X500000Y12400000D01*
X113744867Y12400000D01*
X113763302Y12271777D01*
X113763302Y12271776D01*
X113763303Y12271774D01*
X113817118Y12153937D01*
X113901951Y12056033D01*
X114010931Y11985996D01*
X114135228Y11949500D01*
X114264772Y11949500D01*
X114389069Y11985996D01*
X114498049Y12056033D01*
X114582882Y12153937D01*
X114636697Y12271774D01*
X114655133Y12400000D01*
X114636697Y12528226D01*
X114582882Y12646063D01*
X114498049Y12743967D01*
X114411638Y12799500D01*
X114389068Y12814005D01*
X114264772Y12850500D01*
X114135228Y12850500D01*
X114010931Y12814005D01*
X113901954Y12743969D01*
X113901950Y12743966D01*
X113817119Y12646065D01*
X113763302Y12528224D01*
X113744867Y12400000D01*
X500000Y12400000D01*
X500000Y13250000D01*
X89044867Y13250000D01*
X89063302Y13121777D01*
X89063302Y13121776D01*
X89063303Y13121774D01*
X89117118Y13003937D01*
X89201951Y12906033D01*
X89310931Y12835996D01*
X89435228Y12799500D01*
X89564772Y12799500D01*
X89689069Y12835996D01*
X89798049Y12906033D01*
X89879471Y13000000D01*
X90794867Y13000000D01*
X90813302Y12871777D01*
X90813302Y12871776D01*
X90813303Y12871774D01*
X90867118Y12753937D01*
X90951951Y12656033D01*
X91060931Y12585996D01*
X91185228Y12549500D01*
X91314772Y12549500D01*
X91439069Y12585996D01*
X91548049Y12656033D01*
X91632882Y12753937D01*
X91686697Y12871774D01*
X91705133Y13000000D01*
X91686697Y13128226D01*
X91632882Y13246063D01*
X91629471Y13250000D01*
X100294867Y13250000D01*
X100313302Y13121777D01*
X100313302Y13121776D01*
X100313303Y13121774D01*
X100367118Y13003937D01*
X100451951Y12906033D01*
X100560931Y12835996D01*
X100685228Y12799500D01*
X100814772Y12799500D01*
X100939069Y12835996D01*
X101048049Y12906033D01*
X101132882Y13003937D01*
X101186697Y13121774D01*
X101205133Y13250000D01*
X102044867Y13250000D01*
X102063302Y13121777D01*
X102063302Y13121776D01*
X102063303Y13121774D01*
X102117118Y13003937D01*
X102201951Y12906033D01*
X102310931Y12835996D01*
X102435228Y12799500D01*
X102564772Y12799500D01*
X102689069Y12835996D01*
X102798049Y12906033D01*
X102879471Y13000000D01*
X136544867Y13000000D01*
X136563302Y12871777D01*
X136563302Y12871776D01*
X136563303Y12871774D01*
X136617118Y12753937D01*
X136701951Y12656033D01*
X136810931Y12585996D01*
X136935228Y12549500D01*
X137064772Y12549500D01*
X137189069Y12585996D01*
X137298049Y12656033D01*
X137382882Y12753937D01*
X137436697Y12871774D01*
X137455133Y13000000D01*
X137436697Y13128226D01*
X137382882Y13246063D01*
X137298049Y13343967D01*
X137201474Y13406032D01*
X137189068Y13414005D01*
X137064772Y13450500D01*
X136935228Y13450500D01*
X136810931Y13414005D01*
X136701954Y13343969D01*
X136701950Y13343966D01*
X136617119Y13246065D01*
X136563302Y13128224D01*
X136544867Y13000000D01*
X102879471Y13000000D01*
X102882882Y13003937D01*
X102936697Y13121774D01*
X102955133Y13250000D01*
X102936697Y13378226D01*
X102882882Y13496063D01*
X102798049Y13593967D01*
X102701474Y13656032D01*
X102689068Y13664005D01*
X102564772Y13700500D01*
X102435228Y13700500D01*
X102310931Y13664005D01*
X102201954Y13593969D01*
X102201950Y13593966D01*
X102117119Y13496065D01*
X102117118Y13496064D01*
X102117118Y13496063D01*
X102096310Y13450500D01*
X102063302Y13378224D01*
X102044867Y13250000D01*
X101205133Y13250000D01*
X101186697Y13378226D01*
X101132882Y13496063D01*
X101048049Y13593967D01*
X100951474Y13656032D01*
X100939068Y13664005D01*
X100814772Y13700500D01*
X100685228Y13700500D01*
X100560931Y13664005D01*
X100451954Y13593969D01*
X100451950Y13593966D01*
X100367119Y13496065D01*
X100367118Y13496064D01*
X100367118Y13496063D01*
X100346310Y13450500D01*
X100313302Y13378224D01*
X100294867Y13250000D01*
X91629471Y13250000D01*
X91548049Y13343967D01*
X91451474Y13406032D01*
X91439068Y13414005D01*
X91314772Y13450500D01*
X91185228Y13450500D01*
X91060931Y13414005D01*
X90951954Y13343969D01*
X90951950Y13343966D01*
X90867119Y13246065D01*
X90813302Y13128224D01*
X90794867Y13000000D01*
X89879471Y13000000D01*
X89882882Y13003937D01*
X89936697Y13121774D01*
X89955133Y13250000D01*
X89936697Y13378226D01*
X89882882Y13496063D01*
X89798049Y13593967D01*
X89701474Y13656032D01*
X89689068Y13664005D01*
X89564772Y13700500D01*
X89435228Y13700500D01*
X89310931Y13664005D01*
X89201954Y13593969D01*
X89201950Y13593966D01*
X89117119Y13496065D01*
X89117118Y13496064D01*
X89117118Y13496063D01*
X89096310Y13450500D01*
X89063302Y13378224D01*
X89044867Y13250000D01*
X500000Y13250000D01*
X500000Y13750000D01*
X32544867Y13750000D01*
X32563302Y13621777D01*
X32563302Y13621776D01*
X32563303Y13621774D01*
X32617118Y13503937D01*
X32701951Y13406033D01*
X32810931Y13335996D01*
X32935228Y13299500D01*
X33064772Y13299500D01*
X33189069Y13335996D01*
X33298049Y13406033D01*
X33382882Y13503937D01*
X33436697Y13621774D01*
X33455133Y13750000D01*
X34044867Y13750000D01*
X34063302Y13621777D01*
X34063302Y13621776D01*
X34063303Y13621774D01*
X34117118Y13503937D01*
X34201951Y13406033D01*
X34310931Y13335996D01*
X34435228Y13299500D01*
X34564772Y13299500D01*
X34689069Y13335996D01*
X34798049Y13406033D01*
X34882882Y13503937D01*
X34936697Y13621774D01*
X34955133Y13750000D01*
X34936697Y13878226D01*
X34882882Y13996063D01*
X34879471Y14000000D01*
X51544867Y14000000D01*
X51563302Y13871777D01*
X51563302Y13871776D01*
X51563303Y13871774D01*
X51617118Y13753937D01*
X51701951Y13656033D01*
X51810931Y13585996D01*
X51935228Y13549500D01*
X52064772Y13549500D01*
X52189069Y13585996D01*
X52298049Y13656033D01*
X52382882Y13753937D01*
X52436697Y13871774D01*
X52455133Y14000000D01*
X54044867Y14000000D01*
X54063302Y13871777D01*
X54063302Y13871776D01*
X54063303Y13871774D01*
X54117118Y13753937D01*
X54201951Y13656033D01*
X54310931Y13585996D01*
X54435228Y13549500D01*
X54564772Y13549500D01*
X54689069Y13585996D01*
X54798049Y13656033D01*
X54879471Y13750000D01*
X56544867Y13750000D01*
X56563302Y13621777D01*
X56563302Y13621776D01*
X56563303Y13621774D01*
X56617118Y13503937D01*
X56701951Y13406033D01*
X56810931Y13335996D01*
X56935228Y13299500D01*
X57064772Y13299500D01*
X57189069Y13335996D01*
X57298049Y13406033D01*
X57382882Y13503937D01*
X57436697Y13621774D01*
X57455133Y13750000D01*
X57436697Y13878226D01*
X57382882Y13996063D01*
X57379471Y14000000D01*
X65044867Y14000000D01*
X65063302Y13871777D01*
X65063302Y13871776D01*
X65063303Y13871774D01*
X65117118Y13753937D01*
X65201951Y13656033D01*
X65310931Y13585996D01*
X65435228Y13549500D01*
X65564772Y13549500D01*
X65689069Y13585996D01*
X65798049Y13656033D01*
X65882882Y13753937D01*
X65936697Y13871774D01*
X65955133Y14000000D01*
X67044867Y14000000D01*
X67063302Y13871777D01*
X67063302Y13871776D01*
X67063303Y13871774D01*
X67117118Y13753937D01*
X67201951Y13656033D01*
X67310931Y13585996D01*
X67435228Y13549500D01*
X67564772Y13549500D01*
X67689069Y13585996D01*
X67798049Y13656033D01*
X67882882Y13753937D01*
X67936697Y13871774D01*
X67955133Y14000000D01*
X69544867Y14000000D01*
X69563302Y13871777D01*
X69563302Y13871776D01*
X69563303Y13871774D01*
X69617118Y13753937D01*
X69701951Y13656033D01*
X69810931Y13585996D01*
X69935228Y13549500D01*
X70064772Y13549500D01*
X70189069Y13585996D01*
X70298049Y13656033D01*
X70382882Y13753937D01*
X70436697Y13871774D01*
X70455133Y14000000D01*
X86544867Y14000000D01*
X86563302Y13871777D01*
X86563302Y13871776D01*
X86563303Y13871774D01*
X86617118Y13753937D01*
X86701951Y13656033D01*
X86810931Y13585996D01*
X86935228Y13549500D01*
X87064772Y13549500D01*
X87189069Y13585996D01*
X87298049Y13656033D01*
X87382882Y13753937D01*
X87436697Y13871774D01*
X87455133Y14000000D01*
X104544867Y14000000D01*
X104563302Y13871777D01*
X104563302Y13871776D01*
X104563303Y13871774D01*
X104617118Y13753937D01*
X104701951Y13656033D01*
X104810931Y13585996D01*
X104935228Y13549500D01*
X105064772Y13549500D01*
X105189069Y13585996D01*
X105210860Y13600000D01*
X113744867Y13600000D01*
X113763302Y13471777D01*
X113763302Y13471776D01*
X113763303Y13471774D01*
X113817118Y13353937D01*
X113901951Y13256033D01*
X114010931Y13185996D01*
X114135228Y13149500D01*
X114264772Y13149500D01*
X114389069Y13185996D01*
X114498049Y13256033D01*
X114582882Y13353937D01*
X114636697Y13471774D01*
X114655133Y13600000D01*
X114636697Y13728226D01*
X114582882Y13846063D01*
X114498049Y13943967D01*
X114410860Y14000000D01*
X114389068Y14014005D01*
X114264772Y14050500D01*
X114135228Y14050500D01*
X114010931Y14014005D01*
X113901954Y13943969D01*
X113901950Y13943966D01*
X113817119Y13846065D01*
X113763302Y13728224D01*
X113744867Y13600000D01*
X105210860Y13600000D01*
X105298049Y13656033D01*
X105382882Y13753937D01*
X105436697Y13871774D01*
X105455133Y14000000D01*
X105436697Y14128226D01*
X105382882Y14246063D01*
X105298049Y14343967D01*
X105231032Y14387036D01*
X105189068Y14414005D01*
X105064772Y14450500D01*
X104935228Y14450500D01*
X104810931Y14414005D01*
X104701954Y14343969D01*
X104701950Y14343966D01*
X104617119Y14246065D01*
X104563302Y14128224D01*
X104544867Y14000000D01*
X87455133Y14000000D01*
X87436697Y14128226D01*
X87382882Y14246063D01*
X87298049Y14343967D01*
X87231032Y14387036D01*
X87189068Y14414005D01*
X87064772Y14450500D01*
X86935228Y14450500D01*
X86810931Y14414005D01*
X86701954Y14343969D01*
X86701950Y14343966D01*
X86617119Y14246065D01*
X86563302Y14128224D01*
X86544867Y14000000D01*
X70455133Y14000000D01*
X70436697Y14128226D01*
X70382882Y14246063D01*
X70298049Y14343967D01*
X70231032Y14387036D01*
X70189068Y14414005D01*
X70064772Y14450500D01*
X69935228Y14450500D01*
X69810931Y14414005D01*
X69701954Y14343969D01*
X69701950Y14343966D01*
X69617119Y14246065D01*
X69563302Y14128224D01*
X69544867Y14000000D01*
X67955133Y14000000D01*
X67936697Y14128226D01*
X67882882Y14246063D01*
X67798049Y14343967D01*
X67731032Y14387036D01*
X67689068Y14414005D01*
X67564772Y14450500D01*
X67435228Y14450500D01*
X67310931Y14414005D01*
X67201954Y14343969D01*
X67201950Y14343966D01*
X67117119Y14246065D01*
X67063302Y14128224D01*
X67044867Y14000000D01*
X65955133Y14000000D01*
X65936697Y14128226D01*
X65882882Y14246063D01*
X65798049Y14343967D01*
X65731032Y14387036D01*
X65689068Y14414005D01*
X65564772Y14450500D01*
X65435228Y14450500D01*
X65310931Y14414005D01*
X65201954Y14343969D01*
X65201950Y14343966D01*
X65117119Y14246065D01*
X65063302Y14128224D01*
X65044867Y14000000D01*
X57379471Y14000000D01*
X57298049Y14093967D01*
X57231032Y14137036D01*
X57189068Y14164005D01*
X57064772Y14200500D01*
X56935228Y14200500D01*
X56810931Y14164005D01*
X56701954Y14093969D01*
X56701950Y14093966D01*
X56617119Y13996065D01*
X56617118Y13996064D01*
X56617118Y13996063D01*
X56600420Y13959500D01*
X56563302Y13878224D01*
X56544867Y13750000D01*
X54879471Y13750000D01*
X54882882Y13753937D01*
X54936697Y13871774D01*
X54955133Y14000000D01*
X54936697Y14128226D01*
X54882882Y14246063D01*
X54798049Y14343967D01*
X54731032Y14387036D01*
X54689068Y14414005D01*
X54564772Y14450500D01*
X54435228Y14450500D01*
X54310931Y14414005D01*
X54201954Y14343969D01*
X54201950Y14343966D01*
X54117119Y14246065D01*
X54063302Y14128224D01*
X54044867Y14000000D01*
X52455133Y14000000D01*
X52436697Y14128226D01*
X52382882Y14246063D01*
X52298049Y14343967D01*
X52231032Y14387036D01*
X52189068Y14414005D01*
X52064772Y14450500D01*
X51935228Y14450500D01*
X51810931Y14414005D01*
X51701954Y14343969D01*
X51701950Y14343966D01*
X51617119Y14246065D01*
X51563302Y14128224D01*
X51544867Y14000000D01*
X34879471Y14000000D01*
X34798049Y14093967D01*
X34731032Y14137036D01*
X34689068Y14164005D01*
X34564772Y14200500D01*
X34435228Y14200500D01*
X34310931Y14164005D01*
X34201954Y14093969D01*
X34201950Y14093966D01*
X34117119Y13996065D01*
X34117118Y13996064D01*
X34117118Y13996063D01*
X34100420Y13959500D01*
X34063302Y13878224D01*
X34044867Y13750000D01*
X33455133Y13750000D01*
X33436697Y13878226D01*
X33382882Y13996063D01*
X33298049Y14093967D01*
X33231032Y14137036D01*
X33189068Y14164005D01*
X33064772Y14200500D01*
X32935228Y14200500D01*
X32810931Y14164005D01*
X32701954Y14093969D01*
X32701950Y14093966D01*
X32617119Y13996065D01*
X32617118Y13996064D01*
X32617118Y13996063D01*
X32600420Y13959500D01*
X32563302Y13878224D01*
X32544867Y13750000D01*
X500000Y13750000D01*
X500000Y14466896D01*
X1714499Y14466896D01*
X1725123Y14378437D01*
X1780638Y14237659D01*
X1863626Y14128224D01*
X1872078Y14117078D01*
X1992658Y14025639D01*
X2133436Y13970123D01*
X2204764Y13961558D01*
X2221896Y13959500D01*
X2221898Y13959500D01*
X3758104Y13959500D01*
X3773722Y13961376D01*
X3846564Y13970123D01*
X3987342Y14025639D01*
X4107922Y14117078D01*
X4199361Y14237658D01*
X4254877Y14378436D01*
X4265500Y14466898D01*
X4265500Y15250000D01*
X114294867Y15250000D01*
X114313302Y15121777D01*
X114313302Y15121776D01*
X114313303Y15121774D01*
X114367118Y15003937D01*
X114451951Y14906033D01*
X114560931Y14835996D01*
X114685228Y14799500D01*
X114814772Y14799500D01*
X114939069Y14835996D01*
X115048049Y14906033D01*
X115132882Y15003937D01*
X115186697Y15121774D01*
X115205133Y15250000D01*
X115186697Y15378226D01*
X115132882Y15496063D01*
X115129471Y15500000D01*
X117294867Y15500000D01*
X117313302Y15371777D01*
X117313302Y15371776D01*
X117313303Y15371774D01*
X117367118Y15253937D01*
X117451951Y15156033D01*
X117560931Y15085996D01*
X117685228Y15049500D01*
X117814772Y15049500D01*
X117939069Y15085996D01*
X118048049Y15156033D01*
X118132882Y15253937D01*
X118186697Y15371774D01*
X118205133Y15500000D01*
X118186697Y15628226D01*
X118132882Y15746063D01*
X118048049Y15843967D01*
X117981032Y15887036D01*
X117939068Y15914005D01*
X117814772Y15950500D01*
X117685228Y15950500D01*
X117560931Y15914005D01*
X117451954Y15843969D01*
X117451950Y15843966D01*
X117367119Y15746065D01*
X117313302Y15628224D01*
X117294867Y15500000D01*
X115129471Y15500000D01*
X115048049Y15593967D01*
X114981032Y15637036D01*
X114939068Y15664005D01*
X114814772Y15700500D01*
X114685228Y15700500D01*
X114560931Y15664005D01*
X114451954Y15593969D01*
X114451950Y15593966D01*
X114367119Y15496065D01*
X114313302Y15378224D01*
X114294867Y15250000D01*
X4265500Y15250000D01*
X4265500Y15753102D01*
X4254877Y15841564D01*
X4199361Y15982342D01*
X4107922Y16102922D01*
X3987342Y16194361D01*
X3987341Y16194362D01*
X3902079Y16227985D01*
X3846564Y16249877D01*
X3817076Y16253418D01*
X3758104Y16260500D01*
X3758102Y16260500D01*
X2221898Y16260500D01*
X2221896Y16260500D01*
X2133436Y16249877D01*
X1992658Y16194362D01*
X1872078Y16102923D01*
X1872077Y16102922D01*
X1780638Y15982342D01*
X1726071Y15843969D01*
X1725123Y15841564D01*
X1714500Y15753102D01*
X1714500Y14466898D01*
X1714500Y14466896D01*
X1714499Y14466896D01*
X500000Y14466896D01*
X500000Y17503387D01*
X1714500Y17503387D01*
X1724387Y17450500D01*
X1753679Y17293802D01*
X1830702Y17094981D01*
X1942948Y16913698D01*
X2086593Y16756128D01*
X2252079Y16631157D01*
X2256741Y16627637D01*
X2256747Y16627633D01*
X2447606Y16532597D01*
X2447608Y16532597D01*
X2447611Y16532595D01*
X2652690Y16474244D01*
X2652696Y16474243D01*
X2741515Y16466014D01*
X2811806Y16459500D01*
X2811808Y16459500D01*
X3168192Y16459500D01*
X3168194Y16459500D01*
X3257019Y16467731D01*
X3327303Y16474243D01*
X3327307Y16474244D01*
X3327310Y16474244D01*
X3532389Y16532595D01*
X3723255Y16627634D01*
X3893407Y16756128D01*
X4037052Y16913698D01*
X4090488Y17000000D01*
X119544867Y17000000D01*
X119563302Y16871777D01*
X119563302Y16871776D01*
X119563303Y16871774D01*
X119617118Y16753937D01*
X119701951Y16656033D01*
X119810931Y16585996D01*
X119935228Y16549500D01*
X120064772Y16549500D01*
X120189069Y16585996D01*
X120298049Y16656033D01*
X120382882Y16753937D01*
X120436697Y16871774D01*
X120455133Y17000000D01*
X120436697Y17128226D01*
X120382882Y17246063D01*
X120298049Y17343967D01*
X120231032Y17387036D01*
X120189068Y17414005D01*
X120064772Y17450500D01*
X119935228Y17450500D01*
X119810931Y17414005D01*
X119701954Y17343969D01*
X119701950Y17343966D01*
X119617119Y17246065D01*
X119563302Y17128224D01*
X119544867Y17000000D01*
X4090488Y17000000D01*
X4149298Y17094981D01*
X4226321Y17293802D01*
X4265500Y17503390D01*
X4265500Y17716610D01*
X4226321Y17926198D01*
X4149298Y18125019D01*
X4037052Y18306302D01*
X3893407Y18463872D01*
X3845566Y18500000D01*
X18494353Y18500000D01*
X18514834Y18357546D01*
X18514834Y18357545D01*
X18514835Y18357543D01*
X18538236Y18306302D01*
X18574623Y18226627D01*
X18668868Y18117861D01*
X18668869Y18117860D01*
X18668872Y18117857D01*
X18789947Y18040047D01*
X18896403Y18008789D01*
X18928035Y17999501D01*
X18928037Y17999500D01*
X18928039Y17999500D01*
X19071963Y17999500D01*
X19071964Y17999501D01*
X19073663Y18000000D01*
X117294867Y18000000D01*
X117313302Y17871777D01*
X117313302Y17871776D01*
X117313303Y17871774D01*
X117367118Y17753937D01*
X117451951Y17656033D01*
X117560931Y17585996D01*
X117685228Y17549500D01*
X117814772Y17549500D01*
X117939069Y17585996D01*
X118048049Y17656033D01*
X118132882Y17753937D01*
X118186697Y17871774D01*
X118205133Y18000000D01*
X118186697Y18128226D01*
X118132882Y18246063D01*
X118048049Y18343967D01*
X117981032Y18387036D01*
X117939068Y18414005D01*
X117814772Y18450500D01*
X117685228Y18450500D01*
X117560931Y18414005D01*
X117451954Y18343969D01*
X117451950Y18343966D01*
X117367119Y18246065D01*
X117313302Y18128224D01*
X117294867Y18000000D01*
X19073663Y18000000D01*
X19210053Y18040047D01*
X19331128Y18117857D01*
X19425377Y18226627D01*
X19485165Y18357543D01*
X19505647Y18500000D01*
X19485165Y18642457D01*
X19425377Y18773373D01*
X19355992Y18853448D01*
X19331131Y18882140D01*
X19331129Y18882141D01*
X19331128Y18882143D01*
X19274182Y18918740D01*
X19210054Y18959953D01*
X19210050Y18959954D01*
X19071964Y19000500D01*
X19071961Y19000500D01*
X18928039Y19000500D01*
X18928036Y19000500D01*
X18789949Y18959954D01*
X18789945Y18959953D01*
X18668875Y18882145D01*
X18668868Y18882140D01*
X18574623Y18773374D01*
X18514834Y18642455D01*
X18494353Y18500000D01*
X3845566Y18500000D01*
X3723255Y18592366D01*
X3723252Y18592368D01*
X3532393Y18687404D01*
X3532383Y18687407D01*
X3327309Y18745757D01*
X3327303Y18745758D01*
X3168200Y18760500D01*
X3168194Y18760500D01*
X2811806Y18760500D01*
X2811799Y18760500D01*
X2652696Y18745758D01*
X2652690Y18745757D01*
X2447616Y18687407D01*
X2447606Y18687404D01*
X2256747Y18592368D01*
X2256741Y18592364D01*
X2086590Y18463870D01*
X1942946Y18306300D01*
X1830705Y18125024D01*
X1830700Y18125014D01*
X1753680Y17926202D01*
X1714500Y17716614D01*
X1714500Y17503387D01*
X500000Y17503387D01*
X500000Y22735000D01*
X1619356Y22735000D01*
X2531650Y22735000D01*
X2515000Y22678295D01*
X2515000Y22541705D01*
X2531650Y22485000D01*
X1620517Y22485000D01*
X1641414Y22330731D01*
X1641416Y22330720D01*
X1710943Y22116737D01*
X1710948Y22116727D01*
X1817568Y21918593D01*
X1817569Y21918591D01*
X1957853Y21742682D01*
X1957856Y21742678D01*
X2127296Y21594644D01*
X2127298Y21594642D01*
X2320453Y21479237D01*
X2531106Y21400178D01*
X2623438Y21383422D01*
X2667149Y21357894D01*
X2684224Y21310242D01*
X2666675Y21262763D01*
X2630476Y21239436D01*
X2447616Y21187407D01*
X2447606Y21187404D01*
X2256747Y21092368D01*
X2256741Y21092364D01*
X2086590Y20963870D01*
X1942946Y20806300D01*
X1830705Y20625024D01*
X1830700Y20625014D01*
X1753680Y20426202D01*
X1714500Y20216614D01*
X1714500Y20003387D01*
X1724387Y19950500D01*
X1753679Y19793802D01*
X1830702Y19594981D01*
X1942948Y19413698D01*
X2086593Y19256128D01*
X2252079Y19131157D01*
X2256741Y19127637D01*
X2256747Y19127633D01*
X2447606Y19032597D01*
X2447608Y19032597D01*
X2447611Y19032595D01*
X2652690Y18974244D01*
X2652696Y18974243D01*
X2741515Y18966014D01*
X2811806Y18959500D01*
X2811808Y18959500D01*
X3168192Y18959500D01*
X3168194Y18959500D01*
X3257019Y18967731D01*
X3327303Y18974243D01*
X3327307Y18974244D01*
X3327310Y18974244D01*
X3532389Y19032595D01*
X3723255Y19127634D01*
X3893407Y19256128D01*
X4037052Y19413698D01*
X4149298Y19594981D01*
X4226321Y19793802D01*
X4264866Y20000000D01*
X9544867Y20000000D01*
X9563302Y19871777D01*
X9563302Y19871776D01*
X9563303Y19871774D01*
X9617118Y19753937D01*
X9701951Y19656033D01*
X9810931Y19585996D01*
X9935228Y19549500D01*
X10064772Y19549500D01*
X10189069Y19585996D01*
X10298049Y19656033D01*
X10382882Y19753937D01*
X10436697Y19871774D01*
X10437882Y19880019D01*
X12532050Y19880019D01*
X12546438Y19793799D01*
X12569427Y19656032D01*
X12571547Y19643331D01*
X12588146Y19594981D01*
X12649462Y19416371D01*
X12712710Y19299500D01*
X12763671Y19205332D01*
X12911058Y19015969D01*
X13087603Y18853448D01*
X13188046Y18787825D01*
X13288491Y18722201D01*
X13508231Y18625814D01*
X13508236Y18625813D01*
X13508240Y18625811D01*
X13740859Y18566904D01*
X13875490Y18555749D01*
X13920114Y18552050D01*
X13920118Y18552050D01*
X14039886Y18552050D01*
X14081895Y18555532D01*
X14219141Y18566904D01*
X14451760Y18625811D01*
X14451765Y18625814D01*
X14451768Y18625814D01*
X14671508Y18722201D01*
X14671510Y18722202D01*
X14872397Y18853448D01*
X15048942Y19015969D01*
X15196329Y19205332D01*
X15310538Y19416372D01*
X15388453Y19643331D01*
X15427950Y19880019D01*
X15707050Y19880019D01*
X15721438Y19793799D01*
X15744427Y19656032D01*
X15746547Y19643331D01*
X15763146Y19594981D01*
X15824462Y19416371D01*
X15887710Y19299500D01*
X15938671Y19205332D01*
X16086058Y19015969D01*
X16262603Y18853448D01*
X16363046Y18787825D01*
X16463491Y18722201D01*
X16683231Y18625814D01*
X16683236Y18625813D01*
X16683240Y18625811D01*
X16915859Y18566904D01*
X17050490Y18555749D01*
X17095114Y18552050D01*
X17095118Y18552050D01*
X17214886Y18552050D01*
X17256895Y18555532D01*
X17394141Y18566904D01*
X17626760Y18625811D01*
X17626765Y18625814D01*
X17626768Y18625814D01*
X17846508Y18722201D01*
X17846510Y18722202D01*
X18047397Y18853448D01*
X18223942Y19015969D01*
X18371329Y19205332D01*
X18485538Y19416372D01*
X18563453Y19643331D01*
X18581253Y19750000D01*
X19044867Y19750000D01*
X19063302Y19621777D01*
X19063302Y19621776D01*
X19063303Y19621774D01*
X19117118Y19503937D01*
X19201951Y19406033D01*
X19310931Y19335996D01*
X19435228Y19299500D01*
X19564772Y19299500D01*
X19689069Y19335996D01*
X19798049Y19406033D01*
X19882882Y19503937D01*
X19917953Y19580731D01*
X33875598Y19580731D01*
X33894033Y19452508D01*
X33894033Y19452507D01*
X33894034Y19452505D01*
X33947849Y19334668D01*
X34032682Y19236764D01*
X34141662Y19166727D01*
X34265959Y19130231D01*
X34395503Y19130231D01*
X34519800Y19166727D01*
X34628780Y19236764D01*
X34713613Y19334668D01*
X34767428Y19452505D01*
X34774257Y19500000D01*
X52544867Y19500000D01*
X52563302Y19371777D01*
X52563302Y19371776D01*
X52563303Y19371774D01*
X52617118Y19253937D01*
X52701951Y19156033D01*
X52810931Y19085996D01*
X52935228Y19049500D01*
X53064772Y19049500D01*
X53189069Y19085996D01*
X53298049Y19156033D01*
X53382882Y19253937D01*
X53436697Y19371774D01*
X53455133Y19500000D01*
X53449788Y19537177D01*
X68452359Y19537177D01*
X68470794Y19408954D01*
X68470794Y19408953D01*
X68470795Y19408951D01*
X68524610Y19291114D01*
X68609443Y19193210D01*
X68718423Y19123173D01*
X68842720Y19086677D01*
X68972264Y19086677D01*
X69096561Y19123173D01*
X69205541Y19193210D01*
X69290374Y19291114D01*
X69344189Y19408951D01*
X69362625Y19537177D01*
X69344189Y19665403D01*
X69339345Y19676009D01*
X87072676Y19676009D01*
X87091111Y19547786D01*
X87091111Y19547785D01*
X87091112Y19547783D01*
X87144927Y19429946D01*
X87229760Y19332042D01*
X87338740Y19262005D01*
X87463037Y19225509D01*
X87592581Y19225509D01*
X87716878Y19262005D01*
X87825858Y19332042D01*
X87910691Y19429946D01*
X87964506Y19547783D01*
X87982942Y19676009D01*
X87964506Y19804235D01*
X87910691Y19922072D01*
X87843167Y20000000D01*
X103794867Y20000000D01*
X103813302Y19871777D01*
X103813302Y19871776D01*
X103813303Y19871774D01*
X103867118Y19753937D01*
X103951951Y19656033D01*
X104060931Y19585996D01*
X104185228Y19549500D01*
X104314772Y19549500D01*
X104439069Y19585996D01*
X104548049Y19656033D01*
X104632882Y19753937D01*
X104686697Y19871774D01*
X104705133Y20000000D01*
X104686697Y20128226D01*
X104632882Y20246063D01*
X104548049Y20343967D01*
X104481032Y20387036D01*
X104439068Y20414005D01*
X104388006Y20428997D01*
X104347244Y20459009D01*
X104335310Y20508201D01*
X104357788Y20553556D01*
X104388006Y20571003D01*
X104439069Y20585996D01*
X104548049Y20656033D01*
X104632882Y20753937D01*
X104686697Y20871774D01*
X104705133Y21000000D01*
X104686697Y21128226D01*
X104632882Y21246063D01*
X104548049Y21343967D01*
X104460583Y21400178D01*
X104439068Y21414005D01*
X104314772Y21450500D01*
X104185228Y21450500D01*
X104060931Y21414005D01*
X103951954Y21343969D01*
X103951950Y21343966D01*
X103867119Y21246065D01*
X103813302Y21128224D01*
X103794867Y21000000D01*
X103813302Y20871777D01*
X103813302Y20871776D01*
X103813303Y20871774D01*
X103867118Y20753937D01*
X103951951Y20656033D01*
X104000218Y20625014D01*
X104060931Y20585996D01*
X104111993Y20571003D01*
X104152755Y20540990D01*
X104164689Y20491798D01*
X104142211Y20446444D01*
X104111993Y20428997D01*
X104060931Y20414005D01*
X103951954Y20343969D01*
X103951950Y20343966D01*
X103867119Y20246065D01*
X103813302Y20128224D01*
X103794867Y20000000D01*
X87843167Y20000000D01*
X87825858Y20019976D01*
X87723129Y20085996D01*
X87716877Y20090014D01*
X87592581Y20126509D01*
X87463037Y20126509D01*
X87338740Y20090014D01*
X87229763Y20019978D01*
X87229759Y20019975D01*
X87144928Y19922074D01*
X87144927Y19922073D01*
X87144927Y19922072D01*
X87126236Y19881144D01*
X87091111Y19804233D01*
X87072676Y19676009D01*
X69339345Y19676009D01*
X69290374Y19783240D01*
X69205541Y19881144D01*
X69097621Y19950500D01*
X69096560Y19951182D01*
X68972264Y19987677D01*
X68842720Y19987677D01*
X68718423Y19951182D01*
X68609446Y19881146D01*
X68609442Y19881143D01*
X68524611Y19783242D01*
X68470794Y19665401D01*
X68452359Y19537177D01*
X53449788Y19537177D01*
X53436697Y19628226D01*
X53382882Y19746063D01*
X53298049Y19843967D01*
X53231032Y19887036D01*
X53189068Y19914005D01*
X53064772Y19950500D01*
X52935228Y19950500D01*
X52810931Y19914005D01*
X52701954Y19843969D01*
X52701950Y19843966D01*
X52617119Y19746065D01*
X52563302Y19628224D01*
X52544867Y19500000D01*
X34774257Y19500000D01*
X34785864Y19580731D01*
X34767428Y19708957D01*
X34713613Y19826794D01*
X34628780Y19924698D01*
X34561763Y19967767D01*
X34519799Y19994736D01*
X34395503Y20031231D01*
X34265959Y20031231D01*
X34141662Y19994736D01*
X34032685Y19924700D01*
X34032681Y19924697D01*
X33947850Y19826796D01*
X33894033Y19708955D01*
X33875598Y19580731D01*
X19917953Y19580731D01*
X19936697Y19621774D01*
X19955133Y19750000D01*
X19936697Y19878226D01*
X19882882Y19996063D01*
X19798049Y20093967D01*
X19701474Y20156032D01*
X19689068Y20164005D01*
X19564772Y20200500D01*
X19435228Y20200500D01*
X19310931Y20164005D01*
X19201954Y20093969D01*
X19201950Y20093966D01*
X19117119Y19996065D01*
X19063302Y19878224D01*
X19044867Y19750000D01*
X18581253Y19750000D01*
X18602950Y19880019D01*
X18602950Y20119981D01*
X18563453Y20356669D01*
X18514247Y20500000D01*
X22044867Y20500000D01*
X22063302Y20371777D01*
X22063302Y20371776D01*
X22063303Y20371774D01*
X22117118Y20253937D01*
X22201951Y20156033D01*
X22310931Y20085996D01*
X22435228Y20049500D01*
X22564772Y20049500D01*
X22689069Y20085996D01*
X22798049Y20156033D01*
X22882882Y20253937D01*
X22936697Y20371774D01*
X22955133Y20500000D01*
X64544867Y20500000D01*
X64563302Y20371777D01*
X64563302Y20371776D01*
X64563303Y20371774D01*
X64617118Y20253937D01*
X64701951Y20156033D01*
X64810931Y20085996D01*
X64935228Y20049500D01*
X65064772Y20049500D01*
X65189069Y20085996D01*
X65298049Y20156033D01*
X65382882Y20253937D01*
X65436697Y20371774D01*
X65455133Y20500000D01*
X99544867Y20500000D01*
X99563302Y20371777D01*
X99563302Y20371776D01*
X99563303Y20371774D01*
X99617118Y20253937D01*
X99701951Y20156033D01*
X99810931Y20085996D01*
X99935228Y20049500D01*
X100064772Y20049500D01*
X100189069Y20085996D01*
X100298049Y20156033D01*
X100382882Y20253937D01*
X100436697Y20371774D01*
X100455133Y20500000D01*
X100436697Y20628226D01*
X100382882Y20746063D01*
X100298049Y20843967D01*
X100229154Y20888243D01*
X100189068Y20914005D01*
X100064772Y20950500D01*
X99935228Y20950500D01*
X99810931Y20914005D01*
X99701954Y20843969D01*
X99701950Y20843966D01*
X99617119Y20746065D01*
X99563302Y20628224D01*
X99544867Y20500000D01*
X65455133Y20500000D01*
X65436697Y20628226D01*
X65382882Y20746063D01*
X65298049Y20843967D01*
X65229154Y20888243D01*
X65189068Y20914005D01*
X65064772Y20950500D01*
X64935228Y20950500D01*
X64810931Y20914005D01*
X64701954Y20843969D01*
X64701950Y20843966D01*
X64617119Y20746065D01*
X64563302Y20628224D01*
X64544867Y20500000D01*
X22955133Y20500000D01*
X22936697Y20628226D01*
X22882882Y20746063D01*
X22798049Y20843967D01*
X22729154Y20888243D01*
X22689068Y20914005D01*
X22564772Y20950500D01*
X22435228Y20950500D01*
X22310931Y20914005D01*
X22201954Y20843969D01*
X22201950Y20843966D01*
X22117119Y20746065D01*
X22063302Y20628224D01*
X22044867Y20500000D01*
X18514247Y20500000D01*
X18485538Y20583628D01*
X18371329Y20794668D01*
X18223942Y20984031D01*
X18211572Y20995418D01*
X18047397Y21146552D01*
X17846508Y21277800D01*
X17626768Y21374187D01*
X17590300Y21383422D01*
X17394141Y21433096D01*
X17358289Y21436067D01*
X17214886Y21447950D01*
X17214882Y21447950D01*
X17095118Y21447950D01*
X17095114Y21447950D01*
X16915859Y21433096D01*
X16683231Y21374187D01*
X16463491Y21277800D01*
X16262602Y21146552D01*
X16086059Y20984033D01*
X16031554Y20914004D01*
X15977044Y20843969D01*
X15938669Y20794665D01*
X15938667Y20794661D01*
X15824462Y20583630D01*
X15746546Y20356666D01*
X15728090Y20246065D01*
X15707050Y20119981D01*
X15707050Y19880019D01*
X15427950Y19880019D01*
X15427950Y20119981D01*
X15388453Y20356669D01*
X15310538Y20583628D01*
X15196329Y20794668D01*
X15048942Y20984031D01*
X15036572Y20995418D01*
X14872397Y21146552D01*
X14671508Y21277800D01*
X14451768Y21374187D01*
X14415300Y21383422D01*
X14219141Y21433096D01*
X14183289Y21436067D01*
X14039886Y21447950D01*
X14039882Y21447950D01*
X13920118Y21447950D01*
X13920114Y21447950D01*
X13740859Y21433096D01*
X13508231Y21374187D01*
X13288491Y21277800D01*
X13087602Y21146552D01*
X12911059Y20984033D01*
X12856554Y20914004D01*
X12802044Y20843969D01*
X12763669Y20794665D01*
X12763667Y20794661D01*
X12649462Y20583630D01*
X12571546Y20356666D01*
X12553090Y20246065D01*
X12532050Y20119981D01*
X12532050Y19880019D01*
X10437882Y19880019D01*
X10455133Y20000000D01*
X10436697Y20128226D01*
X10382882Y20246063D01*
X10298049Y20343967D01*
X10231032Y20387036D01*
X10189068Y20414005D01*
X10064772Y20450500D01*
X9935228Y20450500D01*
X9810931Y20414005D01*
X9701954Y20343969D01*
X9701950Y20343966D01*
X9617119Y20246065D01*
X9563302Y20128224D01*
X9544867Y20000000D01*
X4264866Y20000000D01*
X4265500Y20003390D01*
X4265500Y20216610D01*
X4226321Y20426198D01*
X4149298Y20625019D01*
X4037052Y20806302D01*
X3893407Y20963872D01*
X3780018Y21049500D01*
X3723258Y21092364D01*
X3723252Y21092368D01*
X3532393Y21187404D01*
X3532383Y21187407D01*
X3356291Y21237510D01*
X3339025Y21250000D01*
X9294867Y21250000D01*
X9313302Y21121777D01*
X9313302Y21121776D01*
X9313303Y21121774D01*
X9367118Y21003937D01*
X9451951Y20906033D01*
X9560931Y20835996D01*
X9685228Y20799500D01*
X9814772Y20799500D01*
X9939069Y20835996D01*
X10048049Y20906033D01*
X10132882Y21003937D01*
X10186697Y21121774D01*
X10205133Y21250000D01*
X10186697Y21378226D01*
X10140330Y21479754D01*
X18300342Y21479754D01*
X18331023Y21305759D01*
X18401001Y21143529D01*
X18401002Y21143528D01*
X18506509Y21001808D01*
X18506515Y21001803D01*
X18641849Y20888243D01*
X18641852Y20888242D01*
X18641854Y20888240D01*
X18799741Y20808946D01*
X18971660Y20768200D01*
X19104019Y20768200D01*
X19235486Y20783566D01*
X19401511Y20843995D01*
X19549126Y20941082D01*
X19670372Y21069595D01*
X19758712Y21222605D01*
X19809385Y21391863D01*
X19815683Y21500000D01*
X33794867Y21500000D01*
X33813302Y21371777D01*
X33813302Y21371776D01*
X33813303Y21371774D01*
X33867118Y21253937D01*
X33951951Y21156033D01*
X34060931Y21085996D01*
X34185228Y21049500D01*
X34314772Y21049500D01*
X34439069Y21085996D01*
X34548049Y21156033D01*
X34629471Y21250000D01*
X52544867Y21250000D01*
X52563302Y21121777D01*
X52563302Y21121776D01*
X52563303Y21121774D01*
X52617118Y21003937D01*
X52701951Y20906033D01*
X52810931Y20835996D01*
X52935228Y20799500D01*
X53064772Y20799500D01*
X53189069Y20835996D01*
X53298049Y20906033D01*
X53382882Y21003937D01*
X53436697Y21121774D01*
X53455133Y21250000D01*
X53442281Y21339386D01*
X68532595Y21339386D01*
X68551030Y21211163D01*
X68551030Y21211162D01*
X68551031Y21211160D01*
X68604846Y21093323D01*
X68689679Y20995419D01*
X68798659Y20925382D01*
X68922956Y20888886D01*
X69052500Y20888886D01*
X69176797Y20925382D01*
X69285777Y20995419D01*
X69370610Y21093323D01*
X69424425Y21211160D01*
X69440637Y21323920D01*
X87152912Y21323920D01*
X87171347Y21195697D01*
X87171347Y21195696D01*
X87171348Y21195694D01*
X87225163Y21077857D01*
X87309996Y20979953D01*
X87418976Y20909916D01*
X87543273Y20873420D01*
X87672817Y20873420D01*
X87797114Y20909916D01*
X87906094Y20979953D01*
X87990927Y21077857D01*
X88044742Y21195694D01*
X88063178Y21323920D01*
X88044742Y21452146D01*
X87990927Y21569983D01*
X87906094Y21667887D01*
X87839077Y21710956D01*
X87797113Y21737925D01*
X87672817Y21774420D01*
X87543273Y21774420D01*
X87418976Y21737925D01*
X87309999Y21667889D01*
X87309995Y21667886D01*
X87225164Y21569985D01*
X87171347Y21452144D01*
X87152912Y21323920D01*
X69440637Y21323920D01*
X69442861Y21339386D01*
X69424425Y21467612D01*
X69370610Y21585449D01*
X69285777Y21683353D01*
X69200861Y21737925D01*
X69176796Y21753391D01*
X69052500Y21789886D01*
X68922956Y21789886D01*
X68798659Y21753391D01*
X68689682Y21683355D01*
X68689678Y21683352D01*
X68604847Y21585451D01*
X68551030Y21467610D01*
X68532595Y21339386D01*
X53442281Y21339386D01*
X53436697Y21378226D01*
X53382882Y21496063D01*
X53298049Y21593967D01*
X53231032Y21637036D01*
X53189068Y21664005D01*
X53064772Y21700500D01*
X52935228Y21700500D01*
X52810931Y21664005D01*
X52701954Y21593969D01*
X52701950Y21593966D01*
X52617119Y21496065D01*
X52617118Y21496064D01*
X52617118Y21496063D01*
X52600420Y21459500D01*
X52563302Y21378224D01*
X52544867Y21250000D01*
X34629471Y21250000D01*
X34632882Y21253937D01*
X34686697Y21371774D01*
X34705133Y21500000D01*
X34686697Y21628226D01*
X34632882Y21746063D01*
X34548049Y21843967D01*
X34454262Y21904240D01*
X34439068Y21914005D01*
X34314772Y21950500D01*
X34185228Y21950500D01*
X34060931Y21914005D01*
X33951954Y21843969D01*
X33951950Y21843966D01*
X33867119Y21746065D01*
X33867118Y21746064D01*
X33867118Y21746063D01*
X33863401Y21737924D01*
X33813302Y21628224D01*
X33794867Y21500000D01*
X19815683Y21500000D01*
X19819658Y21568245D01*
X19788977Y21742241D01*
X19718998Y21904472D01*
X19613491Y22046192D01*
X19613484Y22046198D01*
X19478150Y22159758D01*
X19320260Y22239054D01*
X19320256Y22239055D01*
X19148340Y22279800D01*
X19015981Y22279800D01*
X18884511Y22264434D01*
X18718487Y22204005D01*
X18718486Y22204005D01*
X18570874Y22106918D01*
X18449626Y21978403D01*
X18361288Y21825396D01*
X18361287Y21825394D01*
X18310615Y21656140D01*
X18310615Y21656137D01*
X18303420Y21532594D01*
X18300342Y21479754D01*
X10140330Y21479754D01*
X10132882Y21496063D01*
X10048049Y21593967D01*
X9981032Y21637036D01*
X9939068Y21664005D01*
X9814772Y21700500D01*
X9685228Y21700500D01*
X9560931Y21664005D01*
X9451954Y21593969D01*
X9451950Y21593966D01*
X9367119Y21496065D01*
X9367118Y21496064D01*
X9367118Y21496063D01*
X9350420Y21459500D01*
X9313302Y21378224D01*
X9294867Y21250000D01*
X3339025Y21250000D01*
X3315278Y21267179D01*
X3302932Y21316269D01*
X3325028Y21361811D01*
X3356855Y21380018D01*
X3555994Y21434978D01*
X3758715Y21532602D01*
X3940743Y21664853D01*
X4096239Y21827490D01*
X4096246Y21827499D01*
X4220192Y22015269D01*
X4308623Y22222166D01*
X4308625Y22222171D01*
X4358691Y22441528D01*
X4360644Y22485000D01*
X3448350Y22485000D01*
X3451508Y22495754D01*
X13220342Y22495754D01*
X13251023Y22321759D01*
X13321001Y22159529D01*
X13321002Y22159528D01*
X13426509Y22017808D01*
X13426515Y22017803D01*
X13561849Y21904243D01*
X13561852Y21904242D01*
X13561854Y21904240D01*
X13719741Y21824946D01*
X13891660Y21784200D01*
X14024019Y21784200D01*
X14155486Y21799566D01*
X14321511Y21859995D01*
X14469126Y21957082D01*
X14590372Y22085595D01*
X14678712Y22238605D01*
X14729385Y22407863D01*
X14734949Y22503387D01*
X138849500Y22503387D01*
X138871472Y22385850D01*
X138888679Y22293802D01*
X138965702Y22094981D01*
X139013486Y22017808D01*
X139077758Y21914004D01*
X139077948Y21913698D01*
X139158448Y21825394D01*
X139204917Y21774420D01*
X139221593Y21756128D01*
X139343584Y21664004D01*
X139391741Y21627637D01*
X139391747Y21627633D01*
X139582606Y21532597D01*
X139582608Y21532597D01*
X139582611Y21532595D01*
X139768321Y21479755D01*
X139787690Y21474244D01*
X139787696Y21474243D01*
X139876515Y21466014D01*
X139946806Y21459500D01*
X139946808Y21459500D01*
X140353192Y21459500D01*
X140353194Y21459500D01*
X140442019Y21467731D01*
X140512303Y21474243D01*
X140512307Y21474244D01*
X140512310Y21474244D01*
X140717389Y21532595D01*
X140908255Y21627634D01*
X141078407Y21756128D01*
X141222052Y21913698D01*
X141334298Y22094981D01*
X141411321Y22293802D01*
X141450500Y22503390D01*
X141450500Y22716610D01*
X141411321Y22926198D01*
X141334298Y23125019D01*
X141222052Y23306302D01*
X141078407Y23463872D01*
X140908255Y23592366D01*
X140908252Y23592368D01*
X140717393Y23687404D01*
X140717383Y23687407D01*
X140512309Y23745757D01*
X140512303Y23745758D01*
X140353200Y23760500D01*
X140353194Y23760500D01*
X139946806Y23760500D01*
X139946799Y23760500D01*
X139787696Y23745758D01*
X139787690Y23745757D01*
X139582616Y23687407D01*
X139582606Y23687404D01*
X139391747Y23592368D01*
X139391741Y23592364D01*
X139221590Y23463870D01*
X139077946Y23306300D01*
X138965705Y23125024D01*
X138965700Y23125014D01*
X138888680Y22926202D01*
X138888679Y22926200D01*
X138888679Y22926198D01*
X138887609Y22920472D01*
X138849500Y22716614D01*
X138849500Y22503387D01*
X14734949Y22503387D01*
X14739658Y22584245D01*
X14708977Y22758241D01*
X14638998Y22920472D01*
X14533491Y23062192D01*
X14533484Y23062198D01*
X14398150Y23175758D01*
X14240260Y23255054D01*
X14240256Y23255055D01*
X14068340Y23295800D01*
X13935981Y23295800D01*
X13804511Y23280434D01*
X13638487Y23220005D01*
X13638486Y23220005D01*
X13490874Y23122918D01*
X13369626Y22994403D01*
X13281288Y22841396D01*
X13281287Y22841394D01*
X13230615Y22672140D01*
X13230615Y22672137D01*
X13220342Y22495754D01*
X3451508Y22495754D01*
X3465000Y22541705D01*
X3465000Y22678295D01*
X3448350Y22735000D01*
X4359483Y22735000D01*
X4359483Y22735001D01*
X4338585Y22889270D01*
X4338583Y22889281D01*
X4269056Y23103264D01*
X4269051Y23103274D01*
X4162431Y23301408D01*
X4162430Y23301410D01*
X4022146Y23477319D01*
X4022143Y23477323D01*
X3982733Y23511754D01*
X18300342Y23511754D01*
X18331023Y23337759D01*
X18401001Y23175529D01*
X18401002Y23175528D01*
X18506509Y23033808D01*
X18506515Y23033803D01*
X18641849Y22920243D01*
X18641852Y22920242D01*
X18641854Y22920240D01*
X18799741Y22840946D01*
X18971660Y22800200D01*
X19104019Y22800200D01*
X19235486Y22815566D01*
X19401511Y22875995D01*
X19549126Y22973082D01*
X19670372Y23101595D01*
X19758712Y23254605D01*
X19809385Y23423863D01*
X19819658Y23600245D01*
X19788977Y23774241D01*
X19718998Y23936472D01*
X19613491Y24078192D01*
X19613484Y24078198D01*
X19478150Y24191758D01*
X19320260Y24271054D01*
X19320256Y24271055D01*
X19148340Y24311800D01*
X19015981Y24311800D01*
X18884511Y24296434D01*
X18718487Y24236005D01*
X18718486Y24236005D01*
X18570874Y24138918D01*
X18449626Y24010403D01*
X18361288Y23857396D01*
X18361287Y23857394D01*
X18310615Y23688140D01*
X18310615Y23688137D01*
X18300342Y23511754D01*
X3982733Y23511754D01*
X3852703Y23625357D01*
X3852701Y23625359D01*
X3659546Y23740764D01*
X3448893Y23819823D01*
X3227500Y23860000D01*
X3115000Y23860000D01*
X3115000Y23071913D01*
X3023975Y23085000D01*
X2956025Y23085000D01*
X2865000Y23071913D01*
X2865000Y23860000D01*
X2808865Y23860000D01*
X2640902Y23844883D01*
X2424005Y23785023D01*
X2221284Y23687399D01*
X2039256Y23555148D01*
X1883760Y23392511D01*
X1883753Y23392502D01*
X1759807Y23204732D01*
X1671376Y22997835D01*
X1671374Y22997830D01*
X1621308Y22778473D01*
X1619356Y22735000D01*
X500000Y22735000D01*
X500000Y24960019D01*
X12532050Y24960019D01*
X12558413Y24802035D01*
X12571546Y24723335D01*
X12649462Y24496371D01*
X12713285Y24378437D01*
X12763671Y24285332D01*
X12911058Y24095969D01*
X13087603Y23933448D01*
X13188046Y23867825D01*
X13288491Y23802201D01*
X13508231Y23705814D01*
X13508236Y23705813D01*
X13508240Y23705811D01*
X13740859Y23646904D01*
X13875490Y23635749D01*
X13920114Y23632050D01*
X13920118Y23632050D01*
X14039886Y23632050D01*
X14081895Y23635532D01*
X14219141Y23646904D01*
X14451760Y23705811D01*
X14451765Y23705814D01*
X14451768Y23705814D01*
X14671508Y23802201D01*
X14671510Y23802202D01*
X14872397Y23933448D01*
X15048942Y24095969D01*
X15196329Y24285332D01*
X15310538Y24496372D01*
X15388453Y24723331D01*
X15427950Y24960019D01*
X15707050Y24960019D01*
X15733413Y24802035D01*
X15746546Y24723335D01*
X15824462Y24496371D01*
X15888285Y24378437D01*
X15938671Y24285332D01*
X16086058Y24095969D01*
X16262603Y23933448D01*
X16363046Y23867825D01*
X16463491Y23802201D01*
X16683231Y23705814D01*
X16683236Y23705813D01*
X16683240Y23705811D01*
X16915859Y23646904D01*
X17050490Y23635749D01*
X17095114Y23632050D01*
X17095118Y23632050D01*
X17214886Y23632050D01*
X17256895Y23635532D01*
X17394141Y23646904D01*
X17626760Y23705811D01*
X17626765Y23705814D01*
X17626768Y23705814D01*
X17846508Y23802201D01*
X17846510Y23802202D01*
X18047397Y23933448D01*
X18223942Y24095969D01*
X18371329Y24285332D01*
X18469586Y24466896D01*
X138849499Y24466896D01*
X138860123Y24378437D01*
X138915638Y24237659D01*
X138950445Y24191760D01*
X139007078Y24117078D01*
X139127658Y24025639D01*
X139268436Y23970123D01*
X139339764Y23961558D01*
X139356896Y23959500D01*
X139356898Y23959500D01*
X140943104Y23959500D01*
X140958722Y23961376D01*
X141031564Y23970123D01*
X141172342Y24025639D01*
X141292922Y24117078D01*
X141384361Y24237658D01*
X141439877Y24378436D01*
X141450500Y24466898D01*
X141450500Y25753102D01*
X141439877Y25841564D01*
X141384361Y25982342D01*
X141292922Y26102922D01*
X141222887Y26156032D01*
X141172341Y26194362D01*
X141087079Y26227985D01*
X141031564Y26249877D01*
X140997755Y26253937D01*
X140943104Y26260500D01*
X140943102Y26260500D01*
X139356898Y26260500D01*
X139356896Y26260500D01*
X139268436Y26249877D01*
X139127658Y26194362D01*
X139007078Y26102923D01*
X139007077Y26102922D01*
X138915638Y25982342D01*
X138873176Y25874665D01*
X138860123Y25841564D01*
X138849500Y25753102D01*
X138849500Y24466898D01*
X138849500Y24466896D01*
X138849499Y24466896D01*
X18469586Y24466896D01*
X18485538Y24496372D01*
X18563453Y24723331D01*
X18602950Y24960019D01*
X18602950Y25199981D01*
X18563453Y25436669D01*
X18485538Y25663628D01*
X18371329Y25874668D01*
X18223942Y26064031D01*
X18047397Y26226552D01*
X17846508Y26357800D01*
X17626768Y26454187D01*
X17605205Y26459648D01*
X17445857Y26500000D01*
X52294867Y26500000D01*
X52313302Y26371777D01*
X52313302Y26371776D01*
X52313303Y26371774D01*
X52367118Y26253937D01*
X52451951Y26156033D01*
X52560931Y26085996D01*
X52685228Y26049500D01*
X52814772Y26049500D01*
X52939069Y26085996D01*
X53048049Y26156033D01*
X53132882Y26253937D01*
X53186697Y26371774D01*
X53205133Y26500000D01*
X53186697Y26628226D01*
X53132882Y26746063D01*
X53048049Y26843967D01*
X52951474Y26906032D01*
X52939068Y26914005D01*
X52814772Y26950500D01*
X52685228Y26950500D01*
X52560931Y26914005D01*
X52451954Y26843969D01*
X52451950Y26843966D01*
X52367119Y26746065D01*
X52313302Y26628224D01*
X52294867Y26500000D01*
X17445857Y26500000D01*
X17394141Y26513096D01*
X17358289Y26516067D01*
X17214886Y26527950D01*
X17214882Y26527950D01*
X17095118Y26527950D01*
X17095114Y26527950D01*
X16915859Y26513096D01*
X16683231Y26454187D01*
X16463491Y26357800D01*
X16262602Y26226552D01*
X16086059Y26064033D01*
X15938669Y25874665D01*
X15938667Y25874661D01*
X15824462Y25663630D01*
X15749797Y25446138D01*
X15746547Y25436669D01*
X15707050Y25199981D01*
X15707050Y24960019D01*
X15427950Y24960019D01*
X15427950Y25199981D01*
X15388453Y25436669D01*
X15310538Y25663628D01*
X15196329Y25874668D01*
X15048942Y26064031D01*
X14872397Y26226552D01*
X14671508Y26357800D01*
X14451768Y26454187D01*
X14430205Y26459648D01*
X14219141Y26513096D01*
X14183289Y26516067D01*
X14039886Y26527950D01*
X14039882Y26527950D01*
X13920118Y26527950D01*
X13920114Y26527950D01*
X13740859Y26513096D01*
X13508231Y26454187D01*
X13288491Y26357800D01*
X13087602Y26226552D01*
X12911059Y26064033D01*
X12763669Y25874665D01*
X12763667Y25874661D01*
X12649462Y25663630D01*
X12574797Y25446138D01*
X12571547Y25436669D01*
X12532050Y25199981D01*
X12532050Y24960019D01*
X500000Y24960019D01*
X500000Y27250000D01*
X32544867Y27250000D01*
X32563302Y27121777D01*
X32563302Y27121776D01*
X32563303Y27121774D01*
X32617118Y27003937D01*
X32701951Y26906033D01*
X32810931Y26835996D01*
X32935228Y26799500D01*
X33064772Y26799500D01*
X33189069Y26835996D01*
X33298049Y26906033D01*
X33382882Y27003937D01*
X33436697Y27121774D01*
X33455133Y27250000D01*
X34044867Y27250000D01*
X34063302Y27121777D01*
X34063302Y27121776D01*
X34063303Y27121774D01*
X34117118Y27003937D01*
X34201951Y26906033D01*
X34310931Y26835996D01*
X34435228Y26799500D01*
X34564772Y26799500D01*
X34689069Y26835996D01*
X34798049Y26906033D01*
X34879471Y27000000D01*
X54044867Y27000000D01*
X54063302Y26871777D01*
X54063302Y26871776D01*
X54063303Y26871774D01*
X54117118Y26753937D01*
X54201951Y26656033D01*
X54310931Y26585996D01*
X54435228Y26549500D01*
X54564772Y26549500D01*
X54689069Y26585996D01*
X54798049Y26656033D01*
X54882882Y26753937D01*
X54936697Y26871774D01*
X54955133Y27000000D01*
X67044867Y27000000D01*
X67063302Y26871777D01*
X67063302Y26871776D01*
X67063303Y26871774D01*
X67117118Y26753937D01*
X67201951Y26656033D01*
X67310931Y26585996D01*
X67435228Y26549500D01*
X67564772Y26549500D01*
X67689069Y26585996D01*
X67798049Y26656033D01*
X67882882Y26753937D01*
X67936697Y26871774D01*
X67955133Y27000000D01*
X67936697Y27128226D01*
X67882882Y27246063D01*
X67879471Y27250000D01*
X69544867Y27250000D01*
X69563302Y27121777D01*
X69563302Y27121776D01*
X69563303Y27121774D01*
X69617118Y27003937D01*
X69701951Y26906033D01*
X69810931Y26835996D01*
X69935228Y26799500D01*
X70064772Y26799500D01*
X70189069Y26835996D01*
X70298049Y26906033D01*
X70379471Y27000000D01*
X86544867Y27000000D01*
X86563302Y26871777D01*
X86563302Y26871776D01*
X86563303Y26871774D01*
X86617118Y26753937D01*
X86701951Y26656033D01*
X86810931Y26585996D01*
X86935228Y26549500D01*
X87064772Y26549500D01*
X87189069Y26585996D01*
X87298049Y26656033D01*
X87382882Y26753937D01*
X87436697Y26871774D01*
X87455133Y27000000D01*
X87436697Y27128226D01*
X87382882Y27246063D01*
X87379471Y27250000D01*
X89044867Y27250000D01*
X89063302Y27121777D01*
X89063302Y27121776D01*
X89063303Y27121774D01*
X89117118Y27003937D01*
X89201951Y26906033D01*
X89310931Y26835996D01*
X89435228Y26799500D01*
X89564772Y26799500D01*
X89689069Y26835996D01*
X89798049Y26906033D01*
X89879471Y27000000D01*
X102044867Y27000000D01*
X102063302Y26871777D01*
X102063302Y26871776D01*
X102063303Y26871774D01*
X102117118Y26753937D01*
X102201951Y26656033D01*
X102310931Y26585996D01*
X102435228Y26549500D01*
X102564772Y26549500D01*
X102689069Y26585996D01*
X102798049Y26656033D01*
X102882882Y26753937D01*
X102936697Y26871774D01*
X102955133Y27000000D01*
X104544867Y27000000D01*
X104563302Y26871777D01*
X104563302Y26871776D01*
X104563303Y26871774D01*
X104617118Y26753937D01*
X104701951Y26656033D01*
X104810931Y26585996D01*
X104935228Y26549500D01*
X105064772Y26549500D01*
X105189069Y26585996D01*
X105298049Y26656033D01*
X105382882Y26753937D01*
X105436697Y26871774D01*
X105455133Y27000000D01*
X105436697Y27128226D01*
X105382882Y27246063D01*
X105298049Y27343967D01*
X105201474Y27406032D01*
X105189068Y27414005D01*
X105064772Y27450500D01*
X104935228Y27450500D01*
X104810931Y27414005D01*
X104701954Y27343969D01*
X104701950Y27343966D01*
X104617119Y27246065D01*
X104563302Y27128224D01*
X104544867Y27000000D01*
X102955133Y27000000D01*
X102936697Y27128226D01*
X102882882Y27246063D01*
X102798049Y27343967D01*
X102701474Y27406032D01*
X102689068Y27414005D01*
X102564772Y27450500D01*
X102435228Y27450500D01*
X102310931Y27414005D01*
X102201954Y27343969D01*
X102201950Y27343966D01*
X102117119Y27246065D01*
X102063302Y27128224D01*
X102044867Y27000000D01*
X89879471Y27000000D01*
X89882882Y27003937D01*
X89936697Y27121774D01*
X89955133Y27250000D01*
X89936697Y27378226D01*
X89882882Y27496063D01*
X89879471Y27500000D01*
X127474562Y27500000D01*
X127494266Y27299946D01*
X127509417Y27250000D01*
X127552619Y27107582D01*
X127552620Y27107579D01*
X127552621Y27107578D01*
X127647374Y26930305D01*
X127647384Y26930290D01*
X127724770Y26835996D01*
X127774906Y26774906D01*
X127774911Y26774902D01*
X127774912Y26774901D01*
X127930289Y26647385D01*
X127930292Y26647383D01*
X127930297Y26647379D01*
X128107582Y26552619D01*
X128299947Y26494266D01*
X128500000Y26474562D01*
X128700053Y26494266D01*
X128892418Y26552619D01*
X129069703Y26647379D01*
X129225094Y26774906D01*
X129352621Y26930297D01*
X129447381Y27107582D01*
X129505734Y27299947D01*
X129525438Y27500000D01*
X129505734Y27700053D01*
X129447381Y27892418D01*
X129352621Y28069703D01*
X129352617Y28069708D01*
X129352615Y28069711D01*
X129225099Y28225088D01*
X129225098Y28225089D01*
X129225094Y28225094D01*
X129225087Y28225100D01*
X129069710Y28352616D01*
X129069705Y28352620D01*
X129069703Y28352621D01*
X129069700Y28352623D01*
X129069695Y28352626D01*
X128892422Y28447379D01*
X128892421Y28447380D01*
X128892418Y28447381D01*
X128753591Y28489494D01*
X128700054Y28505734D01*
X128500000Y28525438D01*
X128299945Y28505734D01*
X128192870Y28473253D01*
X128107582Y28447381D01*
X128107579Y28447380D01*
X128107577Y28447379D01*
X127930304Y28352626D01*
X127930289Y28352616D01*
X127774912Y28225100D01*
X127774900Y28225088D01*
X127647384Y28069711D01*
X127647374Y28069696D01*
X127552621Y27892423D01*
X127552620Y27892421D01*
X127552619Y27892418D01*
X127546358Y27871777D01*
X127494266Y27700055D01*
X127474562Y27500000D01*
X89879471Y27500000D01*
X89798049Y27593967D01*
X89701474Y27656032D01*
X89689068Y27664005D01*
X89564772Y27700500D01*
X89435228Y27700500D01*
X89310931Y27664005D01*
X89201954Y27593969D01*
X89201950Y27593966D01*
X89117119Y27496065D01*
X89063302Y27378224D01*
X89044867Y27250000D01*
X87379471Y27250000D01*
X87298049Y27343967D01*
X87201474Y27406032D01*
X87189068Y27414005D01*
X87064772Y27450500D01*
X86935228Y27450500D01*
X86810931Y27414005D01*
X86701954Y27343969D01*
X86701950Y27343966D01*
X86617119Y27246065D01*
X86563302Y27128224D01*
X86544867Y27000000D01*
X70379471Y27000000D01*
X70382882Y27003937D01*
X70436697Y27121774D01*
X70455133Y27250000D01*
X70436697Y27378226D01*
X70382882Y27496063D01*
X70298049Y27593967D01*
X70201474Y27656032D01*
X70189068Y27664005D01*
X70064772Y27700500D01*
X69935228Y27700500D01*
X69810931Y27664005D01*
X69701954Y27593969D01*
X69701950Y27593966D01*
X69617119Y27496065D01*
X69563302Y27378224D01*
X69544867Y27250000D01*
X67879471Y27250000D01*
X67798049Y27343967D01*
X67701474Y27406032D01*
X67689068Y27414005D01*
X67564772Y27450500D01*
X67435228Y27450500D01*
X67310931Y27414005D01*
X67201954Y27343969D01*
X67201950Y27343966D01*
X67117119Y27246065D01*
X67063302Y27128224D01*
X67044867Y27000000D01*
X54955133Y27000000D01*
X54936697Y27128226D01*
X54882882Y27246063D01*
X54798049Y27343967D01*
X54701474Y27406032D01*
X54689068Y27414005D01*
X54564772Y27450500D01*
X54435228Y27450500D01*
X54310931Y27414005D01*
X54201954Y27343969D01*
X54201950Y27343966D01*
X54117119Y27246065D01*
X54063302Y27128224D01*
X54044867Y27000000D01*
X34879471Y27000000D01*
X34882882Y27003937D01*
X34936697Y27121774D01*
X34955133Y27250000D01*
X34936697Y27378226D01*
X34882882Y27496063D01*
X34798049Y27593967D01*
X34701474Y27656032D01*
X34689068Y27664005D01*
X34564772Y27700500D01*
X34435228Y27700500D01*
X34310931Y27664005D01*
X34201954Y27593969D01*
X34201950Y27593966D01*
X34117119Y27496065D01*
X34063302Y27378224D01*
X34044867Y27250000D01*
X33455133Y27250000D01*
X33436697Y27378226D01*
X33382882Y27496063D01*
X33298049Y27593967D01*
X33201474Y27656032D01*
X33189068Y27664005D01*
X33064772Y27700500D01*
X32935228Y27700500D01*
X32810931Y27664005D01*
X32701954Y27593969D01*
X32701950Y27593966D01*
X32617119Y27496065D01*
X32563302Y27378224D01*
X32544867Y27250000D01*
X500000Y27250000D01*
X500000Y27750000D01*
X66044867Y27750000D01*
X66063302Y27621777D01*
X66063302Y27621776D01*
X66063303Y27621774D01*
X66117118Y27503937D01*
X66201951Y27406033D01*
X66310931Y27335996D01*
X66435228Y27299500D01*
X66564772Y27299500D01*
X66689069Y27335996D01*
X66798049Y27406033D01*
X66882882Y27503937D01*
X66936697Y27621774D01*
X66955133Y27750000D01*
X66936697Y27878226D01*
X66882882Y27996063D01*
X66798049Y28093967D01*
X66701474Y28156032D01*
X66689068Y28164005D01*
X66564772Y28200500D01*
X66435228Y28200500D01*
X66310931Y28164005D01*
X66201954Y28093969D01*
X66201950Y28093966D01*
X66117119Y27996065D01*
X66063302Y27878224D01*
X66044867Y27750000D01*
X500000Y27750000D01*
X500000Y28500000D01*
X9294867Y28500000D01*
X9313302Y28371777D01*
X9313302Y28371776D01*
X9313303Y28371774D01*
X9367118Y28253937D01*
X9451951Y28156033D01*
X9560931Y28085996D01*
X9685228Y28049500D01*
X9814772Y28049500D01*
X9939069Y28085996D01*
X10048049Y28156033D01*
X10132882Y28253937D01*
X10186697Y28371774D01*
X10205133Y28500000D01*
X10186697Y28628226D01*
X10132882Y28746063D01*
X10129471Y28750000D01*
X22294867Y28750000D01*
X22313302Y28621777D01*
X22313302Y28621776D01*
X22313303Y28621774D01*
X22367118Y28503937D01*
X22451951Y28406033D01*
X22560931Y28335996D01*
X22685228Y28299500D01*
X22814772Y28299500D01*
X22939069Y28335996D01*
X23048049Y28406033D01*
X23132882Y28503937D01*
X23186697Y28621774D01*
X23187161Y28625000D01*
X36169867Y28625000D01*
X36188302Y28496777D01*
X36188302Y28496776D01*
X36188303Y28496774D01*
X36242118Y28378937D01*
X36326951Y28281033D01*
X36435931Y28210996D01*
X36560228Y28174500D01*
X36689772Y28174500D01*
X36814069Y28210996D01*
X36874761Y28250000D01*
X90044867Y28250000D01*
X90063302Y28121777D01*
X90063302Y28121776D01*
X90063303Y28121774D01*
X90117118Y28003937D01*
X90201951Y27906033D01*
X90310931Y27835996D01*
X90435228Y27799500D01*
X90564772Y27799500D01*
X90689069Y27835996D01*
X90798049Y27906033D01*
X90879471Y28000000D01*
X101044867Y28000000D01*
X101063302Y27871777D01*
X101063302Y27871776D01*
X101063303Y27871774D01*
X101117118Y27753937D01*
X101201951Y27656033D01*
X101310931Y27585996D01*
X101435228Y27549500D01*
X101564772Y27549500D01*
X101689069Y27585996D01*
X101798049Y27656033D01*
X101882882Y27753937D01*
X101936697Y27871774D01*
X101955133Y28000000D01*
X101936697Y28128226D01*
X101882882Y28246063D01*
X101798049Y28343967D01*
X101701474Y28406032D01*
X101689068Y28414005D01*
X101564772Y28450500D01*
X101435228Y28450500D01*
X101310931Y28414005D01*
X101201954Y28343969D01*
X101201950Y28343966D01*
X101117119Y28246065D01*
X101063302Y28128224D01*
X101044867Y28000000D01*
X90879471Y28000000D01*
X90882882Y28003937D01*
X90936697Y28121774D01*
X90955133Y28250000D01*
X90936697Y28378226D01*
X90882882Y28496063D01*
X90798049Y28593967D01*
X90731032Y28637036D01*
X90689068Y28664005D01*
X90564772Y28700500D01*
X90435228Y28700500D01*
X90310931Y28664005D01*
X90201954Y28593969D01*
X90201950Y28593966D01*
X90117119Y28496065D01*
X90117118Y28496064D01*
X90117118Y28496063D01*
X90090210Y28437145D01*
X90063302Y28378224D01*
X90044867Y28250000D01*
X36874761Y28250000D01*
X36923049Y28281033D01*
X37007882Y28378937D01*
X37061697Y28496774D01*
X37080133Y28625000D01*
X37062161Y28750000D01*
X55044867Y28750000D01*
X55063302Y28621777D01*
X55063302Y28621776D01*
X55063303Y28621774D01*
X55117118Y28503937D01*
X55201951Y28406033D01*
X55310931Y28335996D01*
X55435228Y28299500D01*
X55564772Y28299500D01*
X55689069Y28335996D01*
X55798049Y28406033D01*
X55882882Y28503937D01*
X55936697Y28621774D01*
X55955133Y28750000D01*
X55936697Y28878226D01*
X55882882Y28996063D01*
X55798049Y29093967D01*
X55731032Y29137036D01*
X55689068Y29164005D01*
X55564772Y29200500D01*
X55435228Y29200500D01*
X55310931Y29164005D01*
X55201954Y29093969D01*
X55201950Y29093966D01*
X55117119Y28996065D01*
X55063302Y28878224D01*
X55044867Y28750000D01*
X37062161Y28750000D01*
X37061697Y28753226D01*
X37007882Y28871063D01*
X36923049Y28968967D01*
X36852100Y29014563D01*
X36814068Y29039005D01*
X36689772Y29075500D01*
X36560228Y29075500D01*
X36435931Y29039005D01*
X36326954Y28968969D01*
X36326950Y28968966D01*
X36242119Y28871065D01*
X36188302Y28753224D01*
X36169867Y28625000D01*
X23187161Y28625000D01*
X23205133Y28750000D01*
X23186697Y28878226D01*
X23132882Y28996063D01*
X23048049Y29093967D01*
X22981032Y29137036D01*
X22939068Y29164005D01*
X22814772Y29200500D01*
X22685228Y29200500D01*
X22560931Y29164005D01*
X22451954Y29093969D01*
X22451950Y29093966D01*
X22367119Y28996065D01*
X22313302Y28878224D01*
X22294867Y28750000D01*
X10129471Y28750000D01*
X10048049Y28843967D01*
X9951474Y28906032D01*
X9939068Y28914005D01*
X9814772Y28950500D01*
X9685228Y28950500D01*
X9560931Y28914005D01*
X9451954Y28843969D01*
X9451950Y28843966D01*
X9367119Y28746065D01*
X9313302Y28628224D01*
X9294867Y28500000D01*
X500000Y28500000D01*
X500000Y29250000D01*
X43794867Y29250000D01*
X43813302Y29121777D01*
X43813302Y29121776D01*
X43813303Y29121774D01*
X43867118Y29003937D01*
X43951951Y28906033D01*
X44060931Y28835996D01*
X44185228Y28799500D01*
X44314772Y28799500D01*
X44439069Y28835996D01*
X44548049Y28906033D01*
X44632882Y29003937D01*
X44686697Y29121774D01*
X44705133Y29250000D01*
X44686697Y29378226D01*
X44632882Y29496063D01*
X44548049Y29593967D01*
X44481032Y29637036D01*
X44439068Y29664005D01*
X44314772Y29700500D01*
X44185228Y29700500D01*
X44060931Y29664005D01*
X43951954Y29593969D01*
X43951950Y29593966D01*
X43867119Y29496065D01*
X43813302Y29378224D01*
X43794867Y29250000D01*
X500000Y29250000D01*
X500000Y30210000D01*
X14764867Y30210000D01*
X14783302Y30081777D01*
X14783302Y30081776D01*
X14783303Y30081774D01*
X14837118Y29963937D01*
X14921951Y29866033D01*
X15030931Y29795996D01*
X15155228Y29759500D01*
X15284772Y29759500D01*
X15409069Y29795996D01*
X15518049Y29866033D01*
X15602882Y29963937D01*
X15637619Y30040000D01*
X127474562Y30040000D01*
X127494266Y29839947D01*
X127552619Y29647582D01*
X127552620Y29647579D01*
X127552621Y29647578D01*
X127647374Y29470305D01*
X127647384Y29470290D01*
X127774900Y29314913D01*
X127774906Y29314906D01*
X127774911Y29314902D01*
X127774912Y29314901D01*
X127930289Y29187385D01*
X127930292Y29187383D01*
X127930297Y29187379D01*
X128107582Y29092619D01*
X128299947Y29034266D01*
X128500000Y29014562D01*
X128700053Y29034266D01*
X128892418Y29092619D01*
X129069703Y29187379D01*
X129225094Y29314906D01*
X129352621Y29470297D01*
X129447381Y29647582D01*
X129505734Y29839947D01*
X129525438Y30040000D01*
X129505734Y30240053D01*
X129447381Y30432418D01*
X129352621Y30609703D01*
X129352617Y30609708D01*
X129352615Y30609711D01*
X129225099Y30765088D01*
X129225098Y30765089D01*
X129225094Y30765094D01*
X129225087Y30765100D01*
X129069710Y30892616D01*
X129069705Y30892620D01*
X129069703Y30892621D01*
X129069700Y30892623D01*
X129069695Y30892626D01*
X128892422Y30987379D01*
X128892421Y30987380D01*
X128892418Y30987381D01*
X128753591Y31029494D01*
X128700054Y31045734D01*
X128500000Y31065438D01*
X128299945Y31045734D01*
X128192870Y31013253D01*
X128107582Y30987381D01*
X128107579Y30987380D01*
X128107577Y30987379D01*
X127930304Y30892626D01*
X127930289Y30892616D01*
X127774912Y30765100D01*
X127774900Y30765088D01*
X127647384Y30609711D01*
X127647374Y30609696D01*
X127552621Y30432423D01*
X127552620Y30432421D01*
X127552619Y30432418D01*
X127544615Y30406032D01*
X127494266Y30240055D01*
X127485990Y30156032D01*
X127474562Y30040000D01*
X15637619Y30040000D01*
X15656697Y30081774D01*
X15675133Y30210000D01*
X15656697Y30338226D01*
X15602882Y30456063D01*
X15518049Y30553967D01*
X15431322Y30609703D01*
X15409068Y30624005D01*
X15284772Y30660500D01*
X15155228Y30660500D01*
X15030931Y30624005D01*
X14921954Y30553969D01*
X14921950Y30553966D01*
X14837119Y30456065D01*
X14783302Y30338224D01*
X14764867Y30210000D01*
X500000Y30210000D01*
X500000Y30916896D01*
X1974499Y30916896D01*
X1985123Y30828437D01*
X2040638Y30687659D01*
X2099760Y30609696D01*
X2132078Y30567078D01*
X2252658Y30475639D01*
X2393436Y30420123D01*
X2464764Y30411558D01*
X2481896Y30409500D01*
X2481898Y30409500D01*
X4018104Y30409500D01*
X4033722Y30411376D01*
X4106564Y30420123D01*
X4247342Y30475639D01*
X4367922Y30567078D01*
X4459361Y30687658D01*
X4483946Y30750000D01*
X17294867Y30750000D01*
X17313302Y30621777D01*
X17313302Y30621776D01*
X17313303Y30621774D01*
X17367118Y30503937D01*
X17451951Y30406033D01*
X17560931Y30335996D01*
X17685228Y30299500D01*
X17814772Y30299500D01*
X17939069Y30335996D01*
X18048049Y30406033D01*
X18129471Y30500000D01*
X21839867Y30500000D01*
X21858302Y30371777D01*
X21858302Y30371776D01*
X21858303Y30371774D01*
X21912118Y30253937D01*
X21996951Y30156033D01*
X22105931Y30085996D01*
X22230228Y30049500D01*
X22359772Y30049500D01*
X22484069Y30085996D01*
X22593049Y30156033D01*
X22677882Y30253937D01*
X22731697Y30371774D01*
X22750133Y30500000D01*
X22731697Y30628226D01*
X22677882Y30746063D01*
X22593049Y30843967D01*
X22526032Y30887036D01*
X22484068Y30914005D01*
X22359772Y30950500D01*
X22230228Y30950500D01*
X22105931Y30914005D01*
X21996954Y30843969D01*
X21996950Y30843966D01*
X21912119Y30746065D01*
X21858302Y30628224D01*
X21839867Y30500000D01*
X18129471Y30500000D01*
X18132882Y30503937D01*
X18186697Y30621774D01*
X18205133Y30750000D01*
X18186697Y30878226D01*
X18132882Y30996063D01*
X18048049Y31093967D01*
X17981032Y31137036D01*
X17939068Y31164005D01*
X17814772Y31200500D01*
X17685228Y31200500D01*
X17560931Y31164005D01*
X17451954Y31093969D01*
X17451950Y31093966D01*
X17367119Y30996065D01*
X17313302Y30878224D01*
X17294867Y30750000D01*
X4483946Y30750000D01*
X4514877Y30828436D01*
X4524196Y30906035D01*
X4525500Y30916896D01*
X4525500Y31250000D01*
X9794867Y31250000D01*
X9813302Y31121777D01*
X9813302Y31121776D01*
X9813303Y31121774D01*
X9867118Y31003937D01*
X9951951Y30906033D01*
X10060931Y30835996D01*
X10185228Y30799500D01*
X10314772Y30799500D01*
X10439069Y30835996D01*
X10548049Y30906033D01*
X10632882Y31003937D01*
X10686697Y31121774D01*
X10705133Y31250000D01*
X10686697Y31378226D01*
X10632882Y31496063D01*
X10548049Y31593967D01*
X10451474Y31656032D01*
X10439068Y31664005D01*
X10314772Y31700500D01*
X10185228Y31700500D01*
X10060931Y31664005D01*
X9951954Y31593969D01*
X9951950Y31593966D01*
X9867119Y31496065D01*
X9813302Y31378224D01*
X9794867Y31250000D01*
X4525500Y31250000D01*
X4525500Y32203105D01*
X4520341Y32246063D01*
X4519868Y32250000D01*
X17189367Y32250000D01*
X17207802Y32121777D01*
X17207802Y32121776D01*
X17207803Y32121774D01*
X17261618Y32003937D01*
X17346451Y31906033D01*
X17455431Y31835996D01*
X17579728Y31799500D01*
X17709272Y31799500D01*
X17833569Y31835996D01*
X17942549Y31906033D01*
X18023971Y32000000D01*
X20769867Y32000000D01*
X20788302Y31871777D01*
X20788302Y31871776D01*
X20788303Y31871774D01*
X20842118Y31753937D01*
X20926951Y31656033D01*
X21035931Y31585996D01*
X21160228Y31549500D01*
X21289772Y31549500D01*
X21414069Y31585996D01*
X21523049Y31656033D01*
X21607882Y31753937D01*
X21661697Y31871774D01*
X21680133Y32000000D01*
X21661697Y32128226D01*
X21607882Y32246063D01*
X21523049Y32343967D01*
X21415247Y32413247D01*
X21384591Y32453528D01*
X21387000Y32504090D01*
X21421345Y32541274D01*
X21455254Y32549500D01*
X21464772Y32549500D01*
X21568648Y32580000D01*
X127474562Y32580000D01*
X127494266Y32379946D01*
X127505180Y32343969D01*
X127552619Y32187582D01*
X127552620Y32187579D01*
X127552621Y32187578D01*
X127647374Y32010305D01*
X127647384Y32010290D01*
X127774900Y31854913D01*
X127774906Y31854906D01*
X127774911Y31854902D01*
X127774912Y31854901D01*
X127930289Y31727385D01*
X127930292Y31727383D01*
X127930297Y31727379D01*
X127930302Y31727377D01*
X127930304Y31727375D01*
X127995370Y31692597D01*
X128107582Y31632619D01*
X128299947Y31574266D01*
X128500000Y31554562D01*
X128700053Y31574266D01*
X128892418Y31632619D01*
X129069703Y31727379D01*
X129225094Y31854906D01*
X129352621Y32010297D01*
X129447381Y32187582D01*
X129505734Y32379947D01*
X129525438Y32580000D01*
X129517225Y32663387D01*
X138849500Y32663387D01*
X138865088Y32580000D01*
X138879278Y32504090D01*
X138888680Y32453799D01*
X138904096Y32414005D01*
X138965702Y32254981D01*
X139077948Y32073698D01*
X139221593Y31916128D01*
X139302670Y31854901D01*
X139391741Y31787637D01*
X139391747Y31787633D01*
X139582606Y31692597D01*
X139582608Y31692597D01*
X139582611Y31692595D01*
X139787690Y31634244D01*
X139787696Y31634243D01*
X139876515Y31626014D01*
X139946806Y31619500D01*
X139946808Y31619500D01*
X140353192Y31619500D01*
X140353194Y31619500D01*
X140442019Y31627731D01*
X140512303Y31634243D01*
X140512307Y31634244D01*
X140512310Y31634244D01*
X140717389Y31692595D01*
X140908255Y31787634D01*
X141078407Y31916128D01*
X141222052Y32073698D01*
X141334298Y32254981D01*
X141411321Y32453802D01*
X141450500Y32663390D01*
X141450500Y32876610D01*
X141411321Y33086198D01*
X141334298Y33285019D01*
X141222052Y33466302D01*
X141078407Y33623872D01*
X140968082Y33707186D01*
X140908258Y33752364D01*
X140908252Y33752368D01*
X140717393Y33847404D01*
X140717383Y33847407D01*
X140512309Y33905757D01*
X140512303Y33905758D01*
X140353200Y33920500D01*
X140353194Y33920500D01*
X139946806Y33920500D01*
X139946799Y33920500D01*
X139787696Y33905758D01*
X139787690Y33905757D01*
X139582616Y33847407D01*
X139582606Y33847404D01*
X139391747Y33752368D01*
X139391741Y33752364D01*
X139221590Y33623870D01*
X139077946Y33466300D01*
X138965705Y33285024D01*
X138965700Y33285014D01*
X138888680Y33086202D01*
X138849500Y32876614D01*
X138849500Y32663387D01*
X129517225Y32663387D01*
X129505734Y32780053D01*
X129447381Y32972418D01*
X129352621Y33149703D01*
X129352617Y33149708D01*
X129352615Y33149711D01*
X129225099Y33305088D01*
X129225098Y33305089D01*
X129225094Y33305094D01*
X129225087Y33305100D01*
X129069710Y33432616D01*
X129069705Y33432620D01*
X129069703Y33432621D01*
X129069700Y33432623D01*
X129069695Y33432626D01*
X128892422Y33527379D01*
X128892421Y33527380D01*
X128892418Y33527381D01*
X128753591Y33569494D01*
X128700054Y33585734D01*
X128500000Y33605438D01*
X128299945Y33585734D01*
X128192870Y33553253D01*
X128107582Y33527381D01*
X128107579Y33527380D01*
X128107577Y33527379D01*
X127930304Y33432626D01*
X127930289Y33432616D01*
X127774912Y33305100D01*
X127774900Y33305088D01*
X127647384Y33149711D01*
X127647374Y33149696D01*
X127552621Y32972423D01*
X127552620Y32972421D01*
X127552619Y32972418D01*
X127532481Y32906032D01*
X127494266Y32780055D01*
X127474562Y32580000D01*
X21568648Y32580000D01*
X21589069Y32585996D01*
X21698049Y32656033D01*
X21782882Y32753937D01*
X21836697Y32871774D01*
X21855133Y33000000D01*
X21836697Y33128226D01*
X21782882Y33246063D01*
X21698049Y33343967D01*
X21601474Y33406032D01*
X21589068Y33414005D01*
X21464772Y33450500D01*
X21335228Y33450500D01*
X21210931Y33414005D01*
X21101954Y33343969D01*
X21101950Y33343966D01*
X21017119Y33246065D01*
X20963302Y33128224D01*
X20944867Y33000000D01*
X20963302Y32871777D01*
X20963302Y32871776D01*
X20963303Y32871774D01*
X21017118Y32753937D01*
X21101951Y32656033D01*
X21198525Y32593969D01*
X21209753Y32586753D01*
X21240409Y32546472D01*
X21238000Y32495910D01*
X21203655Y32458726D01*
X21169746Y32450500D01*
X21160228Y32450500D01*
X21035931Y32414005D01*
X20926954Y32343969D01*
X20926950Y32343966D01*
X20842119Y32246065D01*
X20788302Y32128224D01*
X20769867Y32000000D01*
X18023971Y32000000D01*
X18027382Y32003937D01*
X18081197Y32121774D01*
X18099633Y32250000D01*
X18081197Y32378226D01*
X18027382Y32496063D01*
X17942549Y32593967D01*
X17845974Y32656032D01*
X17833568Y32664005D01*
X17709272Y32700500D01*
X17579728Y32700500D01*
X17455431Y32664005D01*
X17346454Y32593969D01*
X17346450Y32593966D01*
X17261619Y32496065D01*
X17207802Y32378224D01*
X17189367Y32250000D01*
X4519868Y32250000D01*
X4514877Y32291564D01*
X4459361Y32432342D01*
X4367922Y32552922D01*
X4332215Y32580000D01*
X4247341Y32644362D01*
X4162079Y32677985D01*
X4106564Y32699877D01*
X4077076Y32703418D01*
X4018104Y32710500D01*
X4018102Y32710500D01*
X2481898Y32710500D01*
X2481896Y32710500D01*
X2393436Y32699877D01*
X2252658Y32644362D01*
X2132078Y32552923D01*
X2132077Y32552922D01*
X2040638Y32432342D01*
X1985123Y32291564D01*
X1980731Y32254987D01*
X1974500Y32203102D01*
X1974500Y30916898D01*
X1974500Y30916896D01*
X1974499Y30916896D01*
X500000Y30916896D01*
X500000Y33953387D01*
X1974500Y33953387D01*
X1988551Y33878224D01*
X2013679Y33743802D01*
X2090702Y33544981D01*
X2160273Y33432621D01*
X2197947Y33371774D01*
X2202948Y33363698D01*
X2346593Y33206128D01*
X2449751Y33128226D01*
X2516741Y33077637D01*
X2516747Y33077633D01*
X2707606Y32982597D01*
X2707608Y32982597D01*
X2707611Y32982595D01*
X2912690Y32924244D01*
X2912696Y32924243D01*
X3001515Y32916014D01*
X3071806Y32909500D01*
X3071808Y32909500D01*
X3428192Y32909500D01*
X3428194Y32909500D01*
X3517019Y32917731D01*
X3587303Y32924243D01*
X3587307Y32924244D01*
X3587310Y32924244D01*
X3792389Y32982595D01*
X3983255Y33077634D01*
X4153407Y33206128D01*
X4193402Y33250000D01*
X8044867Y33250000D01*
X8063302Y33121777D01*
X8063302Y33121776D01*
X8063303Y33121774D01*
X8117118Y33003937D01*
X8201951Y32906033D01*
X8310931Y32835996D01*
X8435228Y32799500D01*
X8564772Y32799500D01*
X8689069Y32835996D01*
X8798049Y32906033D01*
X8882882Y33003937D01*
X8936697Y33121774D01*
X8955133Y33250000D01*
X8936697Y33378226D01*
X8882882Y33496063D01*
X8798049Y33593967D01*
X8731032Y33637036D01*
X8689068Y33664005D01*
X8564772Y33700500D01*
X8435228Y33700500D01*
X8310931Y33664005D01*
X8201954Y33593969D01*
X8201950Y33593966D01*
X8117119Y33496065D01*
X8063302Y33378224D01*
X8044867Y33250000D01*
X4193402Y33250000D01*
X4297052Y33363698D01*
X4409298Y33544981D01*
X4486321Y33743802D01*
X4487480Y33750000D01*
X9544867Y33750000D01*
X9563302Y33621777D01*
X9563302Y33621776D01*
X9563303Y33621774D01*
X9617118Y33503937D01*
X9701951Y33406033D01*
X9810931Y33335996D01*
X9935228Y33299500D01*
X10064772Y33299500D01*
X10189069Y33335996D01*
X10298049Y33406033D01*
X10379471Y33500000D01*
X10794867Y33500000D01*
X10813302Y33371777D01*
X10813302Y33371776D01*
X10813303Y33371774D01*
X10867118Y33253937D01*
X10951951Y33156033D01*
X11060931Y33085996D01*
X11185228Y33049500D01*
X11314772Y33049500D01*
X11439069Y33085996D01*
X11548049Y33156033D01*
X11632882Y33253937D01*
X11686697Y33371774D01*
X11705133Y33500000D01*
X26044867Y33500000D01*
X26063302Y33371777D01*
X26063302Y33371776D01*
X26063303Y33371774D01*
X26117118Y33253937D01*
X26201951Y33156033D01*
X26310931Y33085996D01*
X26435228Y33049500D01*
X26564772Y33049500D01*
X26689069Y33085996D01*
X26798049Y33156033D01*
X26882882Y33253937D01*
X26936697Y33371774D01*
X26955133Y33500000D01*
X26936697Y33628226D01*
X26882882Y33746063D01*
X26798049Y33843967D01*
X26731032Y33887036D01*
X26689068Y33914005D01*
X26564772Y33950500D01*
X26435228Y33950500D01*
X26310931Y33914005D01*
X26201954Y33843969D01*
X26201950Y33843966D01*
X26117119Y33746065D01*
X26117118Y33746064D01*
X26117118Y33746063D01*
X26116084Y33743799D01*
X26063302Y33628224D01*
X26044867Y33500000D01*
X11705133Y33500000D01*
X11686697Y33628226D01*
X11632882Y33746063D01*
X11548049Y33843967D01*
X11481032Y33887036D01*
X11439068Y33914005D01*
X11314772Y33950500D01*
X11185228Y33950500D01*
X11060931Y33914005D01*
X10951954Y33843969D01*
X10951950Y33843966D01*
X10867119Y33746065D01*
X10867118Y33746064D01*
X10867118Y33746063D01*
X10866084Y33743799D01*
X10813302Y33628224D01*
X10794867Y33500000D01*
X10379471Y33500000D01*
X10382882Y33503937D01*
X10436697Y33621774D01*
X10455133Y33750000D01*
X10436697Y33878226D01*
X10382882Y33996063D01*
X10298049Y34093967D01*
X10231032Y34137036D01*
X10189068Y34164005D01*
X10064772Y34200500D01*
X9935228Y34200500D01*
X9810931Y34164005D01*
X9701954Y34093969D01*
X9701950Y34093966D01*
X9617119Y33996065D01*
X9563302Y33878224D01*
X9544867Y33750000D01*
X4487480Y33750000D01*
X4525500Y33953390D01*
X4525500Y34166610D01*
X4486321Y34376198D01*
X4409298Y34575019D01*
X4297052Y34756302D01*
X4153407Y34913872D01*
X4039356Y35000000D01*
X13544867Y35000000D01*
X13563302Y34871777D01*
X13563302Y34871776D01*
X13563303Y34871774D01*
X13617118Y34753937D01*
X13701951Y34656033D01*
X13810931Y34585996D01*
X13935228Y34549500D01*
X14064772Y34549500D01*
X14189069Y34585996D01*
X14298049Y34656033D01*
X14382882Y34753937D01*
X14436697Y34871774D01*
X14455133Y35000000D01*
X15544867Y35000000D01*
X15563302Y34871777D01*
X15563302Y34871776D01*
X15563303Y34871774D01*
X15617118Y34753937D01*
X15701951Y34656033D01*
X15810931Y34585996D01*
X15935228Y34549500D01*
X16064772Y34549500D01*
X16189069Y34585996D01*
X16298049Y34656033D01*
X16382882Y34753937D01*
X16436697Y34871774D01*
X16455133Y35000000D01*
X17544867Y35000000D01*
X17563302Y34871777D01*
X17563302Y34871776D01*
X17563303Y34871774D01*
X17617118Y34753937D01*
X17701951Y34656033D01*
X17810931Y34585996D01*
X17935228Y34549500D01*
X18064772Y34549500D01*
X18189069Y34585996D01*
X18252711Y34626896D01*
X138849499Y34626896D01*
X138860123Y34538437D01*
X138915638Y34397659D01*
X138931913Y34376198D01*
X139007078Y34277078D01*
X139127658Y34185639D01*
X139268436Y34130123D01*
X139339764Y34121558D01*
X139356896Y34119500D01*
X139356898Y34119500D01*
X140943104Y34119500D01*
X140958722Y34121376D01*
X141031564Y34130123D01*
X141172342Y34185639D01*
X141292922Y34277078D01*
X141384361Y34397658D01*
X141439877Y34538436D01*
X141450500Y34626898D01*
X141450500Y35913102D01*
X141439877Y36001564D01*
X141384361Y36142342D01*
X141292922Y36262922D01*
X141186049Y36343967D01*
X141172341Y36354362D01*
X141087079Y36387985D01*
X141031564Y36409877D01*
X140997197Y36414004D01*
X140943104Y36420500D01*
X140943102Y36420500D01*
X139356898Y36420500D01*
X139356896Y36420500D01*
X139268436Y36409877D01*
X139127658Y36354362D01*
X139007078Y36262923D01*
X139007077Y36262922D01*
X138915638Y36142342D01*
X138877243Y36044977D01*
X138860123Y36001564D01*
X138849500Y35913102D01*
X138849500Y34626898D01*
X138849500Y34626896D01*
X138849499Y34626896D01*
X18252711Y34626896D01*
X18298049Y34656033D01*
X18382882Y34753937D01*
X18436697Y34871774D01*
X18455133Y35000000D01*
X18436697Y35128226D01*
X18382882Y35246063D01*
X18298049Y35343967D01*
X18201474Y35406032D01*
X18189068Y35414005D01*
X18064772Y35450500D01*
X17935228Y35450500D01*
X17810931Y35414005D01*
X17701954Y35343969D01*
X17701950Y35343966D01*
X17617119Y35246065D01*
X17563302Y35128224D01*
X17544867Y35000000D01*
X16455133Y35000000D01*
X16436697Y35128226D01*
X16382882Y35246063D01*
X16298049Y35343967D01*
X16201474Y35406032D01*
X16189068Y35414005D01*
X16064772Y35450500D01*
X15935228Y35450500D01*
X15810931Y35414005D01*
X15701954Y35343969D01*
X15701950Y35343966D01*
X15617119Y35246065D01*
X15563302Y35128224D01*
X15544867Y35000000D01*
X14455133Y35000000D01*
X14436697Y35128226D01*
X14382882Y35246063D01*
X14298049Y35343967D01*
X14201474Y35406032D01*
X14189068Y35414005D01*
X14064772Y35450500D01*
X13935228Y35450500D01*
X13810931Y35414005D01*
X13701954Y35343969D01*
X13701950Y35343966D01*
X13617119Y35246065D01*
X13563302Y35128224D01*
X13544867Y35000000D01*
X4039356Y35000000D01*
X3983255Y35042366D01*
X3983252Y35042368D01*
X3792393Y35137404D01*
X3792383Y35137407D01*
X3587309Y35195757D01*
X3587303Y35195758D01*
X3428200Y35210500D01*
X3428194Y35210500D01*
X3071806Y35210500D01*
X3071799Y35210500D01*
X2912696Y35195758D01*
X2912690Y35195757D01*
X2707616Y35137407D01*
X2707606Y35137404D01*
X2516747Y35042368D01*
X2516741Y35042364D01*
X2346590Y34913870D01*
X2202946Y34756300D01*
X2090705Y34575024D01*
X2090700Y34575014D01*
X2013680Y34376202D01*
X1974500Y34166614D01*
X1974500Y33953387D01*
X500000Y33953387D01*
X500000Y39185000D01*
X1879356Y39185000D01*
X2791650Y39185000D01*
X2775000Y39128295D01*
X2775000Y38991705D01*
X2791650Y38935000D01*
X1880517Y38935000D01*
X1901414Y38780731D01*
X1901416Y38780720D01*
X1970943Y38566737D01*
X1970948Y38566727D01*
X2077568Y38368593D01*
X2077569Y38368591D01*
X2217853Y38192682D01*
X2217856Y38192678D01*
X2387296Y38044644D01*
X2387298Y38044642D01*
X2580453Y37929237D01*
X2791106Y37850178D01*
X2883438Y37833422D01*
X2927149Y37807894D01*
X2944224Y37760242D01*
X2926675Y37712763D01*
X2890476Y37689436D01*
X2707616Y37637407D01*
X2707606Y37637404D01*
X2516747Y37542368D01*
X2516741Y37542364D01*
X2346590Y37413870D01*
X2202946Y37256300D01*
X2090705Y37075024D01*
X2090700Y37075014D01*
X2013680Y36876202D01*
X1974500Y36666614D01*
X1974500Y36453387D01*
X1988551Y36378224D01*
X2013679Y36243802D01*
X2090702Y36044981D01*
X2116116Y36003936D01*
X2197947Y35871774D01*
X2202948Y35863698D01*
X2346593Y35706128D01*
X2458291Y35621777D01*
X2516741Y35577637D01*
X2516747Y35577633D01*
X2707606Y35482597D01*
X2707608Y35482597D01*
X2707611Y35482595D01*
X2912690Y35424244D01*
X2912696Y35424243D01*
X3001515Y35416014D01*
X3071806Y35409500D01*
X3071808Y35409500D01*
X3428192Y35409500D01*
X3428194Y35409500D01*
X3517019Y35417731D01*
X3587303Y35424243D01*
X3587307Y35424244D01*
X3587310Y35424244D01*
X3792389Y35482595D01*
X3983255Y35577634D01*
X4153407Y35706128D01*
X4297052Y35863698D01*
X4381447Y36000000D01*
X14544867Y36000000D01*
X14563302Y35871777D01*
X14563302Y35871776D01*
X14563303Y35871774D01*
X14617118Y35753937D01*
X14701951Y35656033D01*
X14810931Y35585996D01*
X14935228Y35549500D01*
X15064772Y35549500D01*
X15189069Y35585996D01*
X15298049Y35656033D01*
X15382882Y35753937D01*
X15436697Y35871774D01*
X15455133Y36000000D01*
X16794867Y36000000D01*
X16813302Y35871777D01*
X16813302Y35871776D01*
X16813303Y35871774D01*
X16867118Y35753937D01*
X16951951Y35656033D01*
X17060931Y35585996D01*
X17185228Y35549500D01*
X17314772Y35549500D01*
X17439069Y35585996D01*
X17548049Y35656033D01*
X17629471Y35750000D01*
X22544867Y35750000D01*
X22563302Y35621777D01*
X22563302Y35621776D01*
X22563303Y35621774D01*
X22617118Y35503937D01*
X22701951Y35406033D01*
X22810931Y35335996D01*
X22935228Y35299500D01*
X23064772Y35299500D01*
X23189069Y35335996D01*
X23298049Y35406033D01*
X23382882Y35503937D01*
X23436697Y35621774D01*
X23455133Y35750000D01*
X23794867Y35750000D01*
X23813302Y35621777D01*
X23813302Y35621776D01*
X23813303Y35621774D01*
X23867118Y35503937D01*
X23951951Y35406033D01*
X24060931Y35335996D01*
X24185228Y35299500D01*
X24314772Y35299500D01*
X24439069Y35335996D01*
X24548049Y35406033D01*
X24632882Y35503937D01*
X24686697Y35621774D01*
X24705133Y35750000D01*
X24686697Y35878226D01*
X24632882Y35996063D01*
X24548049Y36093967D01*
X24472776Y36142342D01*
X24439068Y36164005D01*
X24314772Y36200500D01*
X24185228Y36200500D01*
X24060931Y36164005D01*
X23951954Y36093969D01*
X23951950Y36093966D01*
X23867119Y35996065D01*
X23813302Y35878224D01*
X23794867Y35750000D01*
X23455133Y35750000D01*
X23436697Y35878226D01*
X23382882Y35996063D01*
X23298049Y36093967D01*
X23222776Y36142342D01*
X23189068Y36164005D01*
X23064772Y36200500D01*
X22935228Y36200500D01*
X22810931Y36164005D01*
X22701954Y36093969D01*
X22701950Y36093966D01*
X22617119Y35996065D01*
X22563302Y35878224D01*
X22544867Y35750000D01*
X17629471Y35750000D01*
X17632882Y35753937D01*
X17686697Y35871774D01*
X17705133Y36000000D01*
X17686697Y36128226D01*
X17632882Y36246063D01*
X17629471Y36250000D01*
X25294867Y36250000D01*
X25313302Y36121777D01*
X25313302Y36121776D01*
X25313303Y36121774D01*
X25367118Y36003937D01*
X25451951Y35906033D01*
X25560931Y35835996D01*
X25685228Y35799500D01*
X25814772Y35799500D01*
X25939069Y35835996D01*
X26048049Y35906033D01*
X26132882Y36003937D01*
X26186697Y36121774D01*
X26205133Y36250000D01*
X26186697Y36378226D01*
X26132882Y36496063D01*
X26048049Y36593967D01*
X25951474Y36656032D01*
X25939068Y36664005D01*
X25814772Y36700500D01*
X25685228Y36700500D01*
X25560931Y36664005D01*
X25451954Y36593969D01*
X25451950Y36593966D01*
X25367119Y36496065D01*
X25313302Y36378224D01*
X25294867Y36250000D01*
X17629471Y36250000D01*
X17548049Y36343967D01*
X17445491Y36409877D01*
X17439068Y36414005D01*
X17314772Y36450500D01*
X17185228Y36450500D01*
X17060931Y36414005D01*
X16951954Y36343969D01*
X16951950Y36343966D01*
X16867119Y36246065D01*
X16867118Y36246064D01*
X16867118Y36246063D01*
X16866084Y36243799D01*
X16813302Y36128224D01*
X16794867Y36000000D01*
X15455133Y36000000D01*
X15436697Y36128226D01*
X15382882Y36246063D01*
X15298049Y36343967D01*
X15195491Y36409877D01*
X15189068Y36414005D01*
X15064772Y36450500D01*
X14935228Y36450500D01*
X14810931Y36414005D01*
X14701954Y36343969D01*
X14701950Y36343966D01*
X14617119Y36246065D01*
X14617118Y36246064D01*
X14617118Y36246063D01*
X14616084Y36243799D01*
X14563302Y36128224D01*
X14544867Y36000000D01*
X4381447Y36000000D01*
X4409298Y36044981D01*
X4486321Y36243802D01*
X4525500Y36453390D01*
X4525500Y36666610D01*
X4486321Y36876198D01*
X4438360Y37000000D01*
X13544867Y37000000D01*
X13563302Y36871777D01*
X13563302Y36871776D01*
X13563303Y36871774D01*
X13617118Y36753937D01*
X13701951Y36656033D01*
X13810931Y36585996D01*
X13935228Y36549500D01*
X14064772Y36549500D01*
X14189069Y36585996D01*
X14298049Y36656033D01*
X14382882Y36753937D01*
X14436697Y36871774D01*
X14455133Y37000000D01*
X17544867Y37000000D01*
X17563302Y36871777D01*
X17563302Y36871776D01*
X17563303Y36871774D01*
X17617118Y36753937D01*
X17701951Y36656033D01*
X17810931Y36585996D01*
X17935228Y36549500D01*
X18064772Y36549500D01*
X18189069Y36585996D01*
X18298049Y36656033D01*
X18382882Y36753937D01*
X18436697Y36871774D01*
X18455133Y37000000D01*
X18436697Y37128226D01*
X18382882Y37246063D01*
X18298049Y37343967D01*
X18189278Y37413870D01*
X18189068Y37414005D01*
X18064772Y37450500D01*
X17935228Y37450500D01*
X17810931Y37414005D01*
X17701954Y37343969D01*
X17701950Y37343966D01*
X17617119Y37246065D01*
X17563302Y37128224D01*
X17544867Y37000000D01*
X14455133Y37000000D01*
X14436697Y37128226D01*
X14382882Y37246063D01*
X14298049Y37343967D01*
X14189278Y37413870D01*
X14189068Y37414005D01*
X14064772Y37450500D01*
X13935228Y37450500D01*
X13810931Y37414005D01*
X13701954Y37343969D01*
X13701950Y37343966D01*
X13617119Y37246065D01*
X13563302Y37128224D01*
X13544867Y37000000D01*
X4438360Y37000000D01*
X4409298Y37075019D01*
X4297052Y37256302D01*
X4153407Y37413872D01*
X3983255Y37542366D01*
X3983252Y37542368D01*
X3792393Y37637404D01*
X3792383Y37637407D01*
X3616291Y37687510D01*
X3575278Y37717179D01*
X3562932Y37766269D01*
X3585028Y37811811D01*
X3616855Y37830018D01*
X3815994Y37884978D01*
X4018715Y37982602D01*
X4042661Y38000000D01*
X14544867Y38000000D01*
X14563302Y37871777D01*
X14563302Y37871776D01*
X14563303Y37871774D01*
X14617118Y37753937D01*
X14701951Y37656033D01*
X14810931Y37585996D01*
X14935228Y37549500D01*
X15064772Y37549500D01*
X15189069Y37585996D01*
X15298049Y37656033D01*
X15382882Y37753937D01*
X15436697Y37871774D01*
X15455133Y38000000D01*
X16544867Y38000000D01*
X16563302Y37871777D01*
X16563302Y37871776D01*
X16563303Y37871774D01*
X16617118Y37753937D01*
X16701951Y37656033D01*
X16810931Y37585996D01*
X16935228Y37549500D01*
X17064772Y37549500D01*
X17189069Y37585996D01*
X17298049Y37656033D01*
X17382882Y37753937D01*
X17436697Y37871774D01*
X17455133Y38000000D01*
X17436697Y38128226D01*
X17382882Y38246063D01*
X17351581Y38282187D01*
X22614867Y38282187D01*
X22633302Y38153964D01*
X22633302Y38153963D01*
X22633303Y38153961D01*
X22687118Y38036124D01*
X22771951Y37938220D01*
X22880931Y37868183D01*
X23005228Y37831687D01*
X23134772Y37831687D01*
X23259069Y37868183D01*
X23368049Y37938220D01*
X23452882Y38036124D01*
X23506697Y38153961D01*
X23525133Y38282187D01*
X23506697Y38410413D01*
X23465783Y38500000D01*
X120794867Y38500000D01*
X120813302Y38371777D01*
X120813302Y38371776D01*
X120813303Y38371774D01*
X120867118Y38253937D01*
X120951951Y38156033D01*
X121060931Y38085996D01*
X121185228Y38049500D01*
X121314772Y38049500D01*
X121439069Y38085996D01*
X121548049Y38156033D01*
X121632882Y38253937D01*
X121686697Y38371774D01*
X121705133Y38500000D01*
X124794867Y38500000D01*
X124813302Y38371777D01*
X124813302Y38371776D01*
X124813303Y38371774D01*
X124867118Y38253937D01*
X124951951Y38156033D01*
X125060931Y38085996D01*
X125185228Y38049500D01*
X125314772Y38049500D01*
X125439069Y38085996D01*
X125548049Y38156033D01*
X125632882Y38253937D01*
X125686697Y38371774D01*
X125705133Y38500000D01*
X125686697Y38628226D01*
X125632882Y38746063D01*
X125548049Y38843967D01*
X125481032Y38887036D01*
X125439068Y38914005D01*
X125314772Y38950500D01*
X125185228Y38950500D01*
X125060931Y38914005D01*
X124951954Y38843969D01*
X124951950Y38843966D01*
X124867119Y38746065D01*
X124813302Y38628224D01*
X124794867Y38500000D01*
X121705133Y38500000D01*
X121686697Y38628226D01*
X121632882Y38746063D01*
X121548049Y38843967D01*
X121481032Y38887036D01*
X121439068Y38914005D01*
X121314772Y38950500D01*
X121185228Y38950500D01*
X121060931Y38914005D01*
X120951954Y38843969D01*
X120951950Y38843966D01*
X120867119Y38746065D01*
X120813302Y38628224D01*
X120794867Y38500000D01*
X23465783Y38500000D01*
X23452882Y38528250D01*
X23368049Y38626154D01*
X23296445Y38672171D01*
X23259068Y38696192D01*
X23134772Y38732687D01*
X23005228Y38732687D01*
X22880931Y38696192D01*
X22771954Y38626156D01*
X22771950Y38626153D01*
X22687119Y38528252D01*
X22633302Y38410411D01*
X22614867Y38282187D01*
X17351581Y38282187D01*
X17298049Y38343967D01*
X17194657Y38410413D01*
X17189068Y38414005D01*
X17064772Y38450500D01*
X16935228Y38450500D01*
X16810931Y38414005D01*
X16701954Y38343969D01*
X16701950Y38343966D01*
X16617119Y38246065D01*
X16563302Y38128224D01*
X16544867Y38000000D01*
X15455133Y38000000D01*
X15436697Y38128226D01*
X15382882Y38246063D01*
X15298049Y38343967D01*
X15194657Y38410413D01*
X15189068Y38414005D01*
X15064772Y38450500D01*
X14935228Y38450500D01*
X14810931Y38414005D01*
X14701954Y38343969D01*
X14701950Y38343966D01*
X14617119Y38246065D01*
X14563302Y38128224D01*
X14544867Y38000000D01*
X4042661Y38000000D01*
X4200743Y38114853D01*
X4356239Y38277490D01*
X4356246Y38277499D01*
X4480192Y38465269D01*
X4568623Y38672166D01*
X4568625Y38672171D01*
X4618691Y38891528D01*
X4620644Y38935000D01*
X3708350Y38935000D01*
X3725000Y38991705D01*
X3725000Y39000000D01*
X13544867Y39000000D01*
X13563302Y38871777D01*
X13563302Y38871776D01*
X13563303Y38871774D01*
X13617118Y38753937D01*
X13701951Y38656033D01*
X13810931Y38585996D01*
X13935228Y38549500D01*
X14064772Y38549500D01*
X14189069Y38585996D01*
X14298049Y38656033D01*
X14382882Y38753937D01*
X14436697Y38871774D01*
X14455133Y39000000D01*
X15544867Y39000000D01*
X15563302Y38871777D01*
X15563302Y38871776D01*
X15563303Y38871774D01*
X15617118Y38753937D01*
X15701951Y38656033D01*
X15810931Y38585996D01*
X15935228Y38549500D01*
X16064772Y38549500D01*
X16189069Y38585996D01*
X16298049Y38656033D01*
X16382882Y38753937D01*
X16436697Y38871774D01*
X16455133Y39000000D01*
X17544867Y39000000D01*
X17563302Y38871777D01*
X17563302Y38871776D01*
X17563303Y38871774D01*
X17617118Y38753937D01*
X17701951Y38656033D01*
X17810931Y38585996D01*
X17935228Y38549500D01*
X18064772Y38549500D01*
X18189069Y38585996D01*
X18298049Y38656033D01*
X18382882Y38753937D01*
X18436697Y38871774D01*
X18455133Y39000000D01*
X18436697Y39128226D01*
X18382882Y39246063D01*
X18379471Y39250000D01*
X26794867Y39250000D01*
X26813302Y39121777D01*
X26813302Y39121776D01*
X26813303Y39121774D01*
X26867118Y39003937D01*
X26951951Y38906033D01*
X27060931Y38835996D01*
X27185228Y38799500D01*
X27314772Y38799500D01*
X27439069Y38835996D01*
X27548049Y38906033D01*
X27632882Y39003937D01*
X27686697Y39121774D01*
X27705133Y39250000D01*
X27686697Y39378226D01*
X27632882Y39496063D01*
X27548049Y39593967D01*
X27453497Y39654732D01*
X27439068Y39664005D01*
X27314772Y39700500D01*
X27185228Y39700500D01*
X27060931Y39664005D01*
X26951954Y39593969D01*
X26951950Y39593966D01*
X26867119Y39496065D01*
X26813302Y39378224D01*
X26794867Y39250000D01*
X18379471Y39250000D01*
X18298049Y39343967D01*
X18231032Y39387036D01*
X18189068Y39414005D01*
X18064772Y39450500D01*
X17935228Y39450500D01*
X17810931Y39414005D01*
X17701954Y39343969D01*
X17701950Y39343966D01*
X17617119Y39246065D01*
X17563302Y39128224D01*
X17544867Y39000000D01*
X16455133Y39000000D01*
X16436697Y39128226D01*
X16382882Y39246063D01*
X16298049Y39343967D01*
X16231032Y39387036D01*
X16189068Y39414005D01*
X16064772Y39450500D01*
X15935228Y39450500D01*
X15810931Y39414005D01*
X15701954Y39343969D01*
X15701950Y39343966D01*
X15617119Y39246065D01*
X15563302Y39128224D01*
X15544867Y39000000D01*
X14455133Y39000000D01*
X14436697Y39128226D01*
X14382882Y39246063D01*
X14298049Y39343967D01*
X14231032Y39387036D01*
X14189068Y39414005D01*
X14064772Y39450500D01*
X13935228Y39450500D01*
X13810931Y39414005D01*
X13701954Y39343969D01*
X13701950Y39343966D01*
X13617119Y39246065D01*
X13563302Y39128224D01*
X13544867Y39000000D01*
X3725000Y39000000D01*
X3725000Y39128295D01*
X3708350Y39185000D01*
X4619483Y39185000D01*
X4619483Y39185001D01*
X4598585Y39339270D01*
X4598583Y39339281D01*
X4529056Y39553264D01*
X4529051Y39553274D01*
X4422431Y39751408D01*
X4422430Y39751410D01*
X4282146Y39927319D01*
X4282143Y39927323D01*
X4112703Y40075357D01*
X4112701Y40075359D01*
X3919546Y40190764D01*
X3708893Y40269823D01*
X3487500Y40310000D01*
X3375000Y40310000D01*
X3375000Y39521913D01*
X3283975Y39535000D01*
X3216025Y39535000D01*
X3125000Y39521913D01*
X3125000Y40310000D01*
X3068865Y40310000D01*
X2900902Y40294883D01*
X2684005Y40235023D01*
X2481284Y40137399D01*
X2299256Y40005148D01*
X2143760Y39842511D01*
X2143753Y39842502D01*
X2019807Y39654732D01*
X1931376Y39447835D01*
X1931374Y39447830D01*
X1881308Y39228473D01*
X1879356Y39185000D01*
X500000Y39185000D01*
X500000Y40500000D01*
X10264867Y40500000D01*
X10283302Y40371777D01*
X10283302Y40371776D01*
X10283303Y40371774D01*
X10337118Y40253937D01*
X10421951Y40156033D01*
X10530931Y40085996D01*
X10655228Y40049500D01*
X10784772Y40049500D01*
X10909069Y40085996D01*
X11018049Y40156033D01*
X11102882Y40253937D01*
X11156697Y40371774D01*
X11175133Y40500000D01*
X11156697Y40628226D01*
X11102882Y40746063D01*
X11099471Y40750000D01*
X24794867Y40750000D01*
X24813302Y40621777D01*
X24813302Y40621776D01*
X24813303Y40621774D01*
X24867118Y40503937D01*
X24951951Y40406033D01*
X25060931Y40335996D01*
X25185228Y40299500D01*
X25314772Y40299500D01*
X25439069Y40335996D01*
X25548049Y40406033D01*
X25632882Y40503937D01*
X25686697Y40621774D01*
X25705133Y40750000D01*
X25686697Y40878226D01*
X25632882Y40996063D01*
X25548049Y41093967D01*
X25451474Y41156032D01*
X25439068Y41164005D01*
X25314772Y41200500D01*
X25185228Y41200500D01*
X25060931Y41164005D01*
X24951954Y41093969D01*
X24951950Y41093966D01*
X24867119Y40996065D01*
X24813302Y40878224D01*
X24794867Y40750000D01*
X11099471Y40750000D01*
X11018049Y40843967D01*
X10951032Y40887036D01*
X10909068Y40914005D01*
X10784772Y40950500D01*
X10655228Y40950500D01*
X10530931Y40914005D01*
X10421954Y40843969D01*
X10421950Y40843966D01*
X10337119Y40746065D01*
X10283302Y40628224D01*
X10264867Y40500000D01*
X500000Y40500000D01*
X500000Y41500000D01*
X74044867Y41500000D01*
X74063302Y41371777D01*
X74063302Y41371776D01*
X74063303Y41371774D01*
X74117118Y41253937D01*
X74201951Y41156033D01*
X74310931Y41085996D01*
X74435228Y41049500D01*
X74564772Y41049500D01*
X74689069Y41085996D01*
X74798049Y41156033D01*
X74882882Y41253937D01*
X74936697Y41371774D01*
X74955133Y41500000D01*
X77044867Y41500000D01*
X77063302Y41371777D01*
X77063302Y41371776D01*
X77063303Y41371774D01*
X77117118Y41253937D01*
X77201951Y41156033D01*
X77310931Y41085996D01*
X77435228Y41049500D01*
X77564772Y41049500D01*
X77689069Y41085996D01*
X77798049Y41156033D01*
X77882882Y41253937D01*
X77936697Y41371774D01*
X77955133Y41500000D01*
X82044867Y41500000D01*
X82063302Y41371777D01*
X82063302Y41371776D01*
X82063303Y41371774D01*
X82117118Y41253937D01*
X82201951Y41156033D01*
X82310931Y41085996D01*
X82435228Y41049500D01*
X82564772Y41049500D01*
X82689069Y41085996D01*
X82798049Y41156033D01*
X82882882Y41253937D01*
X82936697Y41371774D01*
X82955133Y41500000D01*
X87044867Y41500000D01*
X87063302Y41371777D01*
X87063302Y41371776D01*
X87063303Y41371774D01*
X87117118Y41253937D01*
X87201951Y41156033D01*
X87310931Y41085996D01*
X87435228Y41049500D01*
X87564772Y41049500D01*
X87689069Y41085996D01*
X87798049Y41156033D01*
X87882882Y41253937D01*
X87936697Y41371774D01*
X87955133Y41500000D01*
X92044867Y41500000D01*
X92063302Y41371777D01*
X92063302Y41371776D01*
X92063303Y41371774D01*
X92117118Y41253937D01*
X92201951Y41156033D01*
X92310931Y41085996D01*
X92435228Y41049500D01*
X92564772Y41049500D01*
X92689069Y41085996D01*
X92798049Y41156033D01*
X92882882Y41253937D01*
X92936697Y41371774D01*
X92955133Y41500000D01*
X97044867Y41500000D01*
X97063302Y41371777D01*
X97063302Y41371776D01*
X97063303Y41371774D01*
X97117118Y41253937D01*
X97201951Y41156033D01*
X97310931Y41085996D01*
X97435228Y41049500D01*
X97564772Y41049500D01*
X97689069Y41085996D01*
X97798049Y41156033D01*
X97882882Y41253937D01*
X97936697Y41371774D01*
X97955133Y41500000D01*
X102044867Y41500000D01*
X102063302Y41371777D01*
X102063302Y41371776D01*
X102063303Y41371774D01*
X102117118Y41253937D01*
X102201951Y41156033D01*
X102310931Y41085996D01*
X102435228Y41049500D01*
X102564772Y41049500D01*
X102689069Y41085996D01*
X102798049Y41156033D01*
X102882882Y41253937D01*
X102936697Y41371774D01*
X102955133Y41500000D01*
X107044867Y41500000D01*
X107063302Y41371777D01*
X107063302Y41371776D01*
X107063303Y41371774D01*
X107117118Y41253937D01*
X107201951Y41156033D01*
X107310931Y41085996D01*
X107435228Y41049500D01*
X107564772Y41049500D01*
X107689069Y41085996D01*
X107798049Y41156033D01*
X107882882Y41253937D01*
X107936697Y41371774D01*
X107955133Y41500000D01*
X112044867Y41500000D01*
X112063302Y41371777D01*
X112063302Y41371776D01*
X112063303Y41371774D01*
X112117118Y41253937D01*
X112201951Y41156033D01*
X112310931Y41085996D01*
X112435228Y41049500D01*
X112564772Y41049500D01*
X112689069Y41085996D01*
X112798049Y41156033D01*
X112882882Y41253937D01*
X112936697Y41371774D01*
X112955133Y41500000D01*
X112936697Y41628226D01*
X112882882Y41746063D01*
X112798049Y41843967D01*
X112701474Y41906032D01*
X112689068Y41914005D01*
X112564772Y41950500D01*
X112435228Y41950500D01*
X112310931Y41914005D01*
X112201954Y41843969D01*
X112201950Y41843966D01*
X112117119Y41746065D01*
X112063302Y41628224D01*
X112044867Y41500000D01*
X107955133Y41500000D01*
X107936697Y41628226D01*
X107882882Y41746063D01*
X107798049Y41843967D01*
X107701474Y41906032D01*
X107689068Y41914005D01*
X107564772Y41950500D01*
X107435228Y41950500D01*
X107310931Y41914005D01*
X107201954Y41843969D01*
X107201950Y41843966D01*
X107117119Y41746065D01*
X107063302Y41628224D01*
X107044867Y41500000D01*
X102955133Y41500000D01*
X102936697Y41628226D01*
X102882882Y41746063D01*
X102798049Y41843967D01*
X102701474Y41906032D01*
X102689068Y41914005D01*
X102564772Y41950500D01*
X102435228Y41950500D01*
X102310931Y41914005D01*
X102201954Y41843969D01*
X102201950Y41843966D01*
X102117119Y41746065D01*
X102063302Y41628224D01*
X102044867Y41500000D01*
X97955133Y41500000D01*
X97936697Y41628226D01*
X97882882Y41746063D01*
X97798049Y41843967D01*
X97701474Y41906032D01*
X97689068Y41914005D01*
X97564772Y41950500D01*
X97435228Y41950500D01*
X97310931Y41914005D01*
X97201954Y41843969D01*
X97201950Y41843966D01*
X97117119Y41746065D01*
X97063302Y41628224D01*
X97044867Y41500000D01*
X92955133Y41500000D01*
X92936697Y41628226D01*
X92882882Y41746063D01*
X92798049Y41843967D01*
X92701474Y41906032D01*
X92689068Y41914005D01*
X92564772Y41950500D01*
X92435228Y41950500D01*
X92310931Y41914005D01*
X92201954Y41843969D01*
X92201950Y41843966D01*
X92117119Y41746065D01*
X92063302Y41628224D01*
X92044867Y41500000D01*
X87955133Y41500000D01*
X87936697Y41628226D01*
X87882882Y41746063D01*
X87798049Y41843967D01*
X87701474Y41906032D01*
X87689068Y41914005D01*
X87564772Y41950500D01*
X87435228Y41950500D01*
X87310931Y41914005D01*
X87201954Y41843969D01*
X87201950Y41843966D01*
X87117119Y41746065D01*
X87063302Y41628224D01*
X87044867Y41500000D01*
X82955133Y41500000D01*
X82936697Y41628226D01*
X82882882Y41746063D01*
X82798049Y41843967D01*
X82701474Y41906032D01*
X82689068Y41914005D01*
X82564772Y41950500D01*
X82435228Y41950500D01*
X82310931Y41914005D01*
X82201954Y41843969D01*
X82201950Y41843966D01*
X82117119Y41746065D01*
X82063302Y41628224D01*
X82044867Y41500000D01*
X77955133Y41500000D01*
X77936697Y41628226D01*
X77882882Y41746063D01*
X77798049Y41843967D01*
X77701474Y41906032D01*
X77689068Y41914005D01*
X77564772Y41950500D01*
X77435228Y41950500D01*
X77310931Y41914005D01*
X77201954Y41843969D01*
X77201950Y41843966D01*
X77117119Y41746065D01*
X77063302Y41628224D01*
X77044867Y41500000D01*
X74955133Y41500000D01*
X74936697Y41628226D01*
X74882882Y41746063D01*
X74798049Y41843967D01*
X74701474Y41906032D01*
X74689068Y41914005D01*
X74564772Y41950500D01*
X74435228Y41950500D01*
X74310931Y41914005D01*
X74201954Y41843969D01*
X74201950Y41843966D01*
X74117119Y41746065D01*
X74063302Y41628224D01*
X74044867Y41500000D01*
X500000Y41500000D01*
X500000Y42250000D01*
X16819866Y42250000D01*
X16838301Y42121777D01*
X16838301Y42121776D01*
X16838302Y42121774D01*
X16892117Y42003937D01*
X16976950Y41906033D01*
X17085930Y41835996D01*
X17210227Y41799500D01*
X17339771Y41799500D01*
X17464068Y41835996D01*
X17573048Y41906033D01*
X17654470Y42000000D01*
X26794867Y42000000D01*
X26813302Y41871777D01*
X26813302Y41871776D01*
X26813303Y41871774D01*
X26867118Y41753937D01*
X26951951Y41656033D01*
X27060931Y41585996D01*
X27185228Y41549500D01*
X27314772Y41549500D01*
X27439069Y41585996D01*
X27548049Y41656033D01*
X27632882Y41753937D01*
X27686697Y41871774D01*
X27705133Y42000000D01*
X27686697Y42128226D01*
X27632882Y42246063D01*
X27548049Y42343967D01*
X27451474Y42406032D01*
X27439068Y42414005D01*
X27314772Y42450500D01*
X27185228Y42450500D01*
X27060931Y42414005D01*
X26951954Y42343969D01*
X26951950Y42343966D01*
X26867119Y42246065D01*
X26813302Y42128224D01*
X26794867Y42000000D01*
X17654470Y42000000D01*
X17657881Y42003937D01*
X17711696Y42121774D01*
X17730132Y42250000D01*
X17711696Y42378226D01*
X17657881Y42496063D01*
X17654470Y42500000D01*
X120794867Y42500000D01*
X120813302Y42371777D01*
X120813302Y42371776D01*
X120813303Y42371774D01*
X120867118Y42253937D01*
X120951951Y42156033D01*
X121060931Y42085996D01*
X121185228Y42049500D01*
X121314772Y42049500D01*
X121439069Y42085996D01*
X121548049Y42156033D01*
X121629471Y42250000D01*
X124544867Y42250000D01*
X124563302Y42121777D01*
X124563302Y42121776D01*
X124563303Y42121774D01*
X124617118Y42003937D01*
X124701951Y41906033D01*
X124810931Y41835996D01*
X124935228Y41799500D01*
X125064772Y41799500D01*
X125189069Y41835996D01*
X125298049Y41906033D01*
X125382882Y42003937D01*
X125436697Y42121774D01*
X125455133Y42250000D01*
X125436697Y42378226D01*
X125382882Y42496063D01*
X125298049Y42593967D01*
X125231032Y42637036D01*
X125189068Y42664005D01*
X125064772Y42700500D01*
X124935228Y42700500D01*
X124810931Y42664005D01*
X124701954Y42593969D01*
X124701950Y42593966D01*
X124617119Y42496065D01*
X124563302Y42378224D01*
X124544867Y42250000D01*
X121629471Y42250000D01*
X121632882Y42253937D01*
X121686697Y42371774D01*
X121705133Y42500000D01*
X121686697Y42628226D01*
X121632882Y42746063D01*
X121548049Y42843967D01*
X121451474Y42906032D01*
X121439068Y42914005D01*
X121314772Y42950500D01*
X121185228Y42950500D01*
X121060931Y42914005D01*
X120951954Y42843969D01*
X120951950Y42843966D01*
X120867119Y42746065D01*
X120813302Y42628224D01*
X120794867Y42500000D01*
X17654470Y42500000D01*
X17573048Y42593967D01*
X17506031Y42637036D01*
X17464067Y42664005D01*
X17339771Y42700500D01*
X17210227Y42700500D01*
X17085930Y42664005D01*
X16976953Y42593969D01*
X16976949Y42593966D01*
X16892118Y42496065D01*
X16838301Y42378224D01*
X16819866Y42250000D01*
X500000Y42250000D01*
X500000Y42750000D01*
X13544867Y42750000D01*
X13563302Y42621777D01*
X13563302Y42621776D01*
X13563303Y42621774D01*
X13617118Y42503937D01*
X13701951Y42406033D01*
X13810931Y42335996D01*
X13935228Y42299500D01*
X14064772Y42299500D01*
X14189069Y42335996D01*
X14298049Y42406033D01*
X14382882Y42503937D01*
X14436697Y42621774D01*
X14455133Y42750000D01*
X14436697Y42878226D01*
X14382882Y42996063D01*
X14298049Y43093967D01*
X14201474Y43156032D01*
X14189068Y43164005D01*
X14064772Y43200500D01*
X13935228Y43200500D01*
X13810931Y43164005D01*
X13701954Y43093969D01*
X13701950Y43093966D01*
X13617119Y42996065D01*
X13563302Y42878224D01*
X13544867Y42750000D01*
X500000Y42750000D01*
X500000Y43500000D01*
X8824867Y43500000D01*
X8843302Y43371777D01*
X8843302Y43371776D01*
X8843303Y43371774D01*
X8897118Y43253937D01*
X8981951Y43156033D01*
X9090931Y43085996D01*
X9215228Y43049500D01*
X9344772Y43049500D01*
X9469069Y43085996D01*
X9578049Y43156033D01*
X9659471Y43250000D01*
X25044867Y43250000D01*
X25063302Y43121777D01*
X25063302Y43121776D01*
X25063303Y43121774D01*
X25117118Y43003937D01*
X25201951Y42906033D01*
X25310931Y42835996D01*
X25435228Y42799500D01*
X25564772Y42799500D01*
X25689069Y42835996D01*
X25798049Y42906033D01*
X25882882Y43003937D01*
X25936697Y43121774D01*
X25955133Y43250000D01*
X25936697Y43378226D01*
X25882882Y43496063D01*
X25836146Y43550000D01*
X137044867Y43550000D01*
X137063302Y43421777D01*
X137063302Y43421776D01*
X137063303Y43421774D01*
X137117118Y43303937D01*
X137201951Y43206033D01*
X137310931Y43135996D01*
X137435228Y43099500D01*
X137564772Y43099500D01*
X137689069Y43135996D01*
X137798049Y43206033D01*
X137882882Y43303937D01*
X137936697Y43421774D01*
X137955133Y43550000D01*
X137936697Y43678226D01*
X137882882Y43796063D01*
X137798049Y43893967D01*
X137710082Y43950500D01*
X137689068Y43964005D01*
X137564772Y44000500D01*
X137435228Y44000500D01*
X137310931Y43964005D01*
X137201954Y43893969D01*
X137201950Y43893966D01*
X137117119Y43796065D01*
X137117118Y43796064D01*
X137117118Y43796063D01*
X137090210Y43737145D01*
X137063302Y43678224D01*
X137044867Y43550000D01*
X25836146Y43550000D01*
X25798049Y43593967D01*
X25731032Y43637036D01*
X25689068Y43664005D01*
X25564772Y43700500D01*
X25435228Y43700500D01*
X25310931Y43664005D01*
X25201954Y43593969D01*
X25201950Y43593966D01*
X25117119Y43496065D01*
X25063302Y43378224D01*
X25044867Y43250000D01*
X9659471Y43250000D01*
X9662882Y43253937D01*
X9716697Y43371774D01*
X9735133Y43500000D01*
X9716697Y43628226D01*
X9662882Y43746063D01*
X9578049Y43843967D01*
X9500244Y43893969D01*
X9469068Y43914005D01*
X9389048Y43937500D01*
X16042367Y43937500D01*
X16060802Y43809277D01*
X16060802Y43809276D01*
X16060803Y43809274D01*
X16114618Y43691437D01*
X16199451Y43593533D01*
X16308431Y43523496D01*
X16432728Y43487000D01*
X16562272Y43487000D01*
X16686569Y43523496D01*
X16795549Y43593533D01*
X16880382Y43691437D01*
X16934197Y43809274D01*
X16952633Y43937500D01*
X16934197Y44065726D01*
X16880382Y44183563D01*
X16795549Y44281467D01*
X16728532Y44324536D01*
X16686568Y44351505D01*
X16562272Y44388000D01*
X16432728Y44388000D01*
X16308431Y44351505D01*
X16199454Y44281469D01*
X16199450Y44281466D01*
X16114619Y44183565D01*
X16060802Y44065724D01*
X16042367Y43937500D01*
X9389048Y43937500D01*
X9344772Y43950500D01*
X9215228Y43950500D01*
X9090931Y43914005D01*
X8981954Y43843969D01*
X8981950Y43843966D01*
X8897119Y43746065D01*
X8843302Y43628224D01*
X8824867Y43500000D01*
X500000Y43500000D01*
X500000Y44500000D01*
X26794867Y44500000D01*
X26813302Y44371777D01*
X26813302Y44371776D01*
X26813303Y44371774D01*
X26867118Y44253937D01*
X26951951Y44156033D01*
X27060931Y44085996D01*
X27185228Y44049500D01*
X27314772Y44049500D01*
X27439069Y44085996D01*
X27548049Y44156033D01*
X27632882Y44253937D01*
X27686697Y44371774D01*
X27705133Y44500000D01*
X27686697Y44628226D01*
X27632882Y44746063D01*
X27548049Y44843967D01*
X27481032Y44887036D01*
X27439068Y44914005D01*
X27314772Y44950500D01*
X27185228Y44950500D01*
X27060931Y44914005D01*
X26951954Y44843969D01*
X26951950Y44843966D01*
X26867119Y44746065D01*
X26813302Y44628224D01*
X26794867Y44500000D01*
X500000Y44500000D01*
X500000Y45750000D01*
X25294867Y45750000D01*
X25313302Y45621777D01*
X25313302Y45621776D01*
X25313303Y45621774D01*
X25367118Y45503937D01*
X25451951Y45406033D01*
X25560931Y45335996D01*
X25685228Y45299500D01*
X25814772Y45299500D01*
X25939069Y45335996D01*
X26048049Y45406033D01*
X26132882Y45503937D01*
X26186697Y45621774D01*
X26205133Y45750000D01*
X26186697Y45878226D01*
X26132882Y45996063D01*
X26048049Y46093967D01*
X25981032Y46137036D01*
X25939068Y46164005D01*
X25814772Y46200500D01*
X25685228Y46200500D01*
X25560931Y46164005D01*
X25451954Y46093969D01*
X25451950Y46093966D01*
X25367119Y45996065D01*
X25313302Y45878224D01*
X25294867Y45750000D01*
X500000Y45750000D01*
X500000Y50000000D01*
X1494696Y50000000D01*
X1513898Y49633593D01*
X1513898Y49633592D01*
X1571295Y49271204D01*
X1666255Y48916808D01*
X1797743Y48574268D01*
X1797747Y48574258D01*
X1964312Y48247357D01*
X1964318Y48247348D01*
X2164149Y47939634D01*
X2395051Y47654494D01*
X2654494Y47395051D01*
X2939634Y47164149D01*
X3198462Y46996065D01*
X3247356Y46964313D01*
X3574257Y46797748D01*
X3574262Y46797746D01*
X3574264Y46797745D01*
X3916801Y46666258D01*
X3916803Y46666258D01*
X3916807Y46666256D01*
X4153071Y46602950D01*
X4271206Y46571295D01*
X4633596Y46513898D01*
X5000000Y46494696D01*
X5366404Y46513898D01*
X5728794Y46571295D01*
X6083199Y46666258D01*
X6301355Y46750000D01*
X16044867Y46750000D01*
X16063302Y46621777D01*
X16063302Y46621776D01*
X16063303Y46621774D01*
X16117118Y46503937D01*
X16201951Y46406033D01*
X16310931Y46335996D01*
X16435228Y46299500D01*
X16564772Y46299500D01*
X16689069Y46335996D01*
X16798049Y46406033D01*
X16882882Y46503937D01*
X16936697Y46621774D01*
X16955133Y46750000D01*
X26794867Y46750000D01*
X26813302Y46621777D01*
X26813302Y46621776D01*
X26813303Y46621774D01*
X26867118Y46503937D01*
X26951951Y46406033D01*
X27060931Y46335996D01*
X27185228Y46299500D01*
X27314772Y46299500D01*
X27439069Y46335996D01*
X27548049Y46406033D01*
X27632882Y46503937D01*
X27686697Y46621774D01*
X27705133Y46750000D01*
X27686697Y46878226D01*
X27632882Y46996063D01*
X27548049Y47093967D01*
X27481032Y47137036D01*
X27439068Y47164005D01*
X27314772Y47200500D01*
X27185228Y47200500D01*
X27060931Y47164005D01*
X26951954Y47093969D01*
X26951950Y47093966D01*
X26867119Y46996065D01*
X26813302Y46878224D01*
X26794867Y46750000D01*
X16955133Y46750000D01*
X16936697Y46878226D01*
X16882882Y46996063D01*
X16798049Y47093967D01*
X16731032Y47137036D01*
X16689068Y47164005D01*
X16564772Y47200500D01*
X16435228Y47200500D01*
X16310931Y47164005D01*
X16201954Y47093969D01*
X16201950Y47093966D01*
X16117119Y46996065D01*
X16063302Y46878224D01*
X16044867Y46750000D01*
X6301355Y46750000D01*
X6425736Y46797745D01*
X6583688Y46878226D01*
X6752643Y46964313D01*
X6752645Y46964315D01*
X6752652Y46964318D01*
X7060366Y47164149D01*
X7345506Y47395051D01*
X7604949Y47654494D01*
X7682288Y47750000D01*
X25294867Y47750000D01*
X25313302Y47621777D01*
X25313302Y47621776D01*
X25313303Y47621774D01*
X25367118Y47503937D01*
X25451951Y47406033D01*
X25560931Y47335996D01*
X25685228Y47299500D01*
X25814772Y47299500D01*
X25939069Y47335996D01*
X26048049Y47406033D01*
X26132882Y47503937D01*
X26186697Y47621774D01*
X26205133Y47750000D01*
X26186697Y47878226D01*
X26132882Y47996063D01*
X26048049Y48093967D01*
X25951474Y48156032D01*
X25939068Y48164005D01*
X25814772Y48200500D01*
X25685228Y48200500D01*
X25560931Y48164005D01*
X25451954Y48093969D01*
X25451950Y48093966D01*
X25367119Y47996065D01*
X25313302Y47878224D01*
X25294867Y47750000D01*
X7682288Y47750000D01*
X7835851Y47939634D01*
X8035682Y48247348D01*
X8038402Y48252685D01*
X8103737Y48380911D01*
X13310856Y48380911D01*
X13329291Y48252688D01*
X13329291Y48252687D01*
X13329292Y48252685D01*
X13383107Y48134848D01*
X13467940Y48036944D01*
X13576920Y47966907D01*
X13701217Y47930411D01*
X13830761Y47930411D01*
X13955058Y47966907D01*
X14064038Y48036944D01*
X14148871Y48134848D01*
X14202686Y48252685D01*
X14221122Y48380911D01*
X14219939Y48389140D01*
X15250219Y48389140D01*
X15268654Y48260917D01*
X15268654Y48260916D01*
X15268655Y48260914D01*
X15322470Y48143077D01*
X15407303Y48045173D01*
X15516283Y47975136D01*
X15640580Y47938640D01*
X15770124Y47938640D01*
X15894421Y47975136D01*
X16003401Y48045173D01*
X16088234Y48143077D01*
X16142049Y48260914D01*
X16160485Y48389140D01*
X16144546Y48500000D01*
X76544867Y48500000D01*
X76563302Y48371777D01*
X76563302Y48371776D01*
X76563303Y48371774D01*
X76617118Y48253937D01*
X76701951Y48156033D01*
X76810931Y48085996D01*
X76935228Y48049500D01*
X77064772Y48049500D01*
X77189069Y48085996D01*
X77298049Y48156033D01*
X77382882Y48253937D01*
X77436697Y48371774D01*
X77455133Y48500000D01*
X77436697Y48628226D01*
X77382882Y48746063D01*
X77298049Y48843967D01*
X77231032Y48887036D01*
X77189068Y48914005D01*
X77064772Y48950500D01*
X76935228Y48950500D01*
X76810931Y48914005D01*
X76701954Y48843969D01*
X76701950Y48843966D01*
X76617119Y48746065D01*
X76563302Y48628224D01*
X76544867Y48500000D01*
X16144546Y48500000D01*
X16142049Y48517366D01*
X16088234Y48635203D01*
X16003401Y48733107D01*
X15907224Y48794916D01*
X15894420Y48803145D01*
X15770124Y48839640D01*
X15640580Y48839640D01*
X15516283Y48803145D01*
X15407306Y48733109D01*
X15407302Y48733106D01*
X15322471Y48635205D01*
X15268654Y48517364D01*
X15250219Y48389140D01*
X14219939Y48389140D01*
X14202686Y48509137D01*
X14148871Y48626974D01*
X14064038Y48724878D01*
X13997021Y48767947D01*
X13955057Y48794916D01*
X13830761Y48831411D01*
X13701217Y48831411D01*
X13576920Y48794916D01*
X13467943Y48724880D01*
X13467939Y48724877D01*
X13383108Y48626976D01*
X13329291Y48509135D01*
X13310856Y48380911D01*
X8103737Y48380911D01*
X8202252Y48574258D01*
X8202252Y48574259D01*
X8202255Y48574264D01*
X8333742Y48916801D01*
X8356035Y49000000D01*
X117294867Y49000000D01*
X117313302Y48871777D01*
X117313302Y48871776D01*
X117313303Y48871774D01*
X117367118Y48753937D01*
X117451951Y48656033D01*
X117560931Y48585996D01*
X117685228Y48549500D01*
X117814772Y48549500D01*
X117939069Y48585996D01*
X118048049Y48656033D01*
X118132882Y48753937D01*
X118186697Y48871774D01*
X118205133Y49000000D01*
X119294867Y49000000D01*
X119313302Y48871777D01*
X119313302Y48871776D01*
X119313303Y48871774D01*
X119367118Y48753937D01*
X119451951Y48656033D01*
X119560931Y48585996D01*
X119685228Y48549500D01*
X119814772Y48549500D01*
X119939069Y48585996D01*
X120048049Y48656033D01*
X120132882Y48753937D01*
X120186697Y48871774D01*
X120205133Y49000000D01*
X120186697Y49128226D01*
X120132882Y49246063D01*
X120048049Y49343967D01*
X119981032Y49387036D01*
X119939068Y49414005D01*
X119814772Y49450500D01*
X119685228Y49450500D01*
X119560931Y49414005D01*
X119451954Y49343969D01*
X119451950Y49343966D01*
X119367119Y49246065D01*
X119313302Y49128224D01*
X119294867Y49000000D01*
X118205133Y49000000D01*
X118186697Y49128226D01*
X118132882Y49246063D01*
X118048049Y49343967D01*
X117981032Y49387036D01*
X117939068Y49414005D01*
X117814772Y49450500D01*
X117685228Y49450500D01*
X117560931Y49414005D01*
X117451954Y49343969D01*
X117451950Y49343966D01*
X117367119Y49246065D01*
X117313302Y49128224D01*
X117294867Y49000000D01*
X8356035Y49000000D01*
X8428705Y49271206D01*
X8486102Y49633596D01*
X8505304Y50000000D01*
X136494696Y50000000D01*
X136513898Y49633593D01*
X136513898Y49633592D01*
X136571295Y49271204D01*
X136666255Y48916808D01*
X136797743Y48574268D01*
X136797747Y48574258D01*
X136964312Y48247357D01*
X136964318Y48247348D01*
X137164149Y47939634D01*
X137395051Y47654494D01*
X137654494Y47395051D01*
X137939634Y47164149D01*
X138198462Y46996065D01*
X138247356Y46964313D01*
X138574257Y46797748D01*
X138574262Y46797746D01*
X138574264Y46797745D01*
X138916801Y46666258D01*
X138916803Y46666258D01*
X138916807Y46666256D01*
X139153071Y46602950D01*
X139271206Y46571295D01*
X139633596Y46513898D01*
X140000000Y46494696D01*
X140366404Y46513898D01*
X140728794Y46571295D01*
X141083199Y46666258D01*
X141425736Y46797745D01*
X141583688Y46878226D01*
X141752643Y46964313D01*
X141752645Y46964315D01*
X141752652Y46964318D01*
X142060366Y47164149D01*
X142345506Y47395051D01*
X142604949Y47654494D01*
X142835851Y47939634D01*
X143035682Y48247348D01*
X143038402Y48252685D01*
X143202252Y48574258D01*
X143202252Y48574259D01*
X143202255Y48574264D01*
X143333742Y48916801D01*
X143428705Y49271206D01*
X143486102Y49633596D01*
X143505304Y50000000D01*
X143486102Y50366404D01*
X143428705Y50728794D01*
X143333742Y51083199D01*
X143202255Y51425736D01*
X143202254Y51425738D01*
X143202252Y51425743D01*
X143035687Y51752644D01*
X143034848Y51753936D01*
X142835851Y52060366D01*
X142604949Y52345506D01*
X142345506Y52604949D01*
X142060366Y52835851D01*
X141752652Y53035682D01*
X141752653Y53035682D01*
X141752643Y53035688D01*
X141425742Y53202253D01*
X141425732Y53202257D01*
X141083192Y53333745D01*
X140728796Y53428705D01*
X140366408Y53486102D01*
X140000000Y53505304D01*
X139633592Y53486102D01*
X139633591Y53486102D01*
X139271203Y53428705D01*
X138916807Y53333745D01*
X138574267Y53202257D01*
X138574257Y53202253D01*
X138247356Y53035688D01*
X137939632Y52835850D01*
X137654491Y52604947D01*
X137395053Y52345509D01*
X137164150Y52060368D01*
X136964312Y51752644D01*
X136797747Y51425743D01*
X136797743Y51425733D01*
X136666255Y51083193D01*
X136571295Y50728797D01*
X136513898Y50366409D01*
X136513898Y50366408D01*
X136494696Y50000000D01*
X8505304Y50000000D01*
X8486102Y50366404D01*
X8428705Y50728794D01*
X8356035Y51000000D01*
X11494867Y51000000D01*
X11513302Y50871777D01*
X11513302Y50871776D01*
X11513303Y50871774D01*
X11567118Y50753937D01*
X11651951Y50656033D01*
X11760931Y50585996D01*
X11885228Y50549500D01*
X12014772Y50549500D01*
X12139069Y50585996D01*
X12248049Y50656033D01*
X12332882Y50753937D01*
X12386697Y50871774D01*
X12405133Y51000000D01*
X16994867Y51000000D01*
X17013302Y50871777D01*
X17013302Y50871776D01*
X17013303Y50871774D01*
X17067118Y50753937D01*
X17151951Y50656033D01*
X17260931Y50585996D01*
X17385228Y50549500D01*
X17514772Y50549500D01*
X17639069Y50585996D01*
X17748049Y50656033D01*
X17832882Y50753937D01*
X17886697Y50871774D01*
X17905133Y51000000D01*
X17889964Y51105500D01*
X73794867Y51105500D01*
X73813302Y50977277D01*
X73813302Y50977276D01*
X73813303Y50977274D01*
X73867118Y50859437D01*
X73951951Y50761533D01*
X74060931Y50691496D01*
X74185228Y50655000D01*
X74314772Y50655000D01*
X74439069Y50691496D01*
X74548049Y50761533D01*
X74632882Y50859437D01*
X74686697Y50977274D01*
X74705133Y51105500D01*
X74686697Y51233726D01*
X74632882Y51351563D01*
X74548049Y51449467D01*
X74469418Y51500000D01*
X81794867Y51500000D01*
X81813302Y51371777D01*
X81813302Y51371776D01*
X81813303Y51371774D01*
X81867118Y51253937D01*
X81951951Y51156033D01*
X82060931Y51085996D01*
X82185228Y51049500D01*
X82314772Y51049500D01*
X82439069Y51085996D01*
X82548049Y51156033D01*
X82632882Y51253937D01*
X82686697Y51371774D01*
X82705133Y51500000D01*
X82686697Y51628226D01*
X82632882Y51746063D01*
X82629471Y51750000D01*
X87044867Y51750000D01*
X87063302Y51621777D01*
X87063302Y51621776D01*
X87063303Y51621774D01*
X87117118Y51503937D01*
X87201951Y51406033D01*
X87310931Y51335996D01*
X87435228Y51299500D01*
X87564772Y51299500D01*
X87689069Y51335996D01*
X87798049Y51406033D01*
X87882882Y51503937D01*
X87936697Y51621774D01*
X87955133Y51750000D01*
X102044867Y51750000D01*
X102063302Y51621777D01*
X102063302Y51621776D01*
X102063303Y51621774D01*
X102117118Y51503937D01*
X102201951Y51406033D01*
X102310931Y51335996D01*
X102435228Y51299500D01*
X102564772Y51299500D01*
X102689069Y51335996D01*
X102798049Y51406033D01*
X102882882Y51503937D01*
X102936697Y51621774D01*
X102955133Y51750000D01*
X107044867Y51750000D01*
X107063302Y51621777D01*
X107063302Y51621776D01*
X107063303Y51621774D01*
X107117118Y51503937D01*
X107201951Y51406033D01*
X107310931Y51335996D01*
X107435228Y51299500D01*
X107564772Y51299500D01*
X107689069Y51335996D01*
X107798049Y51406033D01*
X107882882Y51503937D01*
X107936697Y51621774D01*
X107955133Y51750000D01*
X107936697Y51878226D01*
X107882882Y51996063D01*
X107879471Y52000000D01*
X112044867Y52000000D01*
X112063302Y51871777D01*
X112063302Y51871776D01*
X112063303Y51871774D01*
X112117118Y51753937D01*
X112201951Y51656033D01*
X112310931Y51585996D01*
X112435228Y51549500D01*
X112564772Y51549500D01*
X112689069Y51585996D01*
X112798049Y51656033D01*
X112882882Y51753937D01*
X112936697Y51871774D01*
X112955133Y52000000D01*
X112936697Y52128226D01*
X112882882Y52246063D01*
X112798049Y52343967D01*
X112731032Y52387036D01*
X112689068Y52414005D01*
X112564772Y52450500D01*
X112435228Y52450500D01*
X112310931Y52414005D01*
X112201954Y52343969D01*
X112201950Y52343966D01*
X112117119Y52246065D01*
X112063302Y52128224D01*
X112044867Y52000000D01*
X107879471Y52000000D01*
X107798049Y52093967D01*
X107731032Y52137036D01*
X107689068Y52164005D01*
X107564772Y52200500D01*
X107435228Y52200500D01*
X107310931Y52164005D01*
X107201954Y52093969D01*
X107201950Y52093966D01*
X107117119Y51996065D01*
X107063302Y51878224D01*
X107044867Y51750000D01*
X102955133Y51750000D01*
X102936697Y51878226D01*
X102882882Y51996063D01*
X102798049Y52093967D01*
X102731032Y52137036D01*
X102689068Y52164005D01*
X102564772Y52200500D01*
X102435228Y52200500D01*
X102310931Y52164005D01*
X102201954Y52093969D01*
X102201950Y52093966D01*
X102117119Y51996065D01*
X102063302Y51878224D01*
X102044867Y51750000D01*
X87955133Y51750000D01*
X87936697Y51878226D01*
X87882882Y51996063D01*
X87798049Y52093967D01*
X87731032Y52137036D01*
X87689068Y52164005D01*
X87564772Y52200500D01*
X87435228Y52200500D01*
X87310931Y52164005D01*
X87201954Y52093969D01*
X87201950Y52093966D01*
X87117119Y51996065D01*
X87063302Y51878224D01*
X87044867Y51750000D01*
X82629471Y51750000D01*
X82548049Y51843967D01*
X82451474Y51906032D01*
X82439068Y51914005D01*
X82314772Y51950500D01*
X82185228Y51950500D01*
X82060931Y51914005D01*
X81951954Y51843969D01*
X81951950Y51843966D01*
X81867119Y51746065D01*
X81813302Y51628224D01*
X81794867Y51500000D01*
X74469418Y51500000D01*
X74439068Y51519505D01*
X74314772Y51556000D01*
X74185228Y51556000D01*
X74060931Y51519505D01*
X73951954Y51449469D01*
X73951950Y51449466D01*
X73867119Y51351565D01*
X73813302Y51233724D01*
X73794867Y51105500D01*
X17889964Y51105500D01*
X17886697Y51128226D01*
X17832882Y51246063D01*
X17748049Y51343967D01*
X17651474Y51406032D01*
X17639068Y51414005D01*
X17588006Y51428997D01*
X17547244Y51459009D01*
X17535310Y51508201D01*
X17557788Y51553556D01*
X17588006Y51571003D01*
X17639069Y51585996D01*
X17748049Y51656033D01*
X17832882Y51753937D01*
X17886697Y51871774D01*
X17905133Y52000000D01*
X17886697Y52128226D01*
X17832882Y52246063D01*
X17829471Y52250000D01*
X91044867Y52250000D01*
X91063302Y52121777D01*
X91063302Y52121776D01*
X91063303Y52121774D01*
X91117118Y52003937D01*
X91201951Y51906033D01*
X91310931Y51835996D01*
X91435228Y51799500D01*
X91564772Y51799500D01*
X91689069Y51835996D01*
X91798049Y51906033D01*
X91882882Y52003937D01*
X91936697Y52121774D01*
X91955133Y52250000D01*
X97044867Y52250000D01*
X97063302Y52121777D01*
X97063302Y52121776D01*
X97063303Y52121774D01*
X97117118Y52003937D01*
X97201951Y51906033D01*
X97310931Y51835996D01*
X97435228Y51799500D01*
X97564772Y51799500D01*
X97689069Y51835996D01*
X97798049Y51906033D01*
X97882882Y52003937D01*
X97936697Y52121774D01*
X97955133Y52250000D01*
X97936697Y52378226D01*
X97882882Y52496063D01*
X97798049Y52593967D01*
X97701474Y52656032D01*
X97689068Y52664005D01*
X97564772Y52700500D01*
X97435228Y52700500D01*
X97310931Y52664005D01*
X97201954Y52593969D01*
X97201950Y52593966D01*
X97117119Y52496065D01*
X97117118Y52496064D01*
X97117118Y52496063D01*
X97090210Y52437145D01*
X97063302Y52378224D01*
X97044867Y52250000D01*
X91955133Y52250000D01*
X91936697Y52378226D01*
X91882882Y52496063D01*
X91798049Y52593967D01*
X91701474Y52656032D01*
X91689068Y52664005D01*
X91564772Y52700500D01*
X91435228Y52700500D01*
X91310931Y52664005D01*
X91201954Y52593969D01*
X91201950Y52593966D01*
X91117119Y52496065D01*
X91117118Y52496064D01*
X91117118Y52496063D01*
X91090210Y52437145D01*
X91063302Y52378224D01*
X91044867Y52250000D01*
X17829471Y52250000D01*
X17748049Y52343967D01*
X17681032Y52387036D01*
X17639068Y52414005D01*
X17588006Y52428997D01*
X17547244Y52459009D01*
X17535310Y52508201D01*
X17557788Y52553556D01*
X17588006Y52571003D01*
X17639069Y52585996D01*
X17748049Y52656033D01*
X17832882Y52753937D01*
X17886697Y52871774D01*
X17905133Y53000000D01*
X17886697Y53128226D01*
X17832882Y53246063D01*
X17748049Y53343967D01*
X17681032Y53387036D01*
X17639068Y53414005D01*
X17514772Y53450500D01*
X17385228Y53450500D01*
X17260931Y53414005D01*
X17151954Y53343969D01*
X17151950Y53343966D01*
X17067119Y53246065D01*
X17013302Y53128224D01*
X16994867Y53000000D01*
X17013302Y52871777D01*
X17013302Y52871776D01*
X17013303Y52871774D01*
X17067118Y52753937D01*
X17151951Y52656033D01*
X17260931Y52585996D01*
X17311993Y52571003D01*
X17352755Y52540990D01*
X17364689Y52491798D01*
X17342211Y52446444D01*
X17311993Y52428997D01*
X17260931Y52414005D01*
X17151954Y52343969D01*
X17151950Y52343966D01*
X17067119Y52246065D01*
X17013302Y52128224D01*
X16994867Y52000000D01*
X17013302Y51871777D01*
X17013302Y51871776D01*
X17013303Y51871774D01*
X17067118Y51753937D01*
X17151951Y51656033D01*
X17227744Y51607324D01*
X17260931Y51585996D01*
X17311993Y51571003D01*
X17352755Y51540990D01*
X17364689Y51491798D01*
X17342211Y51446444D01*
X17311993Y51428997D01*
X17260931Y51414005D01*
X17151954Y51343969D01*
X17151950Y51343966D01*
X17067119Y51246065D01*
X17013302Y51128224D01*
X16994867Y51000000D01*
X12405133Y51000000D01*
X12386697Y51128226D01*
X12332882Y51246063D01*
X12248049Y51343967D01*
X12151474Y51406032D01*
X12139068Y51414005D01*
X12088006Y51428997D01*
X12047244Y51459009D01*
X12035310Y51508201D01*
X12057788Y51553556D01*
X12088006Y51571003D01*
X12139069Y51585996D01*
X12248049Y51656033D01*
X12332882Y51753937D01*
X12386697Y51871774D01*
X12405133Y52000000D01*
X12386697Y52128226D01*
X12332882Y52246063D01*
X12248049Y52343967D01*
X12139069Y52414004D01*
X12139066Y52414006D01*
X12113005Y52421658D01*
X12072244Y52451670D01*
X12060310Y52500862D01*
X12082788Y52546217D01*
X12113006Y52563663D01*
X12189069Y52585996D01*
X12298049Y52656033D01*
X12382882Y52753937D01*
X12436697Y52871774D01*
X12455133Y53000000D01*
X12436697Y53128226D01*
X12382882Y53246063D01*
X12298049Y53343967D01*
X12231032Y53387036D01*
X12189068Y53414005D01*
X12064772Y53450500D01*
X11935228Y53450500D01*
X11810931Y53414005D01*
X11701954Y53343969D01*
X11701950Y53343966D01*
X11617119Y53246065D01*
X11563302Y53128224D01*
X11544867Y53000000D01*
X11563302Y52871777D01*
X11563302Y52871776D01*
X11563303Y52871774D01*
X11617118Y52753937D01*
X11701951Y52656033D01*
X11810931Y52585996D01*
X11836992Y52578344D01*
X11877755Y52548332D01*
X11889689Y52499140D01*
X11867212Y52453785D01*
X11836993Y52436339D01*
X11760934Y52414007D01*
X11760933Y52414006D01*
X11651954Y52343969D01*
X11651950Y52343966D01*
X11567119Y52246065D01*
X11513302Y52128224D01*
X11494867Y52000000D01*
X11513302Y51871777D01*
X11513302Y51871776D01*
X11513303Y51871774D01*
X11567118Y51753937D01*
X11651951Y51656033D01*
X11727744Y51607324D01*
X11760931Y51585996D01*
X11811993Y51571003D01*
X11852755Y51540990D01*
X11864689Y51491798D01*
X11842211Y51446444D01*
X11811993Y51428997D01*
X11760931Y51414005D01*
X11651954Y51343969D01*
X11651950Y51343966D01*
X11567119Y51246065D01*
X11513302Y51128224D01*
X11494867Y51000000D01*
X8356035Y51000000D01*
X8333742Y51083199D01*
X8202255Y51425736D01*
X8202254Y51425738D01*
X8202252Y51425743D01*
X8035687Y51752644D01*
X8034848Y51753936D01*
X7835851Y52060366D01*
X7604949Y52345506D01*
X7345506Y52604949D01*
X7060366Y52835851D01*
X6752652Y53035682D01*
X6752653Y53035682D01*
X6752643Y53035688D01*
X6425742Y53202253D01*
X6425732Y53202257D01*
X6083192Y53333745D01*
X5728796Y53428705D01*
X5366408Y53486102D01*
X5000000Y53505304D01*
X4633592Y53486102D01*
X4633591Y53486102D01*
X4271203Y53428705D01*
X3916807Y53333745D01*
X3574267Y53202257D01*
X3574257Y53202253D01*
X3247356Y53035688D01*
X2939632Y52835850D01*
X2654491Y52604947D01*
X2395053Y52345509D01*
X2164150Y52060368D01*
X1964312Y51752644D01*
X1797747Y51425743D01*
X1797743Y51425733D01*
X1666255Y51083193D01*
X1571295Y50728797D01*
X1513898Y50366409D01*
X1513898Y50366408D01*
X1494696Y50000000D01*
X500000Y50000000D01*
X500000Y51329791D01*
X503425Y51352043D01*
X509647Y51371777D01*
X583438Y51605812D01*
X584524Y51608796D01*
X740189Y51984603D01*
X741554Y51987530D01*
X796961Y52093966D01*
X929373Y52348328D01*
X930972Y52351098D01*
X1149534Y52694172D01*
X1151369Y52696792D01*
X1399005Y53019519D01*
X1401049Y53021954D01*
X1675878Y53321877D01*
X1678123Y53324122D01*
X1978046Y53598951D01*
X1980481Y53600995D01*
X2303208Y53848631D01*
X2305828Y53850466D01*
X2648902Y54069028D01*
X2651672Y54070627D01*
X3012470Y54258447D01*
X3015397Y54259811D01*
X3017734Y54260780D01*
X3391204Y54415476D01*
X3394188Y54416562D01*
X3647958Y54496575D01*
X3670210Y54500000D01*
X141329790Y54500000D01*
X141352042Y54496575D01*
G37*
%TD.AperFunction*%
%TD*%
M02*
