%TF.GenerationSoftware,KiCad,Pcbnew,7.0.9*%
%TF.CreationDate,2024-04-08T22:34:53+02:00*%
%TF.ProjectId,ElectronicBLETarget,456c6563-7472-46f6-9e69-63424c455461,rev?*%
%TF.SameCoordinates,PX29f6300PY5a995c0*%
%TF.FileFunction,Paste,Top*%
%TF.FilePolarity,Positive*%
%FSLAX46Y46*%
G04 Gerber Fmt 4.6, Leading zero omitted, Abs format (unit mm)*
G04 Created by KiCad (PCBNEW 7.0.9) date 2024-04-08 22:34:53*
%MOMM*%
%LPD*%
G01*
G04 APERTURE LIST*
G04 Aperture macros list*
%AMRoundRect*
0 Rectangle with rounded corners*
0 $1 Rounding radius*
0 $2 $3 $4 $5 $6 $7 $8 $9 X,Y pos of 4 corners*
0 Add a 4 corners polygon primitive as box body*
4,1,4,$2,$3,$4,$5,$6,$7,$8,$9,$2,$3,0*
0 Add four circle primitives for the rounded corners*
1,1,$1+$1,$2,$3*
1,1,$1+$1,$4,$5*
1,1,$1+$1,$6,$7*
1,1,$1+$1,$8,$9*
0 Add four rect primitives between the rounded corners*
20,1,$1+$1,$2,$3,$4,$5,0*
20,1,$1+$1,$4,$5,$6,$7,0*
20,1,$1+$1,$6,$7,$8,$9,0*
20,1,$1+$1,$8,$9,$2,$3,0*%
G04 Aperture macros list end*
%ADD10R,1.000000X1.050000*%
%ADD11R,1.050000X2.200000*%
%ADD12RoundRect,0.140000X0.140000X0.170000X-0.140000X0.170000X-0.140000X-0.170000X0.140000X-0.170000X0*%
%ADD13RoundRect,0.162500X-0.787500X0.487500X-0.787500X-0.487500X0.787500X-0.487500X0.787500X0.487500X0*%
%ADD14RoundRect,0.137500X-0.412500X0.512500X-0.412500X-0.512500X0.412500X-0.512500X0.412500X0.512500X0*%
%ADD15R,0.900000X0.800000*%
%ADD16RoundRect,0.250000X-0.475000X0.250000X-0.475000X-0.250000X0.475000X-0.250000X0.475000X0.250000X0*%
%ADD17RoundRect,0.135000X-0.135000X-0.185000X0.135000X-0.185000X0.135000X0.185000X-0.135000X0.185000X0*%
%ADD18RoundRect,0.135000X-0.185000X0.135000X-0.185000X-0.135000X0.185000X-0.135000X0.185000X0.135000X0*%
%ADD19RoundRect,0.162500X0.787500X-0.487500X0.787500X0.487500X-0.787500X0.487500X-0.787500X-0.487500X0*%
%ADD20RoundRect,0.137500X0.412500X-0.512500X0.412500X0.512500X-0.412500X0.512500X-0.412500X-0.512500X0*%
%ADD21RoundRect,0.135000X0.135000X0.185000X-0.135000X0.185000X-0.135000X-0.185000X0.135000X-0.185000X0*%
%ADD22RoundRect,0.135000X0.185000X-0.135000X0.185000X0.135000X-0.185000X0.135000X-0.185000X-0.135000X0*%
%ADD23RoundRect,0.150000X-0.150000X-0.350000X0.150000X-0.350000X0.150000X0.350000X-0.150000X0.350000X0*%
%ADD24RoundRect,0.075000X-0.075000X-0.500000X0.075000X-0.500000X0.075000X0.500000X-0.075000X0.500000X0*%
%ADD25O,1.000000X2.100000*%
%ADD26O,1.000000X1.800000*%
%ADD27RoundRect,0.250000X0.315000X0.315000X-0.315000X0.315000X-0.315000X-0.315000X0.315000X-0.315000X0*%
%ADD28RoundRect,0.062500X0.375000X0.062500X-0.375000X0.062500X-0.375000X-0.062500X0.375000X-0.062500X0*%
%ADD29RoundRect,0.062500X0.062500X0.375000X-0.062500X0.375000X-0.062500X-0.375000X0.062500X-0.375000X0*%
%ADD30RoundRect,0.225000X-0.250000X0.225000X-0.250000X-0.225000X0.250000X-0.225000X0.250000X0.225000X0*%
%ADD31RoundRect,0.147500X0.172500X-0.147500X0.172500X0.147500X-0.172500X0.147500X-0.172500X-0.147500X0*%
%ADD32R,2.000000X1.500000*%
%ADD33R,2.000000X3.800000*%
%ADD34R,1.500000X1.500000*%
%ADD35RoundRect,0.050000X0.100000X-0.285000X0.100000X0.285000X-0.100000X0.285000X-0.100000X-0.285000X0*%
%ADD36RoundRect,0.225000X-0.225000X-0.250000X0.225000X-0.250000X0.225000X0.250000X-0.225000X0.250000X0*%
%ADD37RoundRect,0.147500X0.147500X0.172500X-0.147500X0.172500X-0.147500X-0.172500X0.147500X-0.172500X0*%
%ADD38RoundRect,0.225000X0.225000X0.250000X-0.225000X0.250000X-0.225000X-0.250000X0.225000X-0.250000X0*%
%ADD39RoundRect,0.068750X0.281250X-0.068750X0.281250X0.068750X-0.281250X0.068750X-0.281250X-0.068750X0*%
%ADD40RoundRect,0.062500X0.062500X-0.162500X0.062500X0.162500X-0.062500X0.162500X-0.062500X-0.162500X0*%
%ADD41RoundRect,0.140000X-0.170000X0.140000X-0.170000X-0.140000X0.170000X-0.140000X0.170000X0.140000X0*%
%ADD42RoundRect,0.150000X-0.600000X-0.150000X0.600000X-0.150000X0.600000X0.150000X-0.600000X0.150000X0*%
%ADD43RoundRect,0.140000X-0.140000X-0.170000X0.140000X-0.170000X0.140000X0.170000X-0.140000X0.170000X0*%
%ADD44RoundRect,0.625000X0.625000X0.625000X-0.625000X0.625000X-0.625000X-0.625000X0.625000X-0.625000X0*%
%ADD45RoundRect,0.150000X0.600000X0.150000X-0.600000X0.150000X-0.600000X-0.150000X0.600000X-0.150000X0*%
%ADD46RoundRect,0.250000X0.475000X-0.250000X0.475000X0.250000X-0.475000X0.250000X-0.475000X-0.250000X0*%
%ADD47RoundRect,0.150000X-0.150000X0.512500X-0.150000X-0.512500X0.150000X-0.512500X0.150000X0.512500X0*%
%ADD48RoundRect,0.150000X0.150000X-0.512500X0.150000X0.512500X-0.150000X0.512500X-0.150000X-0.512500X0*%
G04 APERTURE END LIST*
D10*
%TO.C,J4*%
X14727500Y50437500D03*
D11*
X13252500Y51962500D03*
X16202500Y51962500D03*
%TD*%
D12*
%TO.C,C41*%
X36250000Y25000000D03*
X35290000Y25000000D03*
%TD*%
D13*
%TO.C,D13*%
X102500000Y43950000D03*
D14*
X102500000Y50050000D03*
%TD*%
D12*
%TO.C,C37*%
X105750000Y24500000D03*
X104790000Y24500000D03*
%TD*%
D15*
%TO.C,X1*%
X10680000Y42550000D03*
X9280000Y42550000D03*
X9280000Y41450000D03*
X10680000Y41450000D03*
%TD*%
D16*
%TO.C,C20*%
X120000000Y19950000D03*
X120000000Y18050000D03*
%TD*%
D17*
%TO.C,R18*%
X53955000Y20960000D03*
X54975000Y20960000D03*
%TD*%
%TO.C,R23*%
X53955000Y19960000D03*
X54975000Y19960000D03*
%TD*%
D18*
%TO.C,R55*%
X101490000Y26010000D03*
X101490000Y24990000D03*
%TD*%
D19*
%TO.C,D20*%
X57500000Y40050000D03*
D20*
X57500000Y33950000D03*
%TD*%
D13*
%TO.C,D4*%
X62500000Y43950000D03*
D14*
X62500000Y50050000D03*
%TD*%
D21*
%TO.C,R63*%
X33010000Y21000000D03*
X31990000Y21000000D03*
%TD*%
D22*
%TO.C,R26*%
X67475000Y15450000D03*
X67475000Y16470000D03*
%TD*%
D12*
%TO.C,C39*%
X35730000Y16000000D03*
X34770000Y16000000D03*
%TD*%
D23*
%TO.C,J6*%
X12320000Y7075000D03*
X13120000Y7075000D03*
D24*
X14270000Y7000000D03*
X15270000Y7000000D03*
X15770000Y7000000D03*
X16770000Y7000000D03*
D23*
X17920000Y7075000D03*
X18720000Y7075000D03*
X18720000Y7075000D03*
X17920000Y7075000D03*
D24*
X17270000Y7000000D03*
X16270000Y7000000D03*
X14770000Y7000000D03*
X13770000Y7000000D03*
D23*
X13120000Y7075000D03*
X12320000Y7075000D03*
D25*
X11200000Y6425000D03*
D26*
X11200000Y2245000D03*
D25*
X19840000Y6425000D03*
D26*
X19840000Y2245000D03*
%TD*%
D18*
%TO.C,R49*%
X100490000Y17020000D03*
X100490000Y16000000D03*
%TD*%
D22*
%TO.C,R30*%
X66475000Y15440000D03*
X66475000Y16460000D03*
%TD*%
D18*
%TO.C,R20*%
X55525000Y25970000D03*
X55525000Y24950000D03*
%TD*%
D21*
%TO.C,R53*%
X103500000Y21000000D03*
X102480000Y21000000D03*
%TD*%
D18*
%TO.C,R40*%
X90490000Y26010000D03*
X90490000Y24990000D03*
%TD*%
D27*
%TO.C,U1*%
X18080000Y34900000D03*
X18080000Y36300000D03*
X18080000Y37700000D03*
X18080000Y39100000D03*
X16680000Y34900000D03*
X16680000Y36300000D03*
X16680000Y37700000D03*
X16680000Y39100000D03*
X15280000Y34900000D03*
X15280000Y36300000D03*
X15280000Y37700000D03*
X15280000Y39100000D03*
X13880000Y34900000D03*
X13880000Y36300000D03*
X13880000Y37700000D03*
X13880000Y39100000D03*
D28*
X19417500Y34250000D03*
X19417500Y34750000D03*
X19417500Y35250000D03*
X19417500Y35750000D03*
X19417500Y36250000D03*
X19417500Y36750000D03*
X19417500Y37250000D03*
X19417500Y37750000D03*
X19417500Y38250000D03*
X19417500Y38750000D03*
X19417500Y39250000D03*
X19417500Y39750000D03*
D29*
X18730000Y40437500D03*
X18230000Y40437500D03*
X17730000Y40437500D03*
X17230000Y40437500D03*
X16730000Y40437500D03*
X16230000Y40437500D03*
X15730000Y40437500D03*
X15230000Y40437500D03*
X14730000Y40437500D03*
X14230000Y40437500D03*
X13730000Y40437500D03*
X13230000Y40437500D03*
D28*
X12542500Y39750000D03*
X12542500Y39250000D03*
X12542500Y38750000D03*
X12542500Y38250000D03*
X12542500Y37750000D03*
X12542500Y37250000D03*
X12542500Y36750000D03*
X12542500Y36250000D03*
X12542500Y35750000D03*
X12542500Y35250000D03*
X12542500Y34750000D03*
X12542500Y34250000D03*
D29*
X13230000Y33562500D03*
X13730000Y33562500D03*
X14230000Y33562500D03*
X14730000Y33562500D03*
X15230000Y33562500D03*
X15730000Y33562500D03*
X16230000Y33562500D03*
X16730000Y33562500D03*
X17230000Y33562500D03*
X17730000Y33562500D03*
X18230000Y33562500D03*
X18730000Y33562500D03*
%TD*%
D21*
%TO.C,R27*%
X70985000Y14960000D03*
X69965000Y14960000D03*
%TD*%
D13*
%TO.C,D8*%
X52500000Y43950000D03*
D14*
X52500000Y50050000D03*
%TD*%
D30*
%TO.C,C1*%
X117750000Y51775000D03*
X117750000Y50225000D03*
%TD*%
D31*
%TO.C,L1*%
X14727500Y44717500D03*
X14727500Y45687500D03*
%TD*%
D32*
%TO.C,U6*%
X122150000Y27750000D03*
X122150000Y30050000D03*
D33*
X115850000Y30050000D03*
D32*
X122150000Y32350000D03*
%TD*%
D34*
%TO.C,SW1*%
X33600000Y7000000D03*
X41400000Y7000000D03*
%TD*%
D13*
%TO.C,D9*%
X92500000Y43950000D03*
D14*
X92500000Y50050000D03*
%TD*%
D17*
%TO.C,R17*%
X51005000Y26460000D03*
X52025000Y26460000D03*
%TD*%
D22*
%TO.C,R45*%
X90490000Y14980000D03*
X90490000Y16000000D03*
%TD*%
D35*
%TO.C,U5*%
X115500000Y16000000D03*
X116000000Y16000000D03*
X116500000Y16000000D03*
X117000000Y16000000D03*
X117000000Y17480000D03*
X116500000Y17480000D03*
X116000000Y17480000D03*
X115500000Y17480000D03*
%TD*%
D17*
%TO.C,R37*%
X85980000Y26000000D03*
X87000000Y26000000D03*
%TD*%
D13*
%TO.C,D26*%
X72500000Y43950000D03*
D14*
X72500000Y50050000D03*
%TD*%
D21*
%TO.C,R52*%
X106000000Y26000000D03*
X104980000Y26000000D03*
%TD*%
D18*
%TO.C,R29*%
X65475000Y16970000D03*
X65475000Y15950000D03*
%TD*%
D36*
%TO.C,C36*%
X100715000Y18500000D03*
X102265000Y18500000D03*
%TD*%
D13*
%TO.C,D7*%
X87500000Y43950000D03*
D14*
X87500000Y50050000D03*
%TD*%
D13*
%TO.C,D17*%
X112500000Y43950000D03*
D14*
X112500000Y50050000D03*
%TD*%
D37*
%TO.C,D1*%
X3220000Y43000000D03*
X2250000Y43000000D03*
%TD*%
D17*
%TO.C,R9*%
X29590000Y8500000D03*
X30610000Y8500000D03*
%TD*%
D38*
%TO.C,C26*%
X56250000Y18460000D03*
X54700000Y18460000D03*
%TD*%
D18*
%TO.C,R1*%
X112000000Y5020000D03*
X112000000Y4000000D03*
%TD*%
D22*
%TO.C,R64*%
X31000000Y23990000D03*
X31000000Y25010000D03*
%TD*%
D18*
%TO.C,R16*%
X54525000Y25970000D03*
X54525000Y24950000D03*
%TD*%
D17*
%TO.C,R3*%
X7740000Y29000000D03*
X8760000Y29000000D03*
%TD*%
D21*
%TO.C,R32*%
X70985000Y26460000D03*
X69965000Y26460000D03*
%TD*%
D36*
%TO.C,C38*%
X100715000Y22500000D03*
X102265000Y22500000D03*
%TD*%
D21*
%TO.C,R33*%
X67985000Y20960000D03*
X66965000Y20960000D03*
%TD*%
D13*
%TO.C,D10*%
X47500000Y43950000D03*
D14*
X47500000Y50050000D03*
%TD*%
D39*
%TO.C,FLT1*%
X14750000Y47825000D03*
D40*
X14977500Y48437500D03*
D39*
X14750000Y49050000D03*
D40*
X14522500Y48437500D03*
%TD*%
D13*
%TO.C,D11*%
X97500000Y43950000D03*
D14*
X97500000Y50050000D03*
%TD*%
D41*
%TO.C,C7*%
X9980000Y35460000D03*
X9980000Y34500000D03*
%TD*%
D13*
%TO.C,D14*%
X37500000Y43950000D03*
D14*
X37500000Y50050000D03*
%TD*%
D22*
%TO.C,R46*%
X102490000Y14990000D03*
X102490000Y16010000D03*
%TD*%
D17*
%TO.C,R22*%
X50965000Y14980000D03*
X51985000Y14980000D03*
%TD*%
D16*
%TO.C,C19*%
X119750000Y51700000D03*
X119750000Y49800000D03*
%TD*%
D42*
%TO.C,U9*%
X93290000Y24310000D03*
X93290000Y23040000D03*
X93290000Y21770000D03*
X93290000Y20500000D03*
X93290000Y19230000D03*
X93290000Y17960000D03*
X93290000Y16690000D03*
X98690000Y16690000D03*
X98690000Y17960000D03*
X98690000Y19230000D03*
X98690000Y20500000D03*
X98690000Y21770000D03*
X98690000Y23040000D03*
X98690000Y24310000D03*
%TD*%
D38*
%TO.C,C24*%
X56250000Y22460000D03*
X54700000Y22460000D03*
%TD*%
D21*
%TO.C,R47*%
X105990000Y15000000D03*
X104970000Y15000000D03*
%TD*%
D22*
%TO.C,R54*%
X100490000Y23990000D03*
X100490000Y25010000D03*
%TD*%
D43*
%TO.C,C8*%
X15524999Y41750000D03*
X16484999Y41750000D03*
%TD*%
D22*
%TO.C,R56*%
X33000000Y15000000D03*
X33000000Y16020000D03*
%TD*%
D18*
%TO.C,R7*%
X8750000Y31260000D03*
X8750000Y30240000D03*
%TD*%
D12*
%TO.C,C29*%
X70480000Y24960000D03*
X69520000Y24960000D03*
%TD*%
D43*
%TO.C,C33*%
X86290000Y16500000D03*
X87250000Y16500000D03*
%TD*%
D44*
%TO.C,U3*%
X133750000Y9750000D03*
X133750000Y20250000D03*
X123250000Y20250000D03*
X123250000Y9750000D03*
%TD*%
D45*
%TO.C,U10*%
X29200000Y16690000D03*
X29200000Y17960000D03*
X29200000Y19230000D03*
X29200000Y20500000D03*
X29200000Y21770000D03*
X29200000Y23040000D03*
X29200000Y24310000D03*
X23800000Y24310000D03*
X23800000Y23040000D03*
X23800000Y21770000D03*
X23800000Y20500000D03*
X23800000Y19230000D03*
X23800000Y17960000D03*
X23800000Y16690000D03*
%TD*%
D17*
%TO.C,R5*%
X7480000Y20500000D03*
X8500000Y20500000D03*
%TD*%
%TO.C,R42*%
X85980000Y15000000D03*
X87000000Y15000000D03*
%TD*%
D12*
%TO.C,C35*%
X105730000Y16500000D03*
X104770000Y16500000D03*
%TD*%
D43*
%TO.C,C6*%
X19475000Y32000000D03*
X20435000Y32000000D03*
%TD*%
D22*
%TO.C,R41*%
X89490000Y14990000D03*
X89490000Y16010000D03*
%TD*%
D43*
%TO.C,C5*%
X21270000Y38000000D03*
X22230000Y38000000D03*
%TD*%
%TO.C,C13*%
X13000000Y42000000D03*
X13960000Y42000000D03*
%TD*%
D19*
%TO.C,D25*%
X32500000Y40050000D03*
D20*
X32500000Y33950000D03*
%TD*%
D18*
%TO.C,R24*%
X56475000Y16970000D03*
X56475000Y15950000D03*
%TD*%
D46*
%TO.C,C17*%
X137500000Y40600000D03*
X137500000Y42500000D03*
%TD*%
D21*
%TO.C,R48*%
X103500000Y20000000D03*
X102480000Y20000000D03*
%TD*%
D13*
%TO.C,D2*%
X67500000Y43950000D03*
D14*
X67500000Y50050000D03*
%TD*%
D21*
%TO.C,R58*%
X33000000Y20000000D03*
X31980000Y20000000D03*
%TD*%
D19*
%TO.C,D23*%
X42500000Y40050000D03*
D20*
X42500000Y33950000D03*
%TD*%
D43*
%TO.C,C15*%
X14747500Y46687500D03*
X15707500Y46687500D03*
%TD*%
%TO.C,C14*%
X14727500Y43687500D03*
X15687500Y43687500D03*
%TD*%
D18*
%TO.C,R65*%
X32000000Y26010000D03*
X32000000Y24990000D03*
%TD*%
D22*
%TO.C,R34*%
X65475000Y23940000D03*
X65475000Y24960000D03*
%TD*%
D38*
%TO.C,C32*%
X91265000Y22500000D03*
X89715000Y22500000D03*
%TD*%
D22*
%TO.C,R8*%
X8790000Y25290000D03*
X8790000Y26310000D03*
%TD*%
D43*
%TO.C,C31*%
X86270000Y24500000D03*
X87230000Y24500000D03*
%TD*%
D18*
%TO.C,R15*%
X132000000Y28060000D03*
X132000000Y27040000D03*
%TD*%
D21*
%TO.C,R62*%
X35510000Y26500000D03*
X34490000Y26500000D03*
%TD*%
D38*
%TO.C,C34*%
X91265000Y18500000D03*
X89715000Y18500000D03*
%TD*%
D13*
%TO.C,D5*%
X82500000Y43950000D03*
D14*
X82500000Y50050000D03*
%TD*%
D36*
%TO.C,C40*%
X31225000Y18500000D03*
X32775000Y18500000D03*
%TD*%
D17*
%TO.C,R4*%
X7730000Y27500000D03*
X8750000Y27500000D03*
%TD*%
D22*
%TO.C,R11*%
X21500000Y5990000D03*
X21500000Y7010000D03*
%TD*%
%TO.C,R12*%
X9500000Y5990000D03*
X9500000Y7010000D03*
%TD*%
D30*
%TO.C,C9*%
X8480000Y35775000D03*
X8480000Y34225000D03*
%TD*%
D22*
%TO.C,R19*%
X56525000Y23940000D03*
X56525000Y24960000D03*
%TD*%
D43*
%TO.C,C11*%
X18000000Y17600000D03*
X18960000Y17600000D03*
%TD*%
D47*
%TO.C,U7*%
X116950000Y11000000D03*
X116000000Y11000000D03*
X115050000Y11000000D03*
X115050000Y8725000D03*
X116950000Y8725000D03*
%TD*%
D18*
%TO.C,R61*%
X33000000Y26010000D03*
X33000000Y24990000D03*
%TD*%
%TO.C,R35*%
X66475000Y25970000D03*
X66475000Y24950000D03*
%TD*%
D43*
%TO.C,C23*%
X51270000Y24960000D03*
X52230000Y24960000D03*
%TD*%
D22*
%TO.C,R50*%
X101490000Y15000000D03*
X101490000Y16020000D03*
%TD*%
D18*
%TO.C,R44*%
X91490000Y17020000D03*
X91490000Y16000000D03*
%TD*%
D13*
%TO.C,D6*%
X57500000Y43950000D03*
D14*
X57500000Y50050000D03*
%TD*%
D22*
%TO.C,R14*%
X124500000Y30040000D03*
X124500000Y31060000D03*
%TD*%
D21*
%TO.C,R57*%
X35500000Y14500000D03*
X34480000Y14500000D03*
%TD*%
D22*
%TO.C,R21*%
X54475000Y15460000D03*
X54475000Y16480000D03*
%TD*%
D17*
%TO.C,R6*%
X7480000Y18750000D03*
X8500000Y18750000D03*
%TD*%
D19*
%TO.C,D22*%
X52500000Y40050000D03*
D20*
X52500000Y33950000D03*
%TD*%
D44*
%TO.C,U2*%
X133750000Y40500000D03*
X133750000Y51000000D03*
X123250000Y51000000D03*
X123250000Y40500000D03*
%TD*%
D46*
%TO.C,C18*%
X137000000Y10050000D03*
X137000000Y11950000D03*
%TD*%
D38*
%TO.C,C21*%
X116775000Y13000000D03*
X115225000Y13000000D03*
%TD*%
D21*
%TO.C,R28*%
X67985000Y19960000D03*
X66965000Y19960000D03*
%TD*%
D41*
%TO.C,C12*%
X10980000Y35480000D03*
X10980000Y34520000D03*
%TD*%
D12*
%TO.C,C27*%
X70750000Y16460000D03*
X69790000Y16460000D03*
%TD*%
D13*
%TO.C,D15*%
X107500000Y43950000D03*
D14*
X107500000Y50050000D03*
%TD*%
D41*
%TO.C,C4*%
X15200000Y31960000D03*
X15200000Y31000000D03*
%TD*%
D19*
%TO.C,D21*%
X47500000Y40050000D03*
D20*
X47500000Y33950000D03*
%TD*%
D22*
%TO.C,R13*%
X114000000Y16490000D03*
X114000000Y17510000D03*
%TD*%
D36*
%TO.C,C42*%
X31225000Y22500000D03*
X32775000Y22500000D03*
%TD*%
D38*
%TO.C,C22*%
X117000000Y7000000D03*
X115450000Y7000000D03*
%TD*%
D18*
%TO.C,R31*%
X67475000Y25970000D03*
X67475000Y24950000D03*
%TD*%
D17*
%TO.C,R10*%
X29600000Y6500000D03*
X30620000Y6500000D03*
%TD*%
D22*
%TO.C,R25*%
X55475000Y15460000D03*
X55475000Y16480000D03*
%TD*%
D19*
%TO.C,D24*%
X37500000Y40050000D03*
D20*
X37500000Y33950000D03*
%TD*%
D41*
%TO.C,C10*%
X20600000Y33980000D03*
X20600000Y33020000D03*
%TD*%
D17*
%TO.C,R43*%
X88480000Y20000000D03*
X89500000Y20000000D03*
%TD*%
D42*
%TO.C,U8*%
X58300000Y24310000D03*
X58300000Y23040000D03*
X58300000Y21770000D03*
X58300000Y20500000D03*
X58300000Y19230000D03*
X58300000Y17960000D03*
X58300000Y16690000D03*
X63700000Y16690000D03*
X63700000Y17960000D03*
X63700000Y19230000D03*
X63700000Y20500000D03*
X63700000Y21770000D03*
X63700000Y23040000D03*
X63700000Y24310000D03*
%TD*%
D36*
%TO.C,C30*%
X65700000Y22460000D03*
X67250000Y22460000D03*
%TD*%
D19*
%TO.C,D19*%
X62500000Y40050000D03*
D20*
X62500000Y33950000D03*
%TD*%
D43*
%TO.C,C16*%
X29620000Y7500000D03*
X30580000Y7500000D03*
%TD*%
%TO.C,C25*%
X51020000Y16480000D03*
X51980000Y16480000D03*
%TD*%
D18*
%TO.C,R51*%
X102490000Y26010000D03*
X102490000Y24990000D03*
%TD*%
D36*
%TO.C,C3*%
X19725000Y30500000D03*
X21275000Y30500000D03*
%TD*%
D48*
%TO.C,U4*%
X15050000Y11725000D03*
X16000000Y11725000D03*
X16950000Y11725000D03*
X16950000Y14000000D03*
X16000000Y14000000D03*
X15050000Y14000000D03*
%TD*%
D13*
%TO.C,D12*%
X42500000Y43950000D03*
D14*
X42500000Y50050000D03*
%TD*%
D13*
%TO.C,D3*%
X77500000Y43950000D03*
D14*
X77500000Y50050000D03*
%TD*%
D17*
%TO.C,R2*%
X4240000Y43000000D03*
X5260000Y43000000D03*
%TD*%
D22*
%TO.C,R39*%
X91490000Y23990000D03*
X91490000Y25010000D03*
%TD*%
D30*
%TO.C,C2*%
X104000000Y7000000D03*
X104000000Y5450000D03*
%TD*%
D36*
%TO.C,C28*%
X65925000Y18460000D03*
X67475000Y18460000D03*
%TD*%
D22*
%TO.C,R60*%
X31990000Y14980000D03*
X31990000Y16000000D03*
%TD*%
D13*
%TO.C,D16*%
X32500000Y43950000D03*
D14*
X32500000Y50050000D03*
%TD*%
D18*
%TO.C,R59*%
X31000000Y17010000D03*
X31000000Y15990000D03*
%TD*%
%TO.C,R36*%
X89490000Y26010000D03*
X89490000Y24990000D03*
%TD*%
D19*
%TO.C,D18*%
X67500000Y40050000D03*
D20*
X67500000Y33950000D03*
%TD*%
D17*
%TO.C,R38*%
X88480000Y21000000D03*
X89500000Y21000000D03*
%TD*%
M02*
