%TF.GenerationSoftware,KiCad,Pcbnew,7.0.9*%
%TF.CreationDate,2024-04-08T22:34:53+02:00*%
%TF.ProjectId,ElectronicBLETarget,456c6563-7472-46f6-9e69-63424c455461,rev?*%
%TF.SameCoordinates,PX29f6300PY5a995c0*%
%TF.FileFunction,Legend,Top*%
%TF.FilePolarity,Positive*%
%FSLAX46Y46*%
G04 Gerber Fmt 4.6, Leading zero omitted, Abs format (unit mm)*
G04 Created by KiCad (PCBNEW 7.0.9) date 2024-04-08 22:34:53*
%MOMM*%
%LPD*%
G01*
G04 APERTURE LIST*
%ADD10C,0.200000*%
%ADD11C,0.150000*%
%ADD12C,0.120000*%
%ADD13C,0.100000*%
%ADD14C,0.500000*%
G04 APERTURE END LIST*
D10*
X72500000Y33500000D02*
X72500000Y29500000D01*
D11*
X72500000Y54000000D02*
X72500000Y52000000D01*
X72500000Y41450000D02*
X72500000Y37450000D01*
X72500000Y13250000D02*
X72500000Y6250000D01*
G36*
X11355547Y23885063D02*
G01*
X11432534Y23846569D01*
X11506648Y23772456D01*
X11544819Y23657943D01*
X11544819Y23507018D01*
X10694819Y23507018D01*
X10694819Y23657943D01*
X10732990Y23772457D01*
X10807103Y23846569D01*
X10884090Y23885063D01*
X11057624Y23928446D01*
X11182013Y23928446D01*
X11355547Y23885063D01*
G37*
G36*
X11837676Y21071304D02*
G01*
X10401962Y21071304D01*
X10401962Y21479637D01*
X10544819Y21479637D01*
X10546352Y21475424D01*
X10545311Y21471063D01*
X10552737Y21446096D01*
X10600356Y21350858D01*
X10601545Y21349733D01*
X10614405Y21331366D01*
X10662024Y21283747D01*
X10663505Y21283056D01*
X10681516Y21269698D01*
X10776754Y21222079D01*
X10781207Y21221567D01*
X10784643Y21218684D01*
X10810295Y21214161D01*
X10905533Y21214161D01*
X10909746Y21215695D01*
X10914107Y21214653D01*
X10939074Y21222079D01*
X11034312Y21269698D01*
X11035437Y21270888D01*
X11053804Y21283747D01*
X11101423Y21331366D01*
X11102114Y21332848D01*
X11115472Y21350858D01*
X11163091Y21446096D01*
X11163497Y21449625D01*
X11168770Y21461447D01*
X11214392Y21643937D01*
X11252886Y21720924D01*
X11283293Y21751331D01*
X11351809Y21785589D01*
X11411637Y21785589D01*
X11480153Y21751331D01*
X11510561Y21720924D01*
X11544819Y21652408D01*
X11544819Y21444188D01*
X11501049Y21312878D01*
X11502450Y21261594D01*
X11536487Y21223209D01*
X11587236Y21215684D01*
X11630948Y21242539D01*
X11643351Y21265444D01*
X11690970Y21408300D01*
X11690925Y21409936D01*
X11694819Y21432018D01*
X11694819Y21670113D01*
X11693285Y21674327D01*
X11694327Y21678688D01*
X11686901Y21703654D01*
X11639282Y21798892D01*
X11638094Y21800017D01*
X11625232Y21818385D01*
X11577612Y21866004D01*
X11576129Y21866696D01*
X11558121Y21880052D01*
X11462883Y21927671D01*
X11458429Y21928184D01*
X11454994Y21931066D01*
X11429342Y21935589D01*
X11334104Y21935589D01*
X11329890Y21934056D01*
X11325529Y21935097D01*
X11300563Y21927671D01*
X11205325Y21880052D01*
X11204199Y21878863D01*
X11185833Y21866003D01*
X11138214Y21818384D01*
X11137523Y21816903D01*
X11124165Y21798892D01*
X11076546Y21703654D01*
X11076139Y21700126D01*
X11070867Y21688303D01*
X11025244Y21505813D01*
X10986751Y21428826D01*
X10956344Y21398419D01*
X10887828Y21364161D01*
X10828000Y21364161D01*
X10759484Y21398419D01*
X10729077Y21428826D01*
X10694819Y21497342D01*
X10694819Y21705562D01*
X10738589Y21836871D01*
X10737188Y21888155D01*
X10703150Y21926541D01*
X10652402Y21934066D01*
X10608689Y21907211D01*
X10596287Y21884306D01*
X10548668Y21741449D01*
X10548712Y21739815D01*
X10544819Y21717732D01*
X10544819Y21479637D01*
X10401962Y21479637D01*
X10401962Y22189485D01*
X10544950Y22189485D01*
X10565319Y22142399D01*
X10611188Y22119421D01*
X10637191Y22120963D01*
X11637191Y22359058D01*
X11643759Y22363388D01*
X11651597Y22364083D01*
X11664628Y22377146D01*
X11680024Y22387294D01*
X11682271Y22394830D01*
X11687831Y22400402D01*
X11689417Y22418785D01*
X11694688Y22436456D01*
X11691564Y22443677D01*
X11692241Y22451516D01*
X11681641Y22466616D01*
X11674319Y22483542D01*
X11667285Y22487066D01*
X11662764Y22493506D01*
X11639144Y22504486D01*
X11196613Y22622494D01*
X11639144Y22740502D01*
X11645595Y22745008D01*
X11653410Y22745913D01*
X11666083Y22759319D01*
X11681204Y22769879D01*
X11683248Y22777474D01*
X11688655Y22783192D01*
X11689746Y22801607D01*
X11694542Y22819417D01*
X11691225Y22826552D01*
X11691691Y22834406D01*
X11680691Y22849212D01*
X11672916Y22865940D01*
X11665788Y22869275D01*
X11661097Y22875589D01*
X11637191Y22885930D01*
X10637191Y23124025D01*
X10586228Y23118122D01*
X10550983Y23080843D01*
X10547948Y23029629D01*
X10578541Y22988446D01*
X10602447Y22978105D01*
X11313303Y22808854D01*
X10886208Y22694962D01*
X10880585Y22691035D01*
X10873755Y22690429D01*
X10860052Y22676694D01*
X10844148Y22665585D01*
X10842365Y22658964D01*
X10837522Y22654109D01*
X10835854Y22634783D01*
X10830810Y22616047D01*
X10833701Y22609828D01*
X10833112Y22602996D01*
X10844257Y22587119D01*
X10852436Y22569525D01*
X10858647Y22566620D01*
X10862588Y22561006D01*
X10886208Y22550026D01*
X11313303Y22436135D01*
X10602447Y22266883D01*
X10559614Y22238647D01*
X10544950Y22189485D01*
X10401962Y22189485D01*
X10401962Y23432018D01*
X10544819Y23432018D01*
X10551482Y23413710D01*
X10554867Y23394518D01*
X10560051Y23390168D01*
X10562366Y23383809D01*
X10579239Y23374067D01*
X10594167Y23361541D01*
X10603909Y23359824D01*
X10606795Y23358157D01*
X10610077Y23358736D01*
X10619819Y23357018D01*
X11619819Y23357018D01*
X11638127Y23363682D01*
X11657319Y23367066D01*
X11661669Y23372251D01*
X11668028Y23374565D01*
X11677770Y23391439D01*
X11690296Y23406366D01*
X11692013Y23416109D01*
X11693680Y23418994D01*
X11693101Y23422277D01*
X11694819Y23432018D01*
X11694819Y23670113D01*
X11694259Y23671651D01*
X11690970Y23693831D01*
X11643351Y23836687D01*
X11640564Y23840198D01*
X11640174Y23844666D01*
X11625233Y23866003D01*
X11529994Y23961241D01*
X11528512Y23961932D01*
X11510502Y23975290D01*
X11415264Y24022909D01*
X11411735Y24023316D01*
X11399913Y24028588D01*
X11209437Y24076207D01*
X11205988Y24075847D01*
X11191247Y24078446D01*
X11048390Y24078446D01*
X11045132Y24077261D01*
X11030200Y24076207D01*
X10839724Y24028588D01*
X10836779Y24026600D01*
X10824373Y24022909D01*
X10729135Y23975290D01*
X10728011Y23974104D01*
X10709643Y23961241D01*
X10614405Y23866003D01*
X10612510Y23861940D01*
X10608689Y23859592D01*
X10596287Y23836687D01*
X10548668Y23693830D01*
X10548712Y23692196D01*
X10544819Y23670113D01*
X10544819Y23432018D01*
X10401962Y23432018D01*
X10401962Y24221303D01*
X11837676Y24221303D01*
X11837676Y21071304D01*
G37*
G36*
X140185209Y18217590D02*
G01*
X140215616Y18187183D01*
X140249874Y18118667D01*
X140249874Y17868363D01*
X140215615Y17799847D01*
X140185208Y17769439D01*
X140116693Y17735181D01*
X140009246Y17735181D01*
X139940730Y17769439D01*
X139910323Y17799847D01*
X139876065Y17868363D01*
X139876065Y18118667D01*
X139910323Y18187183D01*
X139940730Y18217590D01*
X140009246Y18251848D01*
X140116693Y18251848D01*
X140185209Y18217590D01*
G37*
G36*
X142113021Y17442324D02*
G01*
X136821303Y17442324D01*
X136821303Y18088753D01*
X136964160Y18088753D01*
X136965345Y18085496D01*
X136966399Y18070563D01*
X137014018Y17880087D01*
X137016006Y17877143D01*
X137019697Y17864736D01*
X137067316Y17769498D01*
X137068502Y17768375D01*
X137081365Y17750006D01*
X137176603Y17654767D01*
X137180667Y17652872D01*
X137183014Y17649052D01*
X137205919Y17636649D01*
X137348775Y17589030D01*
X137350410Y17589075D01*
X137372493Y17585181D01*
X137467731Y17585181D01*
X137469269Y17585742D01*
X137491448Y17589030D01*
X137634305Y17636649D01*
X137637816Y17639437D01*
X137642285Y17639827D01*
X137663622Y17654768D01*
X137711240Y17702387D01*
X137732921Y17748884D01*
X137719643Y17798439D01*
X137677618Y17827865D01*
X137626510Y17823393D01*
X137605173Y17808452D01*
X137570074Y17773353D01*
X137455561Y17735181D01*
X137384663Y17735181D01*
X137270150Y17773352D01*
X137196037Y17847466D01*
X137157543Y17924453D01*
X137116468Y18088753D01*
X137964160Y18088753D01*
X137965345Y18085496D01*
X137966399Y18070563D01*
X138014018Y17880087D01*
X138016006Y17877143D01*
X138019697Y17864736D01*
X138067316Y17769498D01*
X138068502Y17768375D01*
X138081365Y17750006D01*
X138176603Y17654767D01*
X138180667Y17652872D01*
X138183014Y17649052D01*
X138205919Y17636649D01*
X138348775Y17589030D01*
X138350410Y17589075D01*
X138372493Y17585181D01*
X138467731Y17585181D01*
X138469269Y17585742D01*
X138491448Y17589030D01*
X138634305Y17636649D01*
X138637816Y17639437D01*
X138642285Y17639827D01*
X138663622Y17654768D01*
X138711240Y17702387D01*
X138732921Y17748884D01*
X138719643Y17798439D01*
X138677618Y17827865D01*
X138626510Y17823393D01*
X138605173Y17808452D01*
X138570074Y17773353D01*
X138455561Y17735181D01*
X138384663Y17735181D01*
X138270150Y17773352D01*
X138196037Y17847466D01*
X138194441Y17850658D01*
X139726065Y17850658D01*
X139727598Y17846445D01*
X139726557Y17842084D01*
X139733983Y17817117D01*
X139781602Y17721879D01*
X139782790Y17720754D01*
X139795650Y17702388D01*
X139843269Y17654768D01*
X139844750Y17654078D01*
X139862762Y17640718D01*
X139958000Y17593099D01*
X139962453Y17592587D01*
X139965889Y17589704D01*
X139991541Y17585181D01*
X140134398Y17585181D01*
X140138611Y17586715D01*
X140142972Y17585673D01*
X140167939Y17593099D01*
X140263177Y17640718D01*
X140264301Y17641906D01*
X140282670Y17654768D01*
X140330288Y17702387D01*
X140330978Y17703869D01*
X140344337Y17721879D01*
X140384917Y17803039D01*
X140678446Y17803039D01*
X140679979Y17798827D01*
X140678937Y17794465D01*
X140686364Y17769498D01*
X140733983Y17674259D01*
X140742136Y17666540D01*
X140746603Y17656235D01*
X140767524Y17640718D01*
X140862762Y17593099D01*
X140867215Y17592587D01*
X140870651Y17589704D01*
X140896303Y17585181D01*
X141039160Y17585181D01*
X141043373Y17586715D01*
X141047734Y17585673D01*
X141072701Y17593099D01*
X141122390Y17617944D01*
X141124564Y17611972D01*
X141168993Y17586320D01*
X141219517Y17595229D01*
X141252494Y17634529D01*
X141257017Y17660181D01*
X141257017Y18326848D01*
X141252277Y18339872D01*
X141441490Y18339872D01*
X141450399Y18289348D01*
X141489699Y18256371D01*
X141515351Y18251848D01*
X141583208Y18251848D01*
X141583208Y17803039D01*
X141584741Y17798827D01*
X141583699Y17794465D01*
X141591126Y17769498D01*
X141638745Y17674259D01*
X141646898Y17666540D01*
X141651365Y17656235D01*
X141672286Y17640718D01*
X141767524Y17593099D01*
X141771977Y17592587D01*
X141775413Y17589704D01*
X141801065Y17585181D01*
X141896303Y17585181D01*
X141944512Y17602728D01*
X141970164Y17647157D01*
X141961255Y17697681D01*
X141921955Y17730658D01*
X141896303Y17735181D01*
X141818770Y17735181D01*
X141761728Y17763702D01*
X141733208Y17820744D01*
X141733208Y18251848D01*
X141896303Y18251848D01*
X141944512Y18269395D01*
X141970164Y18313824D01*
X141961255Y18364348D01*
X141921955Y18397325D01*
X141896303Y18401848D01*
X141733208Y18401848D01*
X141733208Y18660181D01*
X141715661Y18708390D01*
X141671232Y18734042D01*
X141620708Y18725133D01*
X141587731Y18685833D01*
X141583208Y18660181D01*
X141583208Y18401848D01*
X141515351Y18401848D01*
X141467142Y18384301D01*
X141441490Y18339872D01*
X141252277Y18339872D01*
X141239470Y18375057D01*
X141195041Y18400709D01*
X141144517Y18391800D01*
X141111540Y18352500D01*
X141107017Y18326848D01*
X141107017Y17786486D01*
X141089970Y17769439D01*
X141021455Y17735181D01*
X140914008Y17735181D01*
X140856966Y17763702D01*
X140828446Y17820744D01*
X140828446Y18326848D01*
X140810899Y18375057D01*
X140766470Y18400709D01*
X140715946Y18391800D01*
X140682969Y18352500D01*
X140678446Y18326848D01*
X140678446Y17803039D01*
X140384917Y17803039D01*
X140391956Y17817117D01*
X140392468Y17821571D01*
X140395351Y17825006D01*
X140399874Y17850658D01*
X140399874Y18136372D01*
X140398340Y18140586D01*
X140399382Y18144947D01*
X140391956Y18169913D01*
X140344337Y18265151D01*
X140343147Y18266277D01*
X140330288Y18284643D01*
X140282669Y18332262D01*
X140281187Y18332953D01*
X140263177Y18346311D01*
X140167939Y18393930D01*
X140163485Y18394443D01*
X140160050Y18397325D01*
X140134398Y18401848D01*
X139991541Y18401848D01*
X139987327Y18400315D01*
X139982966Y18401356D01*
X139958000Y18393930D01*
X139862762Y18346311D01*
X139861636Y18345122D01*
X139843270Y18332262D01*
X139795651Y18284643D01*
X139794960Y18283162D01*
X139781602Y18265151D01*
X139733983Y18169913D01*
X139733470Y18165460D01*
X139730588Y18162024D01*
X139726065Y18136372D01*
X139726065Y17850658D01*
X138194441Y17850658D01*
X138157543Y17924453D01*
X138114160Y18097987D01*
X138114160Y18222376D01*
X138157543Y18395910D01*
X138196037Y18472897D01*
X138270150Y18547010D01*
X138384663Y18585181D01*
X138455561Y18585181D01*
X138570074Y18547010D01*
X138605174Y18511910D01*
X138651670Y18490229D01*
X138701225Y18503506D01*
X138730651Y18545532D01*
X138726180Y18596639D01*
X138711240Y18617976D01*
X138663621Y18665595D01*
X138659557Y18667490D01*
X138657210Y18671311D01*
X138634305Y18683713D01*
X138491448Y18731332D01*
X138489813Y18731288D01*
X138467731Y18735181D01*
X138372493Y18735181D01*
X138370955Y18734622D01*
X138348775Y18731332D01*
X138205919Y18683713D01*
X138202408Y18680927D01*
X138197940Y18680536D01*
X138176603Y18665595D01*
X138081365Y18570357D01*
X138080674Y18568876D01*
X138067316Y18550865D01*
X138019697Y18455627D01*
X138019290Y18452099D01*
X138014018Y18440276D01*
X137966399Y18249800D01*
X137966759Y18246352D01*
X137964160Y18231610D01*
X137964160Y18088753D01*
X137116468Y18088753D01*
X137114160Y18097987D01*
X137114160Y18222376D01*
X137157543Y18395910D01*
X137196037Y18472897D01*
X137270150Y18547010D01*
X137384663Y18585181D01*
X137455561Y18585181D01*
X137570074Y18547010D01*
X137605174Y18511910D01*
X137651670Y18490229D01*
X137701225Y18503506D01*
X137730651Y18545532D01*
X137726180Y18596639D01*
X137711240Y18617976D01*
X137663621Y18665595D01*
X137659557Y18667490D01*
X137657210Y18671311D01*
X137634305Y18683713D01*
X137491448Y18731332D01*
X137489813Y18731288D01*
X137467731Y18735181D01*
X137372493Y18735181D01*
X137370955Y18734622D01*
X137348775Y18731332D01*
X137205919Y18683713D01*
X137202408Y18680927D01*
X137197940Y18680536D01*
X137176603Y18665595D01*
X137081365Y18570357D01*
X137080674Y18568876D01*
X137067316Y18550865D01*
X137019697Y18455627D01*
X137019290Y18452099D01*
X137014018Y18440276D01*
X136966399Y18249800D01*
X136966759Y18246352D01*
X136964160Y18231610D01*
X136964160Y18088753D01*
X136821303Y18088753D01*
X136821303Y18878038D01*
X142113021Y18878038D01*
X142113021Y17442324D01*
G37*
G36*
X19518542Y52520923D02*
G01*
X19548949Y52490516D01*
X19583207Y52422000D01*
X19583207Y52314553D01*
X19548949Y52246037D01*
X19518542Y52215630D01*
X19450026Y52181372D01*
X19161779Y52181372D01*
X19161779Y52555181D01*
X19450026Y52555181D01*
X19518542Y52520923D01*
G37*
G36*
X20779687Y51413463D02*
G01*
X18868922Y51413463D01*
X18868922Y51630181D01*
X19011779Y51630181D01*
X19029326Y51581972D01*
X19073755Y51556320D01*
X19124279Y51565229D01*
X19157256Y51604529D01*
X19161779Y51630181D01*
X19161779Y52031372D01*
X19285825Y52031372D01*
X19596765Y51587171D01*
X19638786Y51557739D01*
X19689894Y51562203D01*
X19726176Y51598475D01*
X19728955Y51630181D01*
X20011779Y51630181D01*
X20029326Y51581972D01*
X20073755Y51556320D01*
X20124279Y51565229D01*
X20157256Y51604529D01*
X20161779Y51630181D01*
X20161779Y52078991D01*
X20420112Y52078991D01*
X20468321Y52096538D01*
X20493973Y52140967D01*
X20485064Y52191491D01*
X20445764Y52224468D01*
X20420112Y52228991D01*
X20161779Y52228991D01*
X20161779Y52555181D01*
X20562969Y52555181D01*
X20611178Y52572728D01*
X20636830Y52617157D01*
X20627921Y52667681D01*
X20588621Y52700658D01*
X20562969Y52705181D01*
X20086779Y52705181D01*
X20068470Y52698518D01*
X20049279Y52695133D01*
X20044928Y52689949D01*
X20038570Y52687634D01*
X20028827Y52670761D01*
X20016302Y52655833D01*
X20014584Y52646091D01*
X20012918Y52643205D01*
X20013496Y52639923D01*
X20011779Y52630181D01*
X20011779Y51630181D01*
X19728955Y51630181D01*
X19730655Y51649582D01*
X19719650Y51673190D01*
X19468680Y52031718D01*
X19471944Y52032906D01*
X19476305Y52031864D01*
X19501272Y52039290D01*
X19596510Y52086909D01*
X19597635Y52088099D01*
X19616002Y52100958D01*
X19663621Y52148577D01*
X19664312Y52150059D01*
X19677670Y52168069D01*
X19725289Y52263307D01*
X19725801Y52267761D01*
X19728684Y52271196D01*
X19733207Y52296848D01*
X19733207Y52439705D01*
X19731673Y52443919D01*
X19732715Y52448280D01*
X19725289Y52473246D01*
X19677670Y52568484D01*
X19676480Y52569610D01*
X19663621Y52587976D01*
X19616002Y52635595D01*
X19614520Y52636286D01*
X19596510Y52649644D01*
X19501272Y52697263D01*
X19496818Y52697776D01*
X19493383Y52700658D01*
X19467731Y52705181D01*
X19086779Y52705181D01*
X19068470Y52698518D01*
X19049279Y52695133D01*
X19044928Y52689949D01*
X19038570Y52687634D01*
X19028827Y52670761D01*
X19016302Y52655833D01*
X19014584Y52646091D01*
X19012918Y52643205D01*
X19013496Y52639923D01*
X19011779Y52630181D01*
X19011779Y51630181D01*
X18868922Y51630181D01*
X18868922Y52848038D01*
X20779687Y52848038D01*
X20779687Y51413463D01*
G37*
X84312969Y37240181D02*
X83836779Y37240181D01*
X83836779Y37240181D02*
X83836779Y38240181D01*
X85027255Y37287800D02*
X84932017Y37240181D01*
X84932017Y37240181D02*
X84741541Y37240181D01*
X84741541Y37240181D02*
X84646303Y37287800D01*
X84646303Y37287800D02*
X84598684Y37383039D01*
X84598684Y37383039D02*
X84598684Y37763991D01*
X84598684Y37763991D02*
X84646303Y37859229D01*
X84646303Y37859229D02*
X84741541Y37906848D01*
X84741541Y37906848D02*
X84932017Y37906848D01*
X84932017Y37906848D02*
X85027255Y37859229D01*
X85027255Y37859229D02*
X85074874Y37763991D01*
X85074874Y37763991D02*
X85074874Y37668753D01*
X85074874Y37668753D02*
X84598684Y37573515D01*
X85360589Y37906848D02*
X85741541Y37906848D01*
X85503446Y37240181D02*
X85503446Y38097324D01*
X85503446Y38097324D02*
X85551065Y38192562D01*
X85551065Y38192562D02*
X85646303Y38240181D01*
X85646303Y38240181D02*
X85741541Y38240181D01*
X85932018Y37906848D02*
X86312970Y37906848D01*
X86074875Y38240181D02*
X86074875Y37383039D01*
X86074875Y37383039D02*
X86122494Y37287800D01*
X86122494Y37287800D02*
X86217732Y37240181D01*
X86217732Y37240181D02*
X86312970Y37240181D01*
X87408209Y37240181D02*
X87408209Y37906848D01*
X87408209Y37811610D02*
X87455828Y37859229D01*
X87455828Y37859229D02*
X87551066Y37906848D01*
X87551066Y37906848D02*
X87693923Y37906848D01*
X87693923Y37906848D02*
X87789161Y37859229D01*
X87789161Y37859229D02*
X87836780Y37763991D01*
X87836780Y37763991D02*
X87836780Y37240181D01*
X87836780Y37763991D02*
X87884399Y37859229D01*
X87884399Y37859229D02*
X87979637Y37906848D01*
X87979637Y37906848D02*
X88122494Y37906848D01*
X88122494Y37906848D02*
X88217733Y37859229D01*
X88217733Y37859229D02*
X88265352Y37763991D01*
X88265352Y37763991D02*
X88265352Y37240181D01*
X88884399Y37240181D02*
X88789161Y37287800D01*
X88789161Y37287800D02*
X88741542Y37335420D01*
X88741542Y37335420D02*
X88693923Y37430658D01*
X88693923Y37430658D02*
X88693923Y37716372D01*
X88693923Y37716372D02*
X88741542Y37811610D01*
X88741542Y37811610D02*
X88789161Y37859229D01*
X88789161Y37859229D02*
X88884399Y37906848D01*
X88884399Y37906848D02*
X89027256Y37906848D01*
X89027256Y37906848D02*
X89122494Y37859229D01*
X89122494Y37859229D02*
X89170113Y37811610D01*
X89170113Y37811610D02*
X89217732Y37716372D01*
X89217732Y37716372D02*
X89217732Y37430658D01*
X89217732Y37430658D02*
X89170113Y37335420D01*
X89170113Y37335420D02*
X89122494Y37287800D01*
X89122494Y37287800D02*
X89027256Y37240181D01*
X89027256Y37240181D02*
X88884399Y37240181D01*
X90074875Y37906848D02*
X90074875Y37240181D01*
X89646304Y37906848D02*
X89646304Y37383039D01*
X89646304Y37383039D02*
X89693923Y37287800D01*
X89693923Y37287800D02*
X89789161Y37240181D01*
X89789161Y37240181D02*
X89932018Y37240181D01*
X89932018Y37240181D02*
X90027256Y37287800D01*
X90027256Y37287800D02*
X90074875Y37335420D01*
X90551066Y37906848D02*
X90551066Y37240181D01*
X90551066Y37811610D02*
X90598685Y37859229D01*
X90598685Y37859229D02*
X90693923Y37906848D01*
X90693923Y37906848D02*
X90836780Y37906848D01*
X90836780Y37906848D02*
X90932018Y37859229D01*
X90932018Y37859229D02*
X90979637Y37763991D01*
X90979637Y37763991D02*
X90979637Y37240181D01*
X91312971Y37906848D02*
X91693923Y37906848D01*
X91455828Y38240181D02*
X91455828Y37383039D01*
X91455828Y37383039D02*
X91503447Y37287800D01*
X91503447Y37287800D02*
X91598685Y37240181D01*
X91598685Y37240181D02*
X91693923Y37240181D01*
X92027257Y37240181D02*
X92027257Y37906848D01*
X92027257Y38240181D02*
X91979638Y38192562D01*
X91979638Y38192562D02*
X92027257Y38144943D01*
X92027257Y38144943D02*
X92074876Y38192562D01*
X92074876Y38192562D02*
X92027257Y38240181D01*
X92027257Y38240181D02*
X92027257Y38144943D01*
X92503447Y37906848D02*
X92503447Y37240181D01*
X92503447Y37811610D02*
X92551066Y37859229D01*
X92551066Y37859229D02*
X92646304Y37906848D01*
X92646304Y37906848D02*
X92789161Y37906848D01*
X92789161Y37906848D02*
X92884399Y37859229D01*
X92884399Y37859229D02*
X92932018Y37763991D01*
X92932018Y37763991D02*
X92932018Y37240181D01*
X93836780Y37906848D02*
X93836780Y37097324D01*
X93836780Y37097324D02*
X93789161Y37002086D01*
X93789161Y37002086D02*
X93741542Y36954467D01*
X93741542Y36954467D02*
X93646304Y36906848D01*
X93646304Y36906848D02*
X93503447Y36906848D01*
X93503447Y36906848D02*
X93408209Y36954467D01*
X93836780Y37287800D02*
X93741542Y37240181D01*
X93741542Y37240181D02*
X93551066Y37240181D01*
X93551066Y37240181D02*
X93455828Y37287800D01*
X93455828Y37287800D02*
X93408209Y37335420D01*
X93408209Y37335420D02*
X93360590Y37430658D01*
X93360590Y37430658D02*
X93360590Y37716372D01*
X93360590Y37716372D02*
X93408209Y37811610D01*
X93408209Y37811610D02*
X93455828Y37859229D01*
X93455828Y37859229D02*
X93551066Y37906848D01*
X93551066Y37906848D02*
X93741542Y37906848D01*
X93741542Y37906848D02*
X93836780Y37859229D01*
X95074876Y37240181D02*
X95074876Y38240181D01*
X95503447Y37240181D02*
X95503447Y37763991D01*
X95503447Y37763991D02*
X95455828Y37859229D01*
X95455828Y37859229D02*
X95360590Y37906848D01*
X95360590Y37906848D02*
X95217733Y37906848D01*
X95217733Y37906848D02*
X95122495Y37859229D01*
X95122495Y37859229D02*
X95074876Y37811610D01*
X96122495Y37240181D02*
X96027257Y37287800D01*
X96027257Y37287800D02*
X95979638Y37335420D01*
X95979638Y37335420D02*
X95932019Y37430658D01*
X95932019Y37430658D02*
X95932019Y37716372D01*
X95932019Y37716372D02*
X95979638Y37811610D01*
X95979638Y37811610D02*
X96027257Y37859229D01*
X96027257Y37859229D02*
X96122495Y37906848D01*
X96122495Y37906848D02*
X96265352Y37906848D01*
X96265352Y37906848D02*
X96360590Y37859229D01*
X96360590Y37859229D02*
X96408209Y37811610D01*
X96408209Y37811610D02*
X96455828Y37716372D01*
X96455828Y37716372D02*
X96455828Y37430658D01*
X96455828Y37430658D02*
X96408209Y37335420D01*
X96408209Y37335420D02*
X96360590Y37287800D01*
X96360590Y37287800D02*
X96265352Y37240181D01*
X96265352Y37240181D02*
X96122495Y37240181D01*
X97027257Y37240181D02*
X96932019Y37287800D01*
X96932019Y37287800D02*
X96884400Y37383039D01*
X96884400Y37383039D02*
X96884400Y38240181D01*
X97789162Y37287800D02*
X97693924Y37240181D01*
X97693924Y37240181D02*
X97503448Y37240181D01*
X97503448Y37240181D02*
X97408210Y37287800D01*
X97408210Y37287800D02*
X97360591Y37383039D01*
X97360591Y37383039D02*
X97360591Y37763991D01*
X97360591Y37763991D02*
X97408210Y37859229D01*
X97408210Y37859229D02*
X97503448Y37906848D01*
X97503448Y37906848D02*
X97693924Y37906848D01*
X97693924Y37906848D02*
X97789162Y37859229D01*
X97789162Y37859229D02*
X97836781Y37763991D01*
X97836781Y37763991D02*
X97836781Y37668753D01*
X97836781Y37668753D02*
X97360591Y37573515D01*
X98884401Y37906848D02*
X99265353Y37906848D01*
X99027258Y38240181D02*
X99027258Y37383039D01*
X99027258Y37383039D02*
X99074877Y37287800D01*
X99074877Y37287800D02*
X99170115Y37240181D01*
X99170115Y37240181D02*
X99265353Y37240181D01*
X99741544Y37240181D02*
X99646306Y37287800D01*
X99646306Y37287800D02*
X99598687Y37335420D01*
X99598687Y37335420D02*
X99551068Y37430658D01*
X99551068Y37430658D02*
X99551068Y37716372D01*
X99551068Y37716372D02*
X99598687Y37811610D01*
X99598687Y37811610D02*
X99646306Y37859229D01*
X99646306Y37859229D02*
X99741544Y37906848D01*
X99741544Y37906848D02*
X99884401Y37906848D01*
X99884401Y37906848D02*
X99979639Y37859229D01*
X99979639Y37859229D02*
X100027258Y37811610D01*
X100027258Y37811610D02*
X100074877Y37716372D01*
X100074877Y37716372D02*
X100074877Y37430658D01*
X100074877Y37430658D02*
X100027258Y37335420D01*
X100027258Y37335420D02*
X99979639Y37287800D01*
X99979639Y37287800D02*
X99884401Y37240181D01*
X99884401Y37240181D02*
X99741544Y37240181D01*
X101693925Y37287800D02*
X101598687Y37240181D01*
X101598687Y37240181D02*
X101408211Y37240181D01*
X101408211Y37240181D02*
X101312973Y37287800D01*
X101312973Y37287800D02*
X101265354Y37335420D01*
X101265354Y37335420D02*
X101217735Y37430658D01*
X101217735Y37430658D02*
X101217735Y37716372D01*
X101217735Y37716372D02*
X101265354Y37811610D01*
X101265354Y37811610D02*
X101312973Y37859229D01*
X101312973Y37859229D02*
X101408211Y37906848D01*
X101408211Y37906848D02*
X101598687Y37906848D01*
X101598687Y37906848D02*
X101693925Y37859229D01*
X102503449Y37287800D02*
X102408211Y37240181D01*
X102408211Y37240181D02*
X102217735Y37240181D01*
X102217735Y37240181D02*
X102122497Y37287800D01*
X102122497Y37287800D02*
X102074878Y37383039D01*
X102074878Y37383039D02*
X102074878Y37763991D01*
X102074878Y37763991D02*
X102122497Y37859229D01*
X102122497Y37859229D02*
X102217735Y37906848D01*
X102217735Y37906848D02*
X102408211Y37906848D01*
X102408211Y37906848D02*
X102503449Y37859229D01*
X102503449Y37859229D02*
X102551068Y37763991D01*
X102551068Y37763991D02*
X102551068Y37668753D01*
X102551068Y37668753D02*
X102074878Y37573515D01*
X102979640Y37906848D02*
X102979640Y37240181D01*
X102979640Y37811610D02*
X103027259Y37859229D01*
X103027259Y37859229D02*
X103122497Y37906848D01*
X103122497Y37906848D02*
X103265354Y37906848D01*
X103265354Y37906848D02*
X103360592Y37859229D01*
X103360592Y37859229D02*
X103408211Y37763991D01*
X103408211Y37763991D02*
X103408211Y37240181D01*
X103741545Y37906848D02*
X104122497Y37906848D01*
X103884402Y38240181D02*
X103884402Y37383039D01*
X103884402Y37383039D02*
X103932021Y37287800D01*
X103932021Y37287800D02*
X104027259Y37240181D01*
X104027259Y37240181D02*
X104122497Y37240181D01*
X104836783Y37287800D02*
X104741545Y37240181D01*
X104741545Y37240181D02*
X104551069Y37240181D01*
X104551069Y37240181D02*
X104455831Y37287800D01*
X104455831Y37287800D02*
X104408212Y37383039D01*
X104408212Y37383039D02*
X104408212Y37763991D01*
X104408212Y37763991D02*
X104455831Y37859229D01*
X104455831Y37859229D02*
X104551069Y37906848D01*
X104551069Y37906848D02*
X104741545Y37906848D01*
X104741545Y37906848D02*
X104836783Y37859229D01*
X104836783Y37859229D02*
X104884402Y37763991D01*
X104884402Y37763991D02*
X104884402Y37668753D01*
X104884402Y37668753D02*
X104408212Y37573515D01*
X105312974Y37240181D02*
X105312974Y37906848D01*
X105312974Y37716372D02*
X105360593Y37811610D01*
X105360593Y37811610D02*
X105408212Y37859229D01*
X105408212Y37859229D02*
X105503450Y37906848D01*
X105503450Y37906848D02*
X105598688Y37906848D01*
X107122498Y37240181D02*
X107122498Y38240181D01*
X107122498Y37287800D02*
X107027260Y37240181D01*
X107027260Y37240181D02*
X106836784Y37240181D01*
X106836784Y37240181D02*
X106741546Y37287800D01*
X106741546Y37287800D02*
X106693927Y37335420D01*
X106693927Y37335420D02*
X106646308Y37430658D01*
X106646308Y37430658D02*
X106646308Y37716372D01*
X106646308Y37716372D02*
X106693927Y37811610D01*
X106693927Y37811610D02*
X106741546Y37859229D01*
X106741546Y37859229D02*
X106836784Y37906848D01*
X106836784Y37906848D02*
X107027260Y37906848D01*
X107027260Y37906848D02*
X107122498Y37859229D01*
X107598689Y37240181D02*
X107598689Y37906848D01*
X107598689Y38240181D02*
X107551070Y38192562D01*
X107551070Y38192562D02*
X107598689Y38144943D01*
X107598689Y38144943D02*
X107646308Y38192562D01*
X107646308Y38192562D02*
X107598689Y38240181D01*
X107598689Y38240181D02*
X107598689Y38144943D01*
X108217736Y37240181D02*
X108122498Y37287800D01*
X108122498Y37287800D02*
X108074879Y37335420D01*
X108074879Y37335420D02*
X108027260Y37430658D01*
X108027260Y37430658D02*
X108027260Y37716372D01*
X108027260Y37716372D02*
X108074879Y37811610D01*
X108074879Y37811610D02*
X108122498Y37859229D01*
X108122498Y37859229D02*
X108217736Y37906848D01*
X108217736Y37906848D02*
X108360593Y37906848D01*
X108360593Y37906848D02*
X108455831Y37859229D01*
X108455831Y37859229D02*
X108503450Y37811610D01*
X108503450Y37811610D02*
X108551069Y37716372D01*
X108551069Y37716372D02*
X108551069Y37430658D01*
X108551069Y37430658D02*
X108503450Y37335420D01*
X108503450Y37335420D02*
X108455831Y37287800D01*
X108455831Y37287800D02*
X108360593Y37240181D01*
X108360593Y37240181D02*
X108217736Y37240181D01*
X109408212Y37240181D02*
X109408212Y38240181D01*
X109408212Y37287800D02*
X109312974Y37240181D01*
X109312974Y37240181D02*
X109122498Y37240181D01*
X109122498Y37240181D02*
X109027260Y37287800D01*
X109027260Y37287800D02*
X108979641Y37335420D01*
X108979641Y37335420D02*
X108932022Y37430658D01*
X108932022Y37430658D02*
X108932022Y37716372D01*
X108932022Y37716372D02*
X108979641Y37811610D01*
X108979641Y37811610D02*
X109027260Y37859229D01*
X109027260Y37859229D02*
X109122498Y37906848D01*
X109122498Y37906848D02*
X109312974Y37906848D01*
X109312974Y37906848D02*
X109408212Y37859229D01*
X110265355Y37287800D02*
X110170117Y37240181D01*
X110170117Y37240181D02*
X109979641Y37240181D01*
X109979641Y37240181D02*
X109884403Y37287800D01*
X109884403Y37287800D02*
X109836784Y37383039D01*
X109836784Y37383039D02*
X109836784Y37763991D01*
X109836784Y37763991D02*
X109884403Y37859229D01*
X109884403Y37859229D02*
X109979641Y37906848D01*
X109979641Y37906848D02*
X110170117Y37906848D01*
X110170117Y37906848D02*
X110265355Y37859229D01*
X110265355Y37859229D02*
X110312974Y37763991D01*
X110312974Y37763991D02*
X110312974Y37668753D01*
X110312974Y37668753D02*
X109836784Y37573515D01*
X110741546Y37335420D02*
X110789165Y37287800D01*
X110789165Y37287800D02*
X110741546Y37240181D01*
X110741546Y37240181D02*
X110693927Y37287800D01*
X110693927Y37287800D02*
X110741546Y37335420D01*
X110741546Y37335420D02*
X110741546Y37240181D01*
X110741546Y37859229D02*
X110789165Y37811610D01*
X110789165Y37811610D02*
X110741546Y37763991D01*
X110741546Y37763991D02*
X110693927Y37811610D01*
X110693927Y37811610D02*
X110741546Y37859229D01*
X110741546Y37859229D02*
X110741546Y37763991D01*
X112408212Y38240181D02*
X112217736Y38240181D01*
X112217736Y38240181D02*
X112122498Y38192562D01*
X112122498Y38192562D02*
X112074879Y38144943D01*
X112074879Y38144943D02*
X111979641Y38002086D01*
X111979641Y38002086D02*
X111932022Y37811610D01*
X111932022Y37811610D02*
X111932022Y37430658D01*
X111932022Y37430658D02*
X111979641Y37335420D01*
X111979641Y37335420D02*
X112027260Y37287800D01*
X112027260Y37287800D02*
X112122498Y37240181D01*
X112122498Y37240181D02*
X112312974Y37240181D01*
X112312974Y37240181D02*
X112408212Y37287800D01*
X112408212Y37287800D02*
X112455831Y37335420D01*
X112455831Y37335420D02*
X112503450Y37430658D01*
X112503450Y37430658D02*
X112503450Y37668753D01*
X112503450Y37668753D02*
X112455831Y37763991D01*
X112455831Y37763991D02*
X112408212Y37811610D01*
X112408212Y37811610D02*
X112312974Y37859229D01*
X112312974Y37859229D02*
X112122498Y37859229D01*
X112122498Y37859229D02*
X112027260Y37811610D01*
X112027260Y37811610D02*
X111979641Y37763991D01*
X111979641Y37763991D02*
X111932022Y37668753D01*
X112836784Y38240181D02*
X113503450Y38240181D01*
X113503450Y38240181D02*
X113074879Y37240181D01*
X113932022Y37287800D02*
X113932022Y37240181D01*
X113932022Y37240181D02*
X113884403Y37144943D01*
X113884403Y37144943D02*
X113836784Y37097324D01*
X114836783Y38240181D02*
X114360593Y38240181D01*
X114360593Y38240181D02*
X114312974Y37763991D01*
X114312974Y37763991D02*
X114360593Y37811610D01*
X114360593Y37811610D02*
X114455831Y37859229D01*
X114455831Y37859229D02*
X114693926Y37859229D01*
X114693926Y37859229D02*
X114789164Y37811610D01*
X114789164Y37811610D02*
X114836783Y37763991D01*
X114836783Y37763991D02*
X114884402Y37668753D01*
X114884402Y37668753D02*
X114884402Y37430658D01*
X114884402Y37430658D02*
X114836783Y37335420D01*
X114836783Y37335420D02*
X114789164Y37287800D01*
X114789164Y37287800D02*
X114693926Y37240181D01*
X114693926Y37240181D02*
X114455831Y37240181D01*
X114455831Y37240181D02*
X114360593Y37287800D01*
X114360593Y37287800D02*
X114312974Y37335420D01*
X115312974Y37240181D02*
X115312974Y37906848D01*
X115312974Y37811610D02*
X115360593Y37859229D01*
X115360593Y37859229D02*
X115455831Y37906848D01*
X115455831Y37906848D02*
X115598688Y37906848D01*
X115598688Y37906848D02*
X115693926Y37859229D01*
X115693926Y37859229D02*
X115741545Y37763991D01*
X115741545Y37763991D02*
X115741545Y37240181D01*
X115741545Y37763991D02*
X115789164Y37859229D01*
X115789164Y37859229D02*
X115884402Y37906848D01*
X115884402Y37906848D02*
X116027259Y37906848D01*
X116027259Y37906848D02*
X116122498Y37859229D01*
X116122498Y37859229D02*
X116170117Y37763991D01*
X116170117Y37763991D02*
X116170117Y37240181D01*
X116646307Y37240181D02*
X116646307Y37906848D01*
X116646307Y37811610D02*
X116693926Y37859229D01*
X116693926Y37859229D02*
X116789164Y37906848D01*
X116789164Y37906848D02*
X116932021Y37906848D01*
X116932021Y37906848D02*
X117027259Y37859229D01*
X117027259Y37859229D02*
X117074878Y37763991D01*
X117074878Y37763991D02*
X117074878Y37240181D01*
X117074878Y37763991D02*
X117122497Y37859229D01*
X117122497Y37859229D02*
X117217735Y37906848D01*
X117217735Y37906848D02*
X117360592Y37906848D01*
X117360592Y37906848D02*
X117455831Y37859229D01*
X117455831Y37859229D02*
X117503450Y37763991D01*
X117503450Y37763991D02*
X117503450Y37240181D01*
X83836779Y35630181D02*
X83836779Y36630181D01*
X83836779Y36630181D02*
X84074874Y36630181D01*
X84074874Y36630181D02*
X84217731Y36582562D01*
X84217731Y36582562D02*
X84312969Y36487324D01*
X84312969Y36487324D02*
X84360588Y36392086D01*
X84360588Y36392086D02*
X84408207Y36201610D01*
X84408207Y36201610D02*
X84408207Y36058753D01*
X84408207Y36058753D02*
X84360588Y35868277D01*
X84360588Y35868277D02*
X84312969Y35773039D01*
X84312969Y35773039D02*
X84217731Y35677800D01*
X84217731Y35677800D02*
X84074874Y35630181D01*
X84074874Y35630181D02*
X83836779Y35630181D01*
X84836779Y35630181D02*
X84836779Y36296848D01*
X84836779Y36630181D02*
X84789160Y36582562D01*
X84789160Y36582562D02*
X84836779Y36534943D01*
X84836779Y36534943D02*
X84884398Y36582562D01*
X84884398Y36582562D02*
X84836779Y36630181D01*
X84836779Y36630181D02*
X84836779Y36534943D01*
X85455826Y35630181D02*
X85360588Y35677800D01*
X85360588Y35677800D02*
X85312969Y35725420D01*
X85312969Y35725420D02*
X85265350Y35820658D01*
X85265350Y35820658D02*
X85265350Y36106372D01*
X85265350Y36106372D02*
X85312969Y36201610D01*
X85312969Y36201610D02*
X85360588Y36249229D01*
X85360588Y36249229D02*
X85455826Y36296848D01*
X85455826Y36296848D02*
X85598683Y36296848D01*
X85598683Y36296848D02*
X85693921Y36249229D01*
X85693921Y36249229D02*
X85741540Y36201610D01*
X85741540Y36201610D02*
X85789159Y36106372D01*
X85789159Y36106372D02*
X85789159Y35820658D01*
X85789159Y35820658D02*
X85741540Y35725420D01*
X85741540Y35725420D02*
X85693921Y35677800D01*
X85693921Y35677800D02*
X85598683Y35630181D01*
X85598683Y35630181D02*
X85455826Y35630181D01*
X86646302Y35630181D02*
X86646302Y36630181D01*
X86646302Y35677800D02*
X86551064Y35630181D01*
X86551064Y35630181D02*
X86360588Y35630181D01*
X86360588Y35630181D02*
X86265350Y35677800D01*
X86265350Y35677800D02*
X86217731Y35725420D01*
X86217731Y35725420D02*
X86170112Y35820658D01*
X86170112Y35820658D02*
X86170112Y36106372D01*
X86170112Y36106372D02*
X86217731Y36201610D01*
X86217731Y36201610D02*
X86265350Y36249229D01*
X86265350Y36249229D02*
X86360588Y36296848D01*
X86360588Y36296848D02*
X86551064Y36296848D01*
X86551064Y36296848D02*
X86646302Y36249229D01*
X87503445Y35677800D02*
X87408207Y35630181D01*
X87408207Y35630181D02*
X87217731Y35630181D01*
X87217731Y35630181D02*
X87122493Y35677800D01*
X87122493Y35677800D02*
X87074874Y35773039D01*
X87074874Y35773039D02*
X87074874Y36153991D01*
X87074874Y36153991D02*
X87122493Y36249229D01*
X87122493Y36249229D02*
X87217731Y36296848D01*
X87217731Y36296848D02*
X87408207Y36296848D01*
X87408207Y36296848D02*
X87503445Y36249229D01*
X87503445Y36249229D02*
X87551064Y36153991D01*
X87551064Y36153991D02*
X87551064Y36058753D01*
X87551064Y36058753D02*
X87074874Y35963515D01*
X89170112Y35677800D02*
X89074874Y35630181D01*
X89074874Y35630181D02*
X88884398Y35630181D01*
X88884398Y35630181D02*
X88789160Y35677800D01*
X88789160Y35677800D02*
X88741541Y35725420D01*
X88741541Y35725420D02*
X88693922Y35820658D01*
X88693922Y35820658D02*
X88693922Y36106372D01*
X88693922Y36106372D02*
X88741541Y36201610D01*
X88741541Y36201610D02*
X88789160Y36249229D01*
X88789160Y36249229D02*
X88884398Y36296848D01*
X88884398Y36296848D02*
X89074874Y36296848D01*
X89074874Y36296848D02*
X89170112Y36249229D01*
X90027255Y35677800D02*
X89932017Y35630181D01*
X89932017Y35630181D02*
X89741541Y35630181D01*
X89741541Y35630181D02*
X89646303Y35677800D01*
X89646303Y35677800D02*
X89598684Y35725420D01*
X89598684Y35725420D02*
X89551065Y35820658D01*
X89551065Y35820658D02*
X89551065Y36106372D01*
X89551065Y36106372D02*
X89598684Y36201610D01*
X89598684Y36201610D02*
X89646303Y36249229D01*
X89646303Y36249229D02*
X89741541Y36296848D01*
X89741541Y36296848D02*
X89932017Y36296848D01*
X89932017Y36296848D02*
X90027255Y36249229D01*
X90455827Y35725420D02*
X90503446Y35677800D01*
X90503446Y35677800D02*
X90455827Y35630181D01*
X90455827Y35630181D02*
X90408208Y35677800D01*
X90408208Y35677800D02*
X90455827Y35725420D01*
X90455827Y35725420D02*
X90455827Y35630181D01*
X90455827Y36249229D02*
X90503446Y36201610D01*
X90503446Y36201610D02*
X90455827Y36153991D01*
X90455827Y36153991D02*
X90408208Y36201610D01*
X90408208Y36201610D02*
X90455827Y36249229D01*
X90455827Y36249229D02*
X90455827Y36153991D01*
X92170112Y36630181D02*
X91693922Y36630181D01*
X91693922Y36630181D02*
X91646303Y36153991D01*
X91646303Y36153991D02*
X91693922Y36201610D01*
X91693922Y36201610D02*
X91789160Y36249229D01*
X91789160Y36249229D02*
X92027255Y36249229D01*
X92027255Y36249229D02*
X92122493Y36201610D01*
X92122493Y36201610D02*
X92170112Y36153991D01*
X92170112Y36153991D02*
X92217731Y36058753D01*
X92217731Y36058753D02*
X92217731Y35820658D01*
X92217731Y35820658D02*
X92170112Y35725420D01*
X92170112Y35725420D02*
X92122493Y35677800D01*
X92122493Y35677800D02*
X92027255Y35630181D01*
X92027255Y35630181D02*
X91789160Y35630181D01*
X91789160Y35630181D02*
X91693922Y35677800D01*
X91693922Y35677800D02*
X91646303Y35725420D01*
X92646303Y35630181D02*
X92646303Y36296848D01*
X92646303Y36201610D02*
X92693922Y36249229D01*
X92693922Y36249229D02*
X92789160Y36296848D01*
X92789160Y36296848D02*
X92932017Y36296848D01*
X92932017Y36296848D02*
X93027255Y36249229D01*
X93027255Y36249229D02*
X93074874Y36153991D01*
X93074874Y36153991D02*
X93074874Y35630181D01*
X93074874Y36153991D02*
X93122493Y36249229D01*
X93122493Y36249229D02*
X93217731Y36296848D01*
X93217731Y36296848D02*
X93360588Y36296848D01*
X93360588Y36296848D02*
X93455827Y36249229D01*
X93455827Y36249229D02*
X93503446Y36153991D01*
X93503446Y36153991D02*
X93503446Y35630181D01*
X93979636Y35630181D02*
X93979636Y36296848D01*
X93979636Y36201610D02*
X94027255Y36249229D01*
X94027255Y36249229D02*
X94122493Y36296848D01*
X94122493Y36296848D02*
X94265350Y36296848D01*
X94265350Y36296848D02*
X94360588Y36249229D01*
X94360588Y36249229D02*
X94408207Y36153991D01*
X94408207Y36153991D02*
X94408207Y35630181D01*
X94408207Y36153991D02*
X94455826Y36249229D01*
X94455826Y36249229D02*
X94551064Y36296848D01*
X94551064Y36296848D02*
X94693921Y36296848D01*
X94693921Y36296848D02*
X94789160Y36249229D01*
X94789160Y36249229D02*
X94836779Y36153991D01*
X94836779Y36153991D02*
X94836779Y35630181D01*
G36*
X4304349Y27162324D02*
G01*
X1868922Y27162324D01*
X1868922Y27380181D01*
X2011779Y27380181D01*
X2029326Y27331972D01*
X2073755Y27306320D01*
X2124279Y27315229D01*
X2157256Y27354529D01*
X2161779Y27380181D01*
X2161779Y27386717D01*
X2393017Y27386717D01*
X2398858Y27364915D01*
X2402779Y27342681D01*
X2405406Y27340477D01*
X2406294Y27337163D01*
X2424785Y27324215D01*
X2442079Y27309704D01*
X2446663Y27308896D01*
X2448320Y27307736D01*
X2451608Y27308024D01*
X2467731Y27305181D01*
X3086778Y27305181D01*
X3134987Y27322728D01*
X3160639Y27367157D01*
X3151730Y27417681D01*
X3112430Y27450658D01*
X3086778Y27455181D01*
X2648797Y27455181D01*
X3002368Y27808753D01*
X3392731Y27808753D01*
X3393916Y27805496D01*
X3394970Y27790563D01*
X3442589Y27600087D01*
X3444577Y27597143D01*
X3448268Y27584736D01*
X3495887Y27489498D01*
X3497073Y27488375D01*
X3509936Y27470006D01*
X3605174Y27374767D01*
X3609238Y27372872D01*
X3611585Y27369052D01*
X3634490Y27356649D01*
X3777346Y27309030D01*
X3778981Y27309075D01*
X3801064Y27305181D01*
X3896302Y27305181D01*
X3897840Y27305742D01*
X3920019Y27309030D01*
X4062876Y27356649D01*
X4066387Y27359437D01*
X4070856Y27359827D01*
X4092193Y27374768D01*
X4139811Y27422387D01*
X4161492Y27468884D01*
X4148214Y27518439D01*
X4106189Y27547865D01*
X4055081Y27543393D01*
X4033744Y27528452D01*
X3998645Y27493353D01*
X3884132Y27455181D01*
X3813234Y27455181D01*
X3698721Y27493352D01*
X3624608Y27567466D01*
X3586114Y27644453D01*
X3542731Y27817987D01*
X3542731Y27942376D01*
X3586114Y28115910D01*
X3624608Y28192897D01*
X3698721Y28267010D01*
X3813234Y28305181D01*
X3884132Y28305181D01*
X3998645Y28267010D01*
X4033745Y28231910D01*
X4080241Y28210229D01*
X4129796Y28223506D01*
X4159222Y28265532D01*
X4154751Y28316639D01*
X4139811Y28337976D01*
X4092192Y28385595D01*
X4088128Y28387490D01*
X4085781Y28391311D01*
X4062876Y28403713D01*
X3920019Y28451332D01*
X3918384Y28451288D01*
X3896302Y28455181D01*
X3801064Y28455181D01*
X3799526Y28454622D01*
X3777346Y28451332D01*
X3634490Y28403713D01*
X3630979Y28400927D01*
X3626511Y28400536D01*
X3605174Y28385595D01*
X3509936Y28290357D01*
X3509245Y28288876D01*
X3495887Y28270865D01*
X3448268Y28175627D01*
X3447861Y28172099D01*
X3442589Y28160276D01*
X3394970Y27969800D01*
X3395330Y27966352D01*
X3392731Y27951610D01*
X3392731Y27808753D01*
X3002368Y27808753D01*
X3092192Y27898577D01*
X3094087Y27902642D01*
X3097907Y27904988D01*
X3110310Y27927893D01*
X3157929Y28070749D01*
X3157884Y28072385D01*
X3161778Y28094467D01*
X3161778Y28189705D01*
X3160244Y28193919D01*
X3161286Y28198280D01*
X3153860Y28223246D01*
X3106241Y28318484D01*
X3105051Y28319610D01*
X3092192Y28337976D01*
X3044573Y28385595D01*
X3043091Y28386286D01*
X3025081Y28399644D01*
X2929843Y28447263D01*
X2925389Y28447776D01*
X2921954Y28450658D01*
X2896302Y28455181D01*
X2658207Y28455181D01*
X2653993Y28453648D01*
X2649632Y28454689D01*
X2624666Y28447263D01*
X2529428Y28399644D01*
X2528302Y28398455D01*
X2509936Y28385595D01*
X2462317Y28337976D01*
X2440636Y28291479D01*
X2453913Y28241925D01*
X2495939Y28212498D01*
X2547046Y28216970D01*
X2568383Y28231910D01*
X2607396Y28270923D01*
X2675912Y28305181D01*
X2878597Y28305181D01*
X2947113Y28270923D01*
X2977520Y28240516D01*
X3011778Y28172000D01*
X3011778Y28106637D01*
X2973606Y27992124D01*
X2414698Y27433214D01*
X2405160Y27412761D01*
X2393870Y27393205D01*
X2394466Y27389825D01*
X2393017Y27386717D01*
X2161779Y27386717D01*
X2161779Y28380181D01*
X2144232Y28428390D01*
X2099803Y28454042D01*
X2049279Y28445133D01*
X2016302Y28405833D01*
X2011779Y28380181D01*
X2011779Y27380181D01*
X1868922Y27380181D01*
X1868922Y28598038D01*
X4304349Y28598038D01*
X4304349Y27162324D01*
G37*
G36*
X3458912Y11240896D02*
G01*
X3190836Y11240896D01*
X3324874Y11643011D01*
X3458912Y11240896D01*
G37*
G36*
X4423304Y11770923D02*
G01*
X4453711Y11740516D01*
X4487969Y11672000D01*
X4487969Y11564553D01*
X4453711Y11496037D01*
X4423304Y11465630D01*
X4354788Y11431372D01*
X4066541Y11431372D01*
X4066541Y11805181D01*
X4354788Y11805181D01*
X4423304Y11770923D01*
G37*
G36*
X5636830Y10662324D02*
G01*
X1868922Y10662324D01*
X1868922Y11070658D01*
X2011779Y11070658D01*
X2013312Y11066445D01*
X2012271Y11062084D01*
X2019697Y11037117D01*
X2067316Y10941879D01*
X2068504Y10940754D01*
X2081364Y10922388D01*
X2128983Y10874768D01*
X2130464Y10874078D01*
X2148476Y10860718D01*
X2243714Y10813099D01*
X2248167Y10812587D01*
X2251603Y10809704D01*
X2277255Y10805181D01*
X2467731Y10805181D01*
X2471944Y10806715D01*
X2476305Y10805673D01*
X2501272Y10813099D01*
X2596510Y10860718D01*
X2597634Y10861906D01*
X2616003Y10874768D01*
X2645132Y10903898D01*
X2920390Y10903898D01*
X2921791Y10852614D01*
X2955828Y10814229D01*
X3006577Y10806704D01*
X3050289Y10833559D01*
X3062692Y10856464D01*
X3140836Y11090896D01*
X3508912Y11090896D01*
X3587056Y10856464D01*
X3618947Y10816278D01*
X3669208Y10805992D01*
X3714322Y10830421D01*
X3733179Y10878133D01*
X3732875Y10880181D01*
X3916541Y10880181D01*
X3934088Y10831972D01*
X3978517Y10806320D01*
X4029041Y10815229D01*
X4062018Y10854529D01*
X4066541Y10880181D01*
X4066541Y11281372D01*
X4190587Y11281372D01*
X4501527Y10837171D01*
X4543548Y10807739D01*
X4594656Y10812203D01*
X4630938Y10848475D01*
X4635417Y10899582D01*
X4624412Y10923190D01*
X4373442Y11281718D01*
X4376706Y11282906D01*
X4381067Y11281864D01*
X4406034Y11289290D01*
X4501272Y11336909D01*
X4502397Y11338099D01*
X4520764Y11350958D01*
X4568383Y11398577D01*
X4569074Y11400059D01*
X4582432Y11418069D01*
X4630051Y11513307D01*
X4630563Y11517761D01*
X4633446Y11521196D01*
X4637969Y11546848D01*
X4637969Y11689705D01*
X4636435Y11693919D01*
X4637477Y11698280D01*
X4630051Y11723246D01*
X4582432Y11818484D01*
X4581242Y11819610D01*
X4568383Y11837976D01*
X4520764Y11885595D01*
X4519282Y11886286D01*
X4509953Y11893205D01*
X4774823Y11893205D01*
X4783732Y11842681D01*
X4823032Y11809704D01*
X4848684Y11805181D01*
X5059398Y11805181D01*
X5059398Y10880181D01*
X5076945Y10831972D01*
X5121374Y10806320D01*
X5171898Y10815229D01*
X5204875Y10854529D01*
X5209398Y10880181D01*
X5209398Y11805181D01*
X5420112Y11805181D01*
X5468321Y11822728D01*
X5493973Y11867157D01*
X5485064Y11917681D01*
X5445764Y11950658D01*
X5420112Y11955181D01*
X4848684Y11955181D01*
X4800475Y11937634D01*
X4774823Y11893205D01*
X4509953Y11893205D01*
X4501272Y11899644D01*
X4406034Y11947263D01*
X4401580Y11947776D01*
X4398145Y11950658D01*
X4372493Y11955181D01*
X3991541Y11955181D01*
X3973232Y11948518D01*
X3954041Y11945133D01*
X3949690Y11939949D01*
X3943332Y11937634D01*
X3933589Y11920761D01*
X3921064Y11905833D01*
X3919346Y11896091D01*
X3917680Y11893205D01*
X3918258Y11889923D01*
X3916541Y11880181D01*
X3916541Y10880181D01*
X3732875Y10880181D01*
X3729358Y10903898D01*
X3396025Y11903898D01*
X3394682Y11905590D01*
X3394624Y11907747D01*
X3378882Y11925500D01*
X3364134Y11944084D01*
X3362019Y11944517D01*
X3360586Y11946133D01*
X3337117Y11949613D01*
X3313873Y11954370D01*
X3311973Y11953342D01*
X3309838Y11953658D01*
X3289620Y11941238D01*
X3268759Y11929941D01*
X3267965Y11927934D01*
X3266125Y11926803D01*
X3253723Y11903898D01*
X2920390Y10903898D01*
X2645132Y10903898D01*
X2663621Y10922387D01*
X2664311Y10923869D01*
X2677670Y10941879D01*
X2725289Y11037117D01*
X2725801Y11041571D01*
X2728684Y11045006D01*
X2733207Y11070658D01*
X2733207Y11880181D01*
X2715660Y11928390D01*
X2671231Y11954042D01*
X2620707Y11945133D01*
X2587730Y11905833D01*
X2583207Y11880181D01*
X2583207Y11088363D01*
X2548948Y11019847D01*
X2518541Y10989439D01*
X2450026Y10955181D01*
X2294960Y10955181D01*
X2226444Y10989439D01*
X2196037Y11019847D01*
X2161779Y11088363D01*
X2161779Y11880181D01*
X2144232Y11928390D01*
X2099803Y11954042D01*
X2049279Y11945133D01*
X2016302Y11905833D01*
X2011779Y11880181D01*
X2011779Y11070658D01*
X1868922Y11070658D01*
X1868922Y12098038D01*
X5636830Y12098038D01*
X5636830Y10662324D01*
G37*
X8311541Y15210181D02*
X8930588Y15210181D01*
X8930588Y15210181D02*
X8597255Y14829229D01*
X8597255Y14829229D02*
X8740112Y14829229D01*
X8740112Y14829229D02*
X8835350Y14781610D01*
X8835350Y14781610D02*
X8882969Y14733991D01*
X8882969Y14733991D02*
X8930588Y14638753D01*
X8930588Y14638753D02*
X8930588Y14400658D01*
X8930588Y14400658D02*
X8882969Y14305420D01*
X8882969Y14305420D02*
X8835350Y14257800D01*
X8835350Y14257800D02*
X8740112Y14210181D01*
X8740112Y14210181D02*
X8454398Y14210181D01*
X8454398Y14210181D02*
X8359160Y14257800D01*
X8359160Y14257800D02*
X8311541Y14305420D01*
X9263922Y14876848D02*
X9502017Y14210181D01*
X9502017Y14210181D02*
X9740112Y14876848D01*
X10025827Y15210181D02*
X10644874Y15210181D01*
X10644874Y15210181D02*
X10311541Y14829229D01*
X10311541Y14829229D02*
X10454398Y14829229D01*
X10454398Y14829229D02*
X10549636Y14781610D01*
X10549636Y14781610D02*
X10597255Y14733991D01*
X10597255Y14733991D02*
X10644874Y14638753D01*
X10644874Y14638753D02*
X10644874Y14400658D01*
X10644874Y14400658D02*
X10597255Y14305420D01*
X10597255Y14305420D02*
X10549636Y14257800D01*
X10549636Y14257800D02*
X10454398Y14210181D01*
X10454398Y14210181D02*
X10168684Y14210181D01*
X10168684Y14210181D02*
X10073446Y14257800D01*
X10073446Y14257800D02*
X10025827Y14305420D01*
X8263922Y13600181D02*
X8835350Y13600181D01*
X8549636Y12600181D02*
X8549636Y13600181D01*
X9073446Y13600181D02*
X9740112Y12600181D01*
X9740112Y13600181D02*
X9073446Y12600181D01*
X8978207Y10990181D02*
X8644874Y11466372D01*
X8406779Y10990181D02*
X8406779Y11990181D01*
X8406779Y11990181D02*
X8787731Y11990181D01*
X8787731Y11990181D02*
X8882969Y11942562D01*
X8882969Y11942562D02*
X8930588Y11894943D01*
X8930588Y11894943D02*
X8978207Y11799705D01*
X8978207Y11799705D02*
X8978207Y11656848D01*
X8978207Y11656848D02*
X8930588Y11561610D01*
X8930588Y11561610D02*
X8882969Y11513991D01*
X8882969Y11513991D02*
X8787731Y11466372D01*
X8787731Y11466372D02*
X8406779Y11466372D01*
X9311541Y11990181D02*
X9978207Y10990181D01*
X9978207Y11990181D02*
X9311541Y10990181D01*
X8930588Y10332562D02*
X8835350Y10380181D01*
X8835350Y10380181D02*
X8692493Y10380181D01*
X8692493Y10380181D02*
X8549636Y10332562D01*
X8549636Y10332562D02*
X8454398Y10237324D01*
X8454398Y10237324D02*
X8406779Y10142086D01*
X8406779Y10142086D02*
X8359160Y9951610D01*
X8359160Y9951610D02*
X8359160Y9808753D01*
X8359160Y9808753D02*
X8406779Y9618277D01*
X8406779Y9618277D02*
X8454398Y9523039D01*
X8454398Y9523039D02*
X8549636Y9427800D01*
X8549636Y9427800D02*
X8692493Y9380181D01*
X8692493Y9380181D02*
X8787731Y9380181D01*
X8787731Y9380181D02*
X8930588Y9427800D01*
X8930588Y9427800D02*
X8978207Y9475420D01*
X8978207Y9475420D02*
X8978207Y9808753D01*
X8978207Y9808753D02*
X8787731Y9808753D01*
X9406779Y9380181D02*
X9406779Y10380181D01*
X9406779Y10380181D02*
X9978207Y9380181D01*
X9978207Y9380181D02*
X9978207Y10380181D01*
X10454398Y9380181D02*
X10454398Y10380181D01*
X10454398Y10380181D02*
X10692493Y10380181D01*
X10692493Y10380181D02*
X10835350Y10332562D01*
X10835350Y10332562D02*
X10930588Y10237324D01*
X10930588Y10237324D02*
X10978207Y10142086D01*
X10978207Y10142086D02*
X11025826Y9951610D01*
X11025826Y9951610D02*
X11025826Y9808753D01*
X11025826Y9808753D02*
X10978207Y9618277D01*
X10978207Y9618277D02*
X10930588Y9523039D01*
X10930588Y9523039D02*
X10835350Y9427800D01*
X10835350Y9427800D02*
X10692493Y9380181D01*
X10692493Y9380181D02*
X10454398Y9380181D01*
G36*
X104364210Y2693328D02*
G01*
X104392731Y2636286D01*
X104392731Y2620238D01*
X104066541Y2555001D01*
X104066541Y2636286D01*
X104095061Y2693328D01*
X104152103Y2721848D01*
X104307169Y2721848D01*
X104364210Y2693328D01*
G37*
G36*
X111821303Y2224153D02*
G01*
X111783360Y2205181D01*
X111580675Y2205181D01*
X111523633Y2233702D01*
X111495113Y2290744D01*
X111495113Y2350572D01*
X111523633Y2407614D01*
X111580675Y2436134D01*
X111801065Y2436134D01*
X111805278Y2437668D01*
X111809639Y2436626D01*
X111821303Y2440096D01*
X111821303Y2224153D01*
G37*
G36*
X112726065Y2702877D02*
G01*
X112726065Y2224153D01*
X112688122Y2205181D01*
X112533056Y2205181D01*
X112464540Y2239439D01*
X112434133Y2269847D01*
X112399875Y2338363D01*
X112399875Y2588667D01*
X112434133Y2657183D01*
X112464540Y2687590D01*
X112533056Y2721848D01*
X112688122Y2721848D01*
X112726065Y2702877D01*
G37*
G36*
X114018636Y1578991D02*
G01*
X102821303Y1578991D01*
X102821303Y2844467D01*
X102964160Y2844467D01*
X102965693Y2840254D01*
X102964652Y2835893D01*
X102972078Y2810926D01*
X103019697Y2715688D01*
X103020886Y2714563D01*
X103033746Y2696196D01*
X103081365Y2648577D01*
X103082846Y2647886D01*
X103100857Y2634528D01*
X103196095Y2586909D01*
X103199623Y2586503D01*
X103211446Y2581230D01*
X103393936Y2535608D01*
X103470923Y2497114D01*
X103501330Y2466707D01*
X103535588Y2398191D01*
X103535588Y2338363D01*
X103501329Y2269847D01*
X103470922Y2239439D01*
X103402407Y2205181D01*
X103194187Y2205181D01*
X103062877Y2248951D01*
X103011593Y2247550D01*
X102973208Y2213513D01*
X102965683Y2162764D01*
X102992538Y2119052D01*
X103015443Y2106649D01*
X103158299Y2059030D01*
X103159934Y2059075D01*
X103182017Y2055181D01*
X103420112Y2055181D01*
X103424325Y2056715D01*
X103428686Y2055673D01*
X103453653Y2063099D01*
X103548891Y2110718D01*
X103550015Y2111906D01*
X103568384Y2124768D01*
X103616002Y2172387D01*
X103616692Y2173869D01*
X103630051Y2191879D01*
X103670631Y2273039D01*
X103916541Y2273039D01*
X103918074Y2268827D01*
X103917032Y2264465D01*
X103924459Y2239498D01*
X103972078Y2144259D01*
X103980231Y2136540D01*
X103984698Y2126235D01*
X104005619Y2110718D01*
X104100857Y2063099D01*
X104105310Y2062587D01*
X104108746Y2059704D01*
X104134398Y2055181D01*
X104324874Y2055181D01*
X104329087Y2056715D01*
X104333448Y2055673D01*
X104358415Y2063099D01*
X104453653Y2110718D01*
X104472081Y2130181D01*
X104821303Y2130181D01*
X104838850Y2081972D01*
X104883279Y2056320D01*
X104933803Y2065229D01*
X104966780Y2104529D01*
X104971303Y2130181D01*
X104971303Y2670544D01*
X104988349Y2687590D01*
X105056865Y2721848D01*
X105164312Y2721848D01*
X105221353Y2693328D01*
X105249874Y2636286D01*
X105249874Y2130181D01*
X105267421Y2081972D01*
X105311850Y2056320D01*
X105362374Y2065229D01*
X105395351Y2104529D01*
X105399874Y2130181D01*
X105399874Y2606372D01*
X105678446Y2606372D01*
X105679979Y2602159D01*
X105678938Y2597798D01*
X105686364Y2572831D01*
X105733983Y2477593D01*
X105742136Y2469874D01*
X105746603Y2459569D01*
X105767524Y2444052D01*
X105862762Y2396433D01*
X105867215Y2395921D01*
X105870651Y2393038D01*
X105896303Y2388515D01*
X106021455Y2388515D01*
X106078496Y2359995D01*
X106107017Y2302953D01*
X106107017Y2290744D01*
X106078496Y2233702D01*
X106021455Y2205181D01*
X105866389Y2205181D01*
X105786987Y2244882D01*
X105736020Y2250747D01*
X105693207Y2222481D01*
X105678581Y2173306D01*
X105698984Y2126235D01*
X105719905Y2110718D01*
X105815143Y2063099D01*
X105819596Y2062587D01*
X105823032Y2059704D01*
X105848684Y2055181D01*
X106039160Y2055181D01*
X106043373Y2056715D01*
X106047734Y2055673D01*
X106072701Y2063099D01*
X106167939Y2110718D01*
X106175658Y2118872D01*
X106185963Y2123338D01*
X106191038Y2130181D01*
X106535589Y2130181D01*
X106553136Y2081972D01*
X106597565Y2056320D01*
X106648089Y2065229D01*
X106681066Y2104529D01*
X106685589Y2130181D01*
X106685589Y2796848D01*
X106680849Y2809872D01*
X106870061Y2809872D01*
X106878970Y2759348D01*
X106918270Y2726371D01*
X106943922Y2721848D01*
X107011779Y2721848D01*
X107011779Y2273039D01*
X107013312Y2268827D01*
X107012270Y2264465D01*
X107019697Y2239498D01*
X107067316Y2144259D01*
X107075469Y2136540D01*
X107079936Y2126235D01*
X107100857Y2110718D01*
X107196095Y2063099D01*
X107200548Y2062587D01*
X107203984Y2059704D01*
X107229636Y2055181D01*
X107324874Y2055181D01*
X107373083Y2072728D01*
X107398735Y2117157D01*
X107396438Y2130181D01*
X107583208Y2130181D01*
X107600755Y2081972D01*
X107645184Y2056320D01*
X107695708Y2065229D01*
X107728685Y2104529D01*
X107733208Y2130181D01*
X107733208Y2796848D01*
X107733043Y2797302D01*
X107964161Y2797302D01*
X107968529Y2771623D01*
X108206624Y2104956D01*
X108206932Y2104585D01*
X108206935Y2104104D01*
X108223262Y2084883D01*
X108239363Y2065457D01*
X108239835Y2065371D01*
X108240148Y2065003D01*
X108265061Y2060766D01*
X108289832Y2056243D01*
X108290249Y2056481D01*
X108290725Y2056400D01*
X108312543Y2069174D01*
X108334416Y2081626D01*
X108334582Y2082076D01*
X108334998Y2082319D01*
X108347886Y2104956D01*
X108356895Y2130181D01*
X108821303Y2130181D01*
X108838850Y2081972D01*
X108883279Y2056320D01*
X108933803Y2065229D01*
X108966780Y2104529D01*
X108971303Y2130181D01*
X108971303Y2796848D01*
X108966563Y2809872D01*
X109155775Y2809872D01*
X109164684Y2759348D01*
X109203984Y2726371D01*
X109229636Y2721848D01*
X109297493Y2721848D01*
X109297493Y2273039D01*
X109299026Y2268827D01*
X109297984Y2264465D01*
X109305411Y2239498D01*
X109353030Y2144259D01*
X109361183Y2136540D01*
X109365650Y2126235D01*
X109386571Y2110718D01*
X109481809Y2063099D01*
X109486262Y2062587D01*
X109489698Y2059704D01*
X109515350Y2055181D01*
X109610588Y2055181D01*
X109658797Y2072728D01*
X109684449Y2117157D01*
X109675540Y2167681D01*
X109636240Y2200658D01*
X109610588Y2205181D01*
X109533055Y2205181D01*
X109476013Y2233702D01*
X109447493Y2290744D01*
X109447493Y2721848D01*
X109610588Y2721848D01*
X109658797Y2739395D01*
X109684449Y2783824D01*
X109682072Y2797302D01*
X109773685Y2797302D01*
X109778053Y2771623D01*
X110006602Y2131684D01*
X109927622Y1934234D01*
X109899495Y1906106D01*
X109815143Y1863930D01*
X109779871Y1826676D01*
X109776796Y1775465D01*
X109807360Y1734260D01*
X109857258Y1722340D01*
X109882225Y1729766D01*
X109977463Y1777385D01*
X109978588Y1778575D01*
X109996955Y1791434D01*
X110015393Y1809872D01*
X113012919Y1809872D01*
X113021828Y1759348D01*
X113061128Y1726371D01*
X113086780Y1721848D01*
X113134399Y1721848D01*
X113138612Y1723382D01*
X113142973Y1722340D01*
X113167940Y1729766D01*
X113263178Y1777385D01*
X113270897Y1785539D01*
X113281202Y1790005D01*
X113296719Y1810926D01*
X113344338Y1906164D01*
X113344850Y1910618D01*
X113347733Y1914053D01*
X113352256Y1939705D01*
X113352256Y2184336D01*
X113631113Y2184336D01*
X113636155Y2165516D01*
X113637854Y2146104D01*
X113643527Y2138002D01*
X113644390Y2134781D01*
X113647121Y2132869D01*
X113652794Y2124767D01*
X113700413Y2077148D01*
X113718071Y2068915D01*
X113734035Y2057736D01*
X113737451Y2058035D01*
X113740422Y2056320D01*
X113743801Y2056916D01*
X113746909Y2055467D01*
X113765728Y2060510D01*
X113785142Y2062208D01*
X113788955Y2064878D01*
X113790946Y2065229D01*
X113793067Y2067758D01*
X113793244Y2067882D01*
X113796464Y2068744D01*
X113798375Y2071474D01*
X113806479Y2077148D01*
X113854098Y2124767D01*
X113862332Y2142426D01*
X113873509Y2158388D01*
X113872919Y2165131D01*
X113875779Y2171263D01*
X113870736Y2190082D01*
X113869039Y2209495D01*
X113863364Y2217600D01*
X113862502Y2220818D01*
X113859772Y2222730D01*
X113854098Y2230833D01*
X113806480Y2278452D01*
X113788822Y2286686D01*
X113772857Y2297865D01*
X113769440Y2297567D01*
X113766470Y2299281D01*
X113763090Y2298686D01*
X113759983Y2300134D01*
X113741163Y2295092D01*
X113721749Y2293393D01*
X113717935Y2290723D01*
X113715946Y2290372D01*
X113713824Y2287845D01*
X113713646Y2287720D01*
X113710428Y2286857D01*
X113708516Y2284128D01*
X113700412Y2278452D01*
X113652793Y2230832D01*
X113644559Y2213175D01*
X113633382Y2197211D01*
X113633972Y2190468D01*
X113631113Y2184336D01*
X113352256Y2184336D01*
X113352256Y2796848D01*
X113334709Y2845057D01*
X113290280Y2870709D01*
X113239756Y2861800D01*
X113206779Y2822500D01*
X113202256Y2796848D01*
X113202256Y1957410D01*
X113173735Y1900369D01*
X113116694Y1871848D01*
X113086780Y1871848D01*
X113038571Y1854301D01*
X113012919Y1809872D01*
X110015393Y1809872D01*
X110044574Y1839053D01*
X110045505Y1841052D01*
X110047450Y1842094D01*
X110061177Y1864232D01*
X110156415Y2102327D01*
X110156444Y2103260D01*
X110157410Y2104956D01*
X110217440Y2273039D01*
X111345113Y2273039D01*
X111346646Y2268827D01*
X111345604Y2264465D01*
X111353031Y2239498D01*
X111400650Y2144259D01*
X111408803Y2136540D01*
X111413270Y2126235D01*
X111434191Y2110718D01*
X111529429Y2063099D01*
X111533882Y2062587D01*
X111537318Y2059704D01*
X111562970Y2055181D01*
X111801065Y2055181D01*
X111805278Y2056715D01*
X111809639Y2055673D01*
X111834606Y2063099D01*
X111854398Y2072996D01*
X111883279Y2056320D01*
X111933803Y2065229D01*
X111966780Y2104529D01*
X111971303Y2130181D01*
X111971303Y2320658D01*
X112249875Y2320658D01*
X112251408Y2316445D01*
X112250367Y2312084D01*
X112257793Y2287117D01*
X112305412Y2191879D01*
X112306600Y2190754D01*
X112319460Y2172388D01*
X112367079Y2124768D01*
X112368560Y2124078D01*
X112386572Y2110718D01*
X112481810Y2063099D01*
X112486263Y2062587D01*
X112489699Y2059704D01*
X112515351Y2055181D01*
X112705827Y2055181D01*
X112710040Y2056715D01*
X112714401Y2055673D01*
X112739368Y2063099D01*
X112759160Y2072996D01*
X112788041Y2056320D01*
X112838565Y2065229D01*
X112871542Y2104529D01*
X112876065Y2130181D01*
X112876065Y3089098D01*
X113154923Y3089098D01*
X113159965Y3070279D01*
X113161664Y3050866D01*
X113167337Y3042764D01*
X113168200Y3039544D01*
X113170930Y3037633D01*
X113176604Y3029529D01*
X113224223Y2981910D01*
X113241881Y2973677D01*
X113257845Y2962498D01*
X113261261Y2962797D01*
X113264232Y2961082D01*
X113267611Y2961678D01*
X113270719Y2960229D01*
X113289538Y2965272D01*
X113308952Y2966970D01*
X113312765Y2969640D01*
X113314756Y2969991D01*
X113316877Y2972520D01*
X113317054Y2972644D01*
X113320274Y2973506D01*
X113322185Y2976236D01*
X113330289Y2981910D01*
X113377908Y3029529D01*
X113386143Y3047190D01*
X113397319Y3063151D01*
X113396729Y3069893D01*
X113399589Y3076025D01*
X113394546Y3094847D01*
X113392848Y3114258D01*
X113387174Y3122361D01*
X113386312Y3125580D01*
X113383582Y3127492D01*
X113377908Y3135595D01*
X113330289Y3183214D01*
X113312628Y3191449D01*
X113296667Y3202625D01*
X113293251Y3202327D01*
X113290280Y3204042D01*
X113286899Y3203446D01*
X113283792Y3204895D01*
X113264970Y3199853D01*
X113245560Y3198154D01*
X113241746Y3195485D01*
X113239756Y3195133D01*
X113237634Y3192605D01*
X113237457Y3192481D01*
X113234238Y3191618D01*
X113232326Y3188888D01*
X113224223Y3183214D01*
X113176604Y3135595D01*
X113168370Y3117938D01*
X113157192Y3101973D01*
X113157782Y3095230D01*
X113154923Y3089098D01*
X112876065Y3089098D01*
X112876065Y3130181D01*
X112858518Y3178390D01*
X112814089Y3204042D01*
X112763565Y3195133D01*
X112730588Y3155833D01*
X112726065Y3130181D01*
X112726065Y2868280D01*
X112705827Y2871848D01*
X112515351Y2871848D01*
X112511137Y2870315D01*
X112506776Y2871356D01*
X112481810Y2863930D01*
X112386572Y2816311D01*
X112385446Y2815122D01*
X112367080Y2802262D01*
X112319461Y2754643D01*
X112318770Y2753162D01*
X112305412Y2735151D01*
X112257793Y2639913D01*
X112257280Y2635460D01*
X112254398Y2632024D01*
X112249875Y2606372D01*
X112249875Y2320658D01*
X111971303Y2320658D01*
X111971303Y2653991D01*
X111969769Y2658205D01*
X111970811Y2662566D01*
X111963385Y2687532D01*
X111915766Y2782770D01*
X111907612Y2790490D01*
X111903146Y2800794D01*
X111882225Y2816311D01*
X111786987Y2863930D01*
X111782533Y2864443D01*
X111779098Y2867325D01*
X111753446Y2871848D01*
X111562970Y2871848D01*
X111558756Y2870315D01*
X111554395Y2871356D01*
X111529429Y2863930D01*
X111434191Y2816311D01*
X111398919Y2779057D01*
X111395844Y2727846D01*
X111426408Y2686641D01*
X111476306Y2674721D01*
X111501273Y2682147D01*
X111580675Y2721848D01*
X111735741Y2721848D01*
X111792782Y2693328D01*
X111821303Y2636286D01*
X111821303Y2605106D01*
X111783360Y2586134D01*
X111562970Y2586134D01*
X111558756Y2584601D01*
X111554395Y2585642D01*
X111529429Y2578216D01*
X111434191Y2530597D01*
X111426471Y2522444D01*
X111416167Y2517977D01*
X111400650Y2497056D01*
X111353031Y2401818D01*
X111352518Y2397365D01*
X111349636Y2393929D01*
X111345113Y2368277D01*
X111345113Y2273039D01*
X110217440Y2273039D01*
X110395505Y2771623D01*
X110395194Y2822925D01*
X110361981Y2862025D01*
X110311404Y2870628D01*
X110267130Y2844709D01*
X110254243Y2822073D01*
X110086779Y2353174D01*
X109919315Y2822073D01*
X109886575Y2861572D01*
X109836107Y2870786D01*
X109791523Y2845403D01*
X109773685Y2797302D01*
X109682072Y2797302D01*
X109675540Y2834348D01*
X109636240Y2867325D01*
X109610588Y2871848D01*
X109447493Y2871848D01*
X109447493Y3130181D01*
X109429946Y3178390D01*
X109385517Y3204042D01*
X109334993Y3195133D01*
X109302016Y3155833D01*
X109297493Y3130181D01*
X109297493Y2871848D01*
X109229636Y2871848D01*
X109181427Y2854301D01*
X109155775Y2809872D01*
X108966563Y2809872D01*
X108953756Y2845057D01*
X108909327Y2870709D01*
X108858803Y2861800D01*
X108825826Y2822500D01*
X108821303Y2796848D01*
X108821303Y2130181D01*
X108356895Y2130181D01*
X108585981Y2771623D01*
X108585670Y2822925D01*
X108552457Y2862025D01*
X108501880Y2870628D01*
X108457606Y2844709D01*
X108444719Y2822073D01*
X108277255Y2353174D01*
X108109791Y2822073D01*
X108077051Y2861572D01*
X108026583Y2870786D01*
X107981999Y2845403D01*
X107964161Y2797302D01*
X107733043Y2797302D01*
X107715661Y2845057D01*
X107671232Y2870709D01*
X107620708Y2861800D01*
X107587731Y2822500D01*
X107583208Y2796848D01*
X107583208Y2130181D01*
X107396438Y2130181D01*
X107389826Y2167681D01*
X107350526Y2200658D01*
X107324874Y2205181D01*
X107247341Y2205181D01*
X107190299Y2233702D01*
X107161779Y2290744D01*
X107161779Y2721848D01*
X107324874Y2721848D01*
X107373083Y2739395D01*
X107398735Y2783824D01*
X107389826Y2834348D01*
X107350526Y2867325D01*
X107324874Y2871848D01*
X107161779Y2871848D01*
X107161779Y3089098D01*
X107535875Y3089098D01*
X107540917Y3070279D01*
X107542616Y3050866D01*
X107548289Y3042764D01*
X107549152Y3039544D01*
X107551882Y3037633D01*
X107557556Y3029529D01*
X107605175Y2981910D01*
X107622833Y2973677D01*
X107638797Y2962498D01*
X107642213Y2962797D01*
X107645184Y2961082D01*
X107648563Y2961678D01*
X107651671Y2960229D01*
X107670490Y2965272D01*
X107689904Y2966970D01*
X107693717Y2969640D01*
X107695708Y2969991D01*
X107697829Y2972520D01*
X107698006Y2972644D01*
X107701226Y2973506D01*
X107703137Y2976236D01*
X107711241Y2981910D01*
X107758860Y3029529D01*
X107767095Y3047190D01*
X107778271Y3063151D01*
X107777681Y3069893D01*
X107780541Y3076025D01*
X107777038Y3089098D01*
X108773970Y3089098D01*
X108779012Y3070279D01*
X108780711Y3050866D01*
X108786384Y3042764D01*
X108787247Y3039544D01*
X108789977Y3037633D01*
X108795651Y3029529D01*
X108843270Y2981910D01*
X108860928Y2973677D01*
X108876892Y2962498D01*
X108880308Y2962797D01*
X108883279Y2961082D01*
X108886658Y2961678D01*
X108889766Y2960229D01*
X108908585Y2965272D01*
X108927999Y2966970D01*
X108931812Y2969640D01*
X108933803Y2969991D01*
X108935924Y2972520D01*
X108936101Y2972644D01*
X108939321Y2973506D01*
X108941232Y2976236D01*
X108949336Y2981910D01*
X108996955Y3029529D01*
X109005190Y3047190D01*
X109016366Y3063151D01*
X109015776Y3069893D01*
X109018636Y3076025D01*
X109013593Y3094847D01*
X109011895Y3114258D01*
X109006221Y3122361D01*
X109005359Y3125580D01*
X109002629Y3127492D01*
X108996955Y3135595D01*
X108949336Y3183214D01*
X108931675Y3191449D01*
X108915714Y3202625D01*
X108912298Y3202327D01*
X108909327Y3204042D01*
X108905946Y3203446D01*
X108902839Y3204895D01*
X108884017Y3199853D01*
X108864607Y3198154D01*
X108860793Y3195485D01*
X108858803Y3195133D01*
X108856681Y3192605D01*
X108856504Y3192481D01*
X108853285Y3191618D01*
X108851373Y3188888D01*
X108843270Y3183214D01*
X108795651Y3135595D01*
X108787417Y3117938D01*
X108776239Y3101973D01*
X108776829Y3095230D01*
X108773970Y3089098D01*
X107777038Y3089098D01*
X107775498Y3094847D01*
X107773800Y3114258D01*
X107768126Y3122361D01*
X107767264Y3125580D01*
X107764534Y3127492D01*
X107758860Y3135595D01*
X107711241Y3183214D01*
X107693580Y3191449D01*
X107677619Y3202625D01*
X107674203Y3202327D01*
X107671232Y3204042D01*
X107667851Y3203446D01*
X107664744Y3204895D01*
X107645922Y3199853D01*
X107626512Y3198154D01*
X107622698Y3195485D01*
X107620708Y3195133D01*
X107618586Y3192605D01*
X107618409Y3192481D01*
X107615190Y3191618D01*
X107613278Y3188888D01*
X107605175Y3183214D01*
X107557556Y3135595D01*
X107549322Y3117938D01*
X107538144Y3101973D01*
X107538734Y3095230D01*
X107535875Y3089098D01*
X107161779Y3089098D01*
X107161779Y3130181D01*
X107144232Y3178390D01*
X107099803Y3204042D01*
X107049279Y3195133D01*
X107016302Y3155833D01*
X107011779Y3130181D01*
X107011779Y2871848D01*
X106943922Y2871848D01*
X106895713Y2854301D01*
X106870061Y2809872D01*
X106680849Y2809872D01*
X106668042Y2845057D01*
X106623613Y2870709D01*
X106573089Y2861800D01*
X106540112Y2822500D01*
X106535589Y2796848D01*
X106535589Y2130181D01*
X106191038Y2130181D01*
X106201480Y2144259D01*
X106249099Y2239498D01*
X106249611Y2243952D01*
X106252494Y2247387D01*
X106257017Y2273039D01*
X106257017Y2320658D01*
X106255483Y2324872D01*
X106256525Y2329233D01*
X106249099Y2354199D01*
X106201480Y2449437D01*
X106193326Y2457157D01*
X106188860Y2467461D01*
X106167939Y2482978D01*
X106072701Y2530597D01*
X106068247Y2531110D01*
X106064812Y2533992D01*
X106039160Y2538515D01*
X105914008Y2538515D01*
X105856966Y2567036D01*
X105828446Y2624077D01*
X105828446Y2636286D01*
X105856966Y2693328D01*
X105914008Y2721848D01*
X106021455Y2721848D01*
X106100857Y2682147D01*
X106151823Y2676282D01*
X106194636Y2704548D01*
X106209263Y2753723D01*
X106188860Y2800794D01*
X106167939Y2816311D01*
X106072701Y2863930D01*
X106068247Y2864443D01*
X106064812Y2867325D01*
X106039160Y2871848D01*
X105896303Y2871848D01*
X105892089Y2870315D01*
X105887728Y2871356D01*
X105862762Y2863930D01*
X105767524Y2816311D01*
X105759804Y2808158D01*
X105749500Y2803691D01*
X105733983Y2782770D01*
X105686364Y2687532D01*
X105685851Y2683079D01*
X105682969Y2679643D01*
X105678446Y2653991D01*
X105678446Y2606372D01*
X105399874Y2606372D01*
X105399874Y2653991D01*
X105398340Y2658205D01*
X105399382Y2662566D01*
X105391956Y2687532D01*
X105344337Y2782770D01*
X105336183Y2790490D01*
X105331717Y2800794D01*
X105310796Y2816311D01*
X105215558Y2863930D01*
X105211104Y2864443D01*
X105207669Y2867325D01*
X105182017Y2871848D01*
X105039160Y2871848D01*
X105034946Y2870315D01*
X105030585Y2871356D01*
X105005619Y2863930D01*
X104955929Y2839086D01*
X104953756Y2845057D01*
X104909327Y2870709D01*
X104858803Y2861800D01*
X104825826Y2822500D01*
X104821303Y2796848D01*
X104821303Y2130181D01*
X104472081Y2130181D01*
X104488925Y2147972D01*
X104492000Y2199182D01*
X104461436Y2240388D01*
X104411537Y2252308D01*
X104386571Y2244882D01*
X104307169Y2205181D01*
X104152103Y2205181D01*
X104095061Y2233702D01*
X104066541Y2290744D01*
X104066541Y2402030D01*
X104482439Y2485209D01*
X104493026Y2491649D01*
X104505231Y2493801D01*
X104514265Y2504568D01*
X104526271Y2511870D01*
X104530241Y2523608D01*
X104538208Y2533101D01*
X104542731Y2558753D01*
X104542731Y2653991D01*
X104541197Y2658205D01*
X104542239Y2662566D01*
X104534813Y2687532D01*
X104487194Y2782770D01*
X104479040Y2790490D01*
X104474574Y2800794D01*
X104453653Y2816311D01*
X104358415Y2863930D01*
X104353961Y2864443D01*
X104350526Y2867325D01*
X104324874Y2871848D01*
X104134398Y2871848D01*
X104130184Y2870315D01*
X104125823Y2871356D01*
X104100857Y2863930D01*
X104005619Y2816311D01*
X103997899Y2808158D01*
X103987595Y2803691D01*
X103972078Y2782770D01*
X103924459Y2687532D01*
X103923946Y2683079D01*
X103921064Y2679643D01*
X103916541Y2653991D01*
X103916541Y2273039D01*
X103670631Y2273039D01*
X103677670Y2287117D01*
X103678182Y2291571D01*
X103681065Y2295006D01*
X103685588Y2320658D01*
X103685588Y2415896D01*
X103684054Y2420110D01*
X103685096Y2424471D01*
X103677670Y2449437D01*
X103630051Y2544675D01*
X103628861Y2545801D01*
X103616002Y2564167D01*
X103568383Y2611786D01*
X103566901Y2612477D01*
X103548891Y2625835D01*
X103453653Y2673454D01*
X103450124Y2673861D01*
X103438302Y2679133D01*
X103255812Y2724756D01*
X103178825Y2763249D01*
X103148418Y2793656D01*
X103114160Y2862172D01*
X103114160Y2922000D01*
X103148418Y2990516D01*
X103178825Y3020923D01*
X103247341Y3055181D01*
X103455561Y3055181D01*
X103586870Y3011411D01*
X103638154Y3012812D01*
X103676540Y3046850D01*
X103682805Y3089098D01*
X106488256Y3089098D01*
X106493298Y3070279D01*
X106494997Y3050866D01*
X106500670Y3042764D01*
X106501533Y3039544D01*
X106504263Y3037633D01*
X106509937Y3029529D01*
X106557556Y2981910D01*
X106575214Y2973677D01*
X106591178Y2962498D01*
X106594594Y2962797D01*
X106597565Y2961082D01*
X106600944Y2961678D01*
X106604052Y2960229D01*
X106622871Y2965272D01*
X106642285Y2966970D01*
X106646098Y2969640D01*
X106648089Y2969991D01*
X106650210Y2972520D01*
X106650387Y2972644D01*
X106653607Y2973506D01*
X106655518Y2976236D01*
X106663622Y2981910D01*
X106711241Y3029529D01*
X106719476Y3047190D01*
X106730652Y3063151D01*
X106730062Y3069893D01*
X106732922Y3076025D01*
X106727879Y3094847D01*
X106726181Y3114258D01*
X106720507Y3122361D01*
X106719645Y3125580D01*
X106716915Y3127492D01*
X106711241Y3135595D01*
X106663622Y3183214D01*
X106645961Y3191449D01*
X106630000Y3202625D01*
X106626584Y3202327D01*
X106623613Y3204042D01*
X106620232Y3203446D01*
X106617125Y3204895D01*
X106598303Y3199853D01*
X106578893Y3198154D01*
X106575079Y3195485D01*
X106573089Y3195133D01*
X106570967Y3192605D01*
X106570790Y3192481D01*
X106567571Y3191618D01*
X106565659Y3188888D01*
X106557556Y3183214D01*
X106509937Y3135595D01*
X106501703Y3117938D01*
X106490525Y3101973D01*
X106491115Y3095230D01*
X106488256Y3089098D01*
X103682805Y3089098D01*
X103684065Y3097598D01*
X103657210Y3141311D01*
X103634305Y3153713D01*
X103491448Y3201332D01*
X103489813Y3201288D01*
X103467731Y3205181D01*
X103229636Y3205181D01*
X103225422Y3203648D01*
X103221061Y3204689D01*
X103196095Y3197263D01*
X103100857Y3149644D01*
X103099731Y3148455D01*
X103081365Y3135595D01*
X103033746Y3087976D01*
X103033055Y3086495D01*
X103019697Y3068484D01*
X102972078Y2973246D01*
X102971565Y2968793D01*
X102968683Y2965357D01*
X102964160Y2939705D01*
X102964160Y2844467D01*
X102821303Y2844467D01*
X102821303Y3348038D01*
X114018636Y3348038D01*
X114018636Y1578991D01*
G37*
G36*
X139648542Y40140923D02*
G01*
X139678949Y40110516D01*
X139713207Y40042000D01*
X139713207Y39934553D01*
X139678949Y39866037D01*
X139648542Y39835630D01*
X139580026Y39801372D01*
X139291779Y39801372D01*
X139291779Y40175181D01*
X139580026Y40175181D01*
X139648542Y40140923D01*
G37*
G36*
X141791399Y40140923D02*
G01*
X141821806Y40110516D01*
X141856064Y40042000D01*
X141856064Y39934553D01*
X141821806Y39866037D01*
X141791399Y39835630D01*
X141722883Y39801372D01*
X141434636Y39801372D01*
X141434636Y40175181D01*
X141722883Y40175181D01*
X141791399Y40140923D01*
G37*
G36*
X142148921Y39032455D02*
G01*
X138998922Y39032455D01*
X138998922Y39250181D01*
X139141779Y39250181D01*
X139159326Y39201972D01*
X139203755Y39176320D01*
X139254279Y39185229D01*
X139287256Y39224529D01*
X139291779Y39250181D01*
X139291779Y39651372D01*
X139597731Y39651372D01*
X139601944Y39652906D01*
X139606305Y39651864D01*
X139631272Y39659290D01*
X139726510Y39706909D01*
X139727635Y39708099D01*
X139746002Y39720958D01*
X139793621Y39768577D01*
X139794312Y39770059D01*
X139807670Y39788069D01*
X139855289Y39883307D01*
X139855801Y39887761D01*
X139858684Y39891196D01*
X139863207Y39916848D01*
X139863207Y40059705D01*
X139861673Y40063919D01*
X139862715Y40068280D01*
X139855289Y40093246D01*
X139807670Y40188484D01*
X139806480Y40189610D01*
X139793621Y40207976D01*
X139746002Y40255595D01*
X139744520Y40256286D01*
X139741114Y40258812D01*
X140047039Y40258812D01*
X140048581Y40232809D01*
X140286676Y39232809D01*
X140291005Y39226241D01*
X140291701Y39218403D01*
X140304761Y39205374D01*
X140314912Y39189976D01*
X140322450Y39187728D01*
X140328021Y39182170D01*
X140346397Y39180585D01*
X140364074Y39175312D01*
X140371296Y39178437D01*
X140379134Y39177760D01*
X140394230Y39188358D01*
X140411160Y39195681D01*
X140414683Y39202716D01*
X140421124Y39207236D01*
X140432104Y39230856D01*
X140550111Y39673387D01*
X140668120Y39230856D01*
X140672625Y39224405D01*
X140673531Y39216590D01*
X140686936Y39203917D01*
X140697497Y39188796D01*
X140705091Y39186752D01*
X140710810Y39181345D01*
X140729223Y39180254D01*
X140747035Y39175458D01*
X140754171Y39178776D01*
X140762024Y39178310D01*
X140776827Y39189307D01*
X140793558Y39197084D01*
X140796892Y39204213D01*
X140803207Y39208903D01*
X140813548Y39232809D01*
X140817684Y39250181D01*
X141284636Y39250181D01*
X141302183Y39201972D01*
X141346612Y39176320D01*
X141397136Y39185229D01*
X141430113Y39224529D01*
X141434636Y39250181D01*
X141434636Y39651372D01*
X141558682Y39651372D01*
X141869622Y39207171D01*
X141911643Y39177739D01*
X141962751Y39182203D01*
X141999033Y39218475D01*
X142003512Y39269582D01*
X141992507Y39293190D01*
X141741537Y39651718D01*
X141744801Y39652906D01*
X141749162Y39651864D01*
X141774129Y39659290D01*
X141869367Y39706909D01*
X141870492Y39708099D01*
X141888859Y39720958D01*
X141936478Y39768577D01*
X141937169Y39770059D01*
X141950527Y39788069D01*
X141998146Y39883307D01*
X141998658Y39887761D01*
X142001541Y39891196D01*
X142006064Y39916848D01*
X142006064Y40059705D01*
X142004530Y40063919D01*
X142005572Y40068280D01*
X141998146Y40093246D01*
X141950527Y40188484D01*
X141949337Y40189610D01*
X141936478Y40207976D01*
X141888859Y40255595D01*
X141887377Y40256286D01*
X141869367Y40269644D01*
X141774129Y40317263D01*
X141769675Y40317776D01*
X141766240Y40320658D01*
X141740588Y40325181D01*
X141359636Y40325181D01*
X141341327Y40318518D01*
X141322136Y40315133D01*
X141317785Y40309949D01*
X141311427Y40307634D01*
X141301684Y40290761D01*
X141289159Y40275833D01*
X141287441Y40266091D01*
X141285775Y40263205D01*
X141286353Y40259923D01*
X141284636Y40250181D01*
X141284636Y39250181D01*
X140817684Y39250181D01*
X141051644Y40232809D01*
X141045741Y40283772D01*
X141008462Y40319017D01*
X140957248Y40322052D01*
X140916065Y40291459D01*
X140905724Y40267552D01*
X140736471Y39556697D01*
X140622580Y39983792D01*
X140618652Y39989415D01*
X140618047Y39996245D01*
X140604309Y40009951D01*
X140593203Y40025852D01*
X140586584Y40027635D01*
X140581728Y40032479D01*
X140562394Y40034148D01*
X140543665Y40039190D01*
X140537446Y40036300D01*
X140530614Y40036889D01*
X140514734Y40025742D01*
X140497143Y40017564D01*
X140494237Y40011353D01*
X140488624Y40007412D01*
X140477644Y39983792D01*
X140363752Y39556697D01*
X140194501Y40267553D01*
X140166265Y40310386D01*
X140117103Y40325050D01*
X140070017Y40304681D01*
X140047039Y40258812D01*
X139741114Y40258812D01*
X139726510Y40269644D01*
X139631272Y40317263D01*
X139626818Y40317776D01*
X139623383Y40320658D01*
X139597731Y40325181D01*
X139216779Y40325181D01*
X139198470Y40318518D01*
X139179279Y40315133D01*
X139174928Y40309949D01*
X139168570Y40307634D01*
X139158827Y40290761D01*
X139146302Y40275833D01*
X139144584Y40266091D01*
X139142918Y40263205D01*
X139143496Y40259923D01*
X139141779Y40250181D01*
X139141779Y39250181D01*
X138998922Y39250181D01*
X138998922Y40468038D01*
X142148921Y40468038D01*
X142148921Y39032455D01*
G37*
G36*
X129480351Y22912324D02*
G01*
X123711303Y22912324D01*
X123711303Y23558753D01*
X123854160Y23558753D01*
X123855345Y23555496D01*
X123856399Y23540563D01*
X123904018Y23350087D01*
X123906006Y23347143D01*
X123909697Y23334736D01*
X123957316Y23239498D01*
X123958502Y23238375D01*
X123971365Y23220006D01*
X124066603Y23124767D01*
X124070667Y23122872D01*
X124073014Y23119052D01*
X124095919Y23106649D01*
X124238775Y23059030D01*
X124240410Y23059075D01*
X124262493Y23055181D01*
X124357731Y23055181D01*
X124359269Y23055742D01*
X124381448Y23059030D01*
X124524305Y23106649D01*
X124527816Y23109437D01*
X124532285Y23109827D01*
X124553622Y23124768D01*
X124601240Y23172387D01*
X124622921Y23218884D01*
X124609643Y23268439D01*
X124567618Y23297865D01*
X124516510Y23293393D01*
X124495173Y23278452D01*
X124460074Y23243353D01*
X124345561Y23205181D01*
X124274663Y23205181D01*
X124160150Y23243352D01*
X124086037Y23317466D01*
X124047543Y23394453D01*
X124006468Y23558753D01*
X124854160Y23558753D01*
X124855345Y23555496D01*
X124856399Y23540563D01*
X124904018Y23350087D01*
X124906006Y23347143D01*
X124909697Y23334736D01*
X124957316Y23239498D01*
X124958502Y23238375D01*
X124971365Y23220006D01*
X125066603Y23124767D01*
X125070667Y23122872D01*
X125073014Y23119052D01*
X125095919Y23106649D01*
X125238775Y23059030D01*
X125240410Y23059075D01*
X125262493Y23055181D01*
X125357731Y23055181D01*
X125359269Y23055742D01*
X125381448Y23059030D01*
X125524305Y23106649D01*
X125527816Y23109437D01*
X125532285Y23109827D01*
X125553622Y23124768D01*
X125601240Y23172387D01*
X125622921Y23218884D01*
X125609643Y23268439D01*
X125567618Y23297865D01*
X125516510Y23293393D01*
X125495173Y23278452D01*
X125460074Y23243353D01*
X125345561Y23205181D01*
X125274663Y23205181D01*
X125160150Y23243352D01*
X125086037Y23317466D01*
X125047543Y23394453D01*
X125004160Y23567987D01*
X125004160Y23692376D01*
X125033534Y23809872D01*
X126521966Y23809872D01*
X126530875Y23759348D01*
X126570175Y23726371D01*
X126595827Y23721848D01*
X126663684Y23721848D01*
X126663684Y23273039D01*
X126665217Y23268827D01*
X126664175Y23264465D01*
X126671602Y23239498D01*
X126719221Y23144259D01*
X126727374Y23136540D01*
X126731841Y23126235D01*
X126752762Y23110718D01*
X126848000Y23063099D01*
X126852453Y23062587D01*
X126855889Y23059704D01*
X126881541Y23055181D01*
X126976779Y23055181D01*
X127024988Y23072728D01*
X127050640Y23117157D01*
X127048343Y23130181D01*
X127235113Y23130181D01*
X127252660Y23081972D01*
X127297089Y23056320D01*
X127347613Y23065229D01*
X127380590Y23104529D01*
X127385113Y23130181D01*
X127854161Y23130181D01*
X127871708Y23081972D01*
X127916137Y23056320D01*
X127966661Y23065229D01*
X127999638Y23104529D01*
X128004161Y23130181D01*
X128330351Y23130181D01*
X128347898Y23081972D01*
X128392327Y23056320D01*
X128442851Y23065229D01*
X128475828Y23104529D01*
X128480351Y23130181D01*
X128480351Y23670544D01*
X128497397Y23687590D01*
X128565913Y23721848D01*
X128673360Y23721848D01*
X128730401Y23693328D01*
X128758922Y23636286D01*
X128758922Y23130181D01*
X128776469Y23081972D01*
X128820898Y23056320D01*
X128871422Y23065229D01*
X128904399Y23104529D01*
X128908922Y23130181D01*
X128908922Y23636286D01*
X128937442Y23693328D01*
X128994484Y23721848D01*
X129101931Y23721848D01*
X129158973Y23693328D01*
X129187494Y23636286D01*
X129187494Y23130181D01*
X129205041Y23081972D01*
X129249470Y23056320D01*
X129299994Y23065229D01*
X129332971Y23104529D01*
X129337494Y23130181D01*
X129337494Y23653991D01*
X129335960Y23658205D01*
X129337002Y23662566D01*
X129329576Y23687532D01*
X129281957Y23782770D01*
X129273803Y23790490D01*
X129269337Y23800794D01*
X129248416Y23816311D01*
X129153177Y23863930D01*
X129148723Y23864443D01*
X129145288Y23867325D01*
X129119636Y23871848D01*
X128976779Y23871848D01*
X128972565Y23870315D01*
X128968204Y23871356D01*
X128943238Y23863930D01*
X128848000Y23816311D01*
X128840280Y23808158D01*
X128834320Y23805575D01*
X128819844Y23816311D01*
X128724606Y23863930D01*
X128720152Y23864443D01*
X128716717Y23867325D01*
X128691065Y23871848D01*
X128548208Y23871848D01*
X128543994Y23870315D01*
X128539633Y23871356D01*
X128514667Y23863930D01*
X128464977Y23839086D01*
X128462804Y23845057D01*
X128418375Y23870709D01*
X128367851Y23861800D01*
X128334874Y23822500D01*
X128330351Y23796848D01*
X128330351Y23130181D01*
X128004161Y23130181D01*
X128004161Y23796848D01*
X127986614Y23845057D01*
X127942185Y23870709D01*
X127891661Y23861800D01*
X127858684Y23822500D01*
X127854161Y23796848D01*
X127854161Y23130181D01*
X127385113Y23130181D01*
X127385113Y23588667D01*
X127419371Y23657183D01*
X127449778Y23687590D01*
X127518294Y23721848D01*
X127595827Y23721848D01*
X127644036Y23739395D01*
X127669688Y23783824D01*
X127660779Y23834348D01*
X127621479Y23867325D01*
X127595827Y23871848D01*
X127500589Y23871848D01*
X127496375Y23870315D01*
X127492014Y23871356D01*
X127467048Y23863930D01*
X127377071Y23818942D01*
X127367566Y23845057D01*
X127323137Y23870709D01*
X127272613Y23861800D01*
X127239636Y23822500D01*
X127235113Y23796848D01*
X127235113Y23130181D01*
X127048343Y23130181D01*
X127041731Y23167681D01*
X127002431Y23200658D01*
X126976779Y23205181D01*
X126899246Y23205181D01*
X126842204Y23233702D01*
X126813684Y23290744D01*
X126813684Y23721848D01*
X126976779Y23721848D01*
X127024988Y23739395D01*
X127050640Y23783824D01*
X127041731Y23834348D01*
X127002431Y23867325D01*
X126976779Y23871848D01*
X126813684Y23871848D01*
X126813684Y24089098D01*
X127806828Y24089098D01*
X127811870Y24070279D01*
X127813569Y24050866D01*
X127819242Y24042764D01*
X127820105Y24039544D01*
X127822835Y24037633D01*
X127828509Y24029529D01*
X127876128Y23981910D01*
X127893786Y23973677D01*
X127909750Y23962498D01*
X127913166Y23962797D01*
X127916137Y23961082D01*
X127919516Y23961678D01*
X127922624Y23960229D01*
X127941443Y23965272D01*
X127960857Y23966970D01*
X127964670Y23969640D01*
X127966661Y23969991D01*
X127968782Y23972520D01*
X127968959Y23972644D01*
X127972179Y23973506D01*
X127974090Y23976236D01*
X127982194Y23981910D01*
X128029813Y24029529D01*
X128038048Y24047190D01*
X128049224Y24063151D01*
X128048634Y24069893D01*
X128051494Y24076025D01*
X128046451Y24094847D01*
X128044753Y24114258D01*
X128039079Y24122361D01*
X128038217Y24125580D01*
X128035487Y24127492D01*
X128029813Y24135595D01*
X127982194Y24183214D01*
X127964533Y24191449D01*
X127948572Y24202625D01*
X127945156Y24202327D01*
X127942185Y24204042D01*
X127938804Y24203446D01*
X127935697Y24204895D01*
X127916875Y24199853D01*
X127897465Y24198154D01*
X127893651Y24195485D01*
X127891661Y24195133D01*
X127889539Y24192605D01*
X127889362Y24192481D01*
X127886143Y24191618D01*
X127884231Y24188888D01*
X127876128Y24183214D01*
X127828509Y24135595D01*
X127820275Y24117938D01*
X127809097Y24101973D01*
X127809687Y24095230D01*
X127806828Y24089098D01*
X126813684Y24089098D01*
X126813684Y24130181D01*
X126796137Y24178390D01*
X126751708Y24204042D01*
X126701184Y24195133D01*
X126668207Y24155833D01*
X126663684Y24130181D01*
X126663684Y23871848D01*
X126595827Y23871848D01*
X126547618Y23854301D01*
X126521966Y23809872D01*
X125033534Y23809872D01*
X125047543Y23865910D01*
X125086037Y23942897D01*
X125160150Y24017010D01*
X125274663Y24055181D01*
X125345561Y24055181D01*
X125460074Y24017010D01*
X125495174Y23981910D01*
X125541670Y23960229D01*
X125591225Y23973506D01*
X125620651Y24015532D01*
X125616180Y24066639D01*
X125601240Y24087976D01*
X125553621Y24135595D01*
X125549557Y24137490D01*
X125547210Y24141311D01*
X125524305Y24153713D01*
X125381448Y24201332D01*
X125379813Y24201288D01*
X125357731Y24205181D01*
X125262493Y24205181D01*
X125260955Y24204622D01*
X125238775Y24201332D01*
X125095919Y24153713D01*
X125092408Y24150927D01*
X125087940Y24150536D01*
X125066603Y24135595D01*
X124971365Y24040357D01*
X124970674Y24038876D01*
X124957316Y24020865D01*
X124909697Y23925627D01*
X124909290Y23922099D01*
X124904018Y23910276D01*
X124856399Y23719800D01*
X124856759Y23716352D01*
X124854160Y23701610D01*
X124854160Y23558753D01*
X124006468Y23558753D01*
X124004160Y23567987D01*
X124004160Y23692376D01*
X124047543Y23865910D01*
X124086037Y23942897D01*
X124160150Y24017010D01*
X124274663Y24055181D01*
X124345561Y24055181D01*
X124460074Y24017010D01*
X124495174Y23981910D01*
X124541670Y23960229D01*
X124591225Y23973506D01*
X124620651Y24015532D01*
X124616180Y24066639D01*
X124601240Y24087976D01*
X124553621Y24135595D01*
X124549557Y24137490D01*
X124547210Y24141311D01*
X124524305Y24153713D01*
X124381448Y24201332D01*
X124379813Y24201288D01*
X124357731Y24205181D01*
X124262493Y24205181D01*
X124260955Y24204622D01*
X124238775Y24201332D01*
X124095919Y24153713D01*
X124092408Y24150927D01*
X124087940Y24150536D01*
X124066603Y24135595D01*
X123971365Y24040357D01*
X123970674Y24038876D01*
X123957316Y24020865D01*
X123909697Y23925627D01*
X123909290Y23922099D01*
X123904018Y23910276D01*
X123856399Y23719800D01*
X123856759Y23716352D01*
X123854160Y23701610D01*
X123854160Y23558753D01*
X123711303Y23558753D01*
X123711303Y24348038D01*
X129480351Y24348038D01*
X129480351Y22912324D01*
G37*
G36*
X36522455Y9790820D02*
G01*
X36548949Y9764326D01*
X36583207Y9695810D01*
X36583207Y9588363D01*
X36548948Y9519847D01*
X36518541Y9489439D01*
X36450026Y9455181D01*
X36161779Y9455181D01*
X36161779Y9828991D01*
X36407942Y9828991D01*
X36522455Y9790820D01*
G37*
G36*
X36470923Y10270923D02*
G01*
X36501330Y10240516D01*
X36535588Y10172000D01*
X36535588Y10112172D01*
X36501330Y10043656D01*
X36470923Y10013249D01*
X36402407Y9978991D01*
X36161779Y9978991D01*
X36161779Y10305181D01*
X36402407Y10305181D01*
X36470923Y10270923D01*
G37*
G36*
X37518542Y10270923D02*
G01*
X37590484Y10198981D01*
X37630826Y10037614D01*
X37630826Y9722749D01*
X37590484Y9561383D01*
X37518541Y9489439D01*
X37450026Y9455181D01*
X37294960Y9455181D01*
X37226444Y9489439D01*
X37154501Y9561383D01*
X37114160Y9722749D01*
X37114160Y10037614D01*
X37154501Y10198981D01*
X37226444Y10270923D01*
X37294960Y10305181D01*
X37450026Y10305181D01*
X37518542Y10270923D01*
G37*
G36*
X38566161Y10270923D02*
G01*
X38638103Y10198981D01*
X38678445Y10037614D01*
X38678445Y9722749D01*
X38638103Y9561383D01*
X38566160Y9489439D01*
X38497645Y9455181D01*
X38342579Y9455181D01*
X38274063Y9489439D01*
X38202120Y9561383D01*
X38161779Y9722749D01*
X38161779Y10037614D01*
X38202120Y10198981D01*
X38274063Y10270923D01*
X38342579Y10305181D01*
X38497645Y10305181D01*
X38566161Y10270923D01*
G37*
G36*
X39827306Y9162324D02*
G01*
X35868922Y9162324D01*
X35868922Y9380181D01*
X36011779Y9380181D01*
X36018442Y9361873D01*
X36021827Y9342681D01*
X36027011Y9338331D01*
X36029326Y9331972D01*
X36046199Y9322230D01*
X36061127Y9309704D01*
X36070869Y9307987D01*
X36073755Y9306320D01*
X36077037Y9306899D01*
X36086779Y9305181D01*
X36467731Y9305181D01*
X36471944Y9306715D01*
X36476305Y9305673D01*
X36501272Y9313099D01*
X36596510Y9360718D01*
X36597634Y9361906D01*
X36616003Y9374768D01*
X36663621Y9422387D01*
X36664311Y9423869D01*
X36677670Y9441879D01*
X36725289Y9537117D01*
X36725801Y9541571D01*
X36728684Y9545006D01*
X36733207Y9570658D01*
X36733207Y9713515D01*
X36964160Y9713515D01*
X36965345Y9710258D01*
X36966399Y9695325D01*
X37014018Y9504849D01*
X37018160Y9498717D01*
X37018805Y9491343D01*
X37033746Y9470006D01*
X37128984Y9374767D01*
X37130466Y9374076D01*
X37148476Y9360718D01*
X37243714Y9313099D01*
X37248167Y9312587D01*
X37251603Y9309704D01*
X37277255Y9305181D01*
X37467731Y9305181D01*
X37471944Y9306715D01*
X37476305Y9305673D01*
X37501272Y9313099D01*
X37596510Y9360718D01*
X37597635Y9361908D01*
X37616002Y9374767D01*
X37711241Y9470007D01*
X37714368Y9476715D01*
X37720358Y9481060D01*
X37730968Y9504849D01*
X37778587Y9695325D01*
X37778226Y9698774D01*
X37780826Y9713515D01*
X38011779Y9713515D01*
X38012964Y9710258D01*
X38014018Y9695325D01*
X38061637Y9504849D01*
X38065779Y9498717D01*
X38066424Y9491343D01*
X38081365Y9470006D01*
X38176603Y9374767D01*
X38178085Y9374076D01*
X38196095Y9360718D01*
X38291333Y9313099D01*
X38295786Y9312587D01*
X38299222Y9309704D01*
X38324874Y9305181D01*
X38515350Y9305181D01*
X38519563Y9306715D01*
X38523924Y9305673D01*
X38548891Y9313099D01*
X38644129Y9360718D01*
X38645254Y9361908D01*
X38663621Y9374767D01*
X38758860Y9470007D01*
X38761987Y9476715D01*
X38767977Y9481060D01*
X38778587Y9504849D01*
X38826206Y9695325D01*
X38825845Y9698774D01*
X38828445Y9713515D01*
X38828445Y10046848D01*
X38827259Y10050106D01*
X38826206Y10065038D01*
X38778587Y10255514D01*
X38774445Y10261647D01*
X38773800Y10269020D01*
X38758859Y10290357D01*
X38663621Y10385595D01*
X38662139Y10386286D01*
X38652810Y10393205D01*
X38965299Y10393205D01*
X38974208Y10342681D01*
X39013508Y10309704D01*
X39039160Y10305181D01*
X39249874Y10305181D01*
X39249874Y9380181D01*
X39267421Y9331972D01*
X39311850Y9306320D01*
X39362374Y9315229D01*
X39395351Y9354529D01*
X39399874Y9380181D01*
X39399874Y10305181D01*
X39610588Y10305181D01*
X39658797Y10322728D01*
X39684449Y10367157D01*
X39675540Y10417681D01*
X39636240Y10450658D01*
X39610588Y10455181D01*
X39039160Y10455181D01*
X38990951Y10437634D01*
X38965299Y10393205D01*
X38652810Y10393205D01*
X38644129Y10399644D01*
X38548891Y10447263D01*
X38544437Y10447776D01*
X38541002Y10450658D01*
X38515350Y10455181D01*
X38324874Y10455181D01*
X38320660Y10453648D01*
X38316299Y10454689D01*
X38291333Y10447263D01*
X38196095Y10399644D01*
X38194971Y10398458D01*
X38176603Y10385595D01*
X38081365Y10290357D01*
X38078237Y10283650D01*
X38072247Y10279303D01*
X38061637Y10255514D01*
X38014018Y10065038D01*
X38014378Y10061590D01*
X38011779Y10046848D01*
X38011779Y9713515D01*
X37780826Y9713515D01*
X37780826Y10046848D01*
X37779640Y10050106D01*
X37778587Y10065038D01*
X37730968Y10255514D01*
X37726826Y10261647D01*
X37726181Y10269020D01*
X37711240Y10290357D01*
X37616002Y10385595D01*
X37614520Y10386286D01*
X37596510Y10399644D01*
X37501272Y10447263D01*
X37496818Y10447776D01*
X37493383Y10450658D01*
X37467731Y10455181D01*
X37277255Y10455181D01*
X37273041Y10453648D01*
X37268680Y10454689D01*
X37243714Y10447263D01*
X37148476Y10399644D01*
X37147352Y10398458D01*
X37128984Y10385595D01*
X37033746Y10290357D01*
X37030618Y10283650D01*
X37024628Y10279303D01*
X37014018Y10255514D01*
X36966399Y10065038D01*
X36966759Y10061590D01*
X36964160Y10046848D01*
X36964160Y9713515D01*
X36733207Y9713515D01*
X36731673Y9717729D01*
X36732715Y9722090D01*
X36725289Y9747056D01*
X36677670Y9842294D01*
X36676480Y9843420D01*
X36663621Y9861786D01*
X36616002Y9909405D01*
X36611938Y9911300D01*
X36609591Y9915121D01*
X36593590Y9923785D01*
X36616002Y9946196D01*
X36616693Y9947678D01*
X36630051Y9965688D01*
X36677670Y10060926D01*
X36678182Y10065380D01*
X36681065Y10068815D01*
X36685588Y10094467D01*
X36685588Y10189705D01*
X36684054Y10193919D01*
X36685096Y10198280D01*
X36677670Y10223246D01*
X36630051Y10318484D01*
X36628861Y10319610D01*
X36616002Y10337976D01*
X36568383Y10385595D01*
X36566901Y10386286D01*
X36548891Y10399644D01*
X36453653Y10447263D01*
X36449199Y10447776D01*
X36445764Y10450658D01*
X36420112Y10455181D01*
X36086779Y10455181D01*
X36068470Y10448518D01*
X36049279Y10445133D01*
X36044928Y10439949D01*
X36038570Y10437634D01*
X36028827Y10420761D01*
X36016302Y10405833D01*
X36014584Y10396091D01*
X36012918Y10393205D01*
X36013496Y10389923D01*
X36011779Y10380181D01*
X36011779Y9380181D01*
X35868922Y9380181D01*
X35868922Y10598038D01*
X39827306Y10598038D01*
X39827306Y9162324D01*
G37*
X61836779Y3130181D02*
X61836779Y4130181D01*
X61836779Y4130181D02*
X62170112Y3415896D01*
X62170112Y3415896D02*
X62503445Y4130181D01*
X62503445Y4130181D02*
X62503445Y3130181D01*
X63122493Y3130181D02*
X63027255Y3177800D01*
X63027255Y3177800D02*
X62979636Y3225420D01*
X62979636Y3225420D02*
X62932017Y3320658D01*
X62932017Y3320658D02*
X62932017Y3606372D01*
X62932017Y3606372D02*
X62979636Y3701610D01*
X62979636Y3701610D02*
X63027255Y3749229D01*
X63027255Y3749229D02*
X63122493Y3796848D01*
X63122493Y3796848D02*
X63265350Y3796848D01*
X63265350Y3796848D02*
X63360588Y3749229D01*
X63360588Y3749229D02*
X63408207Y3701610D01*
X63408207Y3701610D02*
X63455826Y3606372D01*
X63455826Y3606372D02*
X63455826Y3320658D01*
X63455826Y3320658D02*
X63408207Y3225420D01*
X63408207Y3225420D02*
X63360588Y3177800D01*
X63360588Y3177800D02*
X63265350Y3130181D01*
X63265350Y3130181D02*
X63122493Y3130181D01*
X64312969Y3796848D02*
X64312969Y3130181D01*
X63884398Y3796848D02*
X63884398Y3273039D01*
X63884398Y3273039D02*
X63932017Y3177800D01*
X63932017Y3177800D02*
X64027255Y3130181D01*
X64027255Y3130181D02*
X64170112Y3130181D01*
X64170112Y3130181D02*
X64265350Y3177800D01*
X64265350Y3177800D02*
X64312969Y3225420D01*
X64789160Y3796848D02*
X64789160Y3130181D01*
X64789160Y3701610D02*
X64836779Y3749229D01*
X64836779Y3749229D02*
X64932017Y3796848D01*
X64932017Y3796848D02*
X65074874Y3796848D01*
X65074874Y3796848D02*
X65170112Y3749229D01*
X65170112Y3749229D02*
X65217731Y3653991D01*
X65217731Y3653991D02*
X65217731Y3130181D01*
X65551065Y3796848D02*
X65932017Y3796848D01*
X65693922Y4130181D02*
X65693922Y3273039D01*
X65693922Y3273039D02*
X65741541Y3177800D01*
X65741541Y3177800D02*
X65836779Y3130181D01*
X65836779Y3130181D02*
X65932017Y3130181D01*
X66265351Y3130181D02*
X66265351Y3796848D01*
X66265351Y4130181D02*
X66217732Y4082562D01*
X66217732Y4082562D02*
X66265351Y4034943D01*
X66265351Y4034943D02*
X66312970Y4082562D01*
X66312970Y4082562D02*
X66265351Y4130181D01*
X66265351Y4130181D02*
X66265351Y4034943D01*
X66741541Y3796848D02*
X66741541Y3130181D01*
X66741541Y3701610D02*
X66789160Y3749229D01*
X66789160Y3749229D02*
X66884398Y3796848D01*
X66884398Y3796848D02*
X67027255Y3796848D01*
X67027255Y3796848D02*
X67122493Y3749229D01*
X67122493Y3749229D02*
X67170112Y3653991D01*
X67170112Y3653991D02*
X67170112Y3130181D01*
X68074874Y3796848D02*
X68074874Y2987324D01*
X68074874Y2987324D02*
X68027255Y2892086D01*
X68027255Y2892086D02*
X67979636Y2844467D01*
X67979636Y2844467D02*
X67884398Y2796848D01*
X67884398Y2796848D02*
X67741541Y2796848D01*
X67741541Y2796848D02*
X67646303Y2844467D01*
X68074874Y3177800D02*
X67979636Y3130181D01*
X67979636Y3130181D02*
X67789160Y3130181D01*
X67789160Y3130181D02*
X67693922Y3177800D01*
X67693922Y3177800D02*
X67646303Y3225420D01*
X67646303Y3225420D02*
X67598684Y3320658D01*
X67598684Y3320658D02*
X67598684Y3606372D01*
X67598684Y3606372D02*
X67646303Y3701610D01*
X67646303Y3701610D02*
X67693922Y3749229D01*
X67693922Y3749229D02*
X67789160Y3796848D01*
X67789160Y3796848D02*
X67979636Y3796848D01*
X67979636Y3796848D02*
X68074874Y3749229D01*
X69312970Y3130181D02*
X69312970Y4130181D01*
X69741541Y3130181D02*
X69741541Y3653991D01*
X69741541Y3653991D02*
X69693922Y3749229D01*
X69693922Y3749229D02*
X69598684Y3796848D01*
X69598684Y3796848D02*
X69455827Y3796848D01*
X69455827Y3796848D02*
X69360589Y3749229D01*
X69360589Y3749229D02*
X69312970Y3701610D01*
X70360589Y3130181D02*
X70265351Y3177800D01*
X70265351Y3177800D02*
X70217732Y3225420D01*
X70217732Y3225420D02*
X70170113Y3320658D01*
X70170113Y3320658D02*
X70170113Y3606372D01*
X70170113Y3606372D02*
X70217732Y3701610D01*
X70217732Y3701610D02*
X70265351Y3749229D01*
X70265351Y3749229D02*
X70360589Y3796848D01*
X70360589Y3796848D02*
X70503446Y3796848D01*
X70503446Y3796848D02*
X70598684Y3749229D01*
X70598684Y3749229D02*
X70646303Y3701610D01*
X70646303Y3701610D02*
X70693922Y3606372D01*
X70693922Y3606372D02*
X70693922Y3320658D01*
X70693922Y3320658D02*
X70646303Y3225420D01*
X70646303Y3225420D02*
X70598684Y3177800D01*
X70598684Y3177800D02*
X70503446Y3130181D01*
X70503446Y3130181D02*
X70360589Y3130181D01*
X71265351Y3130181D02*
X71170113Y3177800D01*
X71170113Y3177800D02*
X71122494Y3273039D01*
X71122494Y3273039D02*
X71122494Y4130181D01*
X72027256Y3177800D02*
X71932018Y3130181D01*
X71932018Y3130181D02*
X71741542Y3130181D01*
X71741542Y3130181D02*
X71646304Y3177800D01*
X71646304Y3177800D02*
X71598685Y3273039D01*
X71598685Y3273039D02*
X71598685Y3653991D01*
X71598685Y3653991D02*
X71646304Y3749229D01*
X71646304Y3749229D02*
X71741542Y3796848D01*
X71741542Y3796848D02*
X71932018Y3796848D01*
X71932018Y3796848D02*
X72027256Y3749229D01*
X72027256Y3749229D02*
X72074875Y3653991D01*
X72074875Y3653991D02*
X72074875Y3558753D01*
X72074875Y3558753D02*
X71598685Y3463515D01*
X72455828Y3177800D02*
X72551066Y3130181D01*
X72551066Y3130181D02*
X72741542Y3130181D01*
X72741542Y3130181D02*
X72836780Y3177800D01*
X72836780Y3177800D02*
X72884399Y3273039D01*
X72884399Y3273039D02*
X72884399Y3320658D01*
X72884399Y3320658D02*
X72836780Y3415896D01*
X72836780Y3415896D02*
X72741542Y3463515D01*
X72741542Y3463515D02*
X72598685Y3463515D01*
X72598685Y3463515D02*
X72503447Y3511134D01*
X72503447Y3511134D02*
X72455828Y3606372D01*
X72455828Y3606372D02*
X72455828Y3653991D01*
X72455828Y3653991D02*
X72503447Y3749229D01*
X72503447Y3749229D02*
X72598685Y3796848D01*
X72598685Y3796848D02*
X72741542Y3796848D01*
X72741542Y3796848D02*
X72836780Y3749229D01*
X73312971Y3225420D02*
X73360590Y3177800D01*
X73360590Y3177800D02*
X73312971Y3130181D01*
X73312971Y3130181D02*
X73265352Y3177800D01*
X73265352Y3177800D02*
X73312971Y3225420D01*
X73312971Y3225420D02*
X73312971Y3130181D01*
X73312971Y3749229D02*
X73360590Y3701610D01*
X73360590Y3701610D02*
X73312971Y3653991D01*
X73312971Y3653991D02*
X73265352Y3701610D01*
X73265352Y3701610D02*
X73312971Y3749229D01*
X73312971Y3749229D02*
X73312971Y3653991D01*
X75074875Y3130181D02*
X74503447Y3130181D01*
X74789161Y3130181D02*
X74789161Y4130181D01*
X74789161Y4130181D02*
X74693923Y3987324D01*
X74693923Y3987324D02*
X74598685Y3892086D01*
X74598685Y3892086D02*
X74503447Y3844467D01*
X75408209Y4130181D02*
X76027256Y4130181D01*
X76027256Y4130181D02*
X75693923Y3749229D01*
X75693923Y3749229D02*
X75836780Y3749229D01*
X75836780Y3749229D02*
X75932018Y3701610D01*
X75932018Y3701610D02*
X75979637Y3653991D01*
X75979637Y3653991D02*
X76027256Y3558753D01*
X76027256Y3558753D02*
X76027256Y3320658D01*
X76027256Y3320658D02*
X75979637Y3225420D01*
X75979637Y3225420D02*
X75932018Y3177800D01*
X75932018Y3177800D02*
X75836780Y3130181D01*
X75836780Y3130181D02*
X75551066Y3130181D01*
X75551066Y3130181D02*
X75455828Y3177800D01*
X75455828Y3177800D02*
X75408209Y3225420D01*
X76932018Y4130181D02*
X76455828Y4130181D01*
X76455828Y4130181D02*
X76408209Y3653991D01*
X76408209Y3653991D02*
X76455828Y3701610D01*
X76455828Y3701610D02*
X76551066Y3749229D01*
X76551066Y3749229D02*
X76789161Y3749229D01*
X76789161Y3749229D02*
X76884399Y3701610D01*
X76884399Y3701610D02*
X76932018Y3653991D01*
X76932018Y3653991D02*
X76979637Y3558753D01*
X76979637Y3558753D02*
X76979637Y3320658D01*
X76979637Y3320658D02*
X76932018Y3225420D01*
X76932018Y3225420D02*
X76884399Y3177800D01*
X76884399Y3177800D02*
X76789161Y3130181D01*
X76789161Y3130181D02*
X76551066Y3130181D01*
X76551066Y3130181D02*
X76455828Y3177800D01*
X76455828Y3177800D02*
X76408209Y3225420D01*
X77408209Y3130181D02*
X77408209Y3796848D01*
X77408209Y3701610D02*
X77455828Y3749229D01*
X77455828Y3749229D02*
X77551066Y3796848D01*
X77551066Y3796848D02*
X77693923Y3796848D01*
X77693923Y3796848D02*
X77789161Y3749229D01*
X77789161Y3749229D02*
X77836780Y3653991D01*
X77836780Y3653991D02*
X77836780Y3130181D01*
X77836780Y3653991D02*
X77884399Y3749229D01*
X77884399Y3749229D02*
X77979637Y3796848D01*
X77979637Y3796848D02*
X78122494Y3796848D01*
X78122494Y3796848D02*
X78217733Y3749229D01*
X78217733Y3749229D02*
X78265352Y3653991D01*
X78265352Y3653991D02*
X78265352Y3130181D01*
X78741542Y3130181D02*
X78741542Y3796848D01*
X78741542Y3701610D02*
X78789161Y3749229D01*
X78789161Y3749229D02*
X78884399Y3796848D01*
X78884399Y3796848D02*
X79027256Y3796848D01*
X79027256Y3796848D02*
X79122494Y3749229D01*
X79122494Y3749229D02*
X79170113Y3653991D01*
X79170113Y3653991D02*
X79170113Y3130181D01*
X79170113Y3653991D02*
X79217732Y3749229D01*
X79217732Y3749229D02*
X79312970Y3796848D01*
X79312970Y3796848D02*
X79455827Y3796848D01*
X79455827Y3796848D02*
X79551066Y3749229D01*
X79551066Y3749229D02*
X79598685Y3653991D01*
X79598685Y3653991D02*
X79598685Y3130181D01*
X81265351Y3177800D02*
X81170113Y3130181D01*
X81170113Y3130181D02*
X80979637Y3130181D01*
X80979637Y3130181D02*
X80884399Y3177800D01*
X80884399Y3177800D02*
X80836780Y3225420D01*
X80836780Y3225420D02*
X80789161Y3320658D01*
X80789161Y3320658D02*
X80789161Y3606372D01*
X80789161Y3606372D02*
X80836780Y3701610D01*
X80836780Y3701610D02*
X80884399Y3749229D01*
X80884399Y3749229D02*
X80979637Y3796848D01*
X80979637Y3796848D02*
X81170113Y3796848D01*
X81170113Y3796848D02*
X81265351Y3749229D01*
X82122494Y3177800D02*
X82027256Y3130181D01*
X82027256Y3130181D02*
X81836780Y3130181D01*
X81836780Y3130181D02*
X81741542Y3177800D01*
X81741542Y3177800D02*
X81693923Y3225420D01*
X81693923Y3225420D02*
X81646304Y3320658D01*
X81646304Y3320658D02*
X81646304Y3606372D01*
X81646304Y3606372D02*
X81693923Y3701610D01*
X81693923Y3701610D02*
X81741542Y3749229D01*
X81741542Y3749229D02*
X81836780Y3796848D01*
X81836780Y3796848D02*
X82027256Y3796848D01*
X82027256Y3796848D02*
X82122494Y3749229D01*
X84027256Y4177800D02*
X83170114Y2892086D01*
X85551066Y3796848D02*
X85551066Y3130181D01*
X85312971Y4177800D02*
X85074876Y3463515D01*
X85074876Y3463515D02*
X85693923Y3463515D01*
X86551066Y4130181D02*
X86074876Y4130181D01*
X86074876Y4130181D02*
X86027257Y3653991D01*
X86027257Y3653991D02*
X86074876Y3701610D01*
X86074876Y3701610D02*
X86170114Y3749229D01*
X86170114Y3749229D02*
X86408209Y3749229D01*
X86408209Y3749229D02*
X86503447Y3701610D01*
X86503447Y3701610D02*
X86551066Y3653991D01*
X86551066Y3653991D02*
X86598685Y3558753D01*
X86598685Y3558753D02*
X86598685Y3320658D01*
X86598685Y3320658D02*
X86551066Y3225420D01*
X86551066Y3225420D02*
X86503447Y3177800D01*
X86503447Y3177800D02*
X86408209Y3130181D01*
X86408209Y3130181D02*
X86170114Y3130181D01*
X86170114Y3130181D02*
X86074876Y3177800D01*
X86074876Y3177800D02*
X86027257Y3225420D01*
X87027257Y3130181D02*
X87027257Y3796848D01*
X87027257Y3701610D02*
X87074876Y3749229D01*
X87074876Y3749229D02*
X87170114Y3796848D01*
X87170114Y3796848D02*
X87312971Y3796848D01*
X87312971Y3796848D02*
X87408209Y3749229D01*
X87408209Y3749229D02*
X87455828Y3653991D01*
X87455828Y3653991D02*
X87455828Y3130181D01*
X87455828Y3653991D02*
X87503447Y3749229D01*
X87503447Y3749229D02*
X87598685Y3796848D01*
X87598685Y3796848D02*
X87741542Y3796848D01*
X87741542Y3796848D02*
X87836781Y3749229D01*
X87836781Y3749229D02*
X87884400Y3653991D01*
X87884400Y3653991D02*
X87884400Y3130181D01*
X88360590Y3130181D02*
X88360590Y3796848D01*
X88360590Y3701610D02*
X88408209Y3749229D01*
X88408209Y3749229D02*
X88503447Y3796848D01*
X88503447Y3796848D02*
X88646304Y3796848D01*
X88646304Y3796848D02*
X88741542Y3749229D01*
X88741542Y3749229D02*
X88789161Y3653991D01*
X88789161Y3653991D02*
X88789161Y3130181D01*
X88789161Y3653991D02*
X88836780Y3749229D01*
X88836780Y3749229D02*
X88932018Y3796848D01*
X88932018Y3796848D02*
X89074875Y3796848D01*
X89074875Y3796848D02*
X89170114Y3749229D01*
X89170114Y3749229D02*
X89217733Y3653991D01*
X89217733Y3653991D02*
X89217733Y3130181D01*
X90884399Y3177800D02*
X90789161Y3130181D01*
X90789161Y3130181D02*
X90598685Y3130181D01*
X90598685Y3130181D02*
X90503447Y3177800D01*
X90503447Y3177800D02*
X90455828Y3225420D01*
X90455828Y3225420D02*
X90408209Y3320658D01*
X90408209Y3320658D02*
X90408209Y3606372D01*
X90408209Y3606372D02*
X90455828Y3701610D01*
X90455828Y3701610D02*
X90503447Y3749229D01*
X90503447Y3749229D02*
X90598685Y3796848D01*
X90598685Y3796848D02*
X90789161Y3796848D01*
X90789161Y3796848D02*
X90884399Y3749229D01*
X91741542Y3177800D02*
X91646304Y3130181D01*
X91646304Y3130181D02*
X91455828Y3130181D01*
X91455828Y3130181D02*
X91360590Y3177800D01*
X91360590Y3177800D02*
X91312971Y3225420D01*
X91312971Y3225420D02*
X91265352Y3320658D01*
X91265352Y3320658D02*
X91265352Y3606372D01*
X91265352Y3606372D02*
X91312971Y3701610D01*
X91312971Y3701610D02*
X91360590Y3749229D01*
X91360590Y3749229D02*
X91455828Y3796848D01*
X91455828Y3796848D02*
X91646304Y3796848D01*
X91646304Y3796848D02*
X91741542Y3749229D01*
X133955601Y35462562D02*
X133860363Y35510181D01*
X133860363Y35510181D02*
X133717506Y35510181D01*
X133717506Y35510181D02*
X133574649Y35462562D01*
X133574649Y35462562D02*
X133479411Y35367324D01*
X133479411Y35367324D02*
X133431792Y35272086D01*
X133431792Y35272086D02*
X133384173Y35081610D01*
X133384173Y35081610D02*
X133384173Y34938753D01*
X133384173Y34938753D02*
X133431792Y34748277D01*
X133431792Y34748277D02*
X133479411Y34653039D01*
X133479411Y34653039D02*
X133574649Y34557800D01*
X133574649Y34557800D02*
X133717506Y34510181D01*
X133717506Y34510181D02*
X133812744Y34510181D01*
X133812744Y34510181D02*
X133955601Y34557800D01*
X133955601Y34557800D02*
X134003220Y34605420D01*
X134003220Y34605420D02*
X134003220Y34938753D01*
X134003220Y34938753D02*
X133812744Y34938753D01*
X134431792Y34510181D02*
X134431792Y35510181D01*
X134431792Y35510181D02*
X135003220Y34510181D01*
X135003220Y34510181D02*
X135003220Y35510181D01*
X135479411Y34510181D02*
X135479411Y35510181D01*
X135479411Y35510181D02*
X135717506Y35510181D01*
X135717506Y35510181D02*
X135860363Y35462562D01*
X135860363Y35462562D02*
X135955601Y35367324D01*
X135955601Y35367324D02*
X136003220Y35272086D01*
X136003220Y35272086D02*
X136050839Y35081610D01*
X136050839Y35081610D02*
X136050839Y34938753D01*
X136050839Y34938753D02*
X136003220Y34748277D01*
X136003220Y34748277D02*
X135955601Y34653039D01*
X135955601Y34653039D02*
X135860363Y34557800D01*
X135860363Y34557800D02*
X135717506Y34510181D01*
X135717506Y34510181D02*
X135479411Y34510181D01*
X134098459Y33900181D02*
X134431792Y32900181D01*
X134431792Y32900181D02*
X134765125Y33900181D01*
X135098459Y32900181D02*
X135098459Y33566848D01*
X135098459Y33900181D02*
X135050840Y33852562D01*
X135050840Y33852562D02*
X135098459Y33804943D01*
X135098459Y33804943D02*
X135146078Y33852562D01*
X135146078Y33852562D02*
X135098459Y33900181D01*
X135098459Y33900181D02*
X135098459Y33804943D01*
X135574649Y33566848D02*
X135574649Y32900181D01*
X135574649Y33471610D02*
X135622268Y33519229D01*
X135622268Y33519229D02*
X135717506Y33566848D01*
X135717506Y33566848D02*
X135860363Y33566848D01*
X135860363Y33566848D02*
X135955601Y33519229D01*
X135955601Y33519229D02*
X136003220Y33423991D01*
X136003220Y33423991D02*
X136003220Y32900181D01*
X133955601Y25642562D02*
X133860363Y25690181D01*
X133860363Y25690181D02*
X133717506Y25690181D01*
X133717506Y25690181D02*
X133574649Y25642562D01*
X133574649Y25642562D02*
X133479411Y25547324D01*
X133479411Y25547324D02*
X133431792Y25452086D01*
X133431792Y25452086D02*
X133384173Y25261610D01*
X133384173Y25261610D02*
X133384173Y25118753D01*
X133384173Y25118753D02*
X133431792Y24928277D01*
X133431792Y24928277D02*
X133479411Y24833039D01*
X133479411Y24833039D02*
X133574649Y24737800D01*
X133574649Y24737800D02*
X133717506Y24690181D01*
X133717506Y24690181D02*
X133812744Y24690181D01*
X133812744Y24690181D02*
X133955601Y24737800D01*
X133955601Y24737800D02*
X134003220Y24785420D01*
X134003220Y24785420D02*
X134003220Y25118753D01*
X134003220Y25118753D02*
X133812744Y25118753D01*
X134431792Y24690181D02*
X134431792Y25690181D01*
X134431792Y25690181D02*
X135003220Y24690181D01*
X135003220Y24690181D02*
X135003220Y25690181D01*
X135479411Y24690181D02*
X135479411Y25690181D01*
X135479411Y25690181D02*
X135717506Y25690181D01*
X135717506Y25690181D02*
X135860363Y25642562D01*
X135860363Y25642562D02*
X135955601Y25547324D01*
X135955601Y25547324D02*
X136003220Y25452086D01*
X136003220Y25452086D02*
X136050839Y25261610D01*
X136050839Y25261610D02*
X136050839Y25118753D01*
X136050839Y25118753D02*
X136003220Y24928277D01*
X136003220Y24928277D02*
X135955601Y24833039D01*
X135955601Y24833039D02*
X135860363Y24737800D01*
X135860363Y24737800D02*
X135717506Y24690181D01*
X135717506Y24690181D02*
X135479411Y24690181D01*
X132003219Y23175420D02*
X131955600Y23127800D01*
X131955600Y23127800D02*
X131812743Y23080181D01*
X131812743Y23080181D02*
X131717505Y23080181D01*
X131717505Y23080181D02*
X131574648Y23127800D01*
X131574648Y23127800D02*
X131479410Y23223039D01*
X131479410Y23223039D02*
X131431791Y23318277D01*
X131431791Y23318277D02*
X131384172Y23508753D01*
X131384172Y23508753D02*
X131384172Y23651610D01*
X131384172Y23651610D02*
X131431791Y23842086D01*
X131431791Y23842086D02*
X131479410Y23937324D01*
X131479410Y23937324D02*
X131574648Y24032562D01*
X131574648Y24032562D02*
X131717505Y24080181D01*
X131717505Y24080181D02*
X131812743Y24080181D01*
X131812743Y24080181D02*
X131955600Y24032562D01*
X131955600Y24032562D02*
X132003219Y23984943D01*
X133003219Y23175420D02*
X132955600Y23127800D01*
X132955600Y23127800D02*
X132812743Y23080181D01*
X132812743Y23080181D02*
X132717505Y23080181D01*
X132717505Y23080181D02*
X132574648Y23127800D01*
X132574648Y23127800D02*
X132479410Y23223039D01*
X132479410Y23223039D02*
X132431791Y23318277D01*
X132431791Y23318277D02*
X132384172Y23508753D01*
X132384172Y23508753D02*
X132384172Y23651610D01*
X132384172Y23651610D02*
X132431791Y23842086D01*
X132431791Y23842086D02*
X132479410Y23937324D01*
X132479410Y23937324D02*
X132574648Y24032562D01*
X132574648Y24032562D02*
X132717505Y24080181D01*
X132717505Y24080181D02*
X132812743Y24080181D01*
X132812743Y24080181D02*
X132955600Y24032562D01*
X132955600Y24032562D02*
X133003219Y23984943D01*
X134336553Y23080181D02*
X134241315Y23127800D01*
X134241315Y23127800D02*
X134193696Y23223039D01*
X134193696Y23223039D02*
X134193696Y24080181D01*
X135098458Y23127800D02*
X135003220Y23080181D01*
X135003220Y23080181D02*
X134812744Y23080181D01*
X134812744Y23080181D02*
X134717506Y23127800D01*
X134717506Y23127800D02*
X134669887Y23223039D01*
X134669887Y23223039D02*
X134669887Y23603991D01*
X134669887Y23603991D02*
X134717506Y23699229D01*
X134717506Y23699229D02*
X134812744Y23746848D01*
X134812744Y23746848D02*
X135003220Y23746848D01*
X135003220Y23746848D02*
X135098458Y23699229D01*
X135098458Y23699229D02*
X135146077Y23603991D01*
X135146077Y23603991D02*
X135146077Y23508753D01*
X135146077Y23508753D02*
X134669887Y23413515D01*
X136003220Y23080181D02*
X136003220Y24080181D01*
X136003220Y23127800D02*
X135907982Y23080181D01*
X135907982Y23080181D02*
X135717506Y23080181D01*
X135717506Y23080181D02*
X135622268Y23127800D01*
X135622268Y23127800D02*
X135574649Y23175420D01*
X135574649Y23175420D02*
X135527030Y23270658D01*
X135527030Y23270658D02*
X135527030Y23556372D01*
X135527030Y23556372D02*
X135574649Y23651610D01*
X135574649Y23651610D02*
X135622268Y23699229D01*
X135622268Y23699229D02*
X135717506Y23746848D01*
X135717506Y23746848D02*
X135907982Y23746848D01*
X135907982Y23746848D02*
X136003220Y23699229D01*
X8707635Y50444303D02*
X9326682Y50444303D01*
X9326682Y50444303D02*
X8993349Y50063351D01*
X8993349Y50063351D02*
X9136206Y50063351D01*
X9136206Y50063351D02*
X9231444Y50015732D01*
X9231444Y50015732D02*
X9279063Y49968113D01*
X9279063Y49968113D02*
X9326682Y49872875D01*
X9326682Y49872875D02*
X9326682Y49634780D01*
X9326682Y49634780D02*
X9279063Y49539542D01*
X9279063Y49539542D02*
X9231444Y49491922D01*
X9231444Y49491922D02*
X9136206Y49444303D01*
X9136206Y49444303D02*
X8850492Y49444303D01*
X8850492Y49444303D02*
X8755254Y49491922D01*
X8755254Y49491922D02*
X8707635Y49539542D01*
X9660016Y50110970D02*
X9898111Y49444303D01*
X9898111Y49444303D02*
X10136206Y50110970D01*
X10421921Y50444303D02*
X11040968Y50444303D01*
X11040968Y50444303D02*
X10707635Y50063351D01*
X10707635Y50063351D02*
X10850492Y50063351D01*
X10850492Y50063351D02*
X10945730Y50015732D01*
X10945730Y50015732D02*
X10993349Y49968113D01*
X10993349Y49968113D02*
X11040968Y49872875D01*
X11040968Y49872875D02*
X11040968Y49634780D01*
X11040968Y49634780D02*
X10993349Y49539542D01*
X10993349Y49539542D02*
X10945730Y49491922D01*
X10945730Y49491922D02*
X10850492Y49444303D01*
X10850492Y49444303D02*
X10564778Y49444303D01*
X10564778Y49444303D02*
X10469540Y49491922D01*
X10469540Y49491922D02*
X10421921Y49539542D01*
X8755254Y47881922D02*
X8898111Y47834303D01*
X8898111Y47834303D02*
X9136206Y47834303D01*
X9136206Y47834303D02*
X9231444Y47881922D01*
X9231444Y47881922D02*
X9279063Y47929542D01*
X9279063Y47929542D02*
X9326682Y48024780D01*
X9326682Y48024780D02*
X9326682Y48120018D01*
X9326682Y48120018D02*
X9279063Y48215256D01*
X9279063Y48215256D02*
X9231444Y48262875D01*
X9231444Y48262875D02*
X9136206Y48310494D01*
X9136206Y48310494D02*
X8945730Y48358113D01*
X8945730Y48358113D02*
X8850492Y48405732D01*
X8850492Y48405732D02*
X8802873Y48453351D01*
X8802873Y48453351D02*
X8755254Y48548589D01*
X8755254Y48548589D02*
X8755254Y48643827D01*
X8755254Y48643827D02*
X8802873Y48739065D01*
X8802873Y48739065D02*
X8850492Y48786684D01*
X8850492Y48786684D02*
X8945730Y48834303D01*
X8945730Y48834303D02*
X9183825Y48834303D01*
X9183825Y48834303D02*
X9326682Y48786684D01*
X10326682Y47929542D02*
X10279063Y47881922D01*
X10279063Y47881922D02*
X10136206Y47834303D01*
X10136206Y47834303D02*
X10040968Y47834303D01*
X10040968Y47834303D02*
X9898111Y47881922D01*
X9898111Y47881922D02*
X9802873Y47977161D01*
X9802873Y47977161D02*
X9755254Y48072399D01*
X9755254Y48072399D02*
X9707635Y48262875D01*
X9707635Y48262875D02*
X9707635Y48405732D01*
X9707635Y48405732D02*
X9755254Y48596208D01*
X9755254Y48596208D02*
X9802873Y48691446D01*
X9802873Y48691446D02*
X9898111Y48786684D01*
X9898111Y48786684D02*
X10040968Y48834303D01*
X10040968Y48834303D02*
X10136206Y48834303D01*
X10136206Y48834303D02*
X10279063Y48786684D01*
X10279063Y48786684D02*
X10326682Y48739065D01*
X11231444Y47834303D02*
X10755254Y47834303D01*
X10755254Y47834303D02*
X10755254Y48834303D01*
X8755254Y46271922D02*
X8898111Y46224303D01*
X8898111Y46224303D02*
X9136206Y46224303D01*
X9136206Y46224303D02*
X9231444Y46271922D01*
X9231444Y46271922D02*
X9279063Y46319542D01*
X9279063Y46319542D02*
X9326682Y46414780D01*
X9326682Y46414780D02*
X9326682Y46510018D01*
X9326682Y46510018D02*
X9279063Y46605256D01*
X9279063Y46605256D02*
X9231444Y46652875D01*
X9231444Y46652875D02*
X9136206Y46700494D01*
X9136206Y46700494D02*
X8945730Y46748113D01*
X8945730Y46748113D02*
X8850492Y46795732D01*
X8850492Y46795732D02*
X8802873Y46843351D01*
X8802873Y46843351D02*
X8755254Y46938589D01*
X8755254Y46938589D02*
X8755254Y47033827D01*
X8755254Y47033827D02*
X8802873Y47129065D01*
X8802873Y47129065D02*
X8850492Y47176684D01*
X8850492Y47176684D02*
X8945730Y47224303D01*
X8945730Y47224303D02*
X9183825Y47224303D01*
X9183825Y47224303D02*
X9326682Y47176684D01*
X9755254Y46224303D02*
X9755254Y47224303D01*
X9755254Y47224303D02*
X9993349Y47224303D01*
X9993349Y47224303D02*
X10136206Y47176684D01*
X10136206Y47176684D02*
X10231444Y47081446D01*
X10231444Y47081446D02*
X10279063Y46986208D01*
X10279063Y46986208D02*
X10326682Y46795732D01*
X10326682Y46795732D02*
X10326682Y46652875D01*
X10326682Y46652875D02*
X10279063Y46462399D01*
X10279063Y46462399D02*
X10231444Y46367161D01*
X10231444Y46367161D02*
X10136206Y46271922D01*
X10136206Y46271922D02*
X9993349Y46224303D01*
X9993349Y46224303D02*
X9755254Y46224303D01*
X10707635Y46510018D02*
X11183825Y46510018D01*
X10612397Y46224303D02*
X10945730Y47224303D01*
X10945730Y47224303D02*
X11279063Y46224303D01*
X9326682Y45566684D02*
X9231444Y45614303D01*
X9231444Y45614303D02*
X9088587Y45614303D01*
X9088587Y45614303D02*
X8945730Y45566684D01*
X8945730Y45566684D02*
X8850492Y45471446D01*
X8850492Y45471446D02*
X8802873Y45376208D01*
X8802873Y45376208D02*
X8755254Y45185732D01*
X8755254Y45185732D02*
X8755254Y45042875D01*
X8755254Y45042875D02*
X8802873Y44852399D01*
X8802873Y44852399D02*
X8850492Y44757161D01*
X8850492Y44757161D02*
X8945730Y44661922D01*
X8945730Y44661922D02*
X9088587Y44614303D01*
X9088587Y44614303D02*
X9183825Y44614303D01*
X9183825Y44614303D02*
X9326682Y44661922D01*
X9326682Y44661922D02*
X9374301Y44709542D01*
X9374301Y44709542D02*
X9374301Y45042875D01*
X9374301Y45042875D02*
X9183825Y45042875D01*
X9802873Y44614303D02*
X9802873Y45614303D01*
X9802873Y45614303D02*
X10374301Y44614303D01*
X10374301Y44614303D02*
X10374301Y45614303D01*
X10850492Y44614303D02*
X10850492Y45614303D01*
X10850492Y45614303D02*
X11088587Y45614303D01*
X11088587Y45614303D02*
X11231444Y45566684D01*
X11231444Y45566684D02*
X11326682Y45471446D01*
X11326682Y45471446D02*
X11374301Y45376208D01*
X11374301Y45376208D02*
X11421920Y45185732D01*
X11421920Y45185732D02*
X11421920Y45042875D01*
X11421920Y45042875D02*
X11374301Y44852399D01*
X11374301Y44852399D02*
X11326682Y44757161D01*
X11326682Y44757161D02*
X11231444Y44661922D01*
X11231444Y44661922D02*
X11088587Y44614303D01*
X11088587Y44614303D02*
X10850492Y44614303D01*
X71408207Y34975420D02*
X71360588Y34927800D01*
X71360588Y34927800D02*
X71217731Y34880181D01*
X71217731Y34880181D02*
X71122493Y34880181D01*
X71122493Y34880181D02*
X70979636Y34927800D01*
X70979636Y34927800D02*
X70884398Y35023039D01*
X70884398Y35023039D02*
X70836779Y35118277D01*
X70836779Y35118277D02*
X70789160Y35308753D01*
X70789160Y35308753D02*
X70789160Y35451610D01*
X70789160Y35451610D02*
X70836779Y35642086D01*
X70836779Y35642086D02*
X70884398Y35737324D01*
X70884398Y35737324D02*
X70979636Y35832562D01*
X70979636Y35832562D02*
X71122493Y35880181D01*
X71122493Y35880181D02*
X71217731Y35880181D01*
X71217731Y35880181D02*
X71360588Y35832562D01*
X71360588Y35832562D02*
X71408207Y35784943D01*
X72217731Y34927800D02*
X72122493Y34880181D01*
X72122493Y34880181D02*
X71932017Y34880181D01*
X71932017Y34880181D02*
X71836779Y34927800D01*
X71836779Y34927800D02*
X71789160Y35023039D01*
X71789160Y35023039D02*
X71789160Y35403991D01*
X71789160Y35403991D02*
X71836779Y35499229D01*
X71836779Y35499229D02*
X71932017Y35546848D01*
X71932017Y35546848D02*
X72122493Y35546848D01*
X72122493Y35546848D02*
X72217731Y35499229D01*
X72217731Y35499229D02*
X72265350Y35403991D01*
X72265350Y35403991D02*
X72265350Y35308753D01*
X72265350Y35308753D02*
X71789160Y35213515D01*
X72693922Y35546848D02*
X72693922Y34880181D01*
X72693922Y35451610D02*
X72741541Y35499229D01*
X72741541Y35499229D02*
X72836779Y35546848D01*
X72836779Y35546848D02*
X72979636Y35546848D01*
X72979636Y35546848D02*
X73074874Y35499229D01*
X73074874Y35499229D02*
X73122493Y35403991D01*
X73122493Y35403991D02*
X73122493Y34880181D01*
X73455827Y35546848D02*
X73836779Y35546848D01*
X73598684Y35880181D02*
X73598684Y35023039D01*
X73598684Y35023039D02*
X73646303Y34927800D01*
X73646303Y34927800D02*
X73741541Y34880181D01*
X73741541Y34880181D02*
X73836779Y34880181D01*
X74551065Y34927800D02*
X74455827Y34880181D01*
X74455827Y34880181D02*
X74265351Y34880181D01*
X74265351Y34880181D02*
X74170113Y34927800D01*
X74170113Y34927800D02*
X74122494Y35023039D01*
X74122494Y35023039D02*
X74122494Y35403991D01*
X74122494Y35403991D02*
X74170113Y35499229D01*
X74170113Y35499229D02*
X74265351Y35546848D01*
X74265351Y35546848D02*
X74455827Y35546848D01*
X74455827Y35546848D02*
X74551065Y35499229D01*
X74551065Y35499229D02*
X74598684Y35403991D01*
X74598684Y35403991D02*
X74598684Y35308753D01*
X74598684Y35308753D02*
X74122494Y35213515D01*
X75027256Y34880181D02*
X75027256Y35546848D01*
X75027256Y35356372D02*
X75074875Y35451610D01*
X75074875Y35451610D02*
X75122494Y35499229D01*
X75122494Y35499229D02*
X75217732Y35546848D01*
X75217732Y35546848D02*
X75312970Y35546848D01*
%TO.C,G\u002A\u002A\u002A*%
G36*
X125211734Y3251629D02*
G01*
X125195176Y3235071D01*
X125178618Y3251629D01*
X125195176Y3268187D01*
X125211734Y3251629D01*
G37*
G36*
X130826540Y1065081D02*
G01*
X130827790Y1028153D01*
X130785145Y994869D01*
X130764205Y989032D01*
X130716941Y1003297D01*
X130708996Y1030427D01*
X130736853Y1073419D01*
X130777988Y1082529D01*
X130826540Y1065081D01*
G37*
G36*
X122466477Y6058304D02*
G01*
X122493328Y5993818D01*
X122496219Y5965344D01*
X122526541Y5885424D01*
X122598246Y5816215D01*
X122673735Y5770481D01*
X122729608Y5764928D01*
X122776244Y5784224D01*
X122856702Y5807949D01*
X122923052Y5786973D01*
X123001838Y5766970D01*
X123097734Y5769994D01*
X123184115Y5792086D01*
X123234354Y5829287D01*
X123236316Y5833555D01*
X123277968Y5870655D01*
X123339953Y5892321D01*
X123418903Y5888925D01*
X123477470Y5832705D01*
X123478946Y5830469D01*
X123556926Y5764230D01*
X123626702Y5751890D01*
X123691366Y5741025D01*
X123747064Y5699356D01*
X123810756Y5613277D01*
X123822749Y5594589D01*
X123882351Y5483027D01*
X123944806Y5337762D01*
X124003158Y5178756D01*
X124050448Y5025967D01*
X124079719Y4899356D01*
X124085789Y4839965D01*
X124093141Y4756099D01*
X124111422Y4647487D01*
X124117697Y4618141D01*
X124139096Y4512520D01*
X124164395Y4371964D01*
X124187854Y4228552D01*
X124239135Y3917087D01*
X124292628Y3631620D01*
X124346701Y3378688D01*
X124399720Y3164829D01*
X124450054Y2996583D01*
X124496071Y2880487D01*
X124536138Y2823079D01*
X124539208Y2821121D01*
X124597854Y2777022D01*
X124674571Y2706308D01*
X124701347Y2678995D01*
X124829128Y2578596D01*
X124965266Y2528959D01*
X125096539Y2531429D01*
X125209724Y2587353D01*
X125245827Y2623602D01*
X125287353Y2685117D01*
X125342488Y2781024D01*
X125378974Y2850585D01*
X125446952Y2978678D01*
X125525746Y3116513D01*
X125607704Y3251988D01*
X125685173Y3373002D01*
X125750499Y3467452D01*
X125796029Y3523238D01*
X125810604Y3533116D01*
X125828797Y3562696D01*
X125839624Y3637433D01*
X125840939Y3680183D01*
X125848274Y3773264D01*
X125866038Y3834000D01*
X125887871Y3852684D01*
X125907410Y3819612D01*
X125913082Y3790256D01*
X125950783Y3729659D01*
X126031799Y3702185D01*
X126140423Y3710904D01*
X126207378Y3732708D01*
X126265033Y3750122D01*
X126324031Y3747138D01*
X126403691Y3719726D01*
X126512758Y3669019D01*
X126658086Y3603330D01*
X126757284Y3572067D01*
X126819598Y3573326D01*
X126850978Y3599348D01*
X126885488Y3629632D01*
X126925445Y3605732D01*
X126973623Y3532906D01*
X127026555Y3465598D01*
X127080155Y3434089D01*
X127084748Y3433768D01*
X127144550Y3413526D01*
X127222242Y3363576D01*
X127237852Y3350977D01*
X127317430Y3296698D01*
X127387414Y3269073D01*
X127397392Y3268187D01*
X127461734Y3247782D01*
X127541918Y3197481D01*
X127556933Y3185397D01*
X127627755Y3131997D01*
X127679397Y3103881D01*
X127686326Y3102607D01*
X127731142Y3088603D01*
X127813396Y3052584D01*
X127880242Y3019956D01*
X128056202Y2954974D01*
X128194586Y2937166D01*
X128286849Y2933321D01*
X128342319Y2911550D01*
X128384938Y2856167D01*
X128419556Y2789781D01*
X128478790Y2695751D01*
X128542031Y2632243D01*
X128566169Y2619645D01*
X128647402Y2581745D01*
X128718221Y2535079D01*
X128797840Y2489852D01*
X128864635Y2473402D01*
X128945587Y2451830D01*
X128984355Y2426734D01*
X129052903Y2391091D01*
X129146648Y2369176D01*
X129150405Y2368781D01*
X129228808Y2367459D01*
X129268347Y2396472D01*
X129293263Y2469632D01*
X129319909Y2539481D01*
X129350030Y2548849D01*
X129386380Y2496119D01*
X129428055Y2390307D01*
X129468769Y2300427D01*
X129524794Y2252965D01*
X129595107Y2230370D01*
X129727565Y2211727D01*
X129818423Y2235613D01*
X129882311Y2309563D01*
X129919620Y2397447D01*
X129967248Y2555834D01*
X130008348Y2741599D01*
X130045428Y2967872D01*
X130079531Y3235071D01*
X130098366Y3398335D01*
X130121598Y3599907D01*
X130146059Y3812296D01*
X130165381Y3980182D01*
X130196878Y4248436D01*
X130224201Y4461652D01*
X130249927Y4630678D01*
X130276633Y4766362D01*
X130306895Y4879553D01*
X130343289Y4981100D01*
X130388393Y5081851D01*
X130444783Y5192654D01*
X130460328Y5222033D01*
X130550016Y5323573D01*
X130684662Y5377853D01*
X130785684Y5387125D01*
X130889861Y5397891D01*
X130976956Y5423551D01*
X130984380Y5427317D01*
X131072664Y5460490D01*
X131156063Y5476819D01*
X131244168Y5487333D01*
X131365885Y5504034D01*
X131454107Y5517112D01*
X131600114Y5535150D01*
X131753132Y5547480D01*
X131826662Y5550399D01*
X132000522Y5553194D01*
X132000522Y5326290D01*
X132000522Y5099386D01*
X131727314Y5078118D01*
X131561479Y5067477D01*
X131386137Y5059785D01*
X131238425Y5056658D01*
X131234629Y5056652D01*
X131092034Y5050047D01*
X131005326Y5029373D01*
X130973924Y5006779D01*
X130908540Y4964271D01*
X130870521Y4957105D01*
X130800825Y4934752D01*
X130745120Y4893880D01*
X130674582Y4841272D01*
X130620934Y4819369D01*
X130560590Y4777834D01*
X130499708Y4683616D01*
X130443936Y4549976D01*
X130398919Y4390174D01*
X130372345Y4235600D01*
X130351089Y4064546D01*
X130326242Y3875449D01*
X130306366Y3731812D01*
X130286411Y3585234D01*
X130268582Y3441675D01*
X130256962Y3334419D01*
X130218567Y2975795D01*
X130173936Y2656221D01*
X130124173Y2380872D01*
X130070387Y2154925D01*
X130013685Y1983555D01*
X129955174Y1871939D01*
X129940310Y1853888D01*
X129885735Y1810760D01*
X129809562Y1785708D01*
X129691920Y1772947D01*
X129655949Y1771098D01*
X129539411Y1764376D01*
X129471431Y1751681D01*
X129434383Y1724496D01*
X129410642Y1674308D01*
X129401728Y1648282D01*
X129363760Y1535157D01*
X129315998Y1714514D01*
X129285215Y1817818D01*
X129254731Y1873034D01*
X129211155Y1896873D01*
X129164183Y1903990D01*
X129070302Y1931577D01*
X129001855Y1978501D01*
X128925199Y2027314D01*
X128850671Y2042894D01*
X128780149Y2051346D01*
X128724074Y2086230D01*
X128662000Y2161836D01*
X128644253Y2187171D01*
X128588798Y2230345D01*
X128489859Y2250691D01*
X128439705Y2253403D01*
X128336448Y2261695D01*
X128272074Y2287835D01*
X128219377Y2345284D01*
X128201262Y2371403D01*
X128101140Y2485199D01*
X127982797Y2567563D01*
X127866623Y2604956D01*
X127848125Y2605867D01*
X127766823Y2626072D01*
X127686400Y2672099D01*
X127606944Y2719240D01*
X127536967Y2738331D01*
X127463426Y2760041D01*
X127433938Y2783872D01*
X127377731Y2819043D01*
X127288662Y2846362D01*
X127272582Y2849268D01*
X127170878Y2882885D01*
X127107044Y2936675D01*
X127053198Y2985814D01*
X126983167Y2983673D01*
X126911647Y2981852D01*
X126880528Y3017167D01*
X126827307Y3078635D01*
X126725074Y3138647D01*
X126590858Y3190726D01*
X126441690Y3228398D01*
X126294600Y3245188D01*
X126280059Y3245475D01*
X126136053Y3238133D01*
X126042900Y3207216D01*
X125986978Y3144297D01*
X125955407Y3044654D01*
X125928873Y2915442D01*
X125911429Y2841903D01*
X125898837Y2814833D01*
X125886860Y2825028D01*
X125871555Y2862516D01*
X125839439Y2919894D01*
X125815086Y2937027D01*
X125771501Y2913252D01*
X125710285Y2856277D01*
X125651112Y2787629D01*
X125613657Y2728834D01*
X125609126Y2711682D01*
X125590356Y2674489D01*
X125580624Y2672099D01*
X125551476Y2645170D01*
X125503077Y2574760D01*
X125449015Y2481681D01*
X125380302Y2367107D01*
X125307927Y2265380D01*
X125259755Y2210863D01*
X125220233Y2177426D01*
X125179090Y2156839D01*
X125124698Y2149457D01*
X125045432Y2155638D01*
X124929664Y2175735D01*
X124765767Y2210106D01*
X124681207Y2228571D01*
X124590417Y2279369D01*
X124498097Y2387011D01*
X124409461Y2542452D01*
X124329722Y2736648D01*
X124267651Y2945997D01*
X124214645Y3161437D01*
X124175831Y3323291D01*
X124149051Y3442151D01*
X124132144Y3528613D01*
X124122953Y3593271D01*
X124119318Y3646721D01*
X124118905Y3675990D01*
X124110349Y3760593D01*
X124089665Y3815201D01*
X124088703Y3816258D01*
X124068903Y3864812D01*
X124050261Y3956028D01*
X124040976Y4029856D01*
X124001385Y4358472D01*
X123950995Y4628978D01*
X123891086Y4841199D01*
X123854528Y4957396D01*
X123829327Y5057136D01*
X123821675Y5109274D01*
X123792918Y5194140D01*
X123722934Y5255902D01*
X123632851Y5286329D01*
X123543799Y5277192D01*
X123489700Y5238591D01*
X123419027Y5193209D01*
X123333925Y5211281D01*
X123238570Y5287346D01*
X123183642Y5338109D01*
X123129667Y5367685D01*
X123056572Y5381839D01*
X122944285Y5386336D01*
X122892701Y5386694D01*
X122710442Y5376707D01*
X122586590Y5343836D01*
X122516696Y5286071D01*
X122496219Y5207653D01*
X122477751Y5130669D01*
X122450590Y5092926D01*
X122412450Y5076980D01*
X122388403Y5117639D01*
X122384810Y5130266D01*
X122367840Y5226167D01*
X122364207Y5279987D01*
X122357887Y5322793D01*
X122328872Y5345088D01*
X122261071Y5353436D01*
X122181617Y5354498D01*
X121999479Y5354498D01*
X121999487Y5578031D01*
X121999495Y5801564D01*
X122151726Y5804816D01*
X122269370Y5819211D01*
X122335345Y5862822D01*
X122361389Y5945729D01*
X122363248Y5986462D01*
X122371286Y6059084D01*
X122385545Y6093802D01*
X122424975Y6098102D01*
X122466477Y6058304D01*
G37*
D12*
%TO.C,J4*%
X13327500Y50602500D02*
X13967500Y50602500D01*
X13967500Y50602500D02*
X13967500Y49972500D01*
X16127500Y50602500D02*
X15487500Y50602500D01*
X13377500Y53322500D02*
X16077500Y53322500D01*
%TO.C,C41*%
X35877836Y24640000D02*
X35662164Y24640000D01*
X35877836Y25360000D02*
X35662164Y25360000D01*
%TO.C,D13*%
X103810000Y43410000D02*
X103810000Y44600000D01*
X101100000Y44590000D02*
X101100000Y43410000D01*
X100300000Y44600000D02*
X101100000Y44600000D01*
X103810000Y44600000D02*
X104700000Y44600000D01*
X104700000Y44600000D02*
X104700000Y49400000D01*
X100300000Y49400000D02*
X100300000Y44600000D01*
X101100000Y49400000D02*
X100300000Y49400000D01*
X104700000Y49400000D02*
X103810000Y49400000D01*
%TO.C,C37*%
X105377836Y24140000D02*
X105162164Y24140000D01*
X105377836Y24860000D02*
X105162164Y24860000D01*
%TO.C,X1*%
X11330000Y40850000D02*
X11330000Y43150000D01*
X11330000Y43150000D02*
X8630000Y43150000D01*
%TO.C,C20*%
X120735000Y19261252D02*
X120735000Y18738748D01*
X119265000Y19261252D02*
X119265000Y18738748D01*
%TO.C,R18*%
X54311359Y21340000D02*
X54618641Y21340000D01*
X54311359Y20580000D02*
X54618641Y20580000D01*
%TO.C,TP23*%
X29450000Y28000000D02*
G75*
G03*
X29450000Y28000000I-950000J0D01*
G01*
%TO.C,R23*%
X54311359Y20340000D02*
X54618641Y20340000D01*
X54311359Y19580000D02*
X54618641Y19580000D01*
%TO.C,R55*%
X101870000Y25653641D02*
X101870000Y25346359D01*
X101110000Y25653641D02*
X101110000Y25346359D01*
%TO.C,D20*%
X56190000Y40590000D02*
X56190000Y39400000D01*
X58900000Y39410000D02*
X58900000Y40590000D01*
X59700000Y39400000D02*
X58900000Y39400000D01*
X56190000Y39400000D02*
X55300000Y39400000D01*
X55300000Y39400000D02*
X55300000Y34600000D01*
X59700000Y34600000D02*
X59700000Y39400000D01*
X58900000Y34600000D02*
X59700000Y34600000D01*
X55300000Y34600000D02*
X56190000Y34600000D01*
%TO.C,D4*%
X63810000Y43410000D02*
X63810000Y44600000D01*
X61100000Y44590000D02*
X61100000Y43410000D01*
X60300000Y44600000D02*
X61100000Y44600000D01*
X63810000Y44600000D02*
X64700000Y44600000D01*
X64700000Y44600000D02*
X64700000Y49400000D01*
X60300000Y49400000D02*
X60300000Y44600000D01*
X61100000Y49400000D02*
X60300000Y49400000D01*
X64700000Y49400000D02*
X63810000Y49400000D01*
%TO.C,TP10*%
X76975000Y25500000D02*
G75*
G03*
X76975000Y25500000I-950000J0D01*
G01*
%TO.C,R63*%
X32653641Y20620000D02*
X32346359Y20620000D01*
X32653641Y21380000D02*
X32346359Y21380000D01*
%TO.C,R26*%
X67095000Y15806359D02*
X67095000Y16113641D01*
X67855000Y15806359D02*
X67855000Y16113641D01*
%TO.C,C39*%
X35357836Y15640000D02*
X35142164Y15640000D01*
X35357836Y16360000D02*
X35142164Y16360000D01*
%TO.C,J6*%
X10850000Y3420000D02*
X10850000Y5120000D01*
X20190000Y3420000D02*
X20190000Y5120000D01*
%TO.C,TP3*%
X117950000Y4500000D02*
G75*
G03*
X117950000Y4500000I-950000J0D01*
G01*
%TO.C,R49*%
X100870000Y16663641D02*
X100870000Y16356359D01*
X100110000Y16663641D02*
X100110000Y16356359D01*
%TO.C,TP20*%
X41950000Y15500000D02*
G75*
G03*
X41950000Y15500000I-950000J0D01*
G01*
%TO.C,J3*%
X14615000Y21270000D02*
X14615000Y21905000D01*
X15250000Y21270000D02*
X14615000Y21270000D01*
%TO.C,R30*%
X66095000Y15796359D02*
X66095000Y16103641D01*
X66855000Y15796359D02*
X66855000Y16103641D01*
%TO.C,R20*%
X55905000Y25613641D02*
X55905000Y25306359D01*
X55145000Y25613641D02*
X55145000Y25306359D01*
%TO.C,R53*%
X103143641Y20620000D02*
X102836359Y20620000D01*
X103143641Y21380000D02*
X102836359Y21380000D01*
%TO.C,TP1*%
X101200000Y4250000D02*
G75*
G03*
X101200000Y4250000I-950000J0D01*
G01*
%TO.C,R40*%
X90870000Y25653641D02*
X90870000Y25346359D01*
X90110000Y25653641D02*
X90110000Y25346359D01*
%TO.C,U1*%
X19590000Y40610000D02*
X19590000Y40135000D01*
X19115000Y33390000D02*
X19590000Y33390000D01*
X19115000Y40610000D02*
X19590000Y40610000D01*
X12845000Y33390000D02*
X12370000Y33390000D01*
X12845000Y40610000D02*
X12370000Y40610000D01*
X12370000Y33390000D02*
X12370000Y33865000D01*
X12370000Y40610000D02*
X12370000Y40135000D01*
%TO.C,R27*%
X70628641Y14580000D02*
X70321359Y14580000D01*
X70628641Y15340000D02*
X70321359Y15340000D01*
%TO.C,D8*%
X53810000Y43410000D02*
X53810000Y44600000D01*
X51100000Y44590000D02*
X51100000Y43410000D01*
X50300000Y44600000D02*
X51100000Y44600000D01*
X53810000Y44600000D02*
X54700000Y44600000D01*
X54700000Y44600000D02*
X54700000Y49400000D01*
X50300000Y49400000D02*
X50300000Y44600000D01*
X51100000Y49400000D02*
X50300000Y49400000D01*
X54700000Y49400000D02*
X53810000Y49400000D01*
%TO.C,C1*%
X118260000Y51140580D02*
X118260000Y50859420D01*
X117240000Y51140580D02*
X117240000Y50859420D01*
%TO.C,U6*%
X123100000Y26640000D02*
X117090000Y26640000D01*
X120850000Y33460000D02*
X117090000Y33460000D01*
X117090000Y26640000D02*
X117090000Y27900000D01*
X117090000Y33460000D02*
X117090000Y32200000D01*
%TO.C,SW1*%
X34440000Y8850000D02*
X40560000Y8850000D01*
X34440000Y5150000D02*
X34440000Y8850000D01*
X40560000Y8850000D02*
X40560000Y5150000D01*
X40560000Y5150000D02*
X34440000Y5150000D01*
%TO.C,J2*%
X500000Y28710000D02*
X1750000Y28710000D01*
X790000Y29000000D02*
X6760000Y29000000D01*
X6760000Y29000000D02*
X6760000Y41620000D01*
X800000Y29010000D02*
X1550000Y29010000D01*
X1550000Y29010000D02*
X1550000Y30810000D01*
X3050000Y29010000D02*
X3050000Y29760000D01*
X3050000Y29760000D02*
X6000000Y29760000D01*
X6000000Y29760000D02*
X6000000Y35310000D01*
X500000Y29960000D02*
X500000Y28710000D01*
X800000Y30810000D02*
X800000Y29010000D01*
X1550000Y30810000D02*
X800000Y30810000D01*
X800000Y32310000D02*
X1550000Y32310000D01*
X1550000Y32310000D02*
X1550000Y38310000D01*
X800000Y38310000D02*
X800000Y32310000D01*
X1550000Y38310000D02*
X800000Y38310000D01*
X800000Y39810000D02*
X1550000Y39810000D01*
X1550000Y39810000D02*
X1550000Y41610000D01*
X3050000Y40860000D02*
X6000000Y40860000D01*
X6000000Y40860000D02*
X6000000Y35310000D01*
X800000Y41610000D02*
X800000Y39810000D01*
X1550000Y41610000D02*
X800000Y41610000D01*
X3050000Y41610000D02*
X3050000Y40860000D01*
X790000Y41620000D02*
X790000Y29000000D01*
X6760000Y41620000D02*
X790000Y41620000D01*
%TO.C,D9*%
X93810000Y43410000D02*
X93810000Y44600000D01*
X91100000Y44590000D02*
X91100000Y43410000D01*
X90300000Y44600000D02*
X91100000Y44600000D01*
X93810000Y44600000D02*
X94700000Y44600000D01*
X94700000Y44600000D02*
X94700000Y49400000D01*
X90300000Y49400000D02*
X90300000Y44600000D01*
X91100000Y49400000D02*
X90300000Y49400000D01*
X94700000Y49400000D02*
X93810000Y49400000D01*
%TO.C,R17*%
X51361359Y26840000D02*
X51668641Y26840000D01*
X51361359Y26080000D02*
X51668641Y26080000D01*
%TO.C,R45*%
X90110000Y15336359D02*
X90110000Y15643641D01*
X90870000Y15336359D02*
X90870000Y15643641D01*
%TO.C,U5*%
X115050000Y15940000D02*
X115050000Y17590000D01*
X115175000Y15940000D02*
X115175000Y15740000D01*
X115175000Y15940000D02*
X115050000Y15940000D01*
X117450000Y17390000D02*
X117450000Y16090000D01*
X115050000Y17590000D02*
X115175000Y17590000D01*
%TO.C,TP13*%
X94940000Y27500000D02*
G75*
G03*
X94940000Y27500000I-950000J0D01*
G01*
%TO.C,R37*%
X86336359Y26380000D02*
X86643641Y26380000D01*
X86336359Y25620000D02*
X86643641Y25620000D01*
%TO.C,D26*%
X73810000Y43410000D02*
X73810000Y44600000D01*
X71100000Y44590000D02*
X71100000Y43410000D01*
X70300000Y44600000D02*
X71100000Y44600000D01*
X73810000Y44600000D02*
X74700000Y44600000D01*
X74700000Y44600000D02*
X74700000Y49400000D01*
X70300000Y49400000D02*
X70300000Y44600000D01*
X71100000Y49400000D02*
X70300000Y49400000D01*
X74700000Y49400000D02*
X73810000Y49400000D01*
%TO.C,R52*%
X105643641Y25620000D02*
X105336359Y25620000D01*
X105643641Y26380000D02*
X105336359Y26380000D01*
%TO.C,R29*%
X65855000Y16613641D02*
X65855000Y16306359D01*
X65095000Y16613641D02*
X65095000Y16306359D01*
%TO.C,C36*%
X101349420Y19010000D02*
X101630580Y19010000D01*
X101349420Y17990000D02*
X101630580Y17990000D01*
%TO.C,D7*%
X88810000Y43410000D02*
X88810000Y44600000D01*
X86100000Y44590000D02*
X86100000Y43410000D01*
X85300000Y44600000D02*
X86100000Y44600000D01*
X88810000Y44600000D02*
X89700000Y44600000D01*
X89700000Y44600000D02*
X89700000Y49400000D01*
X85300000Y49400000D02*
X85300000Y44600000D01*
X86100000Y49400000D02*
X85300000Y49400000D01*
X89700000Y49400000D02*
X88810000Y49400000D01*
%TO.C,D17*%
X113810000Y43410000D02*
X113810000Y44600000D01*
X111100000Y44590000D02*
X111100000Y43410000D01*
X110300000Y44600000D02*
X111100000Y44600000D01*
X113810000Y44600000D02*
X114700000Y44600000D01*
X114700000Y44600000D02*
X114700000Y49400000D01*
X110300000Y49400000D02*
X110300000Y44600000D01*
X111100000Y49400000D02*
X110300000Y49400000D01*
X114700000Y49400000D02*
X113810000Y49400000D01*
D13*
%TO.C,D1*%
X3875000Y43000000D02*
G75*
G03*
X3875000Y43000000I-50000J0D01*
G01*
D12*
%TO.C,R9*%
X29946359Y8880000D02*
X30253641Y8880000D01*
X29946359Y8120000D02*
X30253641Y8120000D01*
%TO.C,C26*%
X55615580Y17950000D02*
X55334420Y17950000D01*
X55615580Y18970000D02*
X55334420Y18970000D01*
%TO.C,R1*%
X112380000Y4663641D02*
X112380000Y4356359D01*
X111620000Y4663641D02*
X111620000Y4356359D01*
%TO.C,R64*%
X30620000Y24346359D02*
X30620000Y24653641D01*
X31380000Y24346359D02*
X31380000Y24653641D01*
%TO.C,TP22*%
X41950000Y25500000D02*
G75*
G03*
X41950000Y25500000I-950000J0D01*
G01*
%TO.C,R16*%
X54905000Y25613641D02*
X54905000Y25306359D01*
X54145000Y25613641D02*
X54145000Y25306359D01*
%TO.C,R3*%
X8096359Y29380000D02*
X8403641Y29380000D01*
X8096359Y28620000D02*
X8403641Y28620000D01*
%TO.C,TP18*%
X111940000Y25500000D02*
G75*
G03*
X111940000Y25500000I-950000J0D01*
G01*
%TO.C,R32*%
X70628641Y26080000D02*
X70321359Y26080000D01*
X70628641Y26840000D02*
X70321359Y26840000D01*
%TO.C,C38*%
X101349420Y23010000D02*
X101630580Y23010000D01*
X101349420Y21990000D02*
X101630580Y21990000D01*
%TO.C,R33*%
X67628641Y20580000D02*
X67321359Y20580000D01*
X67628641Y21340000D02*
X67321359Y21340000D01*
%TO.C,D10*%
X48810000Y43410000D02*
X48810000Y44600000D01*
X46100000Y44590000D02*
X46100000Y43410000D01*
X45300000Y44600000D02*
X46100000Y44600000D01*
X48810000Y44600000D02*
X49700000Y44600000D01*
X49700000Y44600000D02*
X49700000Y49400000D01*
X45300000Y49400000D02*
X45300000Y44600000D01*
X46100000Y49400000D02*
X45300000Y49400000D01*
X49700000Y49400000D02*
X48810000Y49400000D01*
D13*
%TO.C,FLT1*%
X14250000Y47437500D02*
X14250000Y49437500D01*
X14450000Y47437500D02*
X14250000Y47437500D01*
X15250000Y47437500D02*
X15050000Y47437500D01*
X14250000Y49437500D02*
X15250000Y49437500D01*
X15250000Y49437500D02*
X15250000Y47437500D01*
D10*
X14850000Y47337500D02*
G75*
G03*
X14850000Y47337500I-100000J0D01*
G01*
D12*
%TO.C,D11*%
X98810000Y43410000D02*
X98810000Y44600000D01*
X96100000Y44590000D02*
X96100000Y43410000D01*
X95300000Y44600000D02*
X96100000Y44600000D01*
X98810000Y44600000D02*
X99700000Y44600000D01*
X99700000Y44600000D02*
X99700000Y49400000D01*
X95300000Y49400000D02*
X95300000Y44600000D01*
X96100000Y49400000D02*
X95300000Y49400000D01*
X99700000Y49400000D02*
X98810000Y49400000D01*
%TO.C,C7*%
X10340000Y35087836D02*
X10340000Y34872164D01*
X9620000Y35087836D02*
X9620000Y34872164D01*
%TO.C,D14*%
X38810000Y43410000D02*
X38810000Y44600000D01*
X36100000Y44590000D02*
X36100000Y43410000D01*
X35300000Y44600000D02*
X36100000Y44600000D01*
X38810000Y44600000D02*
X39700000Y44600000D01*
X39700000Y44600000D02*
X39700000Y49400000D01*
X35300000Y49400000D02*
X35300000Y44600000D01*
X36100000Y49400000D02*
X35300000Y49400000D01*
X39700000Y49400000D02*
X38810000Y49400000D01*
%TO.C,R46*%
X102110000Y15346359D02*
X102110000Y15653641D01*
X102870000Y15346359D02*
X102870000Y15653641D01*
%TO.C,R22*%
X51321359Y15360000D02*
X51628641Y15360000D01*
X51321359Y14600000D02*
X51628641Y14600000D01*
%TO.C,C19*%
X120485000Y51011252D02*
X120485000Y50488748D01*
X119015000Y51011252D02*
X119015000Y50488748D01*
%TO.C,U9*%
X95990000Y24935000D02*
X92540000Y24935000D01*
X95990000Y24935000D02*
X97940000Y24935000D01*
X95990000Y16065000D02*
X94040000Y16065000D01*
X95990000Y16065000D02*
X97940000Y16065000D01*
%TO.C,J7*%
X142900000Y27960000D02*
X141650000Y27960000D01*
X142610000Y27670000D02*
X136640000Y27670000D01*
X136640000Y27670000D02*
X136640000Y20050000D01*
X142600000Y27660000D02*
X141850000Y27660000D01*
X141850000Y27660000D02*
X141850000Y25860000D01*
X140350000Y27660000D02*
X140350000Y26910000D01*
X140350000Y26910000D02*
X137400000Y26910000D01*
X137400000Y26910000D02*
X137400000Y23860000D01*
X142900000Y26710000D02*
X142900000Y27960000D01*
X142600000Y25860000D02*
X142600000Y27660000D01*
X141850000Y25860000D02*
X142600000Y25860000D01*
X142600000Y24360000D02*
X141850000Y24360000D01*
X141850000Y24360000D02*
X141850000Y23360000D01*
X142600000Y23360000D02*
X142600000Y24360000D01*
X141850000Y23360000D02*
X142600000Y23360000D01*
X142600000Y21860000D02*
X141850000Y21860000D01*
X141850000Y21860000D02*
X141850000Y20060000D01*
X140350000Y20810000D02*
X137400000Y20810000D01*
X137400000Y20810000D02*
X137400000Y23860000D01*
X142600000Y20060000D02*
X142600000Y21860000D01*
X141850000Y20060000D02*
X142600000Y20060000D01*
X140350000Y20060000D02*
X140350000Y20810000D01*
X142610000Y20050000D02*
X142610000Y27670000D01*
X136640000Y20050000D02*
X142610000Y20050000D01*
%TO.C,C24*%
X55615580Y21950000D02*
X55334420Y21950000D01*
X55615580Y22970000D02*
X55334420Y22970000D01*
%TO.C,J5*%
X142900000Y38120000D02*
X141650000Y38120000D01*
X142610000Y37830000D02*
X136640000Y37830000D01*
X136640000Y37830000D02*
X136640000Y30210000D01*
X142600000Y37820000D02*
X141850000Y37820000D01*
X141850000Y37820000D02*
X141850000Y36020000D01*
X140350000Y37820000D02*
X140350000Y37070000D01*
X140350000Y37070000D02*
X137400000Y37070000D01*
X137400000Y37070000D02*
X137400000Y34020000D01*
X142900000Y36870000D02*
X142900000Y38120000D01*
X142600000Y36020000D02*
X142600000Y37820000D01*
X141850000Y36020000D02*
X142600000Y36020000D01*
X142600000Y34520000D02*
X141850000Y34520000D01*
X141850000Y34520000D02*
X141850000Y33520000D01*
X142600000Y33520000D02*
X142600000Y34520000D01*
X141850000Y33520000D02*
X142600000Y33520000D01*
X142600000Y32020000D02*
X141850000Y32020000D01*
X141850000Y32020000D02*
X141850000Y30220000D01*
X140350000Y30970000D02*
X137400000Y30970000D01*
X137400000Y30970000D02*
X137400000Y34020000D01*
X142600000Y30220000D02*
X142600000Y32020000D01*
X141850000Y30220000D02*
X142600000Y30220000D01*
X140350000Y30220000D02*
X140350000Y30970000D01*
X142610000Y30210000D02*
X142610000Y37830000D01*
X136640000Y30210000D02*
X142610000Y30210000D01*
%TO.C,R47*%
X105633641Y14620000D02*
X105326359Y14620000D01*
X105633641Y15380000D02*
X105326359Y15380000D01*
%TO.C,TP12*%
X81940000Y25500000D02*
G75*
G03*
X81940000Y25500000I-950000J0D01*
G01*
%TO.C,R54*%
X100110000Y24346359D02*
X100110000Y24653641D01*
X100870000Y24346359D02*
X100870000Y24653641D01*
%TO.C,C8*%
X15897163Y42110000D02*
X16112835Y42110000D01*
X15897163Y41390000D02*
X16112835Y41390000D01*
%TO.C,R56*%
X32620000Y15356359D02*
X32620000Y15663641D01*
X33380000Y15356359D02*
X33380000Y15663641D01*
%TO.C,R7*%
X9130000Y30903641D02*
X9130000Y30596359D01*
X8370000Y30903641D02*
X8370000Y30596359D01*
%TO.C,C29*%
X70107836Y24600000D02*
X69892164Y24600000D01*
X70107836Y25320000D02*
X69892164Y25320000D01*
%TO.C,C33*%
X86662164Y16860000D02*
X86877836Y16860000D01*
X86662164Y16140000D02*
X86877836Y16140000D01*
D13*
%TO.C,U3*%
X135500000Y22000000D02*
X135500000Y9000000D01*
X134500000Y8000000D02*
X121500000Y8000000D01*
X121500000Y8000000D02*
X121500000Y22000000D01*
X121500000Y22000000D02*
X135500000Y22000000D01*
D14*
X136000000Y8000000D02*
G75*
G03*
X136000000Y8000000I-500000J0D01*
G01*
D12*
%TO.C,U10*%
X26500000Y16065000D02*
X29950000Y16065000D01*
X26500000Y16065000D02*
X24550000Y16065000D01*
X26500000Y24935000D02*
X28450000Y24935000D01*
X26500000Y24935000D02*
X24550000Y24935000D01*
%TO.C,TP15*%
X94940000Y14500000D02*
G75*
G03*
X94940000Y14500000I-950000J0D01*
G01*
%TO.C,TP19*%
X98940000Y27500000D02*
G75*
G03*
X98940000Y27500000I-950000J0D01*
G01*
%TO.C,R5*%
X7836359Y20880000D02*
X8143641Y20880000D01*
X7836359Y20120000D02*
X8143641Y20120000D01*
%TO.C,R42*%
X86336359Y15380000D02*
X86643641Y15380000D01*
X86336359Y14620000D02*
X86643641Y14620000D01*
%TO.C,C35*%
X105357836Y16140000D02*
X105142164Y16140000D01*
X105357836Y16860000D02*
X105142164Y16860000D01*
%TO.C,C6*%
X19847164Y32360000D02*
X20062836Y32360000D01*
X19847164Y31640000D02*
X20062836Y31640000D01*
%TO.C,R41*%
X89110000Y15346359D02*
X89110000Y15653641D01*
X89870000Y15346359D02*
X89870000Y15653641D01*
%TO.C,C5*%
X21642164Y38360000D02*
X21857836Y38360000D01*
X21642164Y37640000D02*
X21857836Y37640000D01*
%TO.C,C13*%
X13372164Y42360000D02*
X13587836Y42360000D01*
X13372164Y41640000D02*
X13587836Y41640000D01*
%TO.C,D25*%
X31190000Y40590000D02*
X31190000Y39400000D01*
X33900000Y39410000D02*
X33900000Y40590000D01*
X34700000Y39400000D02*
X33900000Y39400000D01*
X31190000Y39400000D02*
X30300000Y39400000D01*
X30300000Y39400000D02*
X30300000Y34600000D01*
X34700000Y34600000D02*
X34700000Y39400000D01*
X33900000Y34600000D02*
X34700000Y34600000D01*
X30300000Y34600000D02*
X31190000Y34600000D01*
%TO.C,R24*%
X56855000Y16613641D02*
X56855000Y16306359D01*
X56095000Y16613641D02*
X56095000Y16306359D01*
%TO.C,C17*%
X136765000Y41288748D02*
X136765000Y41811252D01*
X138235000Y41288748D02*
X138235000Y41811252D01*
%TO.C,TP9*%
X63925000Y14460000D02*
G75*
G03*
X63925000Y14460000I-950000J0D01*
G01*
%TO.C,RV2*%
X131030000Y34925000D02*
X125960000Y34925000D01*
X131030000Y34925000D02*
X131030000Y25155000D01*
X125960000Y34925000D02*
X125960000Y25155000D01*
X131030000Y25155000D02*
X125960000Y25155000D01*
%TO.C,RV1*%
X111030000Y13425000D02*
X105960000Y13425000D01*
X111030000Y13425000D02*
X111030000Y3655000D01*
X105960000Y13425000D02*
X105960000Y3655000D01*
X111030000Y3655000D02*
X105960000Y3655000D01*
%TO.C,TP14*%
X81940000Y15500000D02*
G75*
G03*
X81940000Y15500000I-950000J0D01*
G01*
%TO.C,R48*%
X103143641Y19620000D02*
X102836359Y19620000D01*
X103143641Y20380000D02*
X102836359Y20380000D01*
%TO.C,TP11*%
X63950000Y27500000D02*
G75*
G03*
X63950000Y27500000I-950000J0D01*
G01*
%TO.C,D2*%
X68810000Y43410000D02*
X68810000Y44600000D01*
X66100000Y44590000D02*
X66100000Y43410000D01*
X65300000Y44600000D02*
X66100000Y44600000D01*
X68810000Y44600000D02*
X69700000Y44600000D01*
X69700000Y44600000D02*
X69700000Y49400000D01*
X65300000Y49400000D02*
X65300000Y44600000D01*
X66100000Y49400000D02*
X65300000Y49400000D01*
X69700000Y49400000D02*
X68810000Y49400000D01*
%TO.C,R58*%
X32643641Y19620000D02*
X32336359Y19620000D01*
X32643641Y20380000D02*
X32336359Y20380000D01*
%TO.C,D23*%
X41190000Y40590000D02*
X41190000Y39400000D01*
X43900000Y39410000D02*
X43900000Y40590000D01*
X44700000Y39400000D02*
X43900000Y39400000D01*
X41190000Y39400000D02*
X40300000Y39400000D01*
X40300000Y39400000D02*
X40300000Y34600000D01*
X44700000Y34600000D02*
X44700000Y39400000D01*
X43900000Y34600000D02*
X44700000Y34600000D01*
X40300000Y34600000D02*
X41190000Y34600000D01*
%TO.C,C15*%
X15119664Y47047500D02*
X15335336Y47047500D01*
X15119664Y46327500D02*
X15335336Y46327500D01*
%TO.C,C14*%
X15099664Y44047500D02*
X15315336Y44047500D01*
X15099664Y43327500D02*
X15315336Y43327500D01*
%TO.C,TP7*%
X59925000Y14460000D02*
G75*
G03*
X59925000Y14460000I-950000J0D01*
G01*
%TO.C,R65*%
X32380000Y25653641D02*
X32380000Y25346359D01*
X31620000Y25653641D02*
X31620000Y25346359D01*
%TO.C,R34*%
X65095000Y24296359D02*
X65095000Y24603641D01*
X65855000Y24296359D02*
X65855000Y24603641D01*
%TO.C,TP21*%
X29450000Y14500000D02*
G75*
G03*
X29450000Y14500000I-950000J0D01*
G01*
%TO.C,C32*%
X90630580Y21990000D02*
X90349420Y21990000D01*
X90630580Y23010000D02*
X90349420Y23010000D01*
%TO.C,R8*%
X8410000Y25646359D02*
X8410000Y25953641D01*
X9170000Y25646359D02*
X9170000Y25953641D01*
%TO.C,C31*%
X86642164Y24860000D02*
X86857836Y24860000D01*
X86642164Y24140000D02*
X86857836Y24140000D01*
%TO.C,R15*%
X132380000Y27703641D02*
X132380000Y27396359D01*
X131620000Y27703641D02*
X131620000Y27396359D01*
%TO.C,R62*%
X35153641Y26120000D02*
X34846359Y26120000D01*
X35153641Y26880000D02*
X34846359Y26880000D01*
%TO.C,TP6*%
X46975000Y15500000D02*
G75*
G03*
X46975000Y15500000I-950000J0D01*
G01*
%TO.C,C34*%
X90630580Y17990000D02*
X90349420Y17990000D01*
X90630580Y19010000D02*
X90349420Y19010000D01*
%TO.C,D5*%
X83810000Y43410000D02*
X83810000Y44600000D01*
X81100000Y44590000D02*
X81100000Y43410000D01*
X80300000Y44600000D02*
X81100000Y44600000D01*
X83810000Y44600000D02*
X84700000Y44600000D01*
X84700000Y44600000D02*
X84700000Y49400000D01*
X80300000Y49400000D02*
X80300000Y44600000D01*
X81100000Y49400000D02*
X80300000Y49400000D01*
X84700000Y49400000D02*
X83810000Y49400000D01*
%TO.C,C40*%
X31859420Y19010000D02*
X32140580Y19010000D01*
X31859420Y17990000D02*
X32140580Y17990000D01*
%TO.C,R4*%
X8086359Y27880000D02*
X8393641Y27880000D01*
X8086359Y27120000D02*
X8393641Y27120000D01*
%TO.C,R11*%
X21120000Y6346359D02*
X21120000Y6653641D01*
X21880000Y6346359D02*
X21880000Y6653641D01*
%TO.C,TP8*%
X76925000Y15500000D02*
G75*
G03*
X76925000Y15500000I-950000J0D01*
G01*
%TO.C,R12*%
X9120000Y6346359D02*
X9120000Y6653641D01*
X9880000Y6346359D02*
X9880000Y6653641D01*
%TO.C,C9*%
X8990000Y35140580D02*
X8990000Y34859420D01*
X7970000Y35140580D02*
X7970000Y34859420D01*
%TO.C,R19*%
X56145000Y24296359D02*
X56145000Y24603641D01*
X56905000Y24296359D02*
X56905000Y24603641D01*
%TO.C,C11*%
X18372164Y17960000D02*
X18587836Y17960000D01*
X18372164Y17240000D02*
X18587836Y17240000D01*
%TO.C,U7*%
X117560000Y9862500D02*
X117560000Y11662500D01*
X117560000Y9862500D02*
X117560000Y9062500D01*
X114440000Y9862500D02*
X114440000Y10662500D01*
X114440000Y9862500D02*
X114440000Y9062500D01*
%TO.C,R61*%
X33380000Y25653641D02*
X33380000Y25346359D01*
X32620000Y25653641D02*
X32620000Y25346359D01*
%TO.C,R35*%
X66855000Y25613641D02*
X66855000Y25306359D01*
X66095000Y25613641D02*
X66095000Y25306359D01*
%TO.C,C23*%
X51642164Y25320000D02*
X51857836Y25320000D01*
X51642164Y24600000D02*
X51857836Y24600000D01*
%TO.C,R50*%
X101110000Y15356359D02*
X101110000Y15663641D01*
X101870000Y15356359D02*
X101870000Y15663641D01*
%TO.C,TP4*%
X46975000Y25500000D02*
G75*
G03*
X46975000Y25500000I-950000J0D01*
G01*
%TO.C,R44*%
X91870000Y16663641D02*
X91870000Y16356359D01*
X91110000Y16663641D02*
X91110000Y16356359D01*
%TO.C,D6*%
X58810000Y43410000D02*
X58810000Y44600000D01*
X56100000Y44590000D02*
X56100000Y43410000D01*
X55300000Y44600000D02*
X56100000Y44600000D01*
X58810000Y44600000D02*
X59700000Y44600000D01*
X59700000Y44600000D02*
X59700000Y49400000D01*
X55300000Y49400000D02*
X55300000Y44600000D01*
X56100000Y49400000D02*
X55300000Y49400000D01*
X59700000Y49400000D02*
X58810000Y49400000D01*
%TO.C,R14*%
X124120000Y30396359D02*
X124120000Y30703641D01*
X124880000Y30396359D02*
X124880000Y30703641D01*
%TO.C,R57*%
X35143641Y14120000D02*
X34836359Y14120000D01*
X35143641Y14880000D02*
X34836359Y14880000D01*
%TO.C,R21*%
X54095000Y15816359D02*
X54095000Y16123641D01*
X54855000Y15816359D02*
X54855000Y16123641D01*
%TO.C,R6*%
X7836359Y19130000D02*
X8143641Y19130000D01*
X7836359Y18370000D02*
X8143641Y18370000D01*
%TO.C,D22*%
X51190000Y40590000D02*
X51190000Y39400000D01*
X53900000Y39410000D02*
X53900000Y40590000D01*
X54700000Y39400000D02*
X53900000Y39400000D01*
X51190000Y39400000D02*
X50300000Y39400000D01*
X50300000Y39400000D02*
X50300000Y34600000D01*
X54700000Y34600000D02*
X54700000Y39400000D01*
X53900000Y34600000D02*
X54700000Y34600000D01*
X50300000Y34600000D02*
X51190000Y34600000D01*
D13*
%TO.C,U2*%
X135500000Y52750000D02*
X135500000Y39750000D01*
X134500000Y38750000D02*
X121500000Y38750000D01*
X121500000Y38750000D02*
X121500000Y52750000D01*
X121500000Y52750000D02*
X135500000Y52750000D01*
D14*
X136000000Y38750000D02*
G75*
G03*
X136000000Y38750000I-500000J0D01*
G01*
D12*
%TO.C,C18*%
X136265000Y10738748D02*
X136265000Y11261252D01*
X137735000Y10738748D02*
X137735000Y11261252D01*
%TO.C,C21*%
X116140580Y12490000D02*
X115859420Y12490000D01*
X116140580Y13510000D02*
X115859420Y13510000D01*
%TO.C,R28*%
X67628641Y19580000D02*
X67321359Y19580000D01*
X67628641Y20340000D02*
X67321359Y20340000D01*
%TO.C,C12*%
X11340000Y35107836D02*
X11340000Y34892164D01*
X10620000Y35107836D02*
X10620000Y34892164D01*
%TO.C,C27*%
X70377836Y16100000D02*
X70162164Y16100000D01*
X70377836Y16820000D02*
X70162164Y16820000D01*
%TO.C,D15*%
X108810000Y43410000D02*
X108810000Y44600000D01*
X106100000Y44590000D02*
X106100000Y43410000D01*
X105300000Y44600000D02*
X106100000Y44600000D01*
X108810000Y44600000D02*
X109700000Y44600000D01*
X109700000Y44600000D02*
X109700000Y49400000D01*
X105300000Y49400000D02*
X105300000Y44600000D01*
X106100000Y49400000D02*
X105300000Y49400000D01*
X109700000Y49400000D02*
X108810000Y49400000D01*
%TO.C,C4*%
X15560000Y31587836D02*
X15560000Y31372164D01*
X14840000Y31587836D02*
X14840000Y31372164D01*
%TO.C,D21*%
X46190000Y40590000D02*
X46190000Y39400000D01*
X48900000Y39410000D02*
X48900000Y40590000D01*
X49700000Y39400000D02*
X48900000Y39400000D01*
X46190000Y39400000D02*
X45300000Y39400000D01*
X45300000Y39400000D02*
X45300000Y34600000D01*
X49700000Y34600000D02*
X49700000Y39400000D01*
X48900000Y34600000D02*
X49700000Y34600000D01*
X45300000Y34600000D02*
X46190000Y34600000D01*
%TO.C,R13*%
X113620000Y16846359D02*
X113620000Y17153641D01*
X114380000Y16846359D02*
X114380000Y17153641D01*
%TO.C,C42*%
X31859420Y23010000D02*
X32140580Y23010000D01*
X31859420Y21990000D02*
X32140580Y21990000D01*
%TO.C,TP17*%
X98950000Y14500000D02*
G75*
G03*
X98950000Y14500000I-950000J0D01*
G01*
%TO.C,C22*%
X116365580Y6490000D02*
X116084420Y6490000D01*
X116365580Y7510000D02*
X116084420Y7510000D01*
%TO.C,R31*%
X67855000Y25613641D02*
X67855000Y25306359D01*
X67095000Y25613641D02*
X67095000Y25306359D01*
%TO.C,R10*%
X29956359Y6880000D02*
X30263641Y6880000D01*
X29956359Y6120000D02*
X30263641Y6120000D01*
%TO.C,R25*%
X55095000Y15816359D02*
X55095000Y16123641D01*
X55855000Y15816359D02*
X55855000Y16123641D01*
%TO.C,D24*%
X36190000Y40590000D02*
X36190000Y39400000D01*
X38900000Y39410000D02*
X38900000Y40590000D01*
X39700000Y39400000D02*
X38900000Y39400000D01*
X36190000Y39400000D02*
X35300000Y39400000D01*
X35300000Y39400000D02*
X35300000Y34600000D01*
X39700000Y34600000D02*
X39700000Y39400000D01*
X38900000Y34600000D02*
X39700000Y34600000D01*
X35300000Y34600000D02*
X36190000Y34600000D01*
%TO.C,C10*%
X20960000Y33607836D02*
X20960000Y33392164D01*
X20240000Y33607836D02*
X20240000Y33392164D01*
%TO.C,R43*%
X88836359Y20380000D02*
X89143641Y20380000D01*
X88836359Y19620000D02*
X89143641Y19620000D01*
%TO.C,U8*%
X61000000Y24935000D02*
X57550000Y24935000D01*
X61000000Y24935000D02*
X62950000Y24935000D01*
X61000000Y16065000D02*
X59050000Y16065000D01*
X61000000Y16065000D02*
X62950000Y16065000D01*
%TO.C,C30*%
X66334420Y22970000D02*
X66615580Y22970000D01*
X66334420Y21950000D02*
X66615580Y21950000D01*
%TO.C,D19*%
X61190000Y40590000D02*
X61190000Y39400000D01*
X63900000Y39410000D02*
X63900000Y40590000D01*
X64700000Y39400000D02*
X63900000Y39400000D01*
X61190000Y39400000D02*
X60300000Y39400000D01*
X60300000Y39400000D02*
X60300000Y34600000D01*
X64700000Y34600000D02*
X64700000Y39400000D01*
X63900000Y34600000D02*
X64700000Y34600000D01*
X60300000Y34600000D02*
X61190000Y34600000D01*
%TO.C,C16*%
X29992164Y7860000D02*
X30207836Y7860000D01*
X29992164Y7140000D02*
X30207836Y7140000D01*
%TO.C,C25*%
X51392164Y16840000D02*
X51607836Y16840000D01*
X51392164Y16120000D02*
X51607836Y16120000D01*
%TO.C,R51*%
X102870000Y25653641D02*
X102870000Y25346359D01*
X102110000Y25653641D02*
X102110000Y25346359D01*
%TO.C,TP16*%
X111940000Y15500000D02*
G75*
G03*
X111940000Y15500000I-950000J0D01*
G01*
%TO.C,C3*%
X20359420Y31010000D02*
X20640580Y31010000D01*
X20359420Y29990000D02*
X20640580Y29990000D01*
%TO.C,U4*%
X14440000Y12862500D02*
X14440000Y11062500D01*
X14440000Y12862500D02*
X14440000Y13662500D01*
X17560000Y12862500D02*
X17560000Y12062500D01*
X17560000Y12862500D02*
X17560000Y13662500D01*
%TO.C,D12*%
X43810000Y43410000D02*
X43810000Y44600000D01*
X41100000Y44590000D02*
X41100000Y43410000D01*
X40300000Y44600000D02*
X41100000Y44600000D01*
X43810000Y44600000D02*
X44700000Y44600000D01*
X44700000Y44600000D02*
X44700000Y49400000D01*
X40300000Y49400000D02*
X40300000Y44600000D01*
X41100000Y49400000D02*
X40300000Y49400000D01*
X44700000Y49400000D02*
X43810000Y49400000D01*
%TO.C,J1*%
X240000Y12260000D02*
X1490000Y12260000D01*
X530000Y12550000D02*
X6500000Y12550000D01*
X6500000Y12550000D02*
X6500000Y25170000D01*
X540000Y12560000D02*
X1290000Y12560000D01*
X1290000Y12560000D02*
X1290000Y14360000D01*
X2790000Y12560000D02*
X2790000Y13310000D01*
X2790000Y13310000D02*
X5740000Y13310000D01*
X5740000Y13310000D02*
X5740000Y18860000D01*
X240000Y13510000D02*
X240000Y12260000D01*
X540000Y14360000D02*
X540000Y12560000D01*
X1290000Y14360000D02*
X540000Y14360000D01*
X540000Y15860000D02*
X1290000Y15860000D01*
X1290000Y15860000D02*
X1290000Y21860000D01*
X540000Y21860000D02*
X540000Y15860000D01*
X1290000Y21860000D02*
X540000Y21860000D01*
X540000Y23360000D02*
X1290000Y23360000D01*
X1290000Y23360000D02*
X1290000Y25160000D01*
X2790000Y24410000D02*
X5740000Y24410000D01*
X5740000Y24410000D02*
X5740000Y18860000D01*
X540000Y25160000D02*
X540000Y23360000D01*
X1290000Y25160000D02*
X540000Y25160000D01*
X2790000Y25160000D02*
X2790000Y24410000D01*
X530000Y25170000D02*
X530000Y12550000D01*
X6500000Y25170000D02*
X530000Y25170000D01*
%TO.C,D3*%
X78810000Y43410000D02*
X78810000Y44600000D01*
X76100000Y44590000D02*
X76100000Y43410000D01*
X75300000Y44600000D02*
X76100000Y44600000D01*
X78810000Y44600000D02*
X79700000Y44600000D01*
X79700000Y44600000D02*
X79700000Y49400000D01*
X75300000Y49400000D02*
X75300000Y44600000D01*
X76100000Y49400000D02*
X75300000Y49400000D01*
X79700000Y49400000D02*
X78810000Y49400000D01*
%TO.C,R2*%
X4596359Y43380000D02*
X4903641Y43380000D01*
X4596359Y42620000D02*
X4903641Y42620000D01*
%TO.C,R39*%
X91110000Y24346359D02*
X91110000Y24653641D01*
X91870000Y24346359D02*
X91870000Y24653641D01*
%TO.C,C2*%
X104510000Y6365580D02*
X104510000Y6084420D01*
X103490000Y6365580D02*
X103490000Y6084420D01*
%TO.C,C28*%
X66559420Y18970000D02*
X66840580Y18970000D01*
X66559420Y17950000D02*
X66840580Y17950000D01*
%TO.C,R60*%
X31610000Y15336359D02*
X31610000Y15643641D01*
X32370000Y15336359D02*
X32370000Y15643641D01*
%TO.C,D16*%
X33810000Y43410000D02*
X33810000Y44600000D01*
X31100000Y44590000D02*
X31100000Y43410000D01*
X30300000Y44600000D02*
X31100000Y44600000D01*
X33810000Y44600000D02*
X34700000Y44600000D01*
X34700000Y44600000D02*
X34700000Y49400000D01*
X30300000Y49400000D02*
X30300000Y44600000D01*
X31100000Y49400000D02*
X30300000Y49400000D01*
X34700000Y49400000D02*
X33810000Y49400000D01*
%TO.C,R59*%
X31380000Y16653641D02*
X31380000Y16346359D01*
X30620000Y16653641D02*
X30620000Y16346359D01*
%TO.C,R36*%
X89870000Y25653641D02*
X89870000Y25346359D01*
X89110000Y25653641D02*
X89110000Y25346359D01*
%TO.C,TP5*%
X59950000Y27500000D02*
G75*
G03*
X59950000Y27500000I-950000J0D01*
G01*
%TO.C,D18*%
X66190000Y40590000D02*
X66190000Y39400000D01*
X68900000Y39410000D02*
X68900000Y40590000D01*
X69700000Y39400000D02*
X68900000Y39400000D01*
X66190000Y39400000D02*
X65300000Y39400000D01*
X65300000Y39400000D02*
X65300000Y34600000D01*
X69700000Y34600000D02*
X69700000Y39400000D01*
X68900000Y34600000D02*
X69700000Y34600000D01*
X65300000Y34600000D02*
X66190000Y34600000D01*
%TO.C,R38*%
X88836359Y21380000D02*
X89143641Y21380000D01*
X88836359Y20620000D02*
X89143641Y20620000D01*
%TD*%
M02*
