%TF.GenerationSoftware,KiCad,Pcbnew,7.0.9*%
%TF.CreationDate,2024-04-08T22:34:53+02:00*%
%TF.ProjectId,ElectronicBLETarget,456c6563-7472-46f6-9e69-63424c455461,rev?*%
%TF.SameCoordinates,PX29f6300PY5a995c0*%
%TF.FileFunction,Copper,L2,Inr*%
%TF.FilePolarity,Positive*%
%FSLAX46Y46*%
G04 Gerber Fmt 4.6, Leading zero omitted, Abs format (unit mm)*
G04 Created by KiCad (PCBNEW 7.0.9) date 2024-04-08 22:34:53*
%MOMM*%
%LPD*%
G01*
G04 APERTURE LIST*
G04 Aperture macros list*
%AMRoundRect*
0 Rectangle with rounded corners*
0 $1 Rounding radius*
0 $2 $3 $4 $5 $6 $7 $8 $9 X,Y pos of 4 corners*
0 Add a 4 corners polygon primitive as box body*
4,1,4,$2,$3,$4,$5,$6,$7,$8,$9,$2,$3,0*
0 Add four circle primitives for the rounded corners*
1,1,$1+$1,$2,$3*
1,1,$1+$1,$4,$5*
1,1,$1+$1,$6,$7*
1,1,$1+$1,$8,$9*
0 Add four rect primitives between the rounded corners*
20,1,$1+$1,$2,$3,$4,$5,0*
20,1,$1+$1,$4,$5,$6,$7,0*
20,1,$1+$1,$6,$7,$8,$9,0*
20,1,$1+$1,$8,$9,$2,$3,0*%
G04 Aperture macros list end*
%TA.AperFunction,ComponentPad*%
%ADD10C,6.400000*%
%TD*%
%TA.AperFunction,ComponentPad*%
%ADD11O,1.000000X2.100000*%
%TD*%
%TA.AperFunction,ComponentPad*%
%ADD12O,1.000000X1.800000*%
%TD*%
%TA.AperFunction,ComponentPad*%
%ADD13RoundRect,0.250000X0.725000X-0.600000X0.725000X0.600000X-0.725000X0.600000X-0.725000X-0.600000X0*%
%TD*%
%TA.AperFunction,ComponentPad*%
%ADD14O,1.950000X1.700000*%
%TD*%
%TA.AperFunction,ComponentPad*%
%ADD15RoundRect,0.250000X-0.750000X0.600000X-0.750000X-0.600000X0.750000X-0.600000X0.750000X0.600000X0*%
%TD*%
%TA.AperFunction,ComponentPad*%
%ADD16O,2.000000X1.700000*%
%TD*%
%TA.AperFunction,ComponentPad*%
%ADD17C,1.440000*%
%TD*%
%TA.AperFunction,ViaPad*%
%ADD18C,0.700000*%
%TD*%
%TA.AperFunction,ViaPad*%
%ADD19C,0.800000*%
%TD*%
G04 APERTURE END LIST*
D10*
%TO.N,GND*%
%TO.C,H2*%
X5000000Y5000000D03*
%TD*%
%TO.N,GND*%
%TO.C,H4*%
X140000000Y5000000D03*
%TD*%
D11*
%TO.N,GND*%
%TO.C,J6*%
X11200000Y6425000D03*
D12*
X11200000Y2245000D03*
D11*
X19840000Y6425000D03*
D12*
X19840000Y2245000D03*
%TD*%
D13*
%TO.N,GND*%
%TO.C,J2*%
X3250000Y31560000D03*
D14*
%TO.N,/I2C_SDAC*%
X3250000Y34060000D03*
%TO.N,/I2C_SCLC*%
X3250000Y36560000D03*
%TO.N,+3V3*%
X3250000Y39060000D03*
%TD*%
D10*
%TO.N,GND*%
%TO.C,H1*%
X5000000Y50000000D03*
%TD*%
D15*
%TO.N,GND*%
%TO.C,J7*%
X140150000Y25110000D03*
D16*
%TO.N,Net-(J7-Pin_2)*%
X140150000Y22610000D03*
%TD*%
D15*
%TO.N,GND*%
%TO.C,J5*%
X140150000Y35270000D03*
D16*
%TO.N,+BATT*%
X140150000Y32770000D03*
%TD*%
D17*
%TO.N,Net-(J7-Pin_2)*%
%TO.C,RV2*%
X128500000Y27500000D03*
%TO.N,Net-(U6-ADJ)*%
X128500000Y30040000D03*
%TO.N,Net-(R14-Pad2)*%
X128500000Y32580000D03*
%TD*%
%TO.N,Net-(R1-Pad2)*%
%TO.C,RV1*%
X108500000Y6000000D03*
%TO.N,/SensorArrayGroup1/TrimPotCenterTap*%
X108500000Y8540000D03*
%TO.N,GND*%
X108500000Y11080000D03*
%TD*%
D10*
%TO.N,GND*%
%TO.C,H3*%
X140000000Y50000000D03*
%TD*%
D13*
%TO.N,GND*%
%TO.C,J1*%
X2990000Y15110000D03*
D14*
%TO.N,/USART1_RXC*%
X2990000Y17610000D03*
%TO.N,/USART1_TXC*%
X2990000Y20110000D03*
%TO.N,+3V3*%
X2990000Y22610000D03*
%TD*%
D18*
%TO.N,GND*%
X87527809Y19676009D03*
X15705352Y48389140D03*
X117750000Y49000000D03*
X117750000Y18000000D03*
X10720000Y40500000D03*
X114750000Y15250000D03*
X17250000Y36000000D03*
X34500000Y13750000D03*
X16497500Y43937500D03*
X17000000Y38000000D03*
X125250000Y7750000D03*
X31750000Y9000000D03*
X53000000Y19500000D03*
X125250000Y38500000D03*
X15000000Y38000000D03*
D19*
X19000000Y18500000D03*
D18*
X18000000Y39000000D03*
X18000000Y35000000D03*
X70000000Y27250000D03*
X70000000Y14000000D03*
X121250000Y42500000D03*
X14000000Y42750000D03*
X16000000Y10500000D03*
X104000000Y4250000D03*
X125000000Y42250000D03*
X11250000Y33500000D03*
X18000000Y37000000D03*
X114400000Y7250000D03*
X21225000Y32000000D03*
X53000000Y21250000D03*
X114200000Y12400000D03*
X120000000Y17000000D03*
X31500000Y7500000D03*
X68907492Y19537177D03*
X137500000Y43550000D03*
X16000000Y35000000D03*
X119750000Y49000000D03*
X65000000Y20500000D03*
X11950000Y52000000D03*
X19500000Y19750000D03*
X17274999Y42250000D03*
X100000000Y20500000D03*
X22295000Y30500000D03*
X17450000Y53000000D03*
X15000000Y36000000D03*
X34250000Y21500000D03*
X17450000Y51000000D03*
X125250000Y11750000D03*
X68987728Y21339386D03*
X22500000Y20500000D03*
X8500000Y33250000D03*
X10000000Y33750000D03*
X15220000Y30210000D03*
X34500000Y27250000D03*
X114200000Y13600000D03*
X52750000Y26500000D03*
X13765989Y48380911D03*
X21500000Y8000000D03*
X52000000Y14000000D03*
X117750000Y15500000D03*
X137000000Y13000000D03*
X87000000Y27000000D03*
X105000000Y27000000D03*
X34330731Y19580731D03*
X104250000Y20000000D03*
X105000000Y14000000D03*
X121500000Y8000000D03*
X87000000Y14000000D03*
X9280000Y43500000D03*
X21400000Y33000000D03*
X16500000Y46750000D03*
X14000000Y37000000D03*
X16000000Y39000000D03*
X17450000Y52000000D03*
X23070000Y38282187D03*
X121250000Y38500000D03*
X114351801Y6101874D03*
X9500000Y8000000D03*
X11950000Y51000000D03*
X14000000Y39000000D03*
X14000000Y35000000D03*
X12000000Y53000000D03*
X87608045Y21323920D03*
X104250000Y21000000D03*
X121500000Y11750000D03*
%TD*%
%TA.AperFunction,Conductor*%
%TO.N,GND*%
G36*
X141352042Y54496575D02*
G01*
X141605804Y54416565D01*
X141608803Y54415473D01*
X141828544Y54324453D01*
X141984602Y54259811D01*
X141987529Y54258446D01*
X142348317Y54070632D01*
X142351107Y54069022D01*
X142383814Y54048185D01*
X142694161Y53850472D01*
X142696802Y53848623D01*
X143019506Y53601004D01*
X143021964Y53598941D01*
X143321864Y53324133D01*
X143324132Y53321865D01*
X143543350Y53082631D01*
X143598935Y53021971D01*
X143601004Y53019505D01*
X143680076Y52916457D01*
X143848619Y52696807D01*
X143850471Y52694162D01*
X144069017Y52351114D01*
X144070631Y52348318D01*
X144258445Y51987530D01*
X144259810Y51984603D01*
X144415467Y51608816D01*
X144416571Y51605781D01*
X144496575Y51352043D01*
X144500000Y51329791D01*
X144500000Y3670211D01*
X144496575Y3647959D01*
X144423065Y3414812D01*
X144416572Y3394220D01*
X144415467Y3391185D01*
X144259810Y3015398D01*
X144258445Y3012471D01*
X144070631Y2651683D01*
X144069017Y2648887D01*
X143850471Y2305839D01*
X143848619Y2303194D01*
X143601011Y1980504D01*
X143598935Y1978030D01*
X143324140Y1678144D01*
X143321856Y1675860D01*
X143021970Y1401065D01*
X143019496Y1398989D01*
X142696806Y1151381D01*
X142694161Y1149529D01*
X142351113Y930983D01*
X142348317Y929369D01*
X141987529Y741555D01*
X141984602Y740190D01*
X141608815Y584533D01*
X141605780Y583429D01*
X141352042Y503425D01*
X141329790Y500000D01*
X3670210Y500000D01*
X3647958Y503425D01*
X3625414Y510533D01*
X3394208Y583432D01*
X3391184Y584533D01*
X3015397Y740190D01*
X3012470Y741555D01*
X2651682Y929369D01*
X2648886Y930983D01*
X2305838Y1149529D01*
X2303193Y1151381D01*
X2176265Y1248776D01*
X1980495Y1398996D01*
X1978029Y1401065D01*
X1963030Y1414809D01*
X1678135Y1675868D01*
X1675867Y1678136D01*
X1401059Y1978036D01*
X1398996Y1980494D01*
X1151377Y2303198D01*
X1149528Y2305839D01*
X1108653Y2370000D01*
X930978Y2648893D01*
X929368Y2651683D01*
X741554Y3012471D01*
X740189Y3015398D01*
X664746Y3197532D01*
X584527Y3391197D01*
X583435Y3394196D01*
X503425Y3647959D01*
X500000Y3670211D01*
X500000Y5000000D01*
X1395060Y5000000D01*
X1414808Y4623178D01*
X1414808Y4623177D01*
X1473836Y4250496D01*
X1571498Y3886013D01*
X1706720Y3533746D01*
X1878029Y3197532D01*
X2083543Y2881068D01*
X2321009Y2587822D01*
X2366027Y2542804D01*
X3783698Y3960476D01*
X3865130Y3865130D01*
X3960475Y3783699D01*
X2542804Y2366027D01*
X2587821Y2321010D01*
X2881067Y2083544D01*
X3197531Y1878030D01*
X3533745Y1706721D01*
X3886012Y1571499D01*
X4250495Y1473837D01*
X4623176Y1414809D01*
X5000000Y1395061D01*
X5376822Y1414809D01*
X5376823Y1414809D01*
X5749504Y1473837D01*
X6113987Y1571499D01*
X6466254Y1706721D01*
X6645090Y1797842D01*
X10300000Y1797842D01*
X10314819Y1656845D01*
X10373279Y1476924D01*
X10467874Y1313080D01*
X10594468Y1172484D01*
X10747514Y1061288D01*
X10747525Y1061282D01*
X10920349Y984336D01*
X10920354Y984335D01*
X11074999Y951465D01*
X11075000Y951465D01*
X11075000Y1568659D01*
X11171840Y1541105D01*
X11283521Y1551454D01*
X11325000Y1572109D01*
X11325000Y951465D01*
X11479646Y984335D01*
X11479648Y984336D01*
X11652477Y1061284D01*
X11652484Y1061288D01*
X11805531Y1172484D01*
X11932125Y1313080D01*
X12026720Y1476924D01*
X12085180Y1656845D01*
X12100000Y1797842D01*
X18940000Y1797842D01*
X18954819Y1656845D01*
X19013279Y1476924D01*
X19107874Y1313080D01*
X19234468Y1172484D01*
X19387514Y1061288D01*
X19387525Y1061282D01*
X19560349Y984336D01*
X19560354Y984335D01*
X19714999Y951465D01*
X19715000Y951465D01*
X19715000Y1568659D01*
X19811840Y1541105D01*
X19923521Y1551454D01*
X19965000Y1572109D01*
X19965000Y951465D01*
X20119646Y984335D01*
X20119648Y984336D01*
X20292477Y1061284D01*
X20292484Y1061288D01*
X20445531Y1172484D01*
X20572125Y1313080D01*
X20666720Y1476924D01*
X20725180Y1656845D01*
X20740000Y1797842D01*
X20740000Y2120000D01*
X20140000Y2120000D01*
X20140000Y2370000D01*
X20740000Y2370000D01*
X20740000Y2692159D01*
X20725180Y2833156D01*
X20666720Y3013077D01*
X20572125Y3176921D01*
X20445531Y3317517D01*
X20292485Y3428713D01*
X20292474Y3428719D01*
X20119652Y3505664D01*
X20119647Y3505666D01*
X19965000Y3538538D01*
X19965000Y2921342D01*
X19868160Y2948895D01*
X19756479Y2938546D01*
X19715000Y2917892D01*
X19715000Y3538537D01*
X19714999Y3538538D01*
X19560352Y3505666D01*
X19560351Y3505665D01*
X19387522Y3428717D01*
X19387515Y3428713D01*
X19234468Y3317517D01*
X19107874Y3176921D01*
X19013279Y3013077D01*
X18954819Y2833156D01*
X18940000Y2692159D01*
X18940000Y2370000D01*
X19540000Y2370000D01*
X19540000Y2120000D01*
X18940000Y2120000D01*
X18940000Y1797842D01*
X12100000Y1797842D01*
X12100000Y2120000D01*
X11500000Y2120000D01*
X11500000Y2370000D01*
X12100000Y2370000D01*
X12100000Y2692159D01*
X12085180Y2833156D01*
X12026720Y3013077D01*
X11932125Y3176921D01*
X11805531Y3317517D01*
X11652485Y3428713D01*
X11652474Y3428719D01*
X11479652Y3505664D01*
X11479647Y3505666D01*
X11325000Y3538538D01*
X11325000Y2921342D01*
X11228160Y2948895D01*
X11116479Y2938546D01*
X11075000Y2917892D01*
X11075000Y3538537D01*
X11074999Y3538538D01*
X10920352Y3505666D01*
X10920351Y3505665D01*
X10747522Y3428717D01*
X10747515Y3428713D01*
X10594468Y3317517D01*
X10467874Y3176921D01*
X10373279Y3013077D01*
X10314819Y2833156D01*
X10300000Y2692159D01*
X10300000Y2370000D01*
X10900000Y2370000D01*
X10900000Y2120000D01*
X10300000Y2120000D01*
X10300000Y1797842D01*
X6645090Y1797842D01*
X6802468Y1878030D01*
X7118932Y2083544D01*
X7412178Y2321010D01*
X7457196Y2366027D01*
X6039524Y3783699D01*
X6134870Y3865130D01*
X6216301Y3960476D01*
X7633973Y2542804D01*
X7678990Y2587822D01*
X7916456Y2881068D01*
X8121970Y3197532D01*
X8293279Y3533746D01*
X8428501Y3886013D01*
X8526163Y4250496D01*
X8585191Y4623177D01*
X8585191Y4623178D01*
X8604939Y5000000D01*
X8585191Y5376823D01*
X8585191Y5376824D01*
X8526163Y5749505D01*
X8505173Y5827842D01*
X10300000Y5827842D01*
X10314819Y5686845D01*
X10373279Y5506924D01*
X10467874Y5343080D01*
X10594468Y5202484D01*
X10747514Y5091288D01*
X10747525Y5091282D01*
X10920349Y5014336D01*
X10920354Y5014335D01*
X11074999Y4981465D01*
X11075000Y4981465D01*
X11075000Y5598659D01*
X11171840Y5571105D01*
X11283521Y5581454D01*
X11325000Y5602109D01*
X11325000Y4981465D01*
X11479646Y5014335D01*
X11479648Y5014336D01*
X11652477Y5091284D01*
X11652484Y5091288D01*
X11805531Y5202484D01*
X11932125Y5343080D01*
X12026720Y5506925D01*
X12038610Y5543517D01*
X12069773Y5583405D01*
X12119286Y5593930D01*
X12163980Y5570166D01*
X12167688Y5565709D01*
X12212417Y5507417D01*
X12334724Y5413567D01*
X12477154Y5354571D01*
X12591627Y5339500D01*
X12591629Y5339500D01*
X12668371Y5339500D01*
X12668373Y5339500D01*
X12782846Y5354571D01*
X12925276Y5413567D01*
X13047583Y5507417D01*
X13141433Y5629724D01*
X13200429Y5772154D01*
X13220552Y5925000D01*
X17819448Y5925000D01*
X17839570Y5772155D01*
X17898566Y5629725D01*
X17898567Y5629724D01*
X17992417Y5507417D01*
X18114724Y5413567D01*
X18257154Y5354571D01*
X18371627Y5339500D01*
X18371629Y5339500D01*
X18448371Y5339500D01*
X18448373Y5339500D01*
X18562846Y5354571D01*
X18705276Y5413567D01*
X18827583Y5507417D01*
X18872304Y5565700D01*
X18914994Y5592896D01*
X18965180Y5586289D01*
X18999378Y5548969D01*
X19001389Y5543518D01*
X19013279Y5506924D01*
X19107874Y5343080D01*
X19234468Y5202484D01*
X19387514Y5091288D01*
X19387525Y5091282D01*
X19560349Y5014336D01*
X19560354Y5014335D01*
X19714999Y4981465D01*
X19715000Y4981465D01*
X19715000Y5598659D01*
X19811840Y5571105D01*
X19923521Y5581454D01*
X19965000Y5602109D01*
X19965000Y4981465D01*
X20119646Y5014335D01*
X20119648Y5014336D01*
X20292477Y5091284D01*
X20292484Y5091288D01*
X20445531Y5202484D01*
X20572125Y5343080D01*
X20666720Y5506924D01*
X20725180Y5686845D01*
X20740000Y5827842D01*
X20740000Y6000000D01*
X107474562Y6000000D01*
X107494266Y5799946D01*
X107502697Y5772154D01*
X107552619Y5607582D01*
X107552620Y5607579D01*
X107552621Y5607578D01*
X107647374Y5430305D01*
X107647384Y5430290D01*
X107724770Y5335996D01*
X107774906Y5274906D01*
X107774911Y5274902D01*
X107774912Y5274901D01*
X107930289Y5147385D01*
X107930292Y5147383D01*
X107930297Y5147379D01*
X108107582Y5052619D01*
X108299947Y4994266D01*
X108500000Y4974562D01*
X108700053Y4994266D01*
X108718956Y5000000D01*
X136395060Y5000000D01*
X136414808Y4623178D01*
X136414808Y4623177D01*
X136473836Y4250496D01*
X136571498Y3886013D01*
X136706720Y3533746D01*
X136878029Y3197532D01*
X137083543Y2881068D01*
X137321009Y2587822D01*
X137366027Y2542804D01*
X138783698Y3960476D01*
X138865130Y3865130D01*
X138960475Y3783699D01*
X137542804Y2366027D01*
X137587821Y2321010D01*
X137881067Y2083544D01*
X138197531Y1878030D01*
X138533745Y1706721D01*
X138886012Y1571499D01*
X139250495Y1473837D01*
X139623176Y1414809D01*
X140000000Y1395061D01*
X140376822Y1414809D01*
X140376823Y1414809D01*
X140749504Y1473837D01*
X141113987Y1571499D01*
X141466254Y1706721D01*
X141802468Y1878030D01*
X142118932Y2083544D01*
X142412178Y2321010D01*
X142457196Y2366027D01*
X141039524Y3783699D01*
X141134870Y3865130D01*
X141216301Y3960476D01*
X142633973Y2542804D01*
X142678990Y2587822D01*
X142916456Y2881068D01*
X143121970Y3197532D01*
X143293279Y3533746D01*
X143428501Y3886013D01*
X143526163Y4250496D01*
X143585191Y4623177D01*
X143585191Y4623178D01*
X143604939Y5000000D01*
X143585191Y5376823D01*
X143585191Y5376824D01*
X143526163Y5749505D01*
X143428501Y6113988D01*
X143293279Y6466255D01*
X143121970Y6802469D01*
X142916456Y7118933D01*
X142678990Y7412179D01*
X142633973Y7457196D01*
X141216301Y6039525D01*
X141134870Y6134870D01*
X141039524Y6216302D01*
X142457196Y7633973D01*
X142412178Y7678991D01*
X142118932Y7916457D01*
X141802468Y8121971D01*
X141466254Y8293280D01*
X141113987Y8428502D01*
X140749504Y8526164D01*
X140376823Y8585192D01*
X140000000Y8604940D01*
X139623177Y8585192D01*
X139623176Y8585192D01*
X139250495Y8526164D01*
X138886012Y8428502D01*
X138533745Y8293280D01*
X138197531Y8121971D01*
X137881067Y7916457D01*
X137587821Y7678991D01*
X137542804Y7633973D01*
X138960475Y6216302D01*
X138865130Y6134870D01*
X138783698Y6039525D01*
X137366027Y7457196D01*
X137321009Y7412179D01*
X137083543Y7118933D01*
X136878029Y6802469D01*
X136706720Y6466255D01*
X136571498Y6113988D01*
X136473836Y5749505D01*
X136414808Y5376824D01*
X136414808Y5376823D01*
X136395060Y5000000D01*
X108718956Y5000000D01*
X108892418Y5052619D01*
X109069703Y5147379D01*
X109225094Y5274906D01*
X109352621Y5430297D01*
X109447381Y5607582D01*
X109490583Y5750000D01*
X111544867Y5750000D01*
X111563302Y5621777D01*
X111563302Y5621776D01*
X111563303Y5621774D01*
X111617118Y5503937D01*
X111701951Y5406033D01*
X111810931Y5335996D01*
X111935228Y5299500D01*
X112064772Y5299500D01*
X112189069Y5335996D01*
X112298049Y5406033D01*
X112382882Y5503937D01*
X112436697Y5621774D01*
X112455133Y5750000D01*
X112436697Y5878226D01*
X112382882Y5996063D01*
X112298049Y6093967D01*
X112231032Y6137036D01*
X112189068Y6164005D01*
X112064772Y6200500D01*
X111935228Y6200500D01*
X111810931Y6164005D01*
X111701954Y6093969D01*
X111701950Y6093966D01*
X111617119Y5996065D01*
X111563302Y5878224D01*
X111544867Y5750000D01*
X109490583Y5750000D01*
X109505734Y5799947D01*
X109525438Y6000000D01*
X109505734Y6200053D01*
X109490583Y6250000D01*
X117794867Y6250000D01*
X117813302Y6121777D01*
X117813302Y6121776D01*
X117813303Y6121774D01*
X117867118Y6003937D01*
X117951951Y5906033D01*
X118060931Y5835996D01*
X118185228Y5799500D01*
X118314772Y5799500D01*
X118439069Y5835996D01*
X118548049Y5906033D01*
X118632882Y6003937D01*
X118686697Y6121774D01*
X118705133Y6250000D01*
X118686697Y6378226D01*
X118632882Y6496063D01*
X118548049Y6593967D01*
X118451474Y6656032D01*
X118439068Y6664005D01*
X118314772Y6700500D01*
X118185228Y6700500D01*
X118060931Y6664005D01*
X117951954Y6593969D01*
X117951950Y6593966D01*
X117867119Y6496065D01*
X117867118Y6496064D01*
X117867118Y6496063D01*
X117853505Y6466255D01*
X117813302Y6378224D01*
X117794867Y6250000D01*
X109490583Y6250000D01*
X109447381Y6392418D01*
X109363420Y6549500D01*
X109352625Y6569696D01*
X109352623Y6569698D01*
X109352621Y6569703D01*
X109352617Y6569708D01*
X109352615Y6569711D01*
X109225099Y6725088D01*
X109225098Y6725089D01*
X109225094Y6725094D01*
X109225087Y6725100D01*
X109069710Y6852616D01*
X109069705Y6852620D01*
X109069703Y6852621D01*
X109069700Y6852623D01*
X109069695Y6852626D01*
X108892422Y6947379D01*
X108892421Y6947380D01*
X108892418Y6947381D01*
X108709719Y7002802D01*
X108700054Y7005734D01*
X108500000Y7025438D01*
X108299945Y7005734D01*
X108192870Y6973253D01*
X108107582Y6947381D01*
X108107579Y6947380D01*
X108107577Y6947379D01*
X107930304Y6852626D01*
X107930289Y6852616D01*
X107774912Y6725100D01*
X107774900Y6725088D01*
X107647384Y6569711D01*
X107647374Y6569696D01*
X107552621Y6392423D01*
X107552620Y6392421D01*
X107552619Y6392418D01*
X107531205Y6321825D01*
X107494266Y6200055D01*
X107474562Y6000000D01*
X20740000Y6000000D01*
X20740000Y6300000D01*
X20140000Y6300000D01*
X20140000Y6550000D01*
X20740000Y6550000D01*
X20740000Y7000000D01*
X42294867Y7000000D01*
X42313302Y6871777D01*
X42313302Y6871776D01*
X42313303Y6871774D01*
X42367118Y6753937D01*
X42451951Y6656033D01*
X42560931Y6585996D01*
X42685228Y6549500D01*
X42814772Y6549500D01*
X42939069Y6585996D01*
X43048049Y6656033D01*
X43132882Y6753937D01*
X43186697Y6871774D01*
X43205133Y7000000D01*
X43186697Y7128226D01*
X43132882Y7246063D01*
X43048049Y7343967D01*
X42951474Y7406032D01*
X42939068Y7414005D01*
X42814772Y7450500D01*
X42685228Y7450500D01*
X42560931Y7414005D01*
X42451954Y7343969D01*
X42451950Y7343966D01*
X42367119Y7246065D01*
X42313302Y7128224D01*
X42294867Y7000000D01*
X20740000Y7000000D01*
X20740000Y7022159D01*
X20725180Y7163156D01*
X20666720Y7343077D01*
X20572125Y7506921D01*
X20445531Y7647517D01*
X20292485Y7758713D01*
X20292474Y7758719D01*
X20119652Y7835664D01*
X20119647Y7835666D01*
X19965000Y7868538D01*
X19965000Y7251342D01*
X19868160Y7278895D01*
X19756479Y7268546D01*
X19715000Y7247892D01*
X19715000Y7868537D01*
X19714999Y7868538D01*
X19560352Y7835666D01*
X19560351Y7835665D01*
X19387522Y7758717D01*
X19387515Y7758713D01*
X19234468Y7647517D01*
X19107874Y7506921D01*
X19013279Y7343077D01*
X18954819Y7163156D01*
X18940000Y7022159D01*
X18940000Y6550000D01*
X19540000Y6550000D01*
X19540000Y6300000D01*
X18923349Y6300000D01*
X18908663Y6293153D01*
X18859770Y6306258D01*
X18843514Y6321821D01*
X18827583Y6342583D01*
X18705276Y6436433D01*
X18705275Y6436434D01*
X18562845Y6495430D01*
X18475006Y6506994D01*
X18448373Y6510500D01*
X18371627Y6510500D01*
X18347769Y6507359D01*
X18257154Y6495430D01*
X18114724Y6436434D01*
X17992417Y6342583D01*
X17898566Y6220276D01*
X17839570Y6077846D01*
X17819448Y5925000D01*
X13220552Y5925000D01*
X13200429Y6077846D01*
X13141433Y6220276D01*
X13047583Y6342583D01*
X12925276Y6436433D01*
X12925275Y6436434D01*
X12782845Y6495430D01*
X12695006Y6506994D01*
X12668373Y6510500D01*
X12591627Y6510500D01*
X12567769Y6507359D01*
X12477154Y6495430D01*
X12334724Y6436434D01*
X12212417Y6342583D01*
X12196486Y6321823D01*
X12153796Y6294626D01*
X12112982Y6300000D01*
X11500000Y6300000D01*
X11500000Y6550000D01*
X12100000Y6550000D01*
X12100000Y7022159D01*
X12085180Y7163156D01*
X12026720Y7343077D01*
X11932125Y7506921D01*
X11805531Y7647517D01*
X11652485Y7758713D01*
X11652474Y7758719D01*
X11479652Y7835664D01*
X11479647Y7835666D01*
X11325000Y7868538D01*
X11325000Y7251342D01*
X11228160Y7278895D01*
X11116479Y7268546D01*
X11075000Y7247892D01*
X11075000Y7868537D01*
X11074999Y7868538D01*
X10920352Y7835666D01*
X10920351Y7835665D01*
X10747522Y7758717D01*
X10747515Y7758713D01*
X10594468Y7647517D01*
X10467874Y7506921D01*
X10373279Y7343077D01*
X10314819Y7163156D01*
X10300000Y7022159D01*
X10300000Y6550000D01*
X10900000Y6550000D01*
X10900000Y6300000D01*
X10300000Y6300000D01*
X10300000Y5827842D01*
X8505173Y5827842D01*
X8428501Y6113988D01*
X8293279Y6466255D01*
X8121970Y6802469D01*
X7916456Y7118933D01*
X7678990Y7412179D01*
X7633973Y7457196D01*
X6216301Y6039525D01*
X6134870Y6134870D01*
X6039524Y6216302D01*
X7457196Y7633973D01*
X7412178Y7678991D01*
X7118932Y7916457D01*
X6802468Y8121971D01*
X6551196Y8250000D01*
X67044867Y8250000D01*
X67063302Y8121777D01*
X67063302Y8121776D01*
X67063303Y8121774D01*
X67117118Y8003937D01*
X67201951Y7906033D01*
X67310931Y7835996D01*
X67435228Y7799500D01*
X67564772Y7799500D01*
X67689069Y7835996D01*
X67798049Y7906033D01*
X67882882Y8003937D01*
X67936697Y8121774D01*
X67955133Y8250000D01*
X100794867Y8250000D01*
X100813302Y8121777D01*
X100813302Y8121776D01*
X100813303Y8121774D01*
X100867118Y8003937D01*
X100951951Y7906033D01*
X101060931Y7835996D01*
X101185228Y7799500D01*
X101314772Y7799500D01*
X101439069Y7835996D01*
X101548049Y7906033D01*
X101632882Y8003937D01*
X101686697Y8121774D01*
X101705133Y8250000D01*
X101686697Y8378226D01*
X101632882Y8496063D01*
X101594811Y8540000D01*
X107474562Y8540000D01*
X107494266Y8339947D01*
X107552619Y8147582D01*
X107552620Y8147579D01*
X107552621Y8147578D01*
X107647374Y7970305D01*
X107647384Y7970290D01*
X107757869Y7835665D01*
X107774906Y7814906D01*
X107774911Y7814902D01*
X107774912Y7814901D01*
X107930289Y7687385D01*
X107930292Y7687383D01*
X107930297Y7687379D01*
X108107582Y7592619D01*
X108299947Y7534266D01*
X108500000Y7514562D01*
X108700053Y7534266D01*
X108892418Y7592619D01*
X109069703Y7687379D01*
X109146006Y7750000D01*
X117794867Y7750000D01*
X117813302Y7621777D01*
X117813302Y7621776D01*
X117813303Y7621774D01*
X117867118Y7503937D01*
X117951951Y7406033D01*
X118060931Y7335996D01*
X118185228Y7299500D01*
X118314772Y7299500D01*
X118439069Y7335996D01*
X118548049Y7406033D01*
X118632882Y7503937D01*
X118686697Y7621774D01*
X118705133Y7750000D01*
X118686697Y7878226D01*
X118632882Y7996063D01*
X118548049Y8093967D01*
X118481032Y8137036D01*
X118439068Y8164005D01*
X118314772Y8200500D01*
X118185228Y8200500D01*
X118060931Y8164005D01*
X117951954Y8093969D01*
X117951950Y8093966D01*
X117867119Y7996065D01*
X117813302Y7878224D01*
X117794867Y7750000D01*
X109146006Y7750000D01*
X109225094Y7814906D01*
X109352621Y7970297D01*
X109447381Y8147582D01*
X109505734Y8339947D01*
X109525438Y8540000D01*
X109505734Y8740053D01*
X109447381Y8932418D01*
X109352621Y9109703D01*
X109352617Y9109708D01*
X109352615Y9109711D01*
X109225099Y9265088D01*
X109225098Y9265089D01*
X109225094Y9265094D01*
X109225087Y9265100D01*
X109069710Y9392616D01*
X109069705Y9392620D01*
X109069703Y9392621D01*
X109069700Y9392623D01*
X109069695Y9392626D01*
X108892422Y9487379D01*
X108892421Y9487380D01*
X108892418Y9487381D01*
X108753591Y9529494D01*
X108700054Y9545734D01*
X108500000Y9565438D01*
X108299945Y9545734D01*
X108192870Y9513253D01*
X108107582Y9487381D01*
X108107579Y9487380D01*
X108107577Y9487379D01*
X107930304Y9392626D01*
X107930289Y9392616D01*
X107774912Y9265100D01*
X107774900Y9265088D01*
X107647384Y9109711D01*
X107647374Y9109696D01*
X107552621Y8932423D01*
X107494266Y8740055D01*
X107494266Y8740053D01*
X107474562Y8540000D01*
X101594811Y8540000D01*
X101548049Y8593967D01*
X101481032Y8637036D01*
X101439068Y8664005D01*
X101314772Y8700500D01*
X101185228Y8700500D01*
X101060931Y8664005D01*
X100951954Y8593969D01*
X100951950Y8593966D01*
X100867119Y8496065D01*
X100813302Y8378224D01*
X100794867Y8250000D01*
X67955133Y8250000D01*
X67936697Y8378226D01*
X67882882Y8496063D01*
X67798049Y8593967D01*
X67731032Y8637036D01*
X67689068Y8664005D01*
X67564772Y8700500D01*
X67435228Y8700500D01*
X67310931Y8664005D01*
X67201954Y8593969D01*
X67201950Y8593966D01*
X67117119Y8496065D01*
X67063302Y8378224D01*
X67044867Y8250000D01*
X6551196Y8250000D01*
X6466254Y8293280D01*
X6113987Y8428502D01*
X5749504Y8526164D01*
X5376823Y8585192D01*
X5000000Y8604940D01*
X4623177Y8585192D01*
X4623176Y8585192D01*
X4250495Y8526164D01*
X3886012Y8428502D01*
X3533745Y8293280D01*
X3197531Y8121971D01*
X2881067Y7916457D01*
X2587821Y7678991D01*
X2542804Y7633973D01*
X3960475Y6216302D01*
X3865130Y6134870D01*
X3783698Y6039525D01*
X2366027Y7457196D01*
X2321009Y7412179D01*
X2083543Y7118933D01*
X1878029Y6802469D01*
X1706720Y6466255D01*
X1571498Y6113988D01*
X1473836Y5749505D01*
X1414808Y5376824D01*
X1414808Y5376823D01*
X1395060Y5000000D01*
X500000Y5000000D01*
X500000Y9750000D01*
X29044867Y9750000D01*
X29063302Y9621777D01*
X29063302Y9621776D01*
X29063303Y9621774D01*
X29117118Y9503937D01*
X29201951Y9406033D01*
X29310931Y9335996D01*
X29435228Y9299500D01*
X29564772Y9299500D01*
X29689069Y9335996D01*
X29798049Y9406033D01*
X29882882Y9503937D01*
X29936697Y9621774D01*
X29955133Y9750000D01*
X29936697Y9878226D01*
X29882882Y9996063D01*
X29798049Y10093967D01*
X29731032Y10137036D01*
X29689068Y10164005D01*
X29564772Y10200500D01*
X29435228Y10200500D01*
X29310931Y10164005D01*
X29201954Y10093969D01*
X29201950Y10093966D01*
X29117119Y9996065D01*
X29063302Y9878224D01*
X29044867Y9750000D01*
X500000Y9750000D01*
X500000Y10250000D01*
X32544867Y10250000D01*
X32563302Y10121777D01*
X32563302Y10121776D01*
X32563303Y10121774D01*
X32617118Y10003937D01*
X32701951Y9906033D01*
X32810931Y9835996D01*
X32935228Y9799500D01*
X33064772Y9799500D01*
X33189069Y9835996D01*
X33298049Y9906033D01*
X33382882Y10003937D01*
X33436697Y10121774D01*
X33455133Y10250000D01*
X33436697Y10378226D01*
X33382882Y10496063D01*
X33298049Y10593967D01*
X33231032Y10637036D01*
X33189068Y10664005D01*
X33064772Y10700500D01*
X32935228Y10700500D01*
X32810931Y10664005D01*
X32701954Y10593969D01*
X32701950Y10593966D01*
X32617119Y10496065D01*
X32563302Y10378224D01*
X32544867Y10250000D01*
X500000Y10250000D01*
X500000Y11079997D01*
X107375202Y11079997D01*
X107394352Y10873325D01*
X107451155Y10673682D01*
X107451157Y10673677D01*
X107543677Y10487869D01*
X107543679Y10487866D01*
X107624312Y10381091D01*
X108142931Y10899710D01*
X108172359Y10841955D01*
X108261955Y10752359D01*
X108319708Y10722933D01*
X107799669Y10202894D01*
X107822157Y10182393D01*
X107998629Y10073126D01*
X107998639Y10073121D01*
X108192180Y9998142D01*
X108396213Y9960001D01*
X108396219Y9960000D01*
X108603781Y9960000D01*
X108603786Y9960001D01*
X108807819Y9998142D01*
X109001360Y10073121D01*
X109001370Y10073126D01*
X109177838Y10182390D01*
X109177845Y10182395D01*
X109200330Y10202894D01*
X108680291Y10722933D01*
X108738045Y10752359D01*
X108827641Y10841955D01*
X108857067Y10899709D01*
X109375686Y10381090D01*
X109456320Y10487867D01*
X109456322Y10487869D01*
X109548842Y10673677D01*
X109548844Y10673682D01*
X109605647Y10873325D01*
X109624798Y11079997D01*
X109624798Y11080004D01*
X109605647Y11286676D01*
X109548844Y11486319D01*
X109548842Y11486324D01*
X109456322Y11672132D01*
X109456320Y11672135D01*
X109375685Y11778912D01*
X108857067Y11260293D01*
X108827641Y11318045D01*
X108738045Y11407641D01*
X108680290Y11437069D01*
X109200329Y11957108D01*
X109177842Y11977608D01*
X109001370Y12086875D01*
X109001360Y12086880D01*
X108807819Y12161859D01*
X108603786Y12200000D01*
X108396213Y12200000D01*
X108192180Y12161859D01*
X107998639Y12086880D01*
X107998629Y12086875D01*
X107822157Y11977608D01*
X107822156Y11977608D01*
X107799668Y11957108D01*
X108319708Y11437068D01*
X108261955Y11407641D01*
X108172359Y11318045D01*
X108142932Y11260292D01*
X107624313Y11778911D01*
X107543677Y11672130D01*
X107543676Y11672129D01*
X107451157Y11486324D01*
X107451155Y11486319D01*
X107394352Y11286676D01*
X107375202Y11080004D01*
X107375202Y11079997D01*
X500000Y11079997D01*
X500000Y13250000D01*
X89044867Y13250000D01*
X89063302Y13121777D01*
X89063302Y13121776D01*
X89063303Y13121774D01*
X89117118Y13003937D01*
X89201951Y12906033D01*
X89310931Y12835996D01*
X89435228Y12799500D01*
X89564772Y12799500D01*
X89689069Y12835996D01*
X89798049Y12906033D01*
X89879471Y13000000D01*
X90794867Y13000000D01*
X90813302Y12871777D01*
X90813302Y12871776D01*
X90813303Y12871774D01*
X90867118Y12753937D01*
X90951951Y12656033D01*
X91060931Y12585996D01*
X91185228Y12549500D01*
X91314772Y12549500D01*
X91439069Y12585996D01*
X91548049Y12656033D01*
X91632882Y12753937D01*
X91686697Y12871774D01*
X91705133Y13000000D01*
X91686697Y13128226D01*
X91632882Y13246063D01*
X91629471Y13250000D01*
X100294867Y13250000D01*
X100313302Y13121777D01*
X100313302Y13121776D01*
X100313303Y13121774D01*
X100367118Y13003937D01*
X100451951Y12906033D01*
X100560931Y12835996D01*
X100685228Y12799500D01*
X100814772Y12799500D01*
X100939069Y12835996D01*
X101048049Y12906033D01*
X101132882Y13003937D01*
X101186697Y13121774D01*
X101205133Y13250000D01*
X102044867Y13250000D01*
X102063302Y13121777D01*
X102063302Y13121776D01*
X102063303Y13121774D01*
X102117118Y13003937D01*
X102201951Y12906033D01*
X102310931Y12835996D01*
X102435228Y12799500D01*
X102564772Y12799500D01*
X102689069Y12835996D01*
X102798049Y12906033D01*
X102882882Y13003937D01*
X102936697Y13121774D01*
X102955133Y13250000D01*
X102936697Y13378226D01*
X102882882Y13496063D01*
X102798049Y13593967D01*
X102701474Y13656032D01*
X102689068Y13664005D01*
X102564772Y13700500D01*
X102435228Y13700500D01*
X102310931Y13664005D01*
X102201954Y13593969D01*
X102201950Y13593966D01*
X102117119Y13496065D01*
X102063302Y13378224D01*
X102044867Y13250000D01*
X101205133Y13250000D01*
X101186697Y13378226D01*
X101132882Y13496063D01*
X101048049Y13593967D01*
X100951474Y13656032D01*
X100939068Y13664005D01*
X100814772Y13700500D01*
X100685228Y13700500D01*
X100560931Y13664005D01*
X100451954Y13593969D01*
X100451950Y13593966D01*
X100367119Y13496065D01*
X100313302Y13378224D01*
X100294867Y13250000D01*
X91629471Y13250000D01*
X91548049Y13343967D01*
X91451474Y13406032D01*
X91439068Y13414005D01*
X91314772Y13450500D01*
X91185228Y13450500D01*
X91060931Y13414005D01*
X90951954Y13343969D01*
X90951950Y13343966D01*
X90867119Y13246065D01*
X90813302Y13128224D01*
X90794867Y13000000D01*
X89879471Y13000000D01*
X89882882Y13003937D01*
X89936697Y13121774D01*
X89955133Y13250000D01*
X89936697Y13378226D01*
X89882882Y13496063D01*
X89798049Y13593967D01*
X89701474Y13656032D01*
X89689068Y13664005D01*
X89564772Y13700500D01*
X89435228Y13700500D01*
X89310931Y13664005D01*
X89201954Y13593969D01*
X89201950Y13593966D01*
X89117119Y13496065D01*
X89063302Y13378224D01*
X89044867Y13250000D01*
X500000Y13250000D01*
X500000Y13750000D01*
X32544867Y13750000D01*
X32563302Y13621777D01*
X32563302Y13621776D01*
X32563303Y13621774D01*
X32617118Y13503937D01*
X32701951Y13406033D01*
X32810931Y13335996D01*
X32935228Y13299500D01*
X33064772Y13299500D01*
X33189069Y13335996D01*
X33298049Y13406033D01*
X33382882Y13503937D01*
X33436697Y13621774D01*
X33455133Y13750000D01*
X33436697Y13878226D01*
X33382882Y13996063D01*
X33379471Y14000000D01*
X54044867Y14000000D01*
X54063302Y13871777D01*
X54063302Y13871776D01*
X54063303Y13871774D01*
X54117118Y13753937D01*
X54201951Y13656033D01*
X54310931Y13585996D01*
X54435228Y13549500D01*
X54564772Y13549500D01*
X54689069Y13585996D01*
X54798049Y13656033D01*
X54879471Y13750000D01*
X56544867Y13750000D01*
X56563302Y13621777D01*
X56563302Y13621776D01*
X56563303Y13621774D01*
X56617118Y13503937D01*
X56701951Y13406033D01*
X56810931Y13335996D01*
X56935228Y13299500D01*
X57064772Y13299500D01*
X57189069Y13335996D01*
X57298049Y13406033D01*
X57382882Y13503937D01*
X57436697Y13621774D01*
X57455133Y13750000D01*
X57436697Y13878226D01*
X57382882Y13996063D01*
X57379471Y14000000D01*
X65044867Y14000000D01*
X65063302Y13871777D01*
X65063302Y13871776D01*
X65063303Y13871774D01*
X65117118Y13753937D01*
X65201951Y13656033D01*
X65310931Y13585996D01*
X65435228Y13549500D01*
X65564772Y13549500D01*
X65689069Y13585996D01*
X65798049Y13656033D01*
X65882882Y13753937D01*
X65936697Y13871774D01*
X65955133Y14000000D01*
X67044867Y14000000D01*
X67063302Y13871777D01*
X67063302Y13871776D01*
X67063303Y13871774D01*
X67117118Y13753937D01*
X67201951Y13656033D01*
X67310931Y13585996D01*
X67435228Y13549500D01*
X67564772Y13549500D01*
X67689069Y13585996D01*
X67798049Y13656033D01*
X67882882Y13753937D01*
X67936697Y13871774D01*
X67955133Y14000000D01*
X67936697Y14128226D01*
X67882882Y14246063D01*
X67798049Y14343967D01*
X67699179Y14407507D01*
X67689068Y14414005D01*
X67564772Y14450500D01*
X67435228Y14450500D01*
X67310931Y14414005D01*
X67201954Y14343969D01*
X67201950Y14343966D01*
X67117119Y14246065D01*
X67063302Y14128224D01*
X67044867Y14000000D01*
X65955133Y14000000D01*
X65936697Y14128226D01*
X65882882Y14246063D01*
X65798049Y14343967D01*
X65699179Y14407507D01*
X65689068Y14414005D01*
X65564772Y14450500D01*
X65435228Y14450500D01*
X65310931Y14414005D01*
X65201954Y14343969D01*
X65201950Y14343966D01*
X65117119Y14246065D01*
X65063302Y14128224D01*
X65044867Y14000000D01*
X57379471Y14000000D01*
X57298049Y14093967D01*
X57231032Y14137036D01*
X57189068Y14164005D01*
X57064772Y14200500D01*
X56935228Y14200500D01*
X56810931Y14164005D01*
X56701954Y14093969D01*
X56701950Y14093966D01*
X56617119Y13996065D01*
X56563302Y13878224D01*
X56544867Y13750000D01*
X54879471Y13750000D01*
X54882882Y13753937D01*
X54936697Y13871774D01*
X54955133Y14000000D01*
X54936697Y14128226D01*
X54882882Y14246063D01*
X54798049Y14343967D01*
X54699179Y14407507D01*
X54689068Y14414005D01*
X54564772Y14450500D01*
X54435228Y14450500D01*
X54310931Y14414005D01*
X54201954Y14343969D01*
X54201950Y14343966D01*
X54117119Y14246065D01*
X54063302Y14128224D01*
X54044867Y14000000D01*
X33379471Y14000000D01*
X33298049Y14093967D01*
X33231032Y14137036D01*
X33189068Y14164005D01*
X33064772Y14200500D01*
X32935228Y14200500D01*
X32810931Y14164005D01*
X32701954Y14093969D01*
X32701950Y14093966D01*
X32617119Y13996065D01*
X32563302Y13878224D01*
X32544867Y13750000D01*
X500000Y13750000D01*
X500000Y14444357D01*
X1615000Y14444357D01*
X1617900Y14407507D01*
X1663718Y14249801D01*
X1747317Y14108444D01*
X1863443Y13992318D01*
X2004800Y13908719D01*
X2162508Y13862901D01*
X2162505Y13862901D01*
X2199357Y13860000D01*
X2865000Y13860000D01*
X2865000Y14648088D01*
X2956025Y14635000D01*
X3023975Y14635000D01*
X3115000Y14648088D01*
X3115000Y13860000D01*
X3780643Y13860000D01*
X3817493Y13862901D01*
X3975199Y13908719D01*
X4116556Y13992318D01*
X4232682Y14108444D01*
X4316281Y14249801D01*
X4362099Y14407507D01*
X4365000Y14444357D01*
X4365000Y14985000D01*
X3448350Y14985000D01*
X3465000Y15041705D01*
X3465000Y15178295D01*
X3448350Y15235000D01*
X4365000Y15235000D01*
X4365000Y15775643D01*
X4362099Y15812494D01*
X4316281Y15970200D01*
X4232682Y16111557D01*
X4116556Y16227683D01*
X3975199Y16311282D01*
X3817491Y16357100D01*
X3817494Y16357100D01*
X3780643Y16360000D01*
X3456271Y16360000D01*
X3408705Y16377313D01*
X3383395Y16421150D01*
X3392185Y16471000D01*
X3430962Y16503537D01*
X3436020Y16505175D01*
X3456301Y16510946D01*
X3532389Y16532595D01*
X3723255Y16627634D01*
X3893407Y16756128D01*
X4037052Y16913698D01*
X4149298Y17094981D01*
X4226321Y17293802D01*
X4265500Y17503390D01*
X4265500Y17716610D01*
X4226321Y17926198D01*
X4149298Y18125019D01*
X4037052Y18306302D01*
X3893407Y18463872D01*
X3723255Y18592366D01*
X3723252Y18592368D01*
X3532393Y18687404D01*
X3532383Y18687407D01*
X3327309Y18745757D01*
X3327303Y18745758D01*
X3168200Y18760500D01*
X3168194Y18760500D01*
X2811806Y18760500D01*
X2811799Y18760500D01*
X2652696Y18745758D01*
X2652690Y18745757D01*
X2447616Y18687407D01*
X2447606Y18687404D01*
X2256747Y18592368D01*
X2256741Y18592364D01*
X2086590Y18463870D01*
X1942946Y18306300D01*
X1830705Y18125024D01*
X1830700Y18125014D01*
X1753680Y17926202D01*
X1714500Y17716614D01*
X1714500Y17503387D01*
X1736472Y17385850D01*
X1753679Y17293802D01*
X1830702Y17094981D01*
X1942948Y16913698D01*
X2086593Y16756128D01*
X2252079Y16631157D01*
X2256741Y16627637D01*
X2256747Y16627633D01*
X2447606Y16532597D01*
X2447608Y16532597D01*
X2447611Y16532595D01*
X2514255Y16513633D01*
X2543980Y16505175D01*
X2584993Y16475506D01*
X2597339Y16426416D01*
X2575243Y16380874D01*
X2529042Y16360191D01*
X2523729Y16360000D01*
X2199357Y16360000D01*
X2162506Y16357100D01*
X2004800Y16311282D01*
X1863443Y16227683D01*
X1747317Y16111557D01*
X1663718Y15970200D01*
X1617900Y15812494D01*
X1615000Y15775643D01*
X1615000Y15235000D01*
X2531650Y15235000D01*
X2515000Y15178295D01*
X2515000Y15041705D01*
X2531650Y14985000D01*
X1615000Y14985000D01*
X1615000Y14444357D01*
X500000Y14444357D01*
X500000Y20003387D01*
X1714500Y20003387D01*
X1736472Y19885850D01*
X1753679Y19793802D01*
X1830702Y19594981D01*
X1942948Y19413698D01*
X2086593Y19256128D01*
X2252079Y19131157D01*
X2256741Y19127637D01*
X2256747Y19127633D01*
X2447606Y19032597D01*
X2447608Y19032597D01*
X2447611Y19032595D01*
X2652690Y18974244D01*
X2652696Y18974243D01*
X2741515Y18966014D01*
X2811806Y18959500D01*
X2811808Y18959500D01*
X3168192Y18959500D01*
X3168194Y18959500D01*
X3257019Y18967731D01*
X3327303Y18974243D01*
X3327307Y18974244D01*
X3327310Y18974244D01*
X3532389Y19032595D01*
X3723255Y19127634D01*
X3893407Y19256128D01*
X4037052Y19413698D01*
X4149298Y19594981D01*
X4226321Y19793802D01*
X4264866Y20000000D01*
X9544867Y20000000D01*
X9563302Y19871777D01*
X9563302Y19871776D01*
X9563303Y19871774D01*
X9617118Y19753937D01*
X9701951Y19656033D01*
X9810931Y19585996D01*
X9935228Y19549500D01*
X10064772Y19549500D01*
X10189069Y19585996D01*
X10298049Y19656033D01*
X10382882Y19753937D01*
X10436697Y19871774D01*
X10437882Y19880019D01*
X12532050Y19880019D01*
X12546438Y19793799D01*
X12569427Y19656032D01*
X12571547Y19643331D01*
X12588146Y19594981D01*
X12649462Y19416371D01*
X12650907Y19413701D01*
X12763671Y19205332D01*
X12911058Y19015969D01*
X13087603Y18853448D01*
X13188046Y18787825D01*
X13288491Y18722201D01*
X13508231Y18625814D01*
X13508236Y18625813D01*
X13508240Y18625811D01*
X13740859Y18566904D01*
X13875490Y18555749D01*
X13920114Y18552050D01*
X13920118Y18552050D01*
X14039886Y18552050D01*
X14081895Y18555532D01*
X14219141Y18566904D01*
X14451760Y18625811D01*
X14451765Y18625814D01*
X14451768Y18625814D01*
X14671508Y18722201D01*
X14671510Y18722202D01*
X14872397Y18853448D01*
X15048942Y19015969D01*
X15196329Y19205332D01*
X15310538Y19416372D01*
X15388453Y19643331D01*
X15427950Y19880019D01*
X15707050Y19880019D01*
X15721438Y19793799D01*
X15744427Y19656032D01*
X15746547Y19643331D01*
X15763146Y19594981D01*
X15824462Y19416371D01*
X15825907Y19413701D01*
X15938671Y19205332D01*
X16086058Y19015969D01*
X16262603Y18853448D01*
X16363046Y18787825D01*
X16463491Y18722201D01*
X16683231Y18625814D01*
X16683236Y18625813D01*
X16683240Y18625811D01*
X16915859Y18566904D01*
X17050490Y18555749D01*
X17095114Y18552050D01*
X17095118Y18552050D01*
X17214886Y18552050D01*
X17256895Y18555532D01*
X17394141Y18566904D01*
X17626760Y18625811D01*
X17626765Y18625814D01*
X17626768Y18625814D01*
X17846508Y18722201D01*
X17846510Y18722202D01*
X18047397Y18853448D01*
X18223942Y19015969D01*
X18371329Y19205332D01*
X18485538Y19416372D01*
X18563453Y19643331D01*
X18602950Y19880019D01*
X18602950Y20119981D01*
X18563453Y20356669D01*
X18514247Y20500000D01*
X30144867Y20500000D01*
X30163302Y20371777D01*
X30163302Y20371776D01*
X30163303Y20371774D01*
X30217118Y20253937D01*
X30301951Y20156033D01*
X30410931Y20085996D01*
X30535228Y20049500D01*
X30664772Y20049500D01*
X30789069Y20085996D01*
X30898049Y20156033D01*
X30982882Y20253937D01*
X31036697Y20371774D01*
X31055133Y20500000D01*
X56344867Y20500000D01*
X56363302Y20371777D01*
X56363302Y20371776D01*
X56363303Y20371774D01*
X56417118Y20253937D01*
X56501951Y20156033D01*
X56610931Y20085996D01*
X56735228Y20049500D01*
X56864772Y20049500D01*
X56989069Y20085996D01*
X57098049Y20156033D01*
X57182882Y20253937D01*
X57236697Y20371774D01*
X57255133Y20500000D01*
X91344867Y20500000D01*
X91363302Y20371777D01*
X91363302Y20371776D01*
X91363303Y20371774D01*
X91417118Y20253937D01*
X91501951Y20156033D01*
X91610931Y20085996D01*
X91735228Y20049500D01*
X91864772Y20049500D01*
X91989069Y20085996D01*
X92098049Y20156033D01*
X92182882Y20253937D01*
X92236697Y20371774D01*
X92255133Y20500000D01*
X92236697Y20628226D01*
X92182882Y20746063D01*
X92098049Y20843967D01*
X92001474Y20906032D01*
X91989068Y20914005D01*
X91864772Y20950500D01*
X91735228Y20950500D01*
X91610931Y20914005D01*
X91501954Y20843969D01*
X91501950Y20843966D01*
X91417119Y20746065D01*
X91363302Y20628224D01*
X91344867Y20500000D01*
X57255133Y20500000D01*
X57236697Y20628226D01*
X57182882Y20746063D01*
X57098049Y20843967D01*
X57001474Y20906032D01*
X56989068Y20914005D01*
X56864772Y20950500D01*
X56735228Y20950500D01*
X56610931Y20914005D01*
X56501954Y20843969D01*
X56501950Y20843966D01*
X56417119Y20746065D01*
X56363302Y20628224D01*
X56344867Y20500000D01*
X31055133Y20500000D01*
X31036697Y20628226D01*
X30982882Y20746063D01*
X30898049Y20843967D01*
X30801474Y20906032D01*
X30789068Y20914005D01*
X30664772Y20950500D01*
X30535228Y20950500D01*
X30410931Y20914005D01*
X30301954Y20843969D01*
X30301950Y20843966D01*
X30217119Y20746065D01*
X30163302Y20628224D01*
X30144867Y20500000D01*
X18514247Y20500000D01*
X18485538Y20583628D01*
X18371329Y20794668D01*
X18223942Y20984031D01*
X18204636Y21001803D01*
X18047397Y21146552D01*
X17846508Y21277800D01*
X17626768Y21374187D01*
X17605205Y21379648D01*
X17394141Y21433096D01*
X17358289Y21436067D01*
X17214886Y21447950D01*
X17214882Y21447950D01*
X17095118Y21447950D01*
X17095114Y21447950D01*
X16915859Y21433096D01*
X16683231Y21374187D01*
X16463491Y21277800D01*
X16262602Y21146552D01*
X16086059Y20984033D01*
X16031554Y20914004D01*
X15977044Y20843969D01*
X15938669Y20794665D01*
X15938667Y20794661D01*
X15824462Y20583630D01*
X15746546Y20356666D01*
X15728090Y20246065D01*
X15707050Y20119981D01*
X15707050Y19880019D01*
X15427950Y19880019D01*
X15427950Y20119981D01*
X15388453Y20356669D01*
X15310538Y20583628D01*
X15196329Y20794668D01*
X15048942Y20984031D01*
X15029636Y21001803D01*
X14872397Y21146552D01*
X14671508Y21277800D01*
X14451768Y21374187D01*
X14430205Y21379648D01*
X14219141Y21433096D01*
X14183289Y21436067D01*
X14039886Y21447950D01*
X14039882Y21447950D01*
X13920118Y21447950D01*
X13920114Y21447950D01*
X13740859Y21433096D01*
X13508231Y21374187D01*
X13288491Y21277800D01*
X13087602Y21146552D01*
X12911059Y20984033D01*
X12856554Y20914004D01*
X12802044Y20843969D01*
X12763669Y20794665D01*
X12763667Y20794661D01*
X12649462Y20583630D01*
X12571546Y20356666D01*
X12553090Y20246065D01*
X12532050Y20119981D01*
X12532050Y19880019D01*
X10437882Y19880019D01*
X10455133Y20000000D01*
X10436697Y20128226D01*
X10382882Y20246063D01*
X10298049Y20343967D01*
X10231032Y20387036D01*
X10189068Y20414005D01*
X10064772Y20450500D01*
X9935228Y20450500D01*
X9810931Y20414005D01*
X9701954Y20343969D01*
X9701950Y20343966D01*
X9617119Y20246065D01*
X9563302Y20128224D01*
X9544867Y20000000D01*
X4264866Y20000000D01*
X4265500Y20003390D01*
X4265500Y20216610D01*
X4226321Y20426198D01*
X4149298Y20625019D01*
X4037052Y20806302D01*
X3893407Y20963872D01*
X3783082Y21047186D01*
X3723258Y21092364D01*
X3723252Y21092368D01*
X3532393Y21187404D01*
X3532383Y21187407D01*
X3327309Y21245757D01*
X3327303Y21245758D01*
X3281521Y21250000D01*
X9294867Y21250000D01*
X9313302Y21121777D01*
X9313302Y21121776D01*
X9313303Y21121774D01*
X9367118Y21003937D01*
X9451951Y20906033D01*
X9560931Y20835996D01*
X9685228Y20799500D01*
X9814772Y20799500D01*
X9939069Y20835996D01*
X10048049Y20906033D01*
X10132882Y21003937D01*
X10186697Y21121774D01*
X10205133Y21250000D01*
X10186697Y21378226D01*
X10140330Y21479754D01*
X18300342Y21479754D01*
X18331023Y21305759D01*
X18401001Y21143529D01*
X18401002Y21143528D01*
X18506509Y21001808D01*
X18506515Y21001803D01*
X18641849Y20888243D01*
X18641852Y20888242D01*
X18641854Y20888240D01*
X18799741Y20808946D01*
X18971660Y20768200D01*
X19104019Y20768200D01*
X19235486Y20783566D01*
X19401511Y20843995D01*
X19549126Y20941082D01*
X19670372Y21069595D01*
X19758712Y21222605D01*
X19809385Y21391863D01*
X19819658Y21568245D01*
X19788977Y21742241D01*
X19718998Y21904472D01*
X19613491Y22046192D01*
X19613484Y22046198D01*
X19478150Y22159758D01*
X19320260Y22239054D01*
X19320256Y22239055D01*
X19148340Y22279800D01*
X19015981Y22279800D01*
X18884511Y22264434D01*
X18718487Y22204005D01*
X18718486Y22204005D01*
X18570874Y22106918D01*
X18449626Y21978403D01*
X18361288Y21825396D01*
X18361287Y21825394D01*
X18310615Y21656140D01*
X18310615Y21656137D01*
X18303420Y21532594D01*
X18300342Y21479754D01*
X10140330Y21479754D01*
X10132882Y21496063D01*
X10048049Y21593967D01*
X9981032Y21637036D01*
X9939068Y21664005D01*
X9814772Y21700500D01*
X9685228Y21700500D01*
X9560931Y21664005D01*
X9451954Y21593969D01*
X9451950Y21593966D01*
X9367119Y21496065D01*
X9367118Y21496064D01*
X9367118Y21496063D01*
X9350420Y21459500D01*
X9313302Y21378224D01*
X9294867Y21250000D01*
X3281521Y21250000D01*
X3168200Y21260500D01*
X3168194Y21260500D01*
X2811806Y21260500D01*
X2811799Y21260500D01*
X2652696Y21245758D01*
X2652690Y21245757D01*
X2447616Y21187407D01*
X2447606Y21187404D01*
X2256747Y21092368D01*
X2256741Y21092364D01*
X2086590Y20963870D01*
X1942946Y20806300D01*
X1830705Y20625024D01*
X1830700Y20625014D01*
X1753680Y20426202D01*
X1714500Y20216614D01*
X1714500Y20003387D01*
X500000Y20003387D01*
X500000Y22503387D01*
X1714500Y22503387D01*
X1736472Y22385850D01*
X1753679Y22293802D01*
X1830702Y22094981D01*
X1942948Y21913698D01*
X2086593Y21756128D01*
X2208584Y21664004D01*
X2256741Y21627637D01*
X2256747Y21627633D01*
X2447606Y21532597D01*
X2447608Y21532597D01*
X2447611Y21532595D01*
X2633321Y21479755D01*
X2652690Y21474244D01*
X2652696Y21474243D01*
X2741515Y21466014D01*
X2811806Y21459500D01*
X2811808Y21459500D01*
X3168192Y21459500D01*
X3168194Y21459500D01*
X3257019Y21467731D01*
X3327303Y21474243D01*
X3327307Y21474244D01*
X3327310Y21474244D01*
X3532389Y21532595D01*
X3723255Y21627634D01*
X3893407Y21756128D01*
X4037052Y21913698D01*
X4149298Y22094981D01*
X4209352Y22250000D01*
X12044867Y22250000D01*
X12063302Y22121777D01*
X12063302Y22121776D01*
X12063303Y22121774D01*
X12117118Y22003937D01*
X12201951Y21906033D01*
X12310931Y21835996D01*
X12435228Y21799500D01*
X12564772Y21799500D01*
X12689069Y21835996D01*
X12798049Y21906033D01*
X12882882Y22003937D01*
X12936697Y22121774D01*
X12955133Y22250000D01*
X12936697Y22378226D01*
X12883023Y22495754D01*
X13220342Y22495754D01*
X13251023Y22321759D01*
X13321001Y22159529D01*
X13321002Y22159528D01*
X13426509Y22017808D01*
X13426515Y22017803D01*
X13561849Y21904243D01*
X13561852Y21904242D01*
X13561854Y21904240D01*
X13719741Y21824946D01*
X13891660Y21784200D01*
X14024019Y21784200D01*
X14155486Y21799566D01*
X14321511Y21859995D01*
X14469126Y21957082D01*
X14590372Y22085595D01*
X14678712Y22238605D01*
X14729385Y22407863D01*
X14739658Y22584245D01*
X14708977Y22758241D01*
X14638998Y22920472D01*
X14533491Y23062192D01*
X14533484Y23062198D01*
X14398150Y23175758D01*
X14240260Y23255054D01*
X14240256Y23255055D01*
X14068340Y23295800D01*
X13935981Y23295800D01*
X13804511Y23280434D01*
X13638487Y23220005D01*
X13638486Y23220005D01*
X13490874Y23122918D01*
X13369626Y22994403D01*
X13281288Y22841396D01*
X13281287Y22841394D01*
X13230615Y22672140D01*
X13230615Y22672137D01*
X13220342Y22495754D01*
X12883023Y22495754D01*
X12882882Y22496063D01*
X12798049Y22593967D01*
X12731032Y22637036D01*
X12689068Y22664005D01*
X12564772Y22700500D01*
X12435228Y22700500D01*
X12310931Y22664005D01*
X12201954Y22593969D01*
X12201950Y22593966D01*
X12117119Y22496065D01*
X12063302Y22378224D01*
X12044867Y22250000D01*
X4209352Y22250000D01*
X4226321Y22293802D01*
X4265500Y22503390D01*
X4265500Y22716610D01*
X4226321Y22926198D01*
X4149298Y23125019D01*
X4037052Y23306302D01*
X3893407Y23463872D01*
X3830002Y23511754D01*
X18300342Y23511754D01*
X18331023Y23337759D01*
X18401001Y23175529D01*
X18401002Y23175528D01*
X18506509Y23033808D01*
X18506515Y23033803D01*
X18641849Y22920243D01*
X18641852Y22920242D01*
X18641854Y22920240D01*
X18799741Y22840946D01*
X18971660Y22800200D01*
X19104019Y22800200D01*
X19235486Y22815566D01*
X19401511Y22875995D01*
X19549126Y22973082D01*
X19670372Y23101595D01*
X19758712Y23254605D01*
X19809385Y23423863D01*
X19819658Y23600245D01*
X19788977Y23774241D01*
X19718998Y23936472D01*
X19613491Y24078192D01*
X19613484Y24078198D01*
X19478150Y24191758D01*
X19320260Y24271054D01*
X19320256Y24271055D01*
X19148340Y24311800D01*
X19015981Y24311800D01*
X18884511Y24296434D01*
X18718487Y24236005D01*
X18718486Y24236005D01*
X18570874Y24138918D01*
X18449626Y24010403D01*
X18361288Y23857396D01*
X18361287Y23857394D01*
X18310615Y23688140D01*
X18310615Y23688137D01*
X18300342Y23511754D01*
X3830002Y23511754D01*
X3723255Y23592366D01*
X3723252Y23592368D01*
X3532393Y23687404D01*
X3532383Y23687407D01*
X3327309Y23745757D01*
X3327303Y23745758D01*
X3168200Y23760500D01*
X3168194Y23760500D01*
X2811806Y23760500D01*
X2811799Y23760500D01*
X2652696Y23745758D01*
X2652690Y23745757D01*
X2447616Y23687407D01*
X2447606Y23687404D01*
X2256747Y23592368D01*
X2256741Y23592364D01*
X2086590Y23463870D01*
X1942946Y23306300D01*
X1830705Y23125024D01*
X1830700Y23125014D01*
X1753680Y22926202D01*
X1753679Y22926200D01*
X1753679Y22926198D01*
X1752609Y22920472D01*
X1714500Y22716614D01*
X1714500Y22503387D01*
X500000Y22503387D01*
X500000Y24640000D01*
X7474867Y24640000D01*
X7493302Y24511777D01*
X7493302Y24511776D01*
X7493303Y24511774D01*
X7547118Y24393937D01*
X7631951Y24296033D01*
X7740931Y24225996D01*
X7865228Y24189500D01*
X7994772Y24189500D01*
X8119069Y24225996D01*
X8228049Y24296033D01*
X8312882Y24393937D01*
X8366697Y24511774D01*
X8385133Y24640000D01*
X8366697Y24768226D01*
X8312882Y24886063D01*
X8248800Y24960019D01*
X12532050Y24960019D01*
X12558413Y24802035D01*
X12571546Y24723335D01*
X12649462Y24496371D01*
X12720456Y24365185D01*
X12763671Y24285332D01*
X12911058Y24095969D01*
X13087603Y23933448D01*
X13125454Y23908719D01*
X13288491Y23802201D01*
X13508231Y23705814D01*
X13508236Y23705813D01*
X13508240Y23705811D01*
X13740859Y23646904D01*
X13875490Y23635749D01*
X13920114Y23632050D01*
X13920118Y23632050D01*
X14039886Y23632050D01*
X14081895Y23635532D01*
X14219141Y23646904D01*
X14451760Y23705811D01*
X14451765Y23705814D01*
X14451768Y23705814D01*
X14671508Y23802201D01*
X14728026Y23839126D01*
X14872397Y23933448D01*
X15048942Y24095969D01*
X15196329Y24285332D01*
X15310538Y24496372D01*
X15388453Y24723331D01*
X15427950Y24960019D01*
X15707050Y24960019D01*
X15733413Y24802035D01*
X15746546Y24723335D01*
X15824462Y24496371D01*
X15895456Y24365185D01*
X15938671Y24285332D01*
X16086058Y24095969D01*
X16262603Y23933448D01*
X16300454Y23908719D01*
X16463491Y23802201D01*
X16683231Y23705814D01*
X16683236Y23705813D01*
X16683240Y23705811D01*
X16915859Y23646904D01*
X17050490Y23635749D01*
X17095114Y23632050D01*
X17095118Y23632050D01*
X17214886Y23632050D01*
X17256895Y23635532D01*
X17394141Y23646904D01*
X17626760Y23705811D01*
X17626765Y23705814D01*
X17626768Y23705814D01*
X17846508Y23802201D01*
X17903026Y23839126D01*
X18047397Y23933448D01*
X18223942Y24095969D01*
X18371329Y24285332D01*
X18457389Y24444357D01*
X138750000Y24444357D01*
X138752900Y24407507D01*
X138798718Y24249801D01*
X138882317Y24108444D01*
X138998443Y23992318D01*
X139139800Y23908719D01*
X139297508Y23862901D01*
X139297505Y23862901D01*
X139334357Y23860000D01*
X139658729Y23860000D01*
X139706295Y23842687D01*
X139731605Y23798850D01*
X139722815Y23749000D01*
X139684038Y23716463D01*
X139678980Y23714825D01*
X139582616Y23687407D01*
X139582606Y23687404D01*
X139391747Y23592368D01*
X139391741Y23592364D01*
X139221590Y23463870D01*
X139077946Y23306300D01*
X138965705Y23125024D01*
X138965700Y23125014D01*
X138888680Y22926202D01*
X138888679Y22926200D01*
X138888679Y22926198D01*
X138887609Y22920472D01*
X138849500Y22716614D01*
X138849500Y22503387D01*
X138871472Y22385850D01*
X138888679Y22293802D01*
X138965702Y22094981D01*
X139077948Y21913698D01*
X139221593Y21756128D01*
X139343584Y21664004D01*
X139391741Y21627637D01*
X139391747Y21627633D01*
X139582606Y21532597D01*
X139582608Y21532597D01*
X139582611Y21532595D01*
X139768321Y21479755D01*
X139787690Y21474244D01*
X139787696Y21474243D01*
X139876515Y21466014D01*
X139946806Y21459500D01*
X139946808Y21459500D01*
X140353192Y21459500D01*
X140353194Y21459500D01*
X140442019Y21467731D01*
X140512303Y21474243D01*
X140512307Y21474244D01*
X140512310Y21474244D01*
X140717389Y21532595D01*
X140908255Y21627634D01*
X141078407Y21756128D01*
X141222052Y21913698D01*
X141334298Y22094981D01*
X141411321Y22293802D01*
X141450500Y22503390D01*
X141450500Y22716610D01*
X141411321Y22926198D01*
X141334298Y23125019D01*
X141222052Y23306302D01*
X141078407Y23463872D01*
X140908255Y23592366D01*
X140908252Y23592368D01*
X140717393Y23687404D01*
X140717383Y23687407D01*
X140621020Y23714825D01*
X140580007Y23744494D01*
X140567661Y23793584D01*
X140589757Y23839126D01*
X140635958Y23859809D01*
X140641271Y23860000D01*
X140965643Y23860000D01*
X141002493Y23862901D01*
X141160199Y23908719D01*
X141301556Y23992318D01*
X141417682Y24108444D01*
X141501281Y24249801D01*
X141547099Y24407507D01*
X141550000Y24444357D01*
X141550000Y24985000D01*
X140634405Y24985000D01*
X140650000Y25038111D01*
X140650000Y25181889D01*
X140634405Y25235000D01*
X141550000Y25235000D01*
X141550000Y25775643D01*
X141547099Y25812494D01*
X141501281Y25970200D01*
X141417682Y26111557D01*
X141301556Y26227683D01*
X141160199Y26311282D01*
X141002491Y26357100D01*
X141002494Y26357100D01*
X140965643Y26360000D01*
X140275000Y26360000D01*
X140275000Y25597170D01*
X140185763Y25610000D01*
X140114237Y25610000D01*
X140025000Y25597170D01*
X140025000Y26360000D01*
X139334357Y26360000D01*
X139297506Y26357100D01*
X139139800Y26311282D01*
X138998443Y26227683D01*
X138882317Y26111557D01*
X138798718Y25970200D01*
X138752900Y25812494D01*
X138750000Y25775643D01*
X138750000Y25235000D01*
X139665595Y25235000D01*
X139650000Y25181889D01*
X139650000Y25038111D01*
X139665595Y24985000D01*
X138750000Y24985000D01*
X138750000Y24444357D01*
X18457389Y24444357D01*
X18485538Y24496372D01*
X18563453Y24723331D01*
X18602950Y24960019D01*
X18602950Y25199981D01*
X18563453Y25436669D01*
X18485538Y25663628D01*
X18371329Y25874668D01*
X18223942Y26064031D01*
X18047397Y26226552D01*
X18045666Y26227683D01*
X17846508Y26357800D01*
X17626768Y26454187D01*
X17605205Y26459648D01*
X17394141Y26513096D01*
X17358289Y26516067D01*
X17214886Y26527950D01*
X17214882Y26527950D01*
X17095118Y26527950D01*
X17095114Y26527950D01*
X16915859Y26513096D01*
X16683231Y26454187D01*
X16463491Y26357800D01*
X16262602Y26226552D01*
X16086059Y26064033D01*
X15938669Y25874665D01*
X15938667Y25874661D01*
X15824462Y25663630D01*
X15749797Y25446138D01*
X15746547Y25436669D01*
X15707050Y25199981D01*
X15707050Y24960019D01*
X15427950Y24960019D01*
X15427950Y25199981D01*
X15388453Y25436669D01*
X15310538Y25663628D01*
X15196329Y25874668D01*
X15048942Y26064031D01*
X14872397Y26226552D01*
X14870666Y26227683D01*
X14671508Y26357800D01*
X14451768Y26454187D01*
X14430205Y26459648D01*
X14219141Y26513096D01*
X14183289Y26516067D01*
X14039886Y26527950D01*
X14039882Y26527950D01*
X13920118Y26527950D01*
X13920114Y26527950D01*
X13740859Y26513096D01*
X13508231Y26454187D01*
X13288491Y26357800D01*
X13087602Y26226552D01*
X12911059Y26064033D01*
X12763669Y25874665D01*
X12763667Y25874661D01*
X12649462Y25663630D01*
X12574797Y25446138D01*
X12571547Y25436669D01*
X12532050Y25199981D01*
X12532050Y24960019D01*
X8248800Y24960019D01*
X8228049Y24983967D01*
X8143799Y25038111D01*
X8119068Y25054005D01*
X7994772Y25090500D01*
X7865228Y25090500D01*
X7740931Y25054005D01*
X7631954Y24983969D01*
X7631950Y24983966D01*
X7547119Y24886065D01*
X7493302Y24768224D01*
X7474867Y24640000D01*
X500000Y24640000D01*
X500000Y27250000D01*
X32544867Y27250000D01*
X32563302Y27121777D01*
X32563302Y27121776D01*
X32563303Y27121774D01*
X32617118Y27003937D01*
X32701951Y26906033D01*
X32810931Y26835996D01*
X32935228Y26799500D01*
X33064772Y26799500D01*
X33189069Y26835996D01*
X33298049Y26906033D01*
X33379471Y27000000D01*
X54044867Y27000000D01*
X54063302Y26871777D01*
X54063302Y26871776D01*
X54063303Y26871774D01*
X54117118Y26753937D01*
X54201951Y26656033D01*
X54310931Y26585996D01*
X54435228Y26549500D01*
X54564772Y26549500D01*
X54689069Y26585996D01*
X54798049Y26656033D01*
X54882882Y26753937D01*
X54936697Y26871774D01*
X54955133Y27000000D01*
X67044867Y27000000D01*
X67063302Y26871777D01*
X67063302Y26871776D01*
X67063303Y26871774D01*
X67117118Y26753937D01*
X67201951Y26656033D01*
X67310931Y26585996D01*
X67435228Y26549500D01*
X67564772Y26549500D01*
X67689069Y26585996D01*
X67798049Y26656033D01*
X67882882Y26753937D01*
X67936697Y26871774D01*
X67955133Y27000000D01*
X67936697Y27128226D01*
X67882882Y27246063D01*
X67879471Y27250000D01*
X89044867Y27250000D01*
X89063302Y27121777D01*
X89063302Y27121776D01*
X89063303Y27121774D01*
X89117118Y27003937D01*
X89201951Y26906033D01*
X89310931Y26835996D01*
X89435228Y26799500D01*
X89564772Y26799500D01*
X89689069Y26835996D01*
X89798049Y26906033D01*
X89879471Y27000000D01*
X102044867Y27000000D01*
X102063302Y26871777D01*
X102063302Y26871776D01*
X102063303Y26871774D01*
X102117118Y26753937D01*
X102201951Y26656033D01*
X102310931Y26585996D01*
X102435228Y26549500D01*
X102564772Y26549500D01*
X102689069Y26585996D01*
X102798049Y26656033D01*
X102882882Y26753937D01*
X102936697Y26871774D01*
X102955133Y27000000D01*
X102936697Y27128226D01*
X102882882Y27246063D01*
X102798049Y27343967D01*
X102701474Y27406032D01*
X102689068Y27414005D01*
X102564772Y27450500D01*
X102435228Y27450500D01*
X102310931Y27414005D01*
X102201954Y27343969D01*
X102201950Y27343966D01*
X102117119Y27246065D01*
X102063302Y27128224D01*
X102044867Y27000000D01*
X89879471Y27000000D01*
X89882882Y27003937D01*
X89936697Y27121774D01*
X89955133Y27250000D01*
X89936697Y27378226D01*
X89882882Y27496063D01*
X89879471Y27500000D01*
X127474562Y27500000D01*
X127494266Y27299946D01*
X127509417Y27250000D01*
X127552619Y27107582D01*
X127552620Y27107579D01*
X127552621Y27107578D01*
X127647374Y26930305D01*
X127647384Y26930290D01*
X127724770Y26835996D01*
X127774906Y26774906D01*
X127774911Y26774902D01*
X127774912Y26774901D01*
X127930289Y26647385D01*
X127930292Y26647383D01*
X127930297Y26647379D01*
X128107582Y26552619D01*
X128299947Y26494266D01*
X128500000Y26474562D01*
X128700053Y26494266D01*
X128892418Y26552619D01*
X129069703Y26647379D01*
X129225094Y26774906D01*
X129352621Y26930297D01*
X129447381Y27107582D01*
X129505734Y27299947D01*
X129525438Y27500000D01*
X129505734Y27700053D01*
X129447381Y27892418D01*
X129352621Y28069703D01*
X129352617Y28069708D01*
X129352615Y28069711D01*
X129225099Y28225088D01*
X129225098Y28225089D01*
X129225094Y28225094D01*
X129225087Y28225100D01*
X129069710Y28352616D01*
X129069705Y28352620D01*
X129069703Y28352621D01*
X129069700Y28352623D01*
X129069695Y28352626D01*
X128892422Y28447379D01*
X128892421Y28447380D01*
X128892418Y28447381D01*
X128753591Y28489494D01*
X128700054Y28505734D01*
X128500000Y28525438D01*
X128299945Y28505734D01*
X128192870Y28473253D01*
X128107582Y28447381D01*
X128107579Y28447380D01*
X128107577Y28447379D01*
X127930304Y28352626D01*
X127930289Y28352616D01*
X127774912Y28225100D01*
X127774900Y28225088D01*
X127647384Y28069711D01*
X127647374Y28069696D01*
X127552621Y27892423D01*
X127552620Y27892421D01*
X127552619Y27892418D01*
X127546358Y27871777D01*
X127494266Y27700055D01*
X127474562Y27500000D01*
X89879471Y27500000D01*
X89798049Y27593967D01*
X89701474Y27656032D01*
X89689068Y27664005D01*
X89564772Y27700500D01*
X89435228Y27700500D01*
X89310931Y27664005D01*
X89201954Y27593969D01*
X89201950Y27593966D01*
X89117119Y27496065D01*
X89063302Y27378224D01*
X89044867Y27250000D01*
X67879471Y27250000D01*
X67798049Y27343967D01*
X67701474Y27406032D01*
X67689068Y27414005D01*
X67564772Y27450500D01*
X67435228Y27450500D01*
X67310931Y27414005D01*
X67201954Y27343969D01*
X67201950Y27343966D01*
X67117119Y27246065D01*
X67063302Y27128224D01*
X67044867Y27000000D01*
X54955133Y27000000D01*
X54936697Y27128226D01*
X54882882Y27246063D01*
X54798049Y27343967D01*
X54701474Y27406032D01*
X54689068Y27414005D01*
X54564772Y27450500D01*
X54435228Y27450500D01*
X54310931Y27414005D01*
X54201954Y27343969D01*
X54201950Y27343966D01*
X54117119Y27246065D01*
X54063302Y27128224D01*
X54044867Y27000000D01*
X33379471Y27000000D01*
X33382882Y27003937D01*
X33436697Y27121774D01*
X33455133Y27250000D01*
X33436697Y27378226D01*
X33382882Y27496063D01*
X33298049Y27593967D01*
X33201474Y27656032D01*
X33189068Y27664005D01*
X33064772Y27700500D01*
X32935228Y27700500D01*
X32810931Y27664005D01*
X32701954Y27593969D01*
X32701950Y27593966D01*
X32617119Y27496065D01*
X32563302Y27378224D01*
X32544867Y27250000D01*
X500000Y27250000D01*
X500000Y27750000D01*
X66044867Y27750000D01*
X66063302Y27621777D01*
X66063302Y27621776D01*
X66063303Y27621774D01*
X66117118Y27503937D01*
X66201951Y27406033D01*
X66310931Y27335996D01*
X66435228Y27299500D01*
X66564772Y27299500D01*
X66689069Y27335996D01*
X66798049Y27406033D01*
X66882882Y27503937D01*
X66936697Y27621774D01*
X66955133Y27750000D01*
X66936697Y27878226D01*
X66882882Y27996063D01*
X66798049Y28093967D01*
X66701474Y28156032D01*
X66689068Y28164005D01*
X66564772Y28200500D01*
X66435228Y28200500D01*
X66310931Y28164005D01*
X66201954Y28093969D01*
X66201950Y28093966D01*
X66117119Y27996065D01*
X66063302Y27878224D01*
X66044867Y27750000D01*
X500000Y27750000D01*
X500000Y28500000D01*
X9294867Y28500000D01*
X9313302Y28371777D01*
X9313302Y28371776D01*
X9313303Y28371774D01*
X9367118Y28253937D01*
X9451951Y28156033D01*
X9560931Y28085996D01*
X9685228Y28049500D01*
X9814772Y28049500D01*
X9939069Y28085996D01*
X10048049Y28156033D01*
X10132882Y28253937D01*
X10186697Y28371774D01*
X10205133Y28500000D01*
X10186697Y28628226D01*
X10132882Y28746063D01*
X10129471Y28750000D01*
X22294867Y28750000D01*
X22313302Y28621777D01*
X22313302Y28621776D01*
X22313303Y28621774D01*
X22367118Y28503937D01*
X22451951Y28406033D01*
X22560931Y28335996D01*
X22685228Y28299500D01*
X22814772Y28299500D01*
X22939069Y28335996D01*
X23048049Y28406033D01*
X23132882Y28503937D01*
X23186697Y28621774D01*
X23187161Y28625000D01*
X36169867Y28625000D01*
X36188302Y28496777D01*
X36188302Y28496776D01*
X36188303Y28496774D01*
X36242118Y28378937D01*
X36326951Y28281033D01*
X36435931Y28210996D01*
X36560228Y28174500D01*
X36689772Y28174500D01*
X36814069Y28210996D01*
X36874761Y28250000D01*
X90044867Y28250000D01*
X90063302Y28121777D01*
X90063302Y28121776D01*
X90063303Y28121774D01*
X90117118Y28003937D01*
X90201951Y27906033D01*
X90310931Y27835996D01*
X90435228Y27799500D01*
X90564772Y27799500D01*
X90689069Y27835996D01*
X90798049Y27906033D01*
X90879471Y28000000D01*
X101044867Y28000000D01*
X101063302Y27871777D01*
X101063302Y27871776D01*
X101063303Y27871774D01*
X101117118Y27753937D01*
X101201951Y27656033D01*
X101310931Y27585996D01*
X101435228Y27549500D01*
X101564772Y27549500D01*
X101689069Y27585996D01*
X101798049Y27656033D01*
X101882882Y27753937D01*
X101936697Y27871774D01*
X101955133Y28000000D01*
X101936697Y28128226D01*
X101882882Y28246063D01*
X101798049Y28343967D01*
X101701474Y28406032D01*
X101689068Y28414005D01*
X101564772Y28450500D01*
X101435228Y28450500D01*
X101310931Y28414005D01*
X101201954Y28343969D01*
X101201950Y28343966D01*
X101117119Y28246065D01*
X101063302Y28128224D01*
X101044867Y28000000D01*
X90879471Y28000000D01*
X90882882Y28003937D01*
X90936697Y28121774D01*
X90955133Y28250000D01*
X90936697Y28378226D01*
X90882882Y28496063D01*
X90798049Y28593967D01*
X90731032Y28637036D01*
X90689068Y28664005D01*
X90564772Y28700500D01*
X90435228Y28700500D01*
X90310931Y28664005D01*
X90201954Y28593969D01*
X90201950Y28593966D01*
X90117119Y28496065D01*
X90117118Y28496064D01*
X90117118Y28496063D01*
X90090210Y28437145D01*
X90063302Y28378224D01*
X90044867Y28250000D01*
X36874761Y28250000D01*
X36923049Y28281033D01*
X37007882Y28378937D01*
X37061697Y28496774D01*
X37080133Y28625000D01*
X37062161Y28750000D01*
X55044867Y28750000D01*
X55063302Y28621777D01*
X55063302Y28621776D01*
X55063303Y28621774D01*
X55117118Y28503937D01*
X55201951Y28406033D01*
X55310931Y28335996D01*
X55435228Y28299500D01*
X55564772Y28299500D01*
X55689069Y28335996D01*
X55798049Y28406033D01*
X55882882Y28503937D01*
X55936697Y28621774D01*
X55955133Y28750000D01*
X55936697Y28878226D01*
X55882882Y28996063D01*
X55798049Y29093967D01*
X55731032Y29137036D01*
X55689068Y29164005D01*
X55564772Y29200500D01*
X55435228Y29200500D01*
X55310931Y29164005D01*
X55201954Y29093969D01*
X55201950Y29093966D01*
X55117119Y28996065D01*
X55063302Y28878224D01*
X55044867Y28750000D01*
X37062161Y28750000D01*
X37061697Y28753226D01*
X37007882Y28871063D01*
X36923049Y28968967D01*
X36852100Y29014563D01*
X36814068Y29039005D01*
X36689772Y29075500D01*
X36560228Y29075500D01*
X36435931Y29039005D01*
X36326954Y28968969D01*
X36326950Y28968966D01*
X36242119Y28871065D01*
X36188302Y28753224D01*
X36169867Y28625000D01*
X23187161Y28625000D01*
X23205133Y28750000D01*
X23186697Y28878226D01*
X23132882Y28996063D01*
X23048049Y29093967D01*
X22981032Y29137036D01*
X22939068Y29164005D01*
X22814772Y29200500D01*
X22685228Y29200500D01*
X22560931Y29164005D01*
X22451954Y29093969D01*
X22451950Y29093966D01*
X22367119Y28996065D01*
X22313302Y28878224D01*
X22294867Y28750000D01*
X10129471Y28750000D01*
X10048049Y28843967D01*
X9951474Y28906032D01*
X9939068Y28914005D01*
X9814772Y28950500D01*
X9685228Y28950500D01*
X9560931Y28914005D01*
X9451954Y28843969D01*
X9451950Y28843966D01*
X9367119Y28746065D01*
X9313302Y28628224D01*
X9294867Y28500000D01*
X500000Y28500000D01*
X500000Y29250000D01*
X18544867Y29250000D01*
X18563302Y29121777D01*
X18563302Y29121776D01*
X18563303Y29121774D01*
X18617118Y29003937D01*
X18701951Y28906033D01*
X18810931Y28835996D01*
X18935228Y28799500D01*
X19064772Y28799500D01*
X19189069Y28835996D01*
X19298049Y28906033D01*
X19382882Y29003937D01*
X19436697Y29121774D01*
X19455133Y29250000D01*
X19794867Y29250000D01*
X19813302Y29121777D01*
X19813302Y29121776D01*
X19813303Y29121774D01*
X19867118Y29003937D01*
X19951951Y28906033D01*
X20060931Y28835996D01*
X20185228Y28799500D01*
X20314772Y28799500D01*
X20439069Y28835996D01*
X20548049Y28906033D01*
X20632882Y29003937D01*
X20686697Y29121774D01*
X20705133Y29250000D01*
X43794867Y29250000D01*
X43813302Y29121777D01*
X43813302Y29121776D01*
X43813303Y29121774D01*
X43867118Y29003937D01*
X43951951Y28906033D01*
X44060931Y28835996D01*
X44185228Y28799500D01*
X44314772Y28799500D01*
X44439069Y28835996D01*
X44548049Y28906033D01*
X44632882Y29003937D01*
X44686697Y29121774D01*
X44705133Y29250000D01*
X44686697Y29378226D01*
X44632882Y29496063D01*
X44548049Y29593967D01*
X44481032Y29637036D01*
X44439068Y29664005D01*
X44314772Y29700500D01*
X44185228Y29700500D01*
X44060931Y29664005D01*
X43951954Y29593969D01*
X43951950Y29593966D01*
X43867119Y29496065D01*
X43813302Y29378224D01*
X43794867Y29250000D01*
X20705133Y29250000D01*
X20686697Y29378226D01*
X20632882Y29496063D01*
X20548049Y29593967D01*
X20481032Y29637036D01*
X20439068Y29664005D01*
X20314772Y29700500D01*
X20185228Y29700500D01*
X20060931Y29664005D01*
X19951954Y29593969D01*
X19951950Y29593966D01*
X19867119Y29496065D01*
X19813302Y29378224D01*
X19794867Y29250000D01*
X19455133Y29250000D01*
X19436697Y29378226D01*
X19382882Y29496063D01*
X19298049Y29593967D01*
X19231032Y29637036D01*
X19189068Y29664005D01*
X19064772Y29700500D01*
X18935228Y29700500D01*
X18810931Y29664005D01*
X18701954Y29593969D01*
X18701950Y29593966D01*
X18617119Y29496065D01*
X18563302Y29378224D01*
X18544867Y29250000D01*
X500000Y29250000D01*
X500000Y30040000D01*
X127474562Y30040000D01*
X127494266Y29839947D01*
X127552619Y29647582D01*
X127552620Y29647579D01*
X127552621Y29647578D01*
X127647374Y29470305D01*
X127647384Y29470290D01*
X127774900Y29314913D01*
X127774906Y29314906D01*
X127774911Y29314902D01*
X127774912Y29314901D01*
X127930289Y29187385D01*
X127930292Y29187383D01*
X127930297Y29187379D01*
X128107582Y29092619D01*
X128299947Y29034266D01*
X128500000Y29014562D01*
X128700053Y29034266D01*
X128892418Y29092619D01*
X129069703Y29187379D01*
X129225094Y29314906D01*
X129352621Y29470297D01*
X129447381Y29647582D01*
X129505734Y29839947D01*
X129525438Y30040000D01*
X129505734Y30240053D01*
X129447381Y30432418D01*
X129352621Y30609703D01*
X129352617Y30609708D01*
X129352615Y30609711D01*
X129225099Y30765088D01*
X129225098Y30765089D01*
X129225094Y30765094D01*
X129225087Y30765100D01*
X129069710Y30892616D01*
X129069705Y30892620D01*
X129069703Y30892621D01*
X129069700Y30892623D01*
X129069695Y30892626D01*
X128892422Y30987379D01*
X128892421Y30987380D01*
X128892418Y30987381D01*
X128750379Y31030468D01*
X128700054Y31045734D01*
X128500000Y31065438D01*
X128299945Y31045734D01*
X128192870Y31013253D01*
X128107582Y30987381D01*
X128107579Y30987380D01*
X128107577Y30987379D01*
X127930304Y30892626D01*
X127930289Y30892616D01*
X127774912Y30765100D01*
X127774900Y30765088D01*
X127647384Y30609711D01*
X127647374Y30609696D01*
X127552621Y30432423D01*
X127552620Y30432421D01*
X127552619Y30432418D01*
X127544615Y30406032D01*
X127494266Y30240055D01*
X127494266Y30240053D01*
X127474562Y30040000D01*
X500000Y30040000D01*
X500000Y30894357D01*
X1875000Y30894357D01*
X1877900Y30857507D01*
X1923718Y30699801D01*
X2007317Y30558444D01*
X2123443Y30442318D01*
X2264800Y30358719D01*
X2422508Y30312901D01*
X2422505Y30312901D01*
X2459357Y30310000D01*
X3125000Y30310000D01*
X3125000Y31098088D01*
X3216025Y31085000D01*
X3283975Y31085000D01*
X3375000Y31098088D01*
X3375000Y30310000D01*
X4040643Y30310000D01*
X4077493Y30312901D01*
X4235199Y30358719D01*
X4376556Y30442318D01*
X4492682Y30558444D01*
X4576281Y30699801D01*
X4590865Y30750000D01*
X17294867Y30750000D01*
X17313302Y30621777D01*
X17313302Y30621776D01*
X17313303Y30621774D01*
X17367118Y30503937D01*
X17451951Y30406033D01*
X17560931Y30335996D01*
X17685228Y30299500D01*
X17814772Y30299500D01*
X17939069Y30335996D01*
X18048049Y30406033D01*
X18132882Y30503937D01*
X18186697Y30621774D01*
X18205133Y30750000D01*
X18186697Y30878226D01*
X18132882Y30996063D01*
X18048049Y31093967D01*
X17956873Y31152562D01*
X17939068Y31164005D01*
X17814772Y31200500D01*
X17685228Y31200500D01*
X17560931Y31164005D01*
X17451954Y31093969D01*
X17451950Y31093966D01*
X17367119Y30996065D01*
X17313302Y30878224D01*
X17294867Y30750000D01*
X4590865Y30750000D01*
X4622099Y30857507D01*
X4625000Y30894357D01*
X4625000Y31435000D01*
X3708350Y31435000D01*
X3725000Y31491705D01*
X3725000Y31500000D01*
X7044867Y31500000D01*
X7063302Y31371777D01*
X7063302Y31371776D01*
X7063303Y31371774D01*
X7117118Y31253937D01*
X7201951Y31156033D01*
X7310931Y31085996D01*
X7435228Y31049500D01*
X7564772Y31049500D01*
X7689069Y31085996D01*
X7798049Y31156033D01*
X7879471Y31250000D01*
X9794867Y31250000D01*
X9813302Y31121777D01*
X9813302Y31121776D01*
X9813303Y31121774D01*
X9867118Y31003937D01*
X9951951Y30906033D01*
X10060931Y30835996D01*
X10185228Y30799500D01*
X10314772Y30799500D01*
X10439069Y30835996D01*
X10548049Y30906033D01*
X10632882Y31003937D01*
X10686697Y31121774D01*
X10705133Y31250000D01*
X10701318Y31276531D01*
X13899016Y31276531D01*
X13917451Y31148308D01*
X13917451Y31148307D01*
X13917452Y31148305D01*
X13971267Y31030468D01*
X14056100Y30932564D01*
X14165080Y30862527D01*
X14289377Y30826031D01*
X14418921Y30826031D01*
X14543218Y30862527D01*
X14652198Y30932564D01*
X14737031Y31030468D01*
X14790846Y31148305D01*
X14809282Y31276531D01*
X14808670Y31280788D01*
X18421500Y31280788D01*
X18439935Y31152565D01*
X18439935Y31152564D01*
X18439936Y31152562D01*
X18493751Y31034725D01*
X18578584Y30936821D01*
X18687564Y30866784D01*
X18811861Y30830288D01*
X18941405Y30830288D01*
X19065702Y30866784D01*
X19174682Y30936821D01*
X19259515Y31034725D01*
X19313330Y31152562D01*
X19331766Y31280788D01*
X19313330Y31409014D01*
X19259515Y31526851D01*
X19174682Y31624755D01*
X19080939Y31685000D01*
X19065701Y31694793D01*
X18941405Y31731288D01*
X18811861Y31731288D01*
X18687564Y31694793D01*
X18578587Y31624757D01*
X18578583Y31624754D01*
X18493752Y31526853D01*
X18439935Y31409012D01*
X18421500Y31280788D01*
X14808670Y31280788D01*
X14790846Y31404757D01*
X14737031Y31522594D01*
X14652198Y31620498D01*
X14551831Y31685000D01*
X14543217Y31690536D01*
X14418921Y31727031D01*
X14289377Y31727031D01*
X14165080Y31690536D01*
X14056103Y31620500D01*
X14056099Y31620497D01*
X13971268Y31522596D01*
X13971267Y31522595D01*
X13971267Y31522594D01*
X13959151Y31496063D01*
X13917451Y31404755D01*
X13899016Y31276531D01*
X10701318Y31276531D01*
X10686697Y31378226D01*
X10632882Y31496063D01*
X10548049Y31593967D01*
X10481032Y31637036D01*
X10439068Y31664005D01*
X10314772Y31700500D01*
X10185228Y31700500D01*
X10060931Y31664005D01*
X9951954Y31593969D01*
X9951950Y31593966D01*
X9867119Y31496065D01*
X9813302Y31378224D01*
X9794867Y31250000D01*
X7879471Y31250000D01*
X7882882Y31253937D01*
X7936697Y31371774D01*
X7955133Y31500000D01*
X7936697Y31628226D01*
X7882882Y31746063D01*
X7798049Y31843967D01*
X7701474Y31906032D01*
X7689068Y31914005D01*
X7564772Y31950500D01*
X7435228Y31950500D01*
X7310931Y31914005D01*
X7201954Y31843969D01*
X7201950Y31843966D01*
X7117119Y31746065D01*
X7117118Y31746064D01*
X7117118Y31746063D01*
X7093703Y31694792D01*
X7063302Y31628224D01*
X7044867Y31500000D01*
X3725000Y31500000D01*
X3725000Y31628295D01*
X3708350Y31685000D01*
X4625000Y31685000D01*
X4625000Y32225643D01*
X4623083Y32250000D01*
X17189367Y32250000D01*
X17207802Y32121777D01*
X17207802Y32121776D01*
X17207803Y32121774D01*
X17261618Y32003937D01*
X17346451Y31906033D01*
X17455431Y31835996D01*
X17579728Y31799500D01*
X17709272Y31799500D01*
X17833569Y31835996D01*
X17942549Y31906033D01*
X18027382Y32003937D01*
X18081197Y32121774D01*
X18099633Y32250000D01*
X18081197Y32378226D01*
X18027382Y32496063D01*
X17954651Y32580000D01*
X127474562Y32580000D01*
X127494266Y32379946D01*
X127510506Y32326409D01*
X127552619Y32187582D01*
X127552620Y32187579D01*
X127552621Y32187578D01*
X127647374Y32010305D01*
X127647384Y32010290D01*
X127759024Y31874258D01*
X127774906Y31854906D01*
X127774911Y31854902D01*
X127774912Y31854901D01*
X127930289Y31727385D01*
X127930292Y31727383D01*
X127930297Y31727379D01*
X127930302Y31727377D01*
X127930304Y31727375D01*
X127995370Y31692597D01*
X128107582Y31632619D01*
X128299947Y31574266D01*
X128500000Y31554562D01*
X128700053Y31574266D01*
X128892418Y31632619D01*
X129069703Y31727379D01*
X129225094Y31854906D01*
X129352621Y32010297D01*
X129447381Y32187582D01*
X129505734Y32379947D01*
X129525438Y32580000D01*
X129505734Y32780053D01*
X129447381Y32972418D01*
X129352621Y33149703D01*
X129352617Y33149708D01*
X129352615Y33149711D01*
X129225099Y33305088D01*
X129225098Y33305089D01*
X129225094Y33305094D01*
X129225087Y33305100D01*
X129069710Y33432616D01*
X129069705Y33432620D01*
X129069703Y33432621D01*
X129069700Y33432623D01*
X129069695Y33432626D01*
X128892422Y33527379D01*
X128892421Y33527380D01*
X128892418Y33527381D01*
X128753591Y33569494D01*
X128700054Y33585734D01*
X128500000Y33605438D01*
X128299945Y33585734D01*
X128192870Y33553253D01*
X128107582Y33527381D01*
X128107579Y33527380D01*
X128107577Y33527379D01*
X127930304Y33432626D01*
X127930289Y33432616D01*
X127774912Y33305100D01*
X127774900Y33305088D01*
X127647384Y33149711D01*
X127647374Y33149696D01*
X127552621Y32972423D01*
X127552620Y32972421D01*
X127552619Y32972418D01*
X127538006Y32924244D01*
X127494266Y32780055D01*
X127474562Y32580000D01*
X17954651Y32580000D01*
X17942549Y32593967D01*
X17875532Y32637036D01*
X17833568Y32664005D01*
X17709272Y32700500D01*
X17579728Y32700500D01*
X17455431Y32664005D01*
X17346454Y32593969D01*
X17346450Y32593966D01*
X17261619Y32496065D01*
X17207802Y32378224D01*
X17189367Y32250000D01*
X4623083Y32250000D01*
X4622099Y32262494D01*
X4576281Y32420200D01*
X4492682Y32561557D01*
X4376556Y32677683D01*
X4235199Y32761282D01*
X4077491Y32807100D01*
X4077494Y32807100D01*
X4040643Y32810000D01*
X3716271Y32810000D01*
X3668705Y32827313D01*
X3643395Y32871150D01*
X3652185Y32921000D01*
X3690962Y32953537D01*
X3696020Y32955175D01*
X3716301Y32960946D01*
X3792389Y32982595D01*
X3983255Y33077634D01*
X4153407Y33206128D01*
X4297052Y33363698D01*
X4381447Y33500000D01*
X26044867Y33500000D01*
X26063302Y33371777D01*
X26063302Y33371776D01*
X26063303Y33371774D01*
X26117118Y33253937D01*
X26201951Y33156033D01*
X26310931Y33085996D01*
X26435228Y33049500D01*
X26564772Y33049500D01*
X26689069Y33085996D01*
X26798049Y33156033D01*
X26882882Y33253937D01*
X26936697Y33371774D01*
X26955133Y33500000D01*
X26936697Y33628226D01*
X26882882Y33746063D01*
X26798049Y33843967D01*
X26703867Y33904494D01*
X26689068Y33914005D01*
X26564772Y33950500D01*
X26435228Y33950500D01*
X26310931Y33914005D01*
X26201954Y33843969D01*
X26201950Y33843966D01*
X26117119Y33746065D01*
X26117118Y33746064D01*
X26117118Y33746063D01*
X26116084Y33743799D01*
X26063302Y33628224D01*
X26044867Y33500000D01*
X4381447Y33500000D01*
X4409298Y33544981D01*
X4486321Y33743802D01*
X4525500Y33953390D01*
X4525500Y34000000D01*
X20914867Y34000000D01*
X20933302Y33871777D01*
X20933302Y33871776D01*
X20933303Y33871774D01*
X20987118Y33753937D01*
X21071951Y33656033D01*
X21180931Y33585996D01*
X21305228Y33549500D01*
X21434772Y33549500D01*
X21559069Y33585996D01*
X21668049Y33656033D01*
X21752882Y33753937D01*
X21806697Y33871774D01*
X21825133Y34000000D01*
X21806697Y34128226D01*
X21752882Y34246063D01*
X21668049Y34343967D01*
X21565609Y34409801D01*
X21559068Y34414005D01*
X21434772Y34450500D01*
X21305228Y34450500D01*
X21180931Y34414005D01*
X21071954Y34343969D01*
X21071950Y34343966D01*
X20987119Y34246065D01*
X20933302Y34128224D01*
X20914867Y34000000D01*
X4525500Y34000000D01*
X4525500Y34166610D01*
X4486321Y34376198D01*
X4409298Y34575019D01*
X4391133Y34604357D01*
X138750000Y34604357D01*
X138752900Y34567507D01*
X138798718Y34409801D01*
X138882317Y34268444D01*
X138998443Y34152318D01*
X139139800Y34068719D01*
X139297508Y34022901D01*
X139297505Y34022901D01*
X139334357Y34020000D01*
X139658729Y34020000D01*
X139706295Y34002687D01*
X139731605Y33958850D01*
X139722815Y33909000D01*
X139684038Y33876463D01*
X139678980Y33874825D01*
X139582616Y33847407D01*
X139582606Y33847404D01*
X139391747Y33752368D01*
X139391741Y33752364D01*
X139221590Y33623870D01*
X139077946Y33466300D01*
X138965705Y33285024D01*
X138965700Y33285014D01*
X138888680Y33086202D01*
X138849500Y32876614D01*
X138849500Y32663387D01*
X138865088Y32580000D01*
X138888679Y32453802D01*
X138965702Y32254981D01*
X139077948Y32073698D01*
X139221593Y31916128D01*
X139302670Y31854901D01*
X139391741Y31787637D01*
X139391747Y31787633D01*
X139582606Y31692597D01*
X139582608Y31692597D01*
X139582611Y31692595D01*
X139787690Y31634244D01*
X139787696Y31634243D01*
X139876515Y31626014D01*
X139946806Y31619500D01*
X139946808Y31619500D01*
X140353192Y31619500D01*
X140353194Y31619500D01*
X140447343Y31628224D01*
X140512303Y31634243D01*
X140512307Y31634244D01*
X140512310Y31634244D01*
X140717389Y31692595D01*
X140908255Y31787634D01*
X141078407Y31916128D01*
X141222052Y32073698D01*
X141334298Y32254981D01*
X141411321Y32453802D01*
X141450500Y32663390D01*
X141450500Y32876610D01*
X141411321Y33086198D01*
X141334298Y33285019D01*
X141222052Y33466302D01*
X141078407Y33623872D01*
X140968082Y33707186D01*
X140908258Y33752364D01*
X140908252Y33752368D01*
X140717393Y33847404D01*
X140717383Y33847407D01*
X140621020Y33874825D01*
X140580007Y33904494D01*
X140567661Y33953584D01*
X140589757Y33999126D01*
X140635958Y34019809D01*
X140641271Y34020000D01*
X140965643Y34020000D01*
X141002493Y34022901D01*
X141160199Y34068719D01*
X141301556Y34152318D01*
X141417682Y34268444D01*
X141501281Y34409801D01*
X141547099Y34567507D01*
X141550000Y34604357D01*
X141550000Y35145000D01*
X140634405Y35145000D01*
X140650000Y35198111D01*
X140650000Y35341889D01*
X140634405Y35395000D01*
X141550000Y35395000D01*
X141550000Y35935643D01*
X141547099Y35972494D01*
X141501281Y36130200D01*
X141417682Y36271557D01*
X141301556Y36387683D01*
X141160199Y36471282D01*
X141002491Y36517100D01*
X141002494Y36517100D01*
X140965643Y36520000D01*
X140275000Y36520000D01*
X140275000Y35757170D01*
X140185763Y35770000D01*
X140114237Y35770000D01*
X140025000Y35757170D01*
X140025000Y36520000D01*
X139334357Y36520000D01*
X139297506Y36517100D01*
X139139800Y36471282D01*
X138998443Y36387683D01*
X138882317Y36271557D01*
X138798718Y36130200D01*
X138752900Y35972494D01*
X138750000Y35935643D01*
X138750000Y35395000D01*
X139665595Y35395000D01*
X139650000Y35341889D01*
X139650000Y35198111D01*
X139665595Y35145000D01*
X138750000Y35145000D01*
X138750000Y34604357D01*
X4391133Y34604357D01*
X4297052Y34756302D01*
X4153407Y34913872D01*
X3983255Y35042366D01*
X3983252Y35042368D01*
X3792393Y35137404D01*
X3792383Y35137407D01*
X3587309Y35195757D01*
X3587303Y35195758D01*
X3428200Y35210500D01*
X3428194Y35210500D01*
X3071806Y35210500D01*
X3071799Y35210500D01*
X2912696Y35195758D01*
X2912690Y35195757D01*
X2707616Y35137407D01*
X2707606Y35137404D01*
X2516747Y35042368D01*
X2516741Y35042364D01*
X2346590Y34913870D01*
X2202946Y34756300D01*
X2090705Y34575024D01*
X2090700Y34575014D01*
X2013680Y34376202D01*
X1974500Y34166614D01*
X1974500Y33953387D01*
X1982798Y33909000D01*
X2013679Y33743802D01*
X2090702Y33544981D01*
X2160273Y33432621D01*
X2197947Y33371774D01*
X2202948Y33363698D01*
X2346593Y33206128D01*
X2505399Y33086202D01*
X2516741Y33077637D01*
X2516747Y33077633D01*
X2707606Y32982597D01*
X2707608Y32982597D01*
X2707611Y32982595D01*
X2774255Y32963633D01*
X2803980Y32955175D01*
X2844993Y32925506D01*
X2857339Y32876416D01*
X2835243Y32830874D01*
X2789042Y32810191D01*
X2783729Y32810000D01*
X2459357Y32810000D01*
X2422506Y32807100D01*
X2264800Y32761282D01*
X2123443Y32677683D01*
X2007317Y32561557D01*
X1923718Y32420200D01*
X1877900Y32262494D01*
X1875000Y32225643D01*
X1875000Y31685000D01*
X2791650Y31685000D01*
X2775000Y31628295D01*
X2775000Y31491705D01*
X2791650Y31435000D01*
X1875000Y31435000D01*
X1875000Y30894357D01*
X500000Y30894357D01*
X500000Y36453387D01*
X1974500Y36453387D01*
X1988551Y36378224D01*
X2013679Y36243802D01*
X2090702Y36044981D01*
X2202948Y35863698D01*
X2346593Y35706128D01*
X2458291Y35621777D01*
X2516741Y35577637D01*
X2516747Y35577633D01*
X2707606Y35482597D01*
X2707608Y35482597D01*
X2707611Y35482595D01*
X2912690Y35424244D01*
X2912696Y35424243D01*
X3001515Y35416014D01*
X3071806Y35409500D01*
X3071808Y35409500D01*
X3428192Y35409500D01*
X3428194Y35409500D01*
X3517019Y35417731D01*
X3587303Y35424243D01*
X3587307Y35424244D01*
X3587310Y35424244D01*
X3792389Y35482595D01*
X3983255Y35577634D01*
X4153407Y35706128D01*
X4297052Y35863698D01*
X4409298Y36044981D01*
X4468385Y36197503D01*
X9217537Y36197503D01*
X9235972Y36069280D01*
X9235972Y36069279D01*
X9235973Y36069277D01*
X9289788Y35951440D01*
X9374621Y35853536D01*
X9483601Y35783499D01*
X9607898Y35747003D01*
X9737442Y35747003D01*
X9747649Y35750000D01*
X22544867Y35750000D01*
X22563302Y35621777D01*
X22563302Y35621776D01*
X22563303Y35621774D01*
X22617118Y35503937D01*
X22701951Y35406033D01*
X22810931Y35335996D01*
X22935228Y35299500D01*
X23064772Y35299500D01*
X23189069Y35335996D01*
X23298049Y35406033D01*
X23382882Y35503937D01*
X23436697Y35621774D01*
X23455133Y35750000D01*
X23794867Y35750000D01*
X23813302Y35621777D01*
X23813302Y35621776D01*
X23813303Y35621774D01*
X23867118Y35503937D01*
X23951951Y35406033D01*
X24060931Y35335996D01*
X24185228Y35299500D01*
X24314772Y35299500D01*
X24439069Y35335996D01*
X24548049Y35406033D01*
X24632882Y35503937D01*
X24686697Y35621774D01*
X24705133Y35750000D01*
X24686697Y35878226D01*
X24632882Y35996063D01*
X24548049Y36093967D01*
X24481032Y36137036D01*
X24439068Y36164005D01*
X24314772Y36200500D01*
X24185228Y36200500D01*
X24060931Y36164005D01*
X23951954Y36093969D01*
X23951950Y36093966D01*
X23867119Y35996065D01*
X23813302Y35878224D01*
X23794867Y35750000D01*
X23455133Y35750000D01*
X23436697Y35878226D01*
X23382882Y35996063D01*
X23298049Y36093967D01*
X23231032Y36137036D01*
X23189068Y36164005D01*
X23064772Y36200500D01*
X22935228Y36200500D01*
X22810931Y36164005D01*
X22701954Y36093969D01*
X22701950Y36093966D01*
X22617119Y35996065D01*
X22563302Y35878224D01*
X22544867Y35750000D01*
X9747649Y35750000D01*
X9861739Y35783499D01*
X9970719Y35853536D01*
X10055552Y35951440D01*
X10109367Y36069277D01*
X10127803Y36197503D01*
X10120255Y36250000D01*
X10544867Y36250000D01*
X10563302Y36121777D01*
X10563302Y36121776D01*
X10563303Y36121774D01*
X10617118Y36003937D01*
X10701951Y35906033D01*
X10810931Y35835996D01*
X10935228Y35799500D01*
X11064772Y35799500D01*
X11189069Y35835996D01*
X11298049Y35906033D01*
X11382882Y36003937D01*
X11436697Y36121774D01*
X11455133Y36250000D01*
X25294867Y36250000D01*
X25313302Y36121777D01*
X25313302Y36121776D01*
X25313303Y36121774D01*
X25367118Y36003937D01*
X25451951Y35906033D01*
X25560931Y35835996D01*
X25685228Y35799500D01*
X25814772Y35799500D01*
X25939069Y35835996D01*
X26048049Y35906033D01*
X26132882Y36003937D01*
X26186697Y36121774D01*
X26205133Y36250000D01*
X26186697Y36378226D01*
X26132882Y36496063D01*
X26048049Y36593967D01*
X25951698Y36655888D01*
X25939068Y36664005D01*
X25814772Y36700500D01*
X25685228Y36700500D01*
X25560931Y36664005D01*
X25451954Y36593969D01*
X25451950Y36593966D01*
X25367119Y36496065D01*
X25313302Y36378224D01*
X25294867Y36250000D01*
X11455133Y36250000D01*
X11436697Y36378226D01*
X11382882Y36496063D01*
X11298049Y36593967D01*
X11201698Y36655888D01*
X11189068Y36664005D01*
X11064772Y36700500D01*
X10935228Y36700500D01*
X10810931Y36664005D01*
X10701954Y36593969D01*
X10701950Y36593966D01*
X10617119Y36496065D01*
X10563302Y36378224D01*
X10544867Y36250000D01*
X10120255Y36250000D01*
X10109367Y36325729D01*
X10055552Y36443566D01*
X9970719Y36541470D01*
X9901659Y36585852D01*
X9861738Y36611508D01*
X9737442Y36648003D01*
X9607898Y36648003D01*
X9483601Y36611508D01*
X9374624Y36541472D01*
X9374620Y36541469D01*
X9289789Y36443568D01*
X9235972Y36325727D01*
X9217537Y36197503D01*
X4468385Y36197503D01*
X4486321Y36243802D01*
X4525500Y36453390D01*
X4525500Y36666610D01*
X4498971Y36808526D01*
X7322749Y36808526D01*
X7341184Y36680303D01*
X7341184Y36680302D01*
X7341185Y36680300D01*
X7395000Y36562463D01*
X7479833Y36464559D01*
X7588813Y36394522D01*
X7713110Y36358026D01*
X7842654Y36358026D01*
X7966951Y36394522D01*
X8075931Y36464559D01*
X8160764Y36562463D01*
X8214579Y36680300D01*
X8233015Y36808526D01*
X8214579Y36936752D01*
X8185760Y36999856D01*
X8415183Y36999856D01*
X8433618Y36871633D01*
X8433618Y36871632D01*
X8433619Y36871630D01*
X8487434Y36753793D01*
X8572267Y36655889D01*
X8681247Y36585852D01*
X8805544Y36549356D01*
X8935088Y36549356D01*
X9059385Y36585852D01*
X9168365Y36655889D01*
X9253198Y36753793D01*
X9307013Y36871630D01*
X9325449Y36999856D01*
X9307013Y37128082D01*
X9253198Y37245919D01*
X9168365Y37343823D01*
X9101348Y37386892D01*
X9059384Y37413861D01*
X8935088Y37450356D01*
X8805544Y37450356D01*
X8681247Y37413861D01*
X8572270Y37343825D01*
X8572266Y37343822D01*
X8487435Y37245921D01*
X8487434Y37245920D01*
X8487434Y37245919D01*
X8460526Y37187001D01*
X8433618Y37128080D01*
X8415183Y36999856D01*
X8185760Y36999856D01*
X8160764Y37054589D01*
X8075931Y37152493D01*
X8008914Y37195562D01*
X7966950Y37222531D01*
X7842654Y37259026D01*
X7713110Y37259026D01*
X7588813Y37222531D01*
X7479836Y37152495D01*
X7479832Y37152492D01*
X7395001Y37054591D01*
X7341184Y36936750D01*
X7322749Y36808526D01*
X4498971Y36808526D01*
X4486321Y36876198D01*
X4409298Y37075019D01*
X4297052Y37256302D01*
X4153407Y37413872D01*
X3983255Y37542366D01*
X3983252Y37542368D01*
X3792393Y37637404D01*
X3792383Y37637407D01*
X3587309Y37695757D01*
X3587303Y37695758D01*
X3428200Y37710500D01*
X3428194Y37710500D01*
X3071806Y37710500D01*
X3071799Y37710500D01*
X2912696Y37695758D01*
X2912690Y37695757D01*
X2707616Y37637407D01*
X2707606Y37637404D01*
X2516747Y37542368D01*
X2516741Y37542364D01*
X2346590Y37413870D01*
X2202946Y37256300D01*
X2090705Y37075024D01*
X2090700Y37075014D01*
X2013680Y36876202D01*
X1974500Y36666614D01*
X1974500Y36453387D01*
X500000Y36453387D01*
X500000Y38953387D01*
X1974500Y38953387D01*
X1983705Y38904148D01*
X2013679Y38743802D01*
X2090702Y38544981D01*
X2202948Y38363698D01*
X2346593Y38206128D01*
X2512079Y38081157D01*
X2516741Y38077637D01*
X2516747Y38077633D01*
X2707606Y37982597D01*
X2707608Y37982597D01*
X2707611Y37982595D01*
X2912690Y37924244D01*
X2912696Y37924243D01*
X3001515Y37916014D01*
X3071806Y37909500D01*
X3071808Y37909500D01*
X3428192Y37909500D01*
X3428194Y37909500D01*
X3517019Y37917731D01*
X3587303Y37924243D01*
X3587307Y37924244D01*
X3587310Y37924244D01*
X3792389Y37982595D01*
X3983255Y38077634D01*
X4153407Y38206128D01*
X4297052Y38363698D01*
X4409298Y38544981D01*
X4486321Y38743802D01*
X4492325Y38775922D01*
X21302336Y38775922D01*
X21320771Y38647699D01*
X21320771Y38647698D01*
X21320772Y38647696D01*
X21374587Y38529859D01*
X21459420Y38431955D01*
X21568400Y38361918D01*
X21692697Y38325422D01*
X21822241Y38325422D01*
X21946538Y38361918D01*
X22055518Y38431955D01*
X22140351Y38529859D01*
X22194166Y38647696D01*
X22212602Y38775922D01*
X22194166Y38904148D01*
X22140351Y39021985D01*
X22055518Y39119889D01*
X21982812Y39166614D01*
X21946537Y39189927D01*
X21822241Y39226422D01*
X21692697Y39226422D01*
X21568400Y39189927D01*
X21459423Y39119891D01*
X21459419Y39119888D01*
X21374588Y39021987D01*
X21320771Y38904146D01*
X21302336Y38775922D01*
X4492325Y38775922D01*
X4525500Y38953390D01*
X4525500Y39166610D01*
X4509912Y39250000D01*
X26794867Y39250000D01*
X26813302Y39121777D01*
X26813302Y39121776D01*
X26813303Y39121774D01*
X26867118Y39003937D01*
X26951951Y38906033D01*
X27060931Y38835996D01*
X27185228Y38799500D01*
X27314772Y38799500D01*
X27439069Y38835996D01*
X27548049Y38906033D01*
X27632882Y39003937D01*
X27686697Y39121774D01*
X27705133Y39250000D01*
X27686697Y39378226D01*
X27632882Y39496063D01*
X27548049Y39593967D01*
X27481032Y39637036D01*
X27439068Y39664005D01*
X27314772Y39700500D01*
X27185228Y39700500D01*
X27060931Y39664005D01*
X26951954Y39593969D01*
X26951950Y39593966D01*
X26867119Y39496065D01*
X26813302Y39378224D01*
X26794867Y39250000D01*
X4509912Y39250000D01*
X4486321Y39376198D01*
X4409298Y39575019D01*
X4297052Y39756302D01*
X4153407Y39913872D01*
X3983255Y40042366D01*
X3983252Y40042368D01*
X3792393Y40137404D01*
X3792383Y40137407D01*
X3587309Y40195757D01*
X3587303Y40195758D01*
X3428200Y40210500D01*
X3428194Y40210500D01*
X3071806Y40210500D01*
X3071799Y40210500D01*
X2912696Y40195758D01*
X2912690Y40195757D01*
X2707616Y40137407D01*
X2707606Y40137404D01*
X2516747Y40042368D01*
X2516741Y40042364D01*
X2346590Y39913870D01*
X2202946Y39756300D01*
X2090705Y39575024D01*
X2090700Y39575014D01*
X2013680Y39376202D01*
X1974500Y39166614D01*
X1974500Y38953387D01*
X500000Y38953387D01*
X500000Y40750000D01*
X24794867Y40750000D01*
X24813302Y40621777D01*
X24813302Y40621776D01*
X24813303Y40621774D01*
X24867118Y40503937D01*
X24951951Y40406033D01*
X25060931Y40335996D01*
X25185228Y40299500D01*
X25314772Y40299500D01*
X25439069Y40335996D01*
X25548049Y40406033D01*
X25632882Y40503937D01*
X25686697Y40621774D01*
X25705133Y40750000D01*
X25686697Y40878226D01*
X25632882Y40996063D01*
X25548049Y41093967D01*
X25451474Y41156032D01*
X25439068Y41164005D01*
X25314772Y41200500D01*
X25185228Y41200500D01*
X25060931Y41164005D01*
X24951954Y41093969D01*
X24951950Y41093966D01*
X24867119Y40996065D01*
X24813302Y40878224D01*
X24794867Y40750000D01*
X500000Y40750000D01*
X500000Y41500000D01*
X74044867Y41500000D01*
X74063302Y41371777D01*
X74063302Y41371776D01*
X74063303Y41371774D01*
X74117118Y41253937D01*
X74201951Y41156033D01*
X74310931Y41085996D01*
X74435228Y41049500D01*
X74564772Y41049500D01*
X74689069Y41085996D01*
X74798049Y41156033D01*
X74882882Y41253937D01*
X74936697Y41371774D01*
X74955133Y41500000D01*
X77044867Y41500000D01*
X77063302Y41371777D01*
X77063302Y41371776D01*
X77063303Y41371774D01*
X77117118Y41253937D01*
X77201951Y41156033D01*
X77310931Y41085996D01*
X77435228Y41049500D01*
X77564772Y41049500D01*
X77689069Y41085996D01*
X77798049Y41156033D01*
X77882882Y41253937D01*
X77936697Y41371774D01*
X77955133Y41500000D01*
X82044867Y41500000D01*
X82063302Y41371777D01*
X82063302Y41371776D01*
X82063303Y41371774D01*
X82117118Y41253937D01*
X82201951Y41156033D01*
X82310931Y41085996D01*
X82435228Y41049500D01*
X82564772Y41049500D01*
X82689069Y41085996D01*
X82798049Y41156033D01*
X82882882Y41253937D01*
X82936697Y41371774D01*
X82955133Y41500000D01*
X87044867Y41500000D01*
X87063302Y41371777D01*
X87063302Y41371776D01*
X87063303Y41371774D01*
X87117118Y41253937D01*
X87201951Y41156033D01*
X87310931Y41085996D01*
X87435228Y41049500D01*
X87564772Y41049500D01*
X87689069Y41085996D01*
X87798049Y41156033D01*
X87882882Y41253937D01*
X87936697Y41371774D01*
X87955133Y41500000D01*
X92044867Y41500000D01*
X92063302Y41371777D01*
X92063302Y41371776D01*
X92063303Y41371774D01*
X92117118Y41253937D01*
X92201951Y41156033D01*
X92310931Y41085996D01*
X92435228Y41049500D01*
X92564772Y41049500D01*
X92689069Y41085996D01*
X92798049Y41156033D01*
X92882882Y41253937D01*
X92936697Y41371774D01*
X92955133Y41500000D01*
X97044867Y41500000D01*
X97063302Y41371777D01*
X97063302Y41371776D01*
X97063303Y41371774D01*
X97117118Y41253937D01*
X97201951Y41156033D01*
X97310931Y41085996D01*
X97435228Y41049500D01*
X97564772Y41049500D01*
X97689069Y41085996D01*
X97798049Y41156033D01*
X97882882Y41253937D01*
X97936697Y41371774D01*
X97955133Y41500000D01*
X102044867Y41500000D01*
X102063302Y41371777D01*
X102063302Y41371776D01*
X102063303Y41371774D01*
X102117118Y41253937D01*
X102201951Y41156033D01*
X102310931Y41085996D01*
X102435228Y41049500D01*
X102564772Y41049500D01*
X102689069Y41085996D01*
X102798049Y41156033D01*
X102882882Y41253937D01*
X102936697Y41371774D01*
X102955133Y41500000D01*
X107044867Y41500000D01*
X107063302Y41371777D01*
X107063302Y41371776D01*
X107063303Y41371774D01*
X107117118Y41253937D01*
X107201951Y41156033D01*
X107310931Y41085996D01*
X107435228Y41049500D01*
X107564772Y41049500D01*
X107689069Y41085996D01*
X107798049Y41156033D01*
X107882882Y41253937D01*
X107936697Y41371774D01*
X107955133Y41500000D01*
X112044867Y41500000D01*
X112063302Y41371777D01*
X112063302Y41371776D01*
X112063303Y41371774D01*
X112117118Y41253937D01*
X112201951Y41156033D01*
X112310931Y41085996D01*
X112435228Y41049500D01*
X112564772Y41049500D01*
X112689069Y41085996D01*
X112798049Y41156033D01*
X112882882Y41253937D01*
X112936697Y41371774D01*
X112955133Y41500000D01*
X112936697Y41628226D01*
X112882882Y41746063D01*
X112798049Y41843967D01*
X112731032Y41887036D01*
X112689068Y41914005D01*
X112564772Y41950500D01*
X112435228Y41950500D01*
X112310931Y41914005D01*
X112201954Y41843969D01*
X112201950Y41843966D01*
X112117119Y41746065D01*
X112063302Y41628224D01*
X112044867Y41500000D01*
X107955133Y41500000D01*
X107936697Y41628226D01*
X107882882Y41746063D01*
X107798049Y41843967D01*
X107731032Y41887036D01*
X107689068Y41914005D01*
X107564772Y41950500D01*
X107435228Y41950500D01*
X107310931Y41914005D01*
X107201954Y41843969D01*
X107201950Y41843966D01*
X107117119Y41746065D01*
X107063302Y41628224D01*
X107044867Y41500000D01*
X102955133Y41500000D01*
X102936697Y41628226D01*
X102882882Y41746063D01*
X102798049Y41843967D01*
X102731032Y41887036D01*
X102689068Y41914005D01*
X102564772Y41950500D01*
X102435228Y41950500D01*
X102310931Y41914005D01*
X102201954Y41843969D01*
X102201950Y41843966D01*
X102117119Y41746065D01*
X102063302Y41628224D01*
X102044867Y41500000D01*
X97955133Y41500000D01*
X97936697Y41628226D01*
X97882882Y41746063D01*
X97798049Y41843967D01*
X97731032Y41887036D01*
X97689068Y41914005D01*
X97564772Y41950500D01*
X97435228Y41950500D01*
X97310931Y41914005D01*
X97201954Y41843969D01*
X97201950Y41843966D01*
X97117119Y41746065D01*
X97063302Y41628224D01*
X97044867Y41500000D01*
X92955133Y41500000D01*
X92936697Y41628226D01*
X92882882Y41746063D01*
X92798049Y41843967D01*
X92731032Y41887036D01*
X92689068Y41914005D01*
X92564772Y41950500D01*
X92435228Y41950500D01*
X92310931Y41914005D01*
X92201954Y41843969D01*
X92201950Y41843966D01*
X92117119Y41746065D01*
X92063302Y41628224D01*
X92044867Y41500000D01*
X87955133Y41500000D01*
X87936697Y41628226D01*
X87882882Y41746063D01*
X87798049Y41843967D01*
X87731032Y41887036D01*
X87689068Y41914005D01*
X87564772Y41950500D01*
X87435228Y41950500D01*
X87310931Y41914005D01*
X87201954Y41843969D01*
X87201950Y41843966D01*
X87117119Y41746065D01*
X87063302Y41628224D01*
X87044867Y41500000D01*
X82955133Y41500000D01*
X82936697Y41628226D01*
X82882882Y41746063D01*
X82798049Y41843967D01*
X82731032Y41887036D01*
X82689068Y41914005D01*
X82564772Y41950500D01*
X82435228Y41950500D01*
X82310931Y41914005D01*
X82201954Y41843969D01*
X82201950Y41843966D01*
X82117119Y41746065D01*
X82063302Y41628224D01*
X82044867Y41500000D01*
X77955133Y41500000D01*
X77936697Y41628226D01*
X77882882Y41746063D01*
X77798049Y41843967D01*
X77731032Y41887036D01*
X77689068Y41914005D01*
X77564772Y41950500D01*
X77435228Y41950500D01*
X77310931Y41914005D01*
X77201954Y41843969D01*
X77201950Y41843966D01*
X77117119Y41746065D01*
X77063302Y41628224D01*
X77044867Y41500000D01*
X74955133Y41500000D01*
X74936697Y41628226D01*
X74882882Y41746063D01*
X74798049Y41843967D01*
X74731032Y41887036D01*
X74689068Y41914005D01*
X74564772Y41950500D01*
X74435228Y41950500D01*
X74310931Y41914005D01*
X74201954Y41843969D01*
X74201950Y41843966D01*
X74117119Y41746065D01*
X74063302Y41628224D01*
X74044867Y41500000D01*
X500000Y41500000D01*
X500000Y42000000D01*
X26794867Y42000000D01*
X26813302Y41871777D01*
X26813302Y41871776D01*
X26813303Y41871774D01*
X26867118Y41753937D01*
X26951951Y41656033D01*
X27060931Y41585996D01*
X27185228Y41549500D01*
X27314772Y41549500D01*
X27439069Y41585996D01*
X27548049Y41656033D01*
X27632882Y41753937D01*
X27686697Y41871774D01*
X27705133Y42000000D01*
X27686697Y42128226D01*
X27632882Y42246063D01*
X27548049Y42343967D01*
X27451474Y42406032D01*
X27439068Y42414005D01*
X27314772Y42450500D01*
X27185228Y42450500D01*
X27060931Y42414005D01*
X26951954Y42343969D01*
X26951950Y42343966D01*
X26867119Y42246065D01*
X26813302Y42128224D01*
X26794867Y42000000D01*
X500000Y42000000D01*
X500000Y43000000D01*
X814867Y43000000D01*
X833302Y42871777D01*
X833302Y42871776D01*
X833303Y42871774D01*
X887118Y42753937D01*
X971951Y42656033D01*
X1080931Y42585996D01*
X1205228Y42549500D01*
X1334772Y42549500D01*
X1459069Y42585996D01*
X1568049Y42656033D01*
X1649471Y42750000D01*
X12294867Y42750000D01*
X12313302Y42621777D01*
X12313302Y42621776D01*
X12313303Y42621774D01*
X12367118Y42503937D01*
X12451951Y42406033D01*
X12560931Y42335996D01*
X12685228Y42299500D01*
X12814772Y42299500D01*
X12939069Y42335996D01*
X13048049Y42406033D01*
X13132882Y42503937D01*
X13186697Y42621774D01*
X13205133Y42750000D01*
X16044867Y42750000D01*
X16063302Y42621777D01*
X16063302Y42621776D01*
X16063303Y42621774D01*
X16117118Y42503937D01*
X16201951Y42406033D01*
X16310931Y42335996D01*
X16435228Y42299500D01*
X16564772Y42299500D01*
X16689069Y42335996D01*
X16798049Y42406033D01*
X16882882Y42503937D01*
X16936697Y42621774D01*
X16955133Y42750000D01*
X16936697Y42878226D01*
X16882882Y42996063D01*
X16798049Y43093967D01*
X16731032Y43137036D01*
X16689068Y43164005D01*
X16564772Y43200500D01*
X16435228Y43200500D01*
X16310931Y43164005D01*
X16201954Y43093969D01*
X16201950Y43093966D01*
X16117119Y42996065D01*
X16063302Y42878224D01*
X16044867Y42750000D01*
X13205133Y42750000D01*
X13186697Y42878226D01*
X13132882Y42996063D01*
X13048049Y43093967D01*
X12981032Y43137036D01*
X12939068Y43164005D01*
X12814772Y43200500D01*
X12685228Y43200500D01*
X12560931Y43164005D01*
X12451954Y43093969D01*
X12451950Y43093966D01*
X12367119Y42996065D01*
X12313302Y42878224D01*
X12294867Y42750000D01*
X1649471Y42750000D01*
X1652882Y42753937D01*
X1706697Y42871774D01*
X1725133Y43000000D01*
X1706697Y43128226D01*
X1652882Y43246063D01*
X1649471Y43250000D01*
X25044867Y43250000D01*
X25063302Y43121777D01*
X25063302Y43121776D01*
X25063303Y43121774D01*
X25117118Y43003937D01*
X25201951Y42906033D01*
X25310931Y42835996D01*
X25435228Y42799500D01*
X25564772Y42799500D01*
X25689069Y42835996D01*
X25798049Y42906033D01*
X25882882Y43003937D01*
X25936697Y43121774D01*
X25955133Y43250000D01*
X25936697Y43378226D01*
X25882882Y43496063D01*
X25798049Y43593967D01*
X25731032Y43637036D01*
X25689068Y43664005D01*
X25564772Y43700500D01*
X25435228Y43700500D01*
X25310931Y43664005D01*
X25201954Y43593969D01*
X25201950Y43593966D01*
X25117119Y43496065D01*
X25063302Y43378224D01*
X25044867Y43250000D01*
X1649471Y43250000D01*
X1568049Y43343967D01*
X1501032Y43387036D01*
X1459068Y43414005D01*
X1334772Y43450500D01*
X1205228Y43450500D01*
X1080931Y43414005D01*
X971954Y43343969D01*
X971950Y43343966D01*
X887119Y43246065D01*
X833302Y43128224D01*
X814867Y43000000D01*
X500000Y43000000D01*
X500000Y44500000D01*
X26794867Y44500000D01*
X26813302Y44371777D01*
X26813302Y44371776D01*
X26813303Y44371774D01*
X26867118Y44253937D01*
X26951951Y44156033D01*
X27060931Y44085996D01*
X27185228Y44049500D01*
X27314772Y44049500D01*
X27439069Y44085996D01*
X27548049Y44156033D01*
X27632882Y44253937D01*
X27686697Y44371774D01*
X27705133Y44500000D01*
X27686697Y44628226D01*
X27632882Y44746063D01*
X27548049Y44843967D01*
X27481032Y44887036D01*
X27439068Y44914005D01*
X27314772Y44950500D01*
X27185228Y44950500D01*
X27060931Y44914005D01*
X26951954Y44843969D01*
X26951950Y44843966D01*
X26867119Y44746065D01*
X26813302Y44628224D01*
X26794867Y44500000D01*
X500000Y44500000D01*
X500000Y45750000D01*
X25294867Y45750000D01*
X25313302Y45621777D01*
X25313302Y45621776D01*
X25313303Y45621774D01*
X25367118Y45503937D01*
X25451951Y45406033D01*
X25560931Y45335996D01*
X25685228Y45299500D01*
X25814772Y45299500D01*
X25939069Y45335996D01*
X26048049Y45406033D01*
X26132882Y45503937D01*
X26186697Y45621774D01*
X26205133Y45750000D01*
X26186697Y45878226D01*
X26132882Y45996063D01*
X26048049Y46093967D01*
X25981032Y46137036D01*
X25939068Y46164005D01*
X25814772Y46200500D01*
X25685228Y46200500D01*
X25560931Y46164005D01*
X25451954Y46093969D01*
X25451950Y46093966D01*
X25367119Y45996065D01*
X25313302Y45878224D01*
X25294867Y45750000D01*
X500000Y45750000D01*
X500000Y50000000D01*
X1395060Y50000000D01*
X1414808Y49623178D01*
X1414808Y49623177D01*
X1473836Y49250496D01*
X1571498Y48886013D01*
X1706720Y48533746D01*
X1878029Y48197532D01*
X2083543Y47881068D01*
X2321009Y47587822D01*
X2366027Y47542804D01*
X3783698Y48960476D01*
X3865130Y48865130D01*
X3960475Y48783699D01*
X2542804Y47366027D01*
X2587821Y47321010D01*
X2881067Y47083544D01*
X3197531Y46878030D01*
X3533745Y46706721D01*
X3886012Y46571499D01*
X4250495Y46473837D01*
X4623176Y46414809D01*
X5000000Y46395061D01*
X5376822Y46414809D01*
X5376823Y46414809D01*
X5749504Y46473837D01*
X6113987Y46571499D01*
X6466254Y46706721D01*
X6551194Y46750000D01*
X26794867Y46750000D01*
X26813302Y46621777D01*
X26813302Y46621776D01*
X26813303Y46621774D01*
X26867118Y46503937D01*
X26951951Y46406033D01*
X27060931Y46335996D01*
X27185228Y46299500D01*
X27314772Y46299500D01*
X27439069Y46335996D01*
X27548049Y46406033D01*
X27632882Y46503937D01*
X27686697Y46621774D01*
X27705133Y46750000D01*
X27686697Y46878226D01*
X27632882Y46996063D01*
X27548049Y47093967D01*
X27481032Y47137036D01*
X27439068Y47164005D01*
X27314772Y47200500D01*
X27185228Y47200500D01*
X27060931Y47164005D01*
X26951954Y47093969D01*
X26951950Y47093966D01*
X26867119Y46996065D01*
X26813302Y46878224D01*
X26794867Y46750000D01*
X6551194Y46750000D01*
X6802468Y46878030D01*
X7118932Y47083544D01*
X7412178Y47321010D01*
X7457196Y47366027D01*
X6039524Y48783699D01*
X6134870Y48865130D01*
X6216301Y48960476D01*
X7633973Y47542804D01*
X7678990Y47587822D01*
X7810319Y47750000D01*
X25294867Y47750000D01*
X25313302Y47621777D01*
X25313302Y47621776D01*
X25313303Y47621774D01*
X25367118Y47503937D01*
X25451951Y47406033D01*
X25560931Y47335996D01*
X25685228Y47299500D01*
X25814772Y47299500D01*
X25939069Y47335996D01*
X26048049Y47406033D01*
X26132882Y47503937D01*
X26186697Y47621774D01*
X26205133Y47750000D01*
X26186697Y47878226D01*
X26132882Y47996063D01*
X26048049Y48093967D01*
X25951474Y48156032D01*
X25939068Y48164005D01*
X25814772Y48200500D01*
X25685228Y48200500D01*
X25560931Y48164005D01*
X25451954Y48093969D01*
X25451950Y48093966D01*
X25367119Y47996065D01*
X25313302Y47878224D01*
X25294867Y47750000D01*
X7810319Y47750000D01*
X7916456Y47881068D01*
X8121970Y48197532D01*
X8276085Y48500000D01*
X76544867Y48500000D01*
X76563302Y48371777D01*
X76563302Y48371776D01*
X76563303Y48371774D01*
X76617118Y48253937D01*
X76701951Y48156033D01*
X76810931Y48085996D01*
X76935228Y48049500D01*
X77064772Y48049500D01*
X77189069Y48085996D01*
X77298049Y48156033D01*
X77382882Y48253937D01*
X77436697Y48371774D01*
X77455133Y48500000D01*
X77436697Y48628226D01*
X77382882Y48746063D01*
X77298049Y48843967D01*
X77231032Y48887036D01*
X77189068Y48914005D01*
X77064772Y48950500D01*
X76935228Y48950500D01*
X76810931Y48914005D01*
X76701954Y48843969D01*
X76701950Y48843966D01*
X76617119Y48746065D01*
X76617118Y48746064D01*
X76617118Y48746063D01*
X76590210Y48687145D01*
X76563302Y48628224D01*
X76544867Y48500000D01*
X8276085Y48500000D01*
X8293279Y48533746D01*
X8428501Y48886013D01*
X8526163Y49250496D01*
X8585191Y49623177D01*
X8585191Y49623178D01*
X8604939Y50000000D01*
X136395060Y50000000D01*
X136414808Y49623178D01*
X136414808Y49623177D01*
X136473836Y49250496D01*
X136571498Y48886013D01*
X136706720Y48533746D01*
X136878029Y48197532D01*
X137083543Y47881068D01*
X137321009Y47587822D01*
X137366027Y47542804D01*
X138783698Y48960476D01*
X138865130Y48865130D01*
X138960475Y48783699D01*
X137542804Y47366027D01*
X137587821Y47321010D01*
X137881067Y47083544D01*
X138197531Y46878030D01*
X138533745Y46706721D01*
X138886012Y46571499D01*
X139250495Y46473837D01*
X139623176Y46414809D01*
X140000000Y46395061D01*
X140376822Y46414809D01*
X140376823Y46414809D01*
X140749504Y46473837D01*
X141113987Y46571499D01*
X141466254Y46706721D01*
X141802468Y46878030D01*
X142118932Y47083544D01*
X142412178Y47321010D01*
X142457196Y47366027D01*
X141039524Y48783699D01*
X141134870Y48865130D01*
X141216301Y48960476D01*
X142633973Y47542804D01*
X142678990Y47587822D01*
X142916456Y47881068D01*
X143121970Y48197532D01*
X143293279Y48533746D01*
X143428501Y48886013D01*
X143526163Y49250496D01*
X143585191Y49623177D01*
X143585191Y49623178D01*
X143604939Y50000000D01*
X143585191Y50376823D01*
X143585191Y50376824D01*
X143526163Y50749505D01*
X143428501Y51113988D01*
X143293279Y51466255D01*
X143121970Y51802469D01*
X142916456Y52118933D01*
X142678990Y52412179D01*
X142633973Y52457196D01*
X141216301Y51039525D01*
X141134870Y51134870D01*
X141039524Y51216302D01*
X142457196Y52633973D01*
X142412178Y52678991D01*
X142118932Y52916457D01*
X141802468Y53121971D01*
X141466254Y53293280D01*
X141113987Y53428502D01*
X140749504Y53526164D01*
X140376823Y53585192D01*
X140000000Y53604940D01*
X139623177Y53585192D01*
X139623176Y53585192D01*
X139250495Y53526164D01*
X138886012Y53428502D01*
X138533745Y53293280D01*
X138197531Y53121971D01*
X137881067Y52916457D01*
X137587821Y52678991D01*
X137542804Y52633973D01*
X138960475Y51216302D01*
X138865130Y51134870D01*
X138783698Y51039525D01*
X137366027Y52457196D01*
X137321009Y52412179D01*
X137083543Y52118933D01*
X136878029Y51802469D01*
X136706720Y51466255D01*
X136571498Y51113988D01*
X136473836Y50749505D01*
X136414808Y50376824D01*
X136414808Y50376823D01*
X136395060Y50000000D01*
X8604939Y50000000D01*
X8585191Y50376823D01*
X8585191Y50376824D01*
X8526163Y50749505D01*
X8430775Y51105500D01*
X73794867Y51105500D01*
X73813302Y50977277D01*
X73813302Y50977276D01*
X73813303Y50977274D01*
X73867118Y50859437D01*
X73951951Y50761533D01*
X74060931Y50691496D01*
X74185228Y50655000D01*
X74314772Y50655000D01*
X74439069Y50691496D01*
X74548049Y50761533D01*
X74632882Y50859437D01*
X74686697Y50977274D01*
X74705133Y51105500D01*
X74686697Y51233726D01*
X74632882Y51351563D01*
X74548049Y51449467D01*
X74469418Y51500000D01*
X81794867Y51500000D01*
X81813302Y51371777D01*
X81813302Y51371776D01*
X81813303Y51371774D01*
X81867118Y51253937D01*
X81951951Y51156033D01*
X82060931Y51085996D01*
X82185228Y51049500D01*
X82314772Y51049500D01*
X82439069Y51085996D01*
X82548049Y51156033D01*
X82632882Y51253937D01*
X82686697Y51371774D01*
X82705133Y51500000D01*
X82686697Y51628226D01*
X82632882Y51746063D01*
X82629471Y51750000D01*
X87044867Y51750000D01*
X87063302Y51621777D01*
X87063302Y51621776D01*
X87063303Y51621774D01*
X87117118Y51503937D01*
X87201951Y51406033D01*
X87310931Y51335996D01*
X87435228Y51299500D01*
X87564772Y51299500D01*
X87689069Y51335996D01*
X87798049Y51406033D01*
X87882882Y51503937D01*
X87936697Y51621774D01*
X87955133Y51750000D01*
X102044867Y51750000D01*
X102063302Y51621777D01*
X102063302Y51621776D01*
X102063303Y51621774D01*
X102117118Y51503937D01*
X102201951Y51406033D01*
X102310931Y51335996D01*
X102435228Y51299500D01*
X102564772Y51299500D01*
X102689069Y51335996D01*
X102798049Y51406033D01*
X102882882Y51503937D01*
X102936697Y51621774D01*
X102955133Y51750000D01*
X107044867Y51750000D01*
X107063302Y51621777D01*
X107063302Y51621776D01*
X107063303Y51621774D01*
X107117118Y51503937D01*
X107201951Y51406033D01*
X107310931Y51335996D01*
X107435228Y51299500D01*
X107564772Y51299500D01*
X107689069Y51335996D01*
X107798049Y51406033D01*
X107882882Y51503937D01*
X107936697Y51621774D01*
X107955133Y51750000D01*
X107936697Y51878226D01*
X107882882Y51996063D01*
X107879471Y52000000D01*
X112044867Y52000000D01*
X112063302Y51871777D01*
X112063302Y51871776D01*
X112063303Y51871774D01*
X112117118Y51753937D01*
X112201951Y51656033D01*
X112310931Y51585996D01*
X112435228Y51549500D01*
X112564772Y51549500D01*
X112689069Y51585996D01*
X112798049Y51656033D01*
X112882882Y51753937D01*
X112936697Y51871774D01*
X112955133Y52000000D01*
X112936697Y52128226D01*
X112882882Y52246063D01*
X112798049Y52343967D01*
X112691909Y52412179D01*
X112689068Y52414005D01*
X112564772Y52450500D01*
X112435228Y52450500D01*
X112310931Y52414005D01*
X112201954Y52343969D01*
X112201950Y52343966D01*
X112117119Y52246065D01*
X112063302Y52128224D01*
X112044867Y52000000D01*
X107879471Y52000000D01*
X107798049Y52093967D01*
X107731032Y52137036D01*
X107689068Y52164005D01*
X107564772Y52200500D01*
X107435228Y52200500D01*
X107310931Y52164005D01*
X107201954Y52093969D01*
X107201950Y52093966D01*
X107117119Y51996065D01*
X107063302Y51878224D01*
X107044867Y51750000D01*
X102955133Y51750000D01*
X102936697Y51878226D01*
X102882882Y51996063D01*
X102798049Y52093967D01*
X102731032Y52137036D01*
X102689068Y52164005D01*
X102564772Y52200500D01*
X102435228Y52200500D01*
X102310931Y52164005D01*
X102201954Y52093969D01*
X102201950Y52093966D01*
X102117119Y51996065D01*
X102063302Y51878224D01*
X102044867Y51750000D01*
X87955133Y51750000D01*
X87936697Y51878226D01*
X87882882Y51996063D01*
X87798049Y52093967D01*
X87731032Y52137036D01*
X87689068Y52164005D01*
X87564772Y52200500D01*
X87435228Y52200500D01*
X87310931Y52164005D01*
X87201954Y52093969D01*
X87201950Y52093966D01*
X87117119Y51996065D01*
X87063302Y51878224D01*
X87044867Y51750000D01*
X82629471Y51750000D01*
X82548049Y51843967D01*
X82451474Y51906032D01*
X82439068Y51914005D01*
X82314772Y51950500D01*
X82185228Y51950500D01*
X82060931Y51914005D01*
X81951954Y51843969D01*
X81951950Y51843966D01*
X81867119Y51746065D01*
X81813302Y51628224D01*
X81794867Y51500000D01*
X74469418Y51500000D01*
X74439068Y51519505D01*
X74314772Y51556000D01*
X74185228Y51556000D01*
X74060931Y51519505D01*
X73951954Y51449469D01*
X73951950Y51449466D01*
X73867119Y51351565D01*
X73813302Y51233724D01*
X73794867Y51105500D01*
X8430775Y51105500D01*
X8428501Y51113988D01*
X8293279Y51466255D01*
X8121970Y51802469D01*
X7916456Y52118933D01*
X7810320Y52250000D01*
X91044867Y52250000D01*
X91063302Y52121777D01*
X91063302Y52121776D01*
X91063303Y52121774D01*
X91117118Y52003937D01*
X91201951Y51906033D01*
X91310931Y51835996D01*
X91435228Y51799500D01*
X91564772Y51799500D01*
X91689069Y51835996D01*
X91798049Y51906033D01*
X91882882Y52003937D01*
X91936697Y52121774D01*
X91955133Y52250000D01*
X97044867Y52250000D01*
X97063302Y52121777D01*
X97063302Y52121776D01*
X97063303Y52121774D01*
X97117118Y52003937D01*
X97201951Y51906033D01*
X97310931Y51835996D01*
X97435228Y51799500D01*
X97564772Y51799500D01*
X97689069Y51835996D01*
X97798049Y51906033D01*
X97882882Y52003937D01*
X97936697Y52121774D01*
X97955133Y52250000D01*
X97936697Y52378226D01*
X97882882Y52496063D01*
X97798049Y52593967D01*
X97731032Y52637036D01*
X97689068Y52664005D01*
X97564772Y52700500D01*
X97435228Y52700500D01*
X97310931Y52664005D01*
X97201954Y52593969D01*
X97201950Y52593966D01*
X97117119Y52496065D01*
X97063302Y52378224D01*
X97044867Y52250000D01*
X91955133Y52250000D01*
X91936697Y52378226D01*
X91882882Y52496063D01*
X91798049Y52593967D01*
X91731032Y52637036D01*
X91689068Y52664005D01*
X91564772Y52700500D01*
X91435228Y52700500D01*
X91310931Y52664005D01*
X91201954Y52593969D01*
X91201950Y52593966D01*
X91117119Y52496065D01*
X91063302Y52378224D01*
X91044867Y52250000D01*
X7810320Y52250000D01*
X7678990Y52412179D01*
X7633973Y52457196D01*
X6216301Y51039525D01*
X6134870Y51134870D01*
X6039524Y51216302D01*
X7457196Y52633973D01*
X7412178Y52678991D01*
X7118932Y52916457D01*
X6802468Y53121971D01*
X6466254Y53293280D01*
X6113987Y53428502D01*
X5749504Y53526164D01*
X5376823Y53585192D01*
X5000000Y53604940D01*
X4623177Y53585192D01*
X4623176Y53585192D01*
X4250495Y53526164D01*
X3886012Y53428502D01*
X3533745Y53293280D01*
X3197531Y53121971D01*
X2881067Y52916457D01*
X2587821Y52678991D01*
X2542804Y52633973D01*
X3960475Y51216302D01*
X3865130Y51134870D01*
X3783698Y51039525D01*
X2366027Y52457196D01*
X2321009Y52412179D01*
X2083543Y52118933D01*
X1878029Y51802469D01*
X1706720Y51466255D01*
X1571498Y51113988D01*
X1473836Y50749505D01*
X1414808Y50376824D01*
X1414808Y50376823D01*
X1395060Y50000000D01*
X500000Y50000000D01*
X500000Y51329791D01*
X503425Y51352043D01*
X509647Y51371777D01*
X583438Y51605812D01*
X584524Y51608796D01*
X740189Y51984603D01*
X741554Y51987530D01*
X796961Y52093966D01*
X929373Y52348328D01*
X930972Y52351098D01*
X1149534Y52694172D01*
X1151369Y52696792D01*
X1399005Y53019519D01*
X1401049Y53021954D01*
X1675878Y53321877D01*
X1678123Y53324122D01*
X1978046Y53598951D01*
X1980481Y53600995D01*
X2303208Y53848631D01*
X2305828Y53850466D01*
X2648902Y54069028D01*
X2651672Y54070627D01*
X3012470Y54258447D01*
X3015397Y54259811D01*
X3017734Y54260780D01*
X3391204Y54415476D01*
X3394188Y54416562D01*
X3647958Y54496575D01*
X3670210Y54500000D01*
X141329790Y54500000D01*
X141352042Y54496575D01*
G37*
%TD.AperFunction*%
%TD*%
M02*
