M48
; DRILL file {KiCad 7.0.9} date Mon Apr  8 22:34:49 2024
; FORMAT={-:-/ absolute / metric / decimal}
; #@! TF.CreationDate,2024-04-08T22:34:49+02:00
; #@! TF.GenerationSoftware,Kicad,Pcbnew,7.0.9
; #@! TF.FileFunction,Plated,1,4,PTH
FMAT,2
METRIC
; #@! TA.AperFunction,Plated,PTH,ViaDrill
T1C0.300
; #@! TA.AperFunction,Plated,PTH,ViaDrill
T2C0.400
; #@! TA.AperFunction,Plated,PTH,ComponentDrill
T3C0.600
; #@! TA.AperFunction,Plated,PTH,ComponentDrill
T4C0.800
; #@! TA.AperFunction,Plated,PTH,ComponentDrill
T5C0.950
; #@! TA.AperFunction,Plated,PTH,ComponentDrill
T6C1.000
; #@! TA.AperFunction,Plated,PTH,ComponentDrill
T7C3.200
%
G90
G05
T1
X1.27Y43.0
X7.5Y31.5
X7.778Y36.809
X7.93Y24.64
X8.5Y33.25
X8.87Y37.0
X9.28Y43.5
X9.5Y8.0
X9.673Y36.198
X9.75Y28.5
X9.75Y21.25
X10.0Y33.75
X10.0Y20.0
X10.25Y31.25
X10.72Y40.5
X11.0Y36.25
X11.25Y33.5
X11.95Y52.0
X11.95Y51.0
X12.0Y53.0
X12.5Y22.25
X12.75Y42.75
X13.766Y48.381
X14.0Y42.75
X14.0Y39.0
X14.0Y37.0
X14.0Y35.0
X14.354Y31.277
X15.0Y38.0
X15.0Y36.0
X15.22Y30.21
X15.705Y48.389
X16.0Y39.0
X16.0Y35.0
X16.0Y10.5
X16.497Y43.938
X16.5Y46.75
X16.5Y42.75
X17.0Y38.0
X17.25Y36.0
X17.275Y42.25
X17.45Y53.0
X17.45Y52.0
X17.45Y51.0
X17.645Y32.25
X17.75Y30.75
X18.0Y39.0
X18.0Y37.0
X18.0Y35.0
X18.877Y31.281
X19.0Y29.25
X19.5Y19.75
X20.25Y29.25
X21.225Y32.0
X21.37Y34.0
X21.4Y33.0
X21.5Y8.0
X21.757Y38.776
X22.295Y30.5
X22.5Y20.5
X22.75Y28.75
X23.0Y35.75
X23.07Y38.282
X24.25Y35.75
X25.25Y40.75
X25.5Y43.25
X25.75Y47.75
X25.75Y45.75
X25.75Y36.25
X26.5Y33.5
X27.25Y46.75
X27.25Y44.5
X27.25Y42.0
X27.25Y39.25
X29.5Y9.75
X30.6Y20.5
X31.5Y7.5
X31.75Y9.0
X33.0Y27.25
X33.0Y13.75
X33.0Y10.25
X34.25Y21.5
X34.331Y19.581
X34.5Y27.25
X34.5Y13.75
X36.625Y28.625
X42.75Y7.0
X44.25Y29.25
X52.0Y14.0
X52.75Y26.5
X53.0Y21.25
X53.0Y19.5
X54.5Y27.0
X54.5Y14.0
X55.5Y28.75
X56.8Y20.5
X57.0Y13.75
X65.0Y20.5
X65.5Y14.0
X66.5Y27.75
X67.5Y27.0
X67.5Y14.0
X67.5Y8.25
X68.907Y19.537
X68.988Y21.339
X70.0Y27.25
X70.0Y14.0
X74.25Y51.105
X74.5Y41.5
X77.0Y48.5
X77.5Y41.5
X82.25Y51.5
X82.5Y41.5
X87.0Y27.0
X87.0Y14.0
X87.5Y51.75
X87.5Y41.5
X87.528Y19.676
X87.608Y21.324
X89.5Y27.25
X89.5Y13.25
X90.5Y28.25
X91.25Y13.0
X91.5Y52.25
X91.8Y20.5
X92.5Y41.5
X97.5Y52.25
X97.5Y41.5
X100.0Y20.5
X100.75Y13.25
X101.25Y8.25
X101.5Y28.0
X102.5Y51.75
X102.5Y41.5
X102.5Y27.0
X102.5Y13.25
X104.0Y4.25
X104.25Y21.0
X104.25Y20.0
X105.0Y27.0
X105.0Y14.0
X107.5Y51.75
X107.5Y41.5
X112.0Y5.75
X112.5Y52.0
X112.5Y41.5
X114.2Y13.6
X114.2Y12.4
X114.352Y6.102
X114.4Y7.25
X114.75Y15.25
X117.75Y49.0
X117.75Y18.0
X117.75Y15.5
X118.25Y7.75
X118.25Y6.25
X119.75Y49.0
X120.0Y17.0
X121.25Y42.5
X121.25Y38.5
X121.5Y11.75
X121.5Y8.0
X125.0Y42.25
X125.25Y38.5
X125.25Y11.75
X125.25Y7.75
X137.0Y13.0
X137.5Y43.55
T2
X19.0Y18.5
T4
X108.5Y11.08
X108.5Y8.54
X108.5Y6.0
X128.5Y32.58
X128.5Y30.04
X128.5Y27.5
T5
X2.99Y22.61
X2.99Y20.11
X2.99Y17.61
X2.99Y15.11
X3.25Y39.06
X3.25Y36.56
X3.25Y34.06
X3.25Y31.56
T6
X140.15Y35.27
X140.15Y32.77
X140.15Y25.11
X140.15Y22.61
T7
X5.0Y50.0
X5.0Y5.0
X140.0Y50.0
X140.0Y5.0
T3
G00X11.2Y6.975
M15
G01X11.2Y5.875
M16
G05
G00X11.2Y2.645
M15
G01X11.2Y1.845
M16
G05
G00X19.84Y6.975
M15
G01X19.84Y5.875
M16
G05
G00X19.84Y2.645
M15
G01X19.84Y1.845
M16
G05
T0
M30
