<svg height="24" viewBox="0 0 24 24" width="24" xmlns="http://www.w3.org/2000/svg"><path d="m15.75 2c1.2426407 0 2.25 1.00735931 2.25 2.25v15.5c0 1.2426407-1.0073593 2.25-2.25 2.25h-7.5c-1.24264069 0-2.25-1.0073593-2.25-2.25v-15.5c0-1.24264069 1.00735931-2.25 2.25-2.25zm0 1.5h-7.5c-.41421356 0-.75.33578644-.75.75v15.5c0 .4142136.33578644.75.75.75h7.5c.4142136 0 .75-.3357864.75-.75v-15.5c0-.41421356-.3357864-.75-.75-.75zm-3.75 3.53091032c.3796958 0 .693491.28215388.7431534.64822944l.0068466.10177056-.0006674 6.71099998.9620047-.9611041c.2662665-.2662666.6829302-.2904727.9765417-.0726182l.0841184.0726182c.2662666.2662665.2904727.6829302.0726182.9765417l-.0726182.0841184-2.2416673 2.2416674-.0381917.035635-.0625089.0489391-.0665306.0414993-.0605218.0300649-.1007008.0360458-.0625996.0145138-.0924902.0115203h-.0935856l-.0917308-.0113161-.0963234-.0247376-.111611-.047092-.0768487-.0461989-.1070171-.0888736-2.24166735-2.2416674c-.29289322-.2928932-.29289322-.7677669 0-1.0606601.26626656-.2662666.68293025-.2904727.97654175-.0726182l.0841184.0726182.9606699.9611041.0006674-6.71099998c0-.34517797.233185-.63589266.5506203-.72320928l.0976091-.0199441z" fill="#212121"/></svg>